M48
; DRILL file {KiCad 9.0.5-9.0.5~ubuntu24.04.1} date 2025-11-04T13:29:56+0000
; FORMAT={-:-/ absolute / metric / decimal}
; #@! TF.CreationDate,2025-11-04T13:29:56+00:00
; #@! TF.GenerationSoftware,Kicad,Pcbnew,9.0.5-9.0.5~ubuntu24.04.1
; #@! TF.FileFunction,Plated,1,2,PTH
FMAT,2
METRIC
; #@! TA.AperFunction,Plated,PTH,ViaDrill
T1C0.150
; #@! TA.AperFunction,Plated,PTH,ComponentDrill
T2C0.200
; #@! TA.AperFunction,Plated,PTH,ComponentDrill
T3C0.500
; #@! TA.AperFunction,Plated,PTH,ComponentDrill
T4C0.600
; #@! TA.AperFunction,Plated,PTH,ComponentDrill
T5C1.000
; #@! TA.AperFunction,Plated,PTH,ComponentDrill
T6C2.500
%
G90
G05
T1
X131.25Y-75.25
X131.25Y-78.75
X131.25Y-88.0
X131.25Y-92.75
X131.25Y-97.25
X131.25Y-100.5
X131.25Y-103.5
X131.25Y-106.75
X131.25Y-109.75
X131.25Y-115.25
X131.25Y-123.75
X131.25Y-128.25
X131.25Y-132.75
X131.25Y-136.5
X131.5Y-142.5
X131.515Y-84.027
X131.515Y-85.852
X132.75Y-91.5
X133.0Y-79.5
X133.0Y-93.75
X133.25Y-92.75
X133.25Y-97.75
X133.5Y-100.25
X133.5Y-121.5
X133.5Y-126.0
X134.0Y-75.25
X134.25Y-136.75
X134.5Y-101.5
X134.877Y-77.25
X134.927Y-94.44
X135.25Y-92.75
X135.25Y-109.25
X135.25Y-115.25
X135.315Y-96.44
X135.5Y-119.034
X136.0Y-75.25
X136.0Y-90.25
X136.0Y-91.75
X136.0Y-95.244
X136.0Y-97.75
X136.0Y-129.5
X136.583Y-119.833
X137.5Y-133.25
X137.75Y-142.75
X137.981Y-99.58
X138.0Y-123.5
X138.11Y-101.38
X138.13Y-100.521
X138.25Y-104.087
X138.25Y-105.912
X138.5Y-129.5
X138.6Y-97.775
X139.0Y-80.25
X139.0Y-81.25
X139.0Y-112.751
X139.4Y-90.0
X139.4Y-120.8
X139.5Y-75.25
X139.75Y-104.087
X139.75Y-105.912
X139.8Y-122.0
X140.0Y-91.75
X140.25Y-99.0
X140.5Y-79.0
X140.5Y-82.0
X140.5Y-121.25
X140.6Y-126.6
X140.75Y-134.25
X141.25Y-75.25
X141.5Y-109.862
X141.5Y-114.75
X141.75Y-96.25
X141.8Y-97.7
X142.3Y-99.066
X142.4Y-101.4
X142.5Y-116.5
X142.6Y-125.0
X142.8Y-100.4
X143.0Y-75.25
X143.126Y-96.624
X143.231Y-133.519
X143.4Y-99.65
X143.5Y-127.25
X143.6Y-125.6
X143.75Y-103.25
X143.75Y-129.5
X143.75Y-138.75
X143.88Y-95.651
X143.887Y-101.0
X144.0Y-116.0
X144.25Y-109.25
X144.75Y-75.25
X145.0Y-88.25
X145.0Y-98.25
X145.0Y-106.5
X145.0Y-140.5
X145.25Y-130.0
X145.4Y-92.4
X145.625Y-100.875
X145.63Y-95.4
X145.75Y-79.0
X145.75Y-142.75
X145.8Y-89.4
X146.0Y-111.0
X146.0Y-116.0
X146.0Y-131.75
X146.5Y-75.25
X146.75Y-130.0
X146.75Y-138.75
X146.942Y-96.262
X147.25Y-97.0
X147.4Y-121.8
X147.5Y-107.5
X147.8Y-125.8
X148.0Y-135.2
X148.091Y-98.091
X148.25Y-75.25
X148.4Y-121.6
X148.75Y-96.4
X149.0Y-91.0
X149.5Y-114.457
X149.75Y-98.5
X150.0Y-75.25
X150.0Y-78.75
X150.0Y-84.0
X150.0Y-101.5
X150.0Y-129.5
X150.0Y-133.5
X150.0Y-135.2
X150.2Y-96.8
X150.25Y-88.25
X150.5Y-121.0
X151.0Y-115.75
X151.5Y-107.25
X151.5Y-109.5
X151.6Y-114.457
X151.75Y-75.25
X153.0Y-134.25
X153.2Y-95.6
X153.5Y-75.25
X154.0Y-142.75
X154.25Y-95.75
X154.75Y-100.75
X154.75Y-106.75
X155.0Y-135.75
X155.25Y-125.75
X155.895Y-111.0
X156.25Y-128.0
X156.5Y-92.94
X156.75Y-75.25
X156.75Y-79.0
X156.75Y-87.5
X157.015Y-83.94
X157.015Y-85.19
X157.5Y-88.5
X157.5Y-92.0
X157.75Y-105.8
X157.75Y-111.0
X157.75Y-122.0
X157.765Y-90.19
X160.765Y-89.75
X161.0Y-142.5
X161.015Y-87.94
X161.25Y-75.25
X161.25Y-79.0
X161.25Y-82.0
X161.25Y-92.25
X161.25Y-106.0
X161.25Y-110.5
X161.25Y-115.75
X161.25Y-123.25
X161.25Y-130.0
X161.25Y-137.0
X161.5Y-101.25
T2
X143.365Y-83.26
X143.365Y-84.66
X144.065Y-82.56
X144.065Y-83.96
X144.065Y-85.36
X144.765Y-83.26
X144.765Y-84.66
X145.465Y-82.56
X145.465Y-83.96
X145.465Y-85.36
X146.165Y-83.26
X146.165Y-84.66
X152.72Y-112.622
X152.72Y-113.822
X152.72Y-115.022
X154.12Y-112.622
X154.12Y-113.822
X154.12Y-115.022
T3
X131.625Y-140.5
X132.174Y-139.174
X132.174Y-141.826
X133.5Y-138.625
X133.5Y-142.375
X134.826Y-139.174
X134.826Y-141.826
X135.375Y-140.5
X157.125Y-96.2
X157.125Y-140.5
X157.674Y-94.874
X157.674Y-97.526
X157.674Y-139.174
X157.674Y-141.826
X159.0Y-94.325
X159.0Y-98.075
X159.0Y-138.625
X159.0Y-142.375
X160.326Y-94.874
X160.326Y-97.526
X160.326Y-139.174
X160.326Y-141.826
X160.875Y-96.2
X160.875Y-140.5
T5
X152.015Y-102.675
X152.015Y-105.215
T6
X133.5Y-140.5
X159.0Y-96.2
X159.0Y-140.5
T4
G00X132.825Y-108.18
M15
G01X132.025Y-108.18
M16
G05
G00X132.825Y-116.82
M15
G01X132.025Y-116.82
M16
G05
G00X137.155Y-108.18
M15
G01X136.055Y-108.18
M16
G05
G00X137.155Y-116.82
M15
G01X136.055Y-116.82
M16
G05
M30
