G04 #@! TF.GenerationSoftware,KiCad,Pcbnew,9.0.5-9.0.5~ubuntu24.04.1*
G04 #@! TF.CreationDate,2025-11-04T13:29:56+00:00*
G04 #@! TF.ProjectId,mcu_board,6d63755f-626f-4617-9264-2e6b69636164,rev?*
G04 #@! TF.SameCoordinates,Original*
G04 #@! TF.FileFunction,Legend,Bot*
G04 #@! TF.FilePolarity,Positive*
%FSLAX46Y46*%
G04 Gerber Fmt 4.6, Leading zero omitted, Abs format (unit mm)*
G04 Created by KiCad (PCBNEW 9.0.5-9.0.5~ubuntu24.04.1) date 2025-11-04 13:29:56*
%MOMM*%
%LPD*%
G01*
G04 APERTURE LIST*
G04 Aperture macros list*
%AMRoundRect*
0 Rectangle with rounded corners*
0 $1 Rounding radius*
0 $2 $3 $4 $5 $6 $7 $8 $9 X,Y pos of 4 corners*
0 Add a 4 corners polygon primitive as box body*
4,1,4,$2,$3,$4,$5,$6,$7,$8,$9,$2,$3,0*
0 Add four circle primitives for the rounded corners*
1,1,$1+$1,$2,$3*
1,1,$1+$1,$4,$5*
1,1,$1+$1,$6,$7*
1,1,$1+$1,$8,$9*
0 Add four rect primitives between the rounded corners*
20,1,$1+$1,$2,$3,$4,$5,0*
20,1,$1+$1,$4,$5,$6,$7,0*
20,1,$1+$1,$6,$7,$8,$9,0*
20,1,$1+$1,$8,$9,$2,$3,0*%
%AMFreePoly0*
4,1,13,0.595671,0.730970,0.676777,0.676777,0.730970,0.595671,0.750000,0.500000,0.750000,-0.500000,0.730970,-0.595671,0.676777,-0.676777,0.595671,-0.730970,0.500000,-0.750000,-0.750000,-0.750000,-0.750000,0.750000,0.500000,0.750000,0.595671,0.730970,0.595671,0.730970,$1*%
%AMFreePoly1*
4,1,13,0.750000,-0.525000,0.732873,-0.611104,0.684099,-0.684099,0.611104,-0.732873,0.525000,-0.750000,-0.525000,-0.750000,-0.611104,-0.732873,-0.684099,-0.684099,-0.732873,-0.611104,-0.750000,-0.525000,-0.750000,0.750000,0.750000,0.750000,0.750000,-0.525000,0.750000,-0.525000,$1*%
%AMFreePoly2*
4,1,25,0.750000,0.150000,1.180000,0.150000,1.209264,0.147118,1.263336,0.124720,1.304720,0.083336,1.327118,0.029264,1.327118,-0.029264,1.304720,-0.083336,1.263336,-0.124720,1.209264,-0.147118,1.180000,-0.150000,0.750000,-0.150000,0.750000,-0.750000,-0.525000,-0.750000,-0.611104,-0.732873,-0.684099,-0.684099,-0.732873,-0.611104,-0.750000,-0.525000,-0.750000,0.525000,-0.732873,0.611104,
-0.684099,0.684099,-0.611104,0.732873,-0.525000,0.750000,0.750000,0.750000,0.750000,0.150000,0.750000,0.150000,$1*%
%AMFreePoly3*
4,1,23,0.500000,-0.750000,0.000000,-0.750000,0.000000,-0.745722,-0.065263,-0.745722,-0.191342,-0.711940,-0.304381,-0.646677,-0.396677,-0.554381,-0.461940,-0.441342,-0.495722,-0.315263,-0.495722,-0.250000,-0.500000,-0.250000,-0.500000,0.250000,-0.495722,0.250000,-0.495722,0.315263,-0.461940,0.441342,-0.396677,0.554381,-0.304381,0.646677,-0.191342,0.711940,-0.065263,0.745722,0.000000,0.745722,
0.000000,0.750000,0.500000,0.750000,0.500000,-0.750000,0.500000,-0.750000,$1*%
%AMFreePoly4*
4,1,23,0.000000,0.745722,0.065263,0.745722,0.191342,0.711940,0.304381,0.646677,0.396677,0.554381,0.461940,0.441342,0.495722,0.315263,0.495722,0.250000,0.500000,0.250000,0.500000,-0.250000,0.495722,-0.250000,0.495722,-0.315263,0.461940,-0.441342,0.396677,-0.554381,0.304381,-0.646677,0.191342,-0.711940,0.065263,-0.745722,0.000000,-0.745722,0.000000,-0.750000,-0.500000,-0.750000,
-0.500000,0.750000,0.000000,0.750000,0.000000,0.745722,0.000000,0.745722,$1*%
%AMFreePoly5*
4,1,23,0.550000,-0.750000,0.000000,-0.750000,0.000000,-0.745722,-0.065263,-0.745722,-0.191342,-0.711940,-0.304381,-0.646677,-0.396677,-0.554381,-0.461940,-0.441342,-0.495722,-0.315263,-0.495722,-0.250000,-0.500000,-0.250000,-0.500000,0.250000,-0.495722,0.250000,-0.495722,0.315263,-0.461940,0.441342,-0.396677,0.554381,-0.304381,0.646677,-0.191342,0.711940,-0.065263,0.745722,0.000000,0.745722,
0.000000,0.750000,0.550000,0.750000,0.550000,-0.750000,0.550000,-0.750000,$1*%
%AMFreePoly6*
4,1,23,0.000000,0.745722,0.065263,0.745722,0.191342,0.711940,0.304381,0.646677,0.396677,0.554381,0.461940,0.441342,0.495722,0.315263,0.495722,0.250000,0.500000,0.250000,0.500000,-0.250000,0.495722,-0.250000,0.495722,-0.315263,0.461940,-0.441342,0.396677,-0.554381,0.304381,-0.646677,0.191342,-0.711940,0.065263,-0.745722,0.000000,-0.745722,0.000000,-0.750000,-0.550000,-0.750000,
-0.550000,0.750000,0.000000,0.750000,0.000000,0.745722,0.000000,0.745722,$1*%
G04 Aperture macros list end*
%ADD10C,0.150000*%
%ADD11C,0.250000*%
%ADD12C,0.200000*%
%ADD13C,0.000000*%
%ADD14C,0.120000*%
%ADD15RoundRect,0.237500X-0.250000X-0.237500X0.250000X-0.237500X0.250000X0.237500X-0.250000X0.237500X0*%
%ADD16C,0.990600*%
%ADD17C,0.800000*%
%ADD18C,5.000000*%
%ADD19R,1.700000X1.700000*%
%ADD20C,1.700000*%
%ADD21C,0.650000*%
%ADD22O,2.100000X1.000000*%
%ADD23O,1.800000X1.000000*%
%ADD24RoundRect,0.250000X-0.400000X-0.700000X0.400000X-0.700000X0.400000X0.700000X-0.400000X0.700000X0*%
%ADD25R,1.500000X1.500000*%
%ADD26FreePoly0,90.000000*%
%ADD27FreePoly1,90.000000*%
%ADD28FreePoly2,90.000000*%
%ADD29FreePoly3,270.000000*%
%ADD30FreePoly4,270.000000*%
%ADD31FreePoly5,180.000000*%
%ADD32R,1.000000X1.500000*%
%ADD33FreePoly6,180.000000*%
%ADD34RoundRect,0.237500X0.237500X-0.250000X0.237500X0.250000X-0.237500X0.250000X-0.237500X-0.250000X0*%
%ADD35FreePoly5,0.000000*%
%ADD36FreePoly6,0.000000*%
%ADD37FreePoly5,270.000000*%
%ADD38R,1.500000X1.000000*%
%ADD39FreePoly6,270.000000*%
G04 APERTURE END LIST*
D10*
X148663220Y-139819819D02*
X148663220Y-138819819D01*
X148663220Y-138819819D02*
X148425125Y-138819819D01*
X148425125Y-138819819D02*
X148282268Y-138867438D01*
X148282268Y-138867438D02*
X148187030Y-138962676D01*
X148187030Y-138962676D02*
X148139411Y-139057914D01*
X148139411Y-139057914D02*
X148091792Y-139248390D01*
X148091792Y-139248390D02*
X148091792Y-139391247D01*
X148091792Y-139391247D02*
X148139411Y-139581723D01*
X148139411Y-139581723D02*
X148187030Y-139676961D01*
X148187030Y-139676961D02*
X148282268Y-139772200D01*
X148282268Y-139772200D02*
X148425125Y-139819819D01*
X148425125Y-139819819D02*
X148663220Y-139819819D01*
X147663220Y-139724580D02*
X147615601Y-139772200D01*
X147615601Y-139772200D02*
X147663220Y-139819819D01*
X147663220Y-139819819D02*
X147710839Y-139772200D01*
X147710839Y-139772200D02*
X147663220Y-139724580D01*
X147663220Y-139724580D02*
X147663220Y-139819819D01*
X146425125Y-139819819D02*
X146425125Y-138819819D01*
X146425125Y-138819819D02*
X146044173Y-138819819D01*
X146044173Y-138819819D02*
X145948935Y-138867438D01*
X145948935Y-138867438D02*
X145901316Y-138915057D01*
X145901316Y-138915057D02*
X145853697Y-139010295D01*
X145853697Y-139010295D02*
X145853697Y-139153152D01*
X145853697Y-139153152D02*
X145901316Y-139248390D01*
X145901316Y-139248390D02*
X145948935Y-139296009D01*
X145948935Y-139296009D02*
X146044173Y-139343628D01*
X146044173Y-139343628D02*
X146425125Y-139343628D01*
X145282268Y-139819819D02*
X145377506Y-139772200D01*
X145377506Y-139772200D02*
X145425125Y-139724580D01*
X145425125Y-139724580D02*
X145472744Y-139629342D01*
X145472744Y-139629342D02*
X145472744Y-139343628D01*
X145472744Y-139343628D02*
X145425125Y-139248390D01*
X145425125Y-139248390D02*
X145377506Y-139200771D01*
X145377506Y-139200771D02*
X145282268Y-139153152D01*
X145282268Y-139153152D02*
X145139411Y-139153152D01*
X145139411Y-139153152D02*
X145044173Y-139200771D01*
X145044173Y-139200771D02*
X144996554Y-139248390D01*
X144996554Y-139248390D02*
X144948935Y-139343628D01*
X144948935Y-139343628D02*
X144948935Y-139629342D01*
X144948935Y-139629342D02*
X144996554Y-139724580D01*
X144996554Y-139724580D02*
X145044173Y-139772200D01*
X145044173Y-139772200D02*
X145139411Y-139819819D01*
X145139411Y-139819819D02*
X145282268Y-139819819D01*
X144615601Y-139153152D02*
X144425125Y-139819819D01*
X144425125Y-139819819D02*
X144234649Y-139343628D01*
X144234649Y-139343628D02*
X144044173Y-139819819D01*
X144044173Y-139819819D02*
X143853697Y-139153152D01*
X143091792Y-139772200D02*
X143187030Y-139819819D01*
X143187030Y-139819819D02*
X143377506Y-139819819D01*
X143377506Y-139819819D02*
X143472744Y-139772200D01*
X143472744Y-139772200D02*
X143520363Y-139676961D01*
X143520363Y-139676961D02*
X143520363Y-139296009D01*
X143520363Y-139296009D02*
X143472744Y-139200771D01*
X143472744Y-139200771D02*
X143377506Y-139153152D01*
X143377506Y-139153152D02*
X143187030Y-139153152D01*
X143187030Y-139153152D02*
X143091792Y-139200771D01*
X143091792Y-139200771D02*
X143044173Y-139296009D01*
X143044173Y-139296009D02*
X143044173Y-139391247D01*
X143044173Y-139391247D02*
X143520363Y-139486485D01*
X142472744Y-139819819D02*
X142567982Y-139772200D01*
X142567982Y-139772200D02*
X142615601Y-139676961D01*
X142615601Y-139676961D02*
X142615601Y-138819819D01*
X141948934Y-139819819D02*
X142044172Y-139772200D01*
X142044172Y-139772200D02*
X142091791Y-139676961D01*
X142091791Y-139676961D02*
X142091791Y-138819819D01*
X144360588Y-140915057D02*
X144312969Y-140867438D01*
X144312969Y-140867438D02*
X144217731Y-140819819D01*
X144217731Y-140819819D02*
X143979636Y-140819819D01*
X143979636Y-140819819D02*
X143884398Y-140867438D01*
X143884398Y-140867438D02*
X143836779Y-140915057D01*
X143836779Y-140915057D02*
X143789160Y-141010295D01*
X143789160Y-141010295D02*
X143789160Y-141105533D01*
X143789160Y-141105533D02*
X143836779Y-141248390D01*
X143836779Y-141248390D02*
X144408207Y-141819819D01*
X144408207Y-141819819D02*
X143789160Y-141819819D01*
X143170112Y-140819819D02*
X143074874Y-140819819D01*
X143074874Y-140819819D02*
X142979636Y-140867438D01*
X142979636Y-140867438D02*
X142932017Y-140915057D01*
X142932017Y-140915057D02*
X142884398Y-141010295D01*
X142884398Y-141010295D02*
X142836779Y-141200771D01*
X142836779Y-141200771D02*
X142836779Y-141438866D01*
X142836779Y-141438866D02*
X142884398Y-141629342D01*
X142884398Y-141629342D02*
X142932017Y-141724580D01*
X142932017Y-141724580D02*
X142979636Y-141772200D01*
X142979636Y-141772200D02*
X143074874Y-141819819D01*
X143074874Y-141819819D02*
X143170112Y-141819819D01*
X143170112Y-141819819D02*
X143265350Y-141772200D01*
X143265350Y-141772200D02*
X143312969Y-141724580D01*
X143312969Y-141724580D02*
X143360588Y-141629342D01*
X143360588Y-141629342D02*
X143408207Y-141438866D01*
X143408207Y-141438866D02*
X143408207Y-141200771D01*
X143408207Y-141200771D02*
X143360588Y-141010295D01*
X143360588Y-141010295D02*
X143312969Y-140915057D01*
X143312969Y-140915057D02*
X143265350Y-140867438D01*
X143265350Y-140867438D02*
X143170112Y-140819819D01*
X142455826Y-140915057D02*
X142408207Y-140867438D01*
X142408207Y-140867438D02*
X142312969Y-140819819D01*
X142312969Y-140819819D02*
X142074874Y-140819819D01*
X142074874Y-140819819D02*
X141979636Y-140867438D01*
X141979636Y-140867438D02*
X141932017Y-140915057D01*
X141932017Y-140915057D02*
X141884398Y-141010295D01*
X141884398Y-141010295D02*
X141884398Y-141105533D01*
X141884398Y-141105533D02*
X141932017Y-141248390D01*
X141932017Y-141248390D02*
X142503445Y-141819819D01*
X142503445Y-141819819D02*
X141884398Y-141819819D01*
X140979636Y-140819819D02*
X141455826Y-140819819D01*
X141455826Y-140819819D02*
X141503445Y-141296009D01*
X141503445Y-141296009D02*
X141455826Y-141248390D01*
X141455826Y-141248390D02*
X141360588Y-141200771D01*
X141360588Y-141200771D02*
X141122493Y-141200771D01*
X141122493Y-141200771D02*
X141027255Y-141248390D01*
X141027255Y-141248390D02*
X140979636Y-141296009D01*
X140979636Y-141296009D02*
X140932017Y-141391247D01*
X140932017Y-141391247D02*
X140932017Y-141629342D01*
X140932017Y-141629342D02*
X140979636Y-141724580D01*
X140979636Y-141724580D02*
X141027255Y-141772200D01*
X141027255Y-141772200D02*
X141122493Y-141819819D01*
X141122493Y-141819819D02*
X141360588Y-141819819D01*
X141360588Y-141819819D02*
X141455826Y-141772200D01*
X141455826Y-141772200D02*
X141503445Y-141724580D01*
X140503445Y-141438866D02*
X139741541Y-141438866D01*
X138741541Y-141819819D02*
X139312969Y-141819819D01*
X139027255Y-141819819D02*
X139027255Y-140819819D01*
X139027255Y-140819819D02*
X139122493Y-140962676D01*
X139122493Y-140962676D02*
X139217731Y-141057914D01*
X139217731Y-141057914D02*
X139312969Y-141105533D01*
X137789160Y-141819819D02*
X138360588Y-141819819D01*
X138074874Y-141819819D02*
X138074874Y-140819819D01*
X138074874Y-140819819D02*
X138170112Y-140962676D01*
X138170112Y-140962676D02*
X138265350Y-141057914D01*
X138265350Y-141057914D02*
X138360588Y-141105533D01*
X141670113Y-138069819D02*
X142003446Y-137593628D01*
X142241541Y-138069819D02*
X142241541Y-137069819D01*
X142241541Y-137069819D02*
X141860589Y-137069819D01*
X141860589Y-137069819D02*
X141765351Y-137117438D01*
X141765351Y-137117438D02*
X141717732Y-137165057D01*
X141717732Y-137165057D02*
X141670113Y-137260295D01*
X141670113Y-137260295D02*
X141670113Y-137403152D01*
X141670113Y-137403152D02*
X141717732Y-137498390D01*
X141717732Y-137498390D02*
X141765351Y-137546009D01*
X141765351Y-137546009D02*
X141860589Y-137593628D01*
X141860589Y-137593628D02*
X142241541Y-137593628D01*
X141241541Y-137546009D02*
X140908208Y-137546009D01*
X140765351Y-138069819D02*
X141241541Y-138069819D01*
X141241541Y-138069819D02*
X141241541Y-137069819D01*
X141241541Y-137069819D02*
X140765351Y-137069819D01*
X140479636Y-137069819D02*
X140146303Y-138069819D01*
X140146303Y-138069819D02*
X139812970Y-137069819D01*
X138765350Y-137784104D02*
X138289160Y-137784104D01*
X138860588Y-138069819D02*
X138527255Y-137069819D01*
X138527255Y-137069819D02*
X138193922Y-138069819D01*
D11*
X148241131Y-136092238D02*
X148431607Y-135997000D01*
X148431607Y-135997000D02*
X148526845Y-135806523D01*
X148526845Y-135806523D02*
X148526845Y-134092238D01*
X147669702Y-134758904D02*
X147288750Y-136092238D01*
X147288750Y-136092238D02*
X146907797Y-135139857D01*
X146907797Y-135139857D02*
X146526845Y-136092238D01*
X146526845Y-136092238D02*
X146145893Y-134758904D01*
X144431607Y-136092238D02*
X145383988Y-136092238D01*
X145383988Y-136092238D02*
X145383988Y-134092238D01*
X143764940Y-136092238D02*
X143764940Y-134092238D01*
X142812559Y-136092238D02*
X142812559Y-134092238D01*
X142812559Y-134092238D02*
X142336369Y-134092238D01*
X142336369Y-134092238D02*
X142050654Y-134187476D01*
X142050654Y-134187476D02*
X141860178Y-134377952D01*
X141860178Y-134377952D02*
X141764940Y-134568428D01*
X141764940Y-134568428D02*
X141669702Y-134949380D01*
X141669702Y-134949380D02*
X141669702Y-135235095D01*
X141669702Y-135235095D02*
X141764940Y-135616047D01*
X141764940Y-135616047D02*
X141860178Y-135806523D01*
X141860178Y-135806523D02*
X142050654Y-135997000D01*
X142050654Y-135997000D02*
X142336369Y-136092238D01*
X142336369Y-136092238D02*
X142812559Y-136092238D01*
X140907797Y-135520809D02*
X139955416Y-135520809D01*
X141098273Y-136092238D02*
X140431607Y-134092238D01*
X140431607Y-134092238D02*
X139764940Y-136092238D01*
X137955416Y-136092238D02*
X138622083Y-135139857D01*
X139098273Y-136092238D02*
X139098273Y-134092238D01*
X139098273Y-134092238D02*
X138336368Y-134092238D01*
X138336368Y-134092238D02*
X138145892Y-134187476D01*
X138145892Y-134187476D02*
X138050654Y-134282714D01*
X138050654Y-134282714D02*
X137955416Y-134473190D01*
X137955416Y-134473190D02*
X137955416Y-134758904D01*
X137955416Y-134758904D02*
X138050654Y-134949380D01*
X138050654Y-134949380D02*
X138145892Y-135044619D01*
X138145892Y-135044619D02*
X138336368Y-135139857D01*
X138336368Y-135139857D02*
X139098273Y-135139857D01*
D12*
G36*
X135767219Y-100667018D02*
G01*
X135737414Y-100726627D01*
X135712746Y-100751294D01*
X135653135Y-100781101D01*
X135557492Y-100781101D01*
X135497882Y-100751296D01*
X135478430Y-100731844D01*
X135443409Y-100626779D01*
X135443409Y-100409673D01*
X135767219Y-100409673D01*
X135767219Y-100667018D01*
G37*
G36*
X135243409Y-100619399D02*
G01*
X135213604Y-100679008D01*
X135188935Y-100703676D01*
X135129326Y-100733482D01*
X135081302Y-100733482D01*
X135021692Y-100703677D01*
X134997024Y-100679008D01*
X134967219Y-100619398D01*
X134967219Y-100409673D01*
X135243409Y-100409673D01*
X135243409Y-100619399D01*
G37*
G36*
X136078330Y-101092212D02*
G01*
X134656108Y-101092212D01*
X134656108Y-100309673D01*
X134767219Y-100309673D01*
X134767219Y-100643006D01*
X134769140Y-100662515D01*
X134770515Y-100665835D01*
X134770770Y-100669419D01*
X134777776Y-100687727D01*
X134825395Y-100782965D01*
X134830680Y-100791361D01*
X134831691Y-100793801D01*
X134833944Y-100796547D01*
X134835838Y-100799555D01*
X134837832Y-100801284D01*
X134844127Y-100808955D01*
X134891746Y-100856573D01*
X134899412Y-100862865D01*
X134901145Y-100864863D01*
X134904153Y-100866756D01*
X134906899Y-100869010D01*
X134909339Y-100870020D01*
X134917736Y-100875306D01*
X135012973Y-100922925D01*
X135031282Y-100929931D01*
X135034865Y-100930185D01*
X135038186Y-100931561D01*
X135057695Y-100933482D01*
X135152933Y-100933482D01*
X135172442Y-100931561D01*
X135175762Y-100930185D01*
X135179346Y-100929931D01*
X135197654Y-100922925D01*
X135292892Y-100875306D01*
X135301288Y-100870020D01*
X135303728Y-100869010D01*
X135306474Y-100866756D01*
X135309482Y-100864863D01*
X135311211Y-100862868D01*
X135318882Y-100856574D01*
X135319670Y-100855785D01*
X135320317Y-100856574D01*
X135367936Y-100904192D01*
X135375602Y-100910484D01*
X135377335Y-100912482D01*
X135380343Y-100914375D01*
X135383089Y-100916629D01*
X135385529Y-100917639D01*
X135393926Y-100922925D01*
X135489163Y-100970544D01*
X135507472Y-100977550D01*
X135511055Y-100977804D01*
X135514376Y-100979180D01*
X135533885Y-100981101D01*
X135676742Y-100981101D01*
X135696251Y-100979180D01*
X135699571Y-100977804D01*
X135703155Y-100977550D01*
X135721463Y-100970544D01*
X135816701Y-100922925D01*
X135825093Y-100917641D01*
X135827537Y-100916630D01*
X135830286Y-100914373D01*
X135833291Y-100912482D01*
X135835020Y-100910487D01*
X135842690Y-100904193D01*
X135890310Y-100856575D01*
X135896603Y-100848906D01*
X135898600Y-100847175D01*
X135900493Y-100844166D01*
X135902747Y-100841421D01*
X135903757Y-100838980D01*
X135909043Y-100830584D01*
X135956662Y-100735347D01*
X135963668Y-100717038D01*
X135963922Y-100713454D01*
X135965298Y-100710134D01*
X135967219Y-100690625D01*
X135967219Y-100309673D01*
X135965298Y-100290164D01*
X135950366Y-100254116D01*
X135922776Y-100226526D01*
X135886728Y-100211594D01*
X135867219Y-100209673D01*
X134867219Y-100209673D01*
X134847710Y-100211594D01*
X134811662Y-100226526D01*
X134784072Y-100254116D01*
X134769140Y-100290164D01*
X134767219Y-100309673D01*
X134656108Y-100309673D01*
X134656108Y-99500149D01*
X134767219Y-99500149D01*
X134767219Y-99738244D01*
X134768191Y-99748117D01*
X134768004Y-99750751D01*
X134768791Y-99754214D01*
X134769140Y-99757753D01*
X134770151Y-99760195D01*
X134772351Y-99769867D01*
X134819970Y-99912723D01*
X134827961Y-99930624D01*
X134853526Y-99960100D01*
X134888425Y-99977549D01*
X134927345Y-99980316D01*
X134964361Y-99967977D01*
X134993837Y-99942412D01*
X135011287Y-99907513D01*
X135014053Y-99868593D01*
X135009706Y-99849478D01*
X134967219Y-99722017D01*
X134967219Y-99523756D01*
X134997024Y-99464146D01*
X135021692Y-99439477D01*
X135081302Y-99409673D01*
X135129326Y-99409673D01*
X135188935Y-99439478D01*
X135213604Y-99464146D01*
X135249057Y-99535053D01*
X135294014Y-99714878D01*
X135294527Y-99716315D01*
X135294579Y-99717038D01*
X135297687Y-99725162D01*
X135300609Y-99733339D01*
X135301039Y-99733919D01*
X135301585Y-99735346D01*
X135349204Y-99830584D01*
X135354489Y-99838980D01*
X135355500Y-99841420D01*
X135357753Y-99844166D01*
X135359647Y-99847174D01*
X135361641Y-99848903D01*
X135367936Y-99856574D01*
X135415555Y-99904192D01*
X135423221Y-99910484D01*
X135424954Y-99912482D01*
X135427962Y-99914375D01*
X135430708Y-99916629D01*
X135433148Y-99917639D01*
X135441545Y-99922925D01*
X135536782Y-99970544D01*
X135555091Y-99977550D01*
X135558674Y-99977804D01*
X135561995Y-99979180D01*
X135581504Y-99981101D01*
X135676742Y-99981101D01*
X135696251Y-99979180D01*
X135699571Y-99977804D01*
X135703155Y-99977550D01*
X135721463Y-99970544D01*
X135816701Y-99922925D01*
X135825093Y-99917641D01*
X135827537Y-99916630D01*
X135830286Y-99914373D01*
X135833291Y-99912482D01*
X135835020Y-99910487D01*
X135842690Y-99904193D01*
X135890310Y-99856575D01*
X135896603Y-99848906D01*
X135898600Y-99847175D01*
X135900493Y-99844166D01*
X135902747Y-99841421D01*
X135903757Y-99838980D01*
X135909043Y-99830584D01*
X135956662Y-99735347D01*
X135963668Y-99717038D01*
X135963922Y-99713454D01*
X135965298Y-99710134D01*
X135967219Y-99690625D01*
X135967219Y-99452530D01*
X135966246Y-99442656D01*
X135966434Y-99440022D01*
X135965646Y-99436558D01*
X135965298Y-99433021D01*
X135964286Y-99430579D01*
X135962087Y-99420907D01*
X135914468Y-99278050D01*
X135906477Y-99260150D01*
X135880912Y-99230674D01*
X135846013Y-99213224D01*
X135807093Y-99210458D01*
X135770077Y-99222796D01*
X135740601Y-99248361D01*
X135723151Y-99283260D01*
X135720385Y-99322180D01*
X135724732Y-99341296D01*
X135767219Y-99468756D01*
X135767219Y-99667018D01*
X135737414Y-99726627D01*
X135712746Y-99751294D01*
X135653135Y-99781101D01*
X135605111Y-99781101D01*
X135545501Y-99751296D01*
X135520833Y-99726627D01*
X135485379Y-99655720D01*
X135440423Y-99475895D01*
X135439909Y-99474456D01*
X135439858Y-99473736D01*
X135436749Y-99465611D01*
X135433828Y-99457435D01*
X135433398Y-99456855D01*
X135432852Y-99455427D01*
X135385233Y-99360190D01*
X135379947Y-99351793D01*
X135378937Y-99349353D01*
X135376683Y-99346607D01*
X135374790Y-99343599D01*
X135372792Y-99341866D01*
X135366500Y-99334200D01*
X135318882Y-99286581D01*
X135311211Y-99280286D01*
X135309482Y-99278292D01*
X135306474Y-99276398D01*
X135303728Y-99274145D01*
X135301288Y-99273134D01*
X135292892Y-99267849D01*
X135197654Y-99220230D01*
X135179346Y-99213224D01*
X135175762Y-99212969D01*
X135172442Y-99211594D01*
X135152933Y-99209673D01*
X135057695Y-99209673D01*
X135038186Y-99211594D01*
X135034865Y-99212969D01*
X135031282Y-99213224D01*
X135012973Y-99220230D01*
X134917736Y-99267849D01*
X134909339Y-99273134D01*
X134906899Y-99274145D01*
X134904153Y-99276398D01*
X134901145Y-99278292D01*
X134899412Y-99280289D01*
X134891746Y-99286582D01*
X134844127Y-99334200D01*
X134837832Y-99341870D01*
X134835838Y-99343600D01*
X134833944Y-99346607D01*
X134831691Y-99349354D01*
X134830680Y-99351793D01*
X134825395Y-99360190D01*
X134777776Y-99455428D01*
X134770770Y-99473736D01*
X134770515Y-99477319D01*
X134769140Y-99480640D01*
X134767219Y-99500149D01*
X134656108Y-99500149D01*
X134656108Y-98290164D01*
X134769140Y-98290164D01*
X134769140Y-98329182D01*
X134784072Y-98365230D01*
X134811662Y-98392820D01*
X134847710Y-98407752D01*
X134867219Y-98409673D01*
X135653135Y-98409673D01*
X135712746Y-98439479D01*
X135737414Y-98464146D01*
X135767219Y-98523756D01*
X135767219Y-98667018D01*
X135737414Y-98726627D01*
X135712746Y-98751294D01*
X135653135Y-98781101D01*
X134867219Y-98781101D01*
X134847710Y-98783022D01*
X134811662Y-98797954D01*
X134784072Y-98825544D01*
X134769140Y-98861592D01*
X134769140Y-98900610D01*
X134784072Y-98936658D01*
X134811662Y-98964248D01*
X134847710Y-98979180D01*
X134867219Y-98981101D01*
X135676742Y-98981101D01*
X135696251Y-98979180D01*
X135699571Y-98977804D01*
X135703155Y-98977550D01*
X135721463Y-98970544D01*
X135816701Y-98922925D01*
X135825093Y-98917641D01*
X135827537Y-98916630D01*
X135830286Y-98914373D01*
X135833291Y-98912482D01*
X135835020Y-98910487D01*
X135842690Y-98904193D01*
X135890310Y-98856575D01*
X135896603Y-98848906D01*
X135898600Y-98847175D01*
X135900493Y-98844166D01*
X135902747Y-98841421D01*
X135903757Y-98838980D01*
X135909043Y-98830584D01*
X135956662Y-98735347D01*
X135963668Y-98717038D01*
X135963922Y-98713454D01*
X135965298Y-98710134D01*
X135967219Y-98690625D01*
X135967219Y-98500149D01*
X135965298Y-98480640D01*
X135963922Y-98477319D01*
X135963668Y-98473736D01*
X135956662Y-98455427D01*
X135909043Y-98360190D01*
X135903757Y-98351793D01*
X135902747Y-98349353D01*
X135900493Y-98346607D01*
X135898600Y-98343599D01*
X135896603Y-98341867D01*
X135890310Y-98334199D01*
X135842690Y-98286581D01*
X135835020Y-98280286D01*
X135833291Y-98278292D01*
X135830286Y-98276400D01*
X135827537Y-98274144D01*
X135825093Y-98273132D01*
X135816701Y-98267849D01*
X135721463Y-98220230D01*
X135703155Y-98213224D01*
X135699571Y-98212969D01*
X135696251Y-98211594D01*
X135676742Y-98209673D01*
X134867219Y-98209673D01*
X134847710Y-98211594D01*
X134811662Y-98226526D01*
X134784072Y-98254116D01*
X134769140Y-98290164D01*
X134656108Y-98290164D01*
X134656108Y-98098562D01*
X136078330Y-98098562D01*
X136078330Y-101092212D01*
G37*
X155897331Y-88500000D02*
X154897331Y-88500000D01*
X154897331Y-88500000D02*
X154897331Y-88738095D01*
X154897331Y-88738095D02*
X154944950Y-88880952D01*
X154944950Y-88880952D02*
X155040188Y-88976190D01*
X155040188Y-88976190D02*
X155135426Y-89023809D01*
X155135426Y-89023809D02*
X155325902Y-89071428D01*
X155325902Y-89071428D02*
X155468759Y-89071428D01*
X155468759Y-89071428D02*
X155659235Y-89023809D01*
X155659235Y-89023809D02*
X155754473Y-88976190D01*
X155754473Y-88976190D02*
X155849712Y-88880952D01*
X155849712Y-88880952D02*
X155897331Y-88738095D01*
X155897331Y-88738095D02*
X155897331Y-88500000D01*
X155897331Y-89500000D02*
X155230664Y-89500000D01*
X154897331Y-89500000D02*
X154944950Y-89452381D01*
X154944950Y-89452381D02*
X154992569Y-89500000D01*
X154992569Y-89500000D02*
X154944950Y-89547619D01*
X154944950Y-89547619D02*
X154897331Y-89500000D01*
X154897331Y-89500000D02*
X154992569Y-89500000D01*
X155849712Y-89928571D02*
X155897331Y-90023809D01*
X155897331Y-90023809D02*
X155897331Y-90214285D01*
X155897331Y-90214285D02*
X155849712Y-90309523D01*
X155849712Y-90309523D02*
X155754473Y-90357142D01*
X155754473Y-90357142D02*
X155706854Y-90357142D01*
X155706854Y-90357142D02*
X155611616Y-90309523D01*
X155611616Y-90309523D02*
X155563997Y-90214285D01*
X155563997Y-90214285D02*
X155563997Y-90071428D01*
X155563997Y-90071428D02*
X155516378Y-89976190D01*
X155516378Y-89976190D02*
X155421140Y-89928571D01*
X155421140Y-89928571D02*
X155373521Y-89928571D01*
X155373521Y-89928571D02*
X155278283Y-89976190D01*
X155278283Y-89976190D02*
X155230664Y-90071428D01*
X155230664Y-90071428D02*
X155230664Y-90214285D01*
X155230664Y-90214285D02*
X155278283Y-90309523D01*
X155897331Y-91214285D02*
X155373521Y-91214285D01*
X155373521Y-91214285D02*
X155278283Y-91166666D01*
X155278283Y-91166666D02*
X155230664Y-91071428D01*
X155230664Y-91071428D02*
X155230664Y-90880952D01*
X155230664Y-90880952D02*
X155278283Y-90785714D01*
X155849712Y-91214285D02*
X155897331Y-91119047D01*
X155897331Y-91119047D02*
X155897331Y-90880952D01*
X155897331Y-90880952D02*
X155849712Y-90785714D01*
X155849712Y-90785714D02*
X155754473Y-90738095D01*
X155754473Y-90738095D02*
X155659235Y-90738095D01*
X155659235Y-90738095D02*
X155563997Y-90785714D01*
X155563997Y-90785714D02*
X155516378Y-90880952D01*
X155516378Y-90880952D02*
X155516378Y-91119047D01*
X155516378Y-91119047D02*
X155468759Y-91214285D01*
X155897331Y-91690476D02*
X154897331Y-91690476D01*
X155278283Y-91690476D02*
X155230664Y-91785714D01*
X155230664Y-91785714D02*
X155230664Y-91976190D01*
X155230664Y-91976190D02*
X155278283Y-92071428D01*
X155278283Y-92071428D02*
X155325902Y-92119047D01*
X155325902Y-92119047D02*
X155421140Y-92166666D01*
X155421140Y-92166666D02*
X155706854Y-92166666D01*
X155706854Y-92166666D02*
X155802092Y-92119047D01*
X155802092Y-92119047D02*
X155849712Y-92071428D01*
X155849712Y-92071428D02*
X155897331Y-91976190D01*
X155897331Y-91976190D02*
X155897331Y-91785714D01*
X155897331Y-91785714D02*
X155849712Y-91690476D01*
X155897331Y-92738095D02*
X155849712Y-92642857D01*
X155849712Y-92642857D02*
X155754473Y-92595238D01*
X155754473Y-92595238D02*
X154897331Y-92595238D01*
X155849712Y-93500000D02*
X155897331Y-93404762D01*
X155897331Y-93404762D02*
X155897331Y-93214286D01*
X155897331Y-93214286D02*
X155849712Y-93119048D01*
X155849712Y-93119048D02*
X155754473Y-93071429D01*
X155754473Y-93071429D02*
X155373521Y-93071429D01*
X155373521Y-93071429D02*
X155278283Y-93119048D01*
X155278283Y-93119048D02*
X155230664Y-93214286D01*
X155230664Y-93214286D02*
X155230664Y-93404762D01*
X155230664Y-93404762D02*
X155278283Y-93500000D01*
X155278283Y-93500000D02*
X155373521Y-93547619D01*
X155373521Y-93547619D02*
X155468759Y-93547619D01*
X155468759Y-93547619D02*
X155563997Y-93071429D01*
X156507275Y-89833333D02*
X157221560Y-89833333D01*
X157221560Y-89833333D02*
X157364417Y-89785714D01*
X157364417Y-89785714D02*
X157459656Y-89690476D01*
X157459656Y-89690476D02*
X157507275Y-89547619D01*
X157507275Y-89547619D02*
X157507275Y-89452381D01*
X156507275Y-90166667D02*
X156507275Y-90738095D01*
X157507275Y-90452381D02*
X156507275Y-90452381D01*
X157221560Y-91023810D02*
X157221560Y-91500000D01*
X157507275Y-90928572D02*
X156507275Y-91261905D01*
X156507275Y-91261905D02*
X157507275Y-91595238D01*
X156554894Y-92452381D02*
X156507275Y-92357143D01*
X156507275Y-92357143D02*
X156507275Y-92214286D01*
X156507275Y-92214286D02*
X156554894Y-92071429D01*
X156554894Y-92071429D02*
X156650132Y-91976191D01*
X156650132Y-91976191D02*
X156745370Y-91928572D01*
X156745370Y-91928572D02*
X156935846Y-91880953D01*
X156935846Y-91880953D02*
X157078703Y-91880953D01*
X157078703Y-91880953D02*
X157269179Y-91928572D01*
X157269179Y-91928572D02*
X157364417Y-91976191D01*
X157364417Y-91976191D02*
X157459656Y-92071429D01*
X157459656Y-92071429D02*
X157507275Y-92214286D01*
X157507275Y-92214286D02*
X157507275Y-92309524D01*
X157507275Y-92309524D02*
X157459656Y-92452381D01*
X157459656Y-92452381D02*
X157412036Y-92500000D01*
X157412036Y-92500000D02*
X157078703Y-92500000D01*
X157078703Y-92500000D02*
X157078703Y-92309524D01*
X159117219Y-90452380D02*
X158641028Y-90119047D01*
X159117219Y-89880952D02*
X158117219Y-89880952D01*
X158117219Y-89880952D02*
X158117219Y-90261904D01*
X158117219Y-90261904D02*
X158164838Y-90357142D01*
X158164838Y-90357142D02*
X158212457Y-90404761D01*
X158212457Y-90404761D02*
X158307695Y-90452380D01*
X158307695Y-90452380D02*
X158450552Y-90452380D01*
X158450552Y-90452380D02*
X158545790Y-90404761D01*
X158545790Y-90404761D02*
X158593409Y-90357142D01*
X158593409Y-90357142D02*
X158641028Y-90261904D01*
X158641028Y-90261904D02*
X158641028Y-89880952D01*
X159069600Y-90833333D02*
X159117219Y-90976190D01*
X159117219Y-90976190D02*
X159117219Y-91214285D01*
X159117219Y-91214285D02*
X159069600Y-91309523D01*
X159069600Y-91309523D02*
X159021980Y-91357142D01*
X159021980Y-91357142D02*
X158926742Y-91404761D01*
X158926742Y-91404761D02*
X158831504Y-91404761D01*
X158831504Y-91404761D02*
X158736266Y-91357142D01*
X158736266Y-91357142D02*
X158688647Y-91309523D01*
X158688647Y-91309523D02*
X158641028Y-91214285D01*
X158641028Y-91214285D02*
X158593409Y-91023809D01*
X158593409Y-91023809D02*
X158545790Y-90928571D01*
X158545790Y-90928571D02*
X158498171Y-90880952D01*
X158498171Y-90880952D02*
X158402933Y-90833333D01*
X158402933Y-90833333D02*
X158307695Y-90833333D01*
X158307695Y-90833333D02*
X158212457Y-90880952D01*
X158212457Y-90880952D02*
X158164838Y-90928571D01*
X158164838Y-90928571D02*
X158117219Y-91023809D01*
X158117219Y-91023809D02*
X158117219Y-91261904D01*
X158117219Y-91261904D02*
X158164838Y-91404761D01*
X158117219Y-91690476D02*
X158117219Y-92261904D01*
X159117219Y-91976190D02*
X158117219Y-91976190D01*
X149094612Y-89147331D02*
X149094612Y-89861616D01*
X149094612Y-89861616D02*
X149142231Y-90004473D01*
X149142231Y-90004473D02*
X149237469Y-90099712D01*
X149237469Y-90099712D02*
X149380326Y-90147331D01*
X149380326Y-90147331D02*
X149475564Y-90147331D01*
X148761278Y-89147331D02*
X148189850Y-89147331D01*
X148475564Y-90147331D02*
X148475564Y-89147331D01*
X147904135Y-89861616D02*
X147427945Y-89861616D01*
X147999373Y-90147331D02*
X147666040Y-89147331D01*
X147666040Y-89147331D02*
X147332707Y-90147331D01*
X146475564Y-89194950D02*
X146570802Y-89147331D01*
X146570802Y-89147331D02*
X146713659Y-89147331D01*
X146713659Y-89147331D02*
X146856516Y-89194950D01*
X146856516Y-89194950D02*
X146951754Y-89290188D01*
X146951754Y-89290188D02*
X146999373Y-89385426D01*
X146999373Y-89385426D02*
X147046992Y-89575902D01*
X147046992Y-89575902D02*
X147046992Y-89718759D01*
X147046992Y-89718759D02*
X146999373Y-89909235D01*
X146999373Y-89909235D02*
X146951754Y-90004473D01*
X146951754Y-90004473D02*
X146856516Y-90099712D01*
X146856516Y-90099712D02*
X146713659Y-90147331D01*
X146713659Y-90147331D02*
X146618421Y-90147331D01*
X146618421Y-90147331D02*
X146475564Y-90099712D01*
X146475564Y-90099712D02*
X146427945Y-90052092D01*
X146427945Y-90052092D02*
X146427945Y-89718759D01*
X146427945Y-89718759D02*
X146618421Y-89718759D01*
X147523183Y-91233465D02*
X147380326Y-91281084D01*
X147380326Y-91281084D02*
X147332707Y-91328703D01*
X147332707Y-91328703D02*
X147285088Y-91423941D01*
X147285088Y-91423941D02*
X147285088Y-91566798D01*
X147285088Y-91566798D02*
X147332707Y-91662036D01*
X147332707Y-91662036D02*
X147380326Y-91709656D01*
X147380326Y-91709656D02*
X147475564Y-91757275D01*
X147475564Y-91757275D02*
X147856516Y-91757275D01*
X147856516Y-91757275D02*
X147856516Y-90757275D01*
X147856516Y-90757275D02*
X147523183Y-90757275D01*
X147523183Y-90757275D02*
X147427945Y-90804894D01*
X147427945Y-90804894D02*
X147380326Y-90852513D01*
X147380326Y-90852513D02*
X147332707Y-90947751D01*
X147332707Y-90947751D02*
X147332707Y-91042989D01*
X147332707Y-91042989D02*
X147380326Y-91138227D01*
X147380326Y-91138227D02*
X147427945Y-91185846D01*
X147427945Y-91185846D02*
X147523183Y-91233465D01*
X147523183Y-91233465D02*
X147856516Y-91233465D01*
X146713659Y-91757275D02*
X146808897Y-91709656D01*
X146808897Y-91709656D02*
X146856516Y-91662036D01*
X146856516Y-91662036D02*
X146904135Y-91566798D01*
X146904135Y-91566798D02*
X146904135Y-91281084D01*
X146904135Y-91281084D02*
X146856516Y-91185846D01*
X146856516Y-91185846D02*
X146808897Y-91138227D01*
X146808897Y-91138227D02*
X146713659Y-91090608D01*
X146713659Y-91090608D02*
X146570802Y-91090608D01*
X146570802Y-91090608D02*
X146475564Y-91138227D01*
X146475564Y-91138227D02*
X146427945Y-91185846D01*
X146427945Y-91185846D02*
X146380326Y-91281084D01*
X146380326Y-91281084D02*
X146380326Y-91566798D01*
X146380326Y-91566798D02*
X146427945Y-91662036D01*
X146427945Y-91662036D02*
X146475564Y-91709656D01*
X146475564Y-91709656D02*
X146570802Y-91757275D01*
X146570802Y-91757275D02*
X146713659Y-91757275D01*
X145808897Y-91757275D02*
X145904135Y-91709656D01*
X145904135Y-91709656D02*
X145951754Y-91662036D01*
X145951754Y-91662036D02*
X145999373Y-91566798D01*
X145999373Y-91566798D02*
X145999373Y-91281084D01*
X145999373Y-91281084D02*
X145951754Y-91185846D01*
X145951754Y-91185846D02*
X145904135Y-91138227D01*
X145904135Y-91138227D02*
X145808897Y-91090608D01*
X145808897Y-91090608D02*
X145666040Y-91090608D01*
X145666040Y-91090608D02*
X145570802Y-91138227D01*
X145570802Y-91138227D02*
X145523183Y-91185846D01*
X145523183Y-91185846D02*
X145475564Y-91281084D01*
X145475564Y-91281084D02*
X145475564Y-91566798D01*
X145475564Y-91566798D02*
X145523183Y-91662036D01*
X145523183Y-91662036D02*
X145570802Y-91709656D01*
X145570802Y-91709656D02*
X145666040Y-91757275D01*
X145666040Y-91757275D02*
X145808897Y-91757275D01*
X145189849Y-91090608D02*
X144808897Y-91090608D01*
X145046992Y-90757275D02*
X145046992Y-91614417D01*
X145046992Y-91614417D02*
X144999373Y-91709656D01*
X144999373Y-91709656D02*
X144904135Y-91757275D01*
X144904135Y-91757275D02*
X144808897Y-91757275D01*
X143713658Y-91757275D02*
X143713658Y-90757275D01*
X143713658Y-90757275D02*
X143380325Y-91471560D01*
X143380325Y-91471560D02*
X143046992Y-90757275D01*
X143046992Y-90757275D02*
X143046992Y-91757275D01*
X142427944Y-91757275D02*
X142523182Y-91709656D01*
X142523182Y-91709656D02*
X142570801Y-91662036D01*
X142570801Y-91662036D02*
X142618420Y-91566798D01*
X142618420Y-91566798D02*
X142618420Y-91281084D01*
X142618420Y-91281084D02*
X142570801Y-91185846D01*
X142570801Y-91185846D02*
X142523182Y-91138227D01*
X142523182Y-91138227D02*
X142427944Y-91090608D01*
X142427944Y-91090608D02*
X142285087Y-91090608D01*
X142285087Y-91090608D02*
X142189849Y-91138227D01*
X142189849Y-91138227D02*
X142142230Y-91185846D01*
X142142230Y-91185846D02*
X142094611Y-91281084D01*
X142094611Y-91281084D02*
X142094611Y-91566798D01*
X142094611Y-91566798D02*
X142142230Y-91662036D01*
X142142230Y-91662036D02*
X142189849Y-91709656D01*
X142189849Y-91709656D02*
X142285087Y-91757275D01*
X142285087Y-91757275D02*
X142427944Y-91757275D01*
X141237468Y-91757275D02*
X141237468Y-90757275D01*
X141237468Y-91709656D02*
X141332706Y-91757275D01*
X141332706Y-91757275D02*
X141523182Y-91757275D01*
X141523182Y-91757275D02*
X141618420Y-91709656D01*
X141618420Y-91709656D02*
X141666039Y-91662036D01*
X141666039Y-91662036D02*
X141713658Y-91566798D01*
X141713658Y-91566798D02*
X141713658Y-91281084D01*
X141713658Y-91281084D02*
X141666039Y-91185846D01*
X141666039Y-91185846D02*
X141618420Y-91138227D01*
X141618420Y-91138227D02*
X141523182Y-91090608D01*
X141523182Y-91090608D02*
X141332706Y-91090608D01*
X141332706Y-91090608D02*
X141237468Y-91138227D01*
X140380325Y-91709656D02*
X140475563Y-91757275D01*
X140475563Y-91757275D02*
X140666039Y-91757275D01*
X140666039Y-91757275D02*
X140761277Y-91709656D01*
X140761277Y-91709656D02*
X140808896Y-91614417D01*
X140808896Y-91614417D02*
X140808896Y-91233465D01*
X140808896Y-91233465D02*
X140761277Y-91138227D01*
X140761277Y-91138227D02*
X140666039Y-91090608D01*
X140666039Y-91090608D02*
X140475563Y-91090608D01*
X140475563Y-91090608D02*
X140380325Y-91138227D01*
X140380325Y-91138227D02*
X140332706Y-91233465D01*
X140332706Y-91233465D02*
X140332706Y-91328703D01*
X140332706Y-91328703D02*
X140808896Y-91423941D01*
X149094612Y-92367219D02*
X149094612Y-93081504D01*
X149094612Y-93081504D02*
X149142231Y-93224361D01*
X149142231Y-93224361D02*
X149237469Y-93319600D01*
X149237469Y-93319600D02*
X149380326Y-93367219D01*
X149380326Y-93367219D02*
X149475564Y-93367219D01*
X148475564Y-93367219D02*
X148570802Y-93319600D01*
X148570802Y-93319600D02*
X148618421Y-93271980D01*
X148618421Y-93271980D02*
X148666040Y-93176742D01*
X148666040Y-93176742D02*
X148666040Y-92891028D01*
X148666040Y-92891028D02*
X148618421Y-92795790D01*
X148618421Y-92795790D02*
X148570802Y-92748171D01*
X148570802Y-92748171D02*
X148475564Y-92700552D01*
X148475564Y-92700552D02*
X148332707Y-92700552D01*
X148332707Y-92700552D02*
X148237469Y-92748171D01*
X148237469Y-92748171D02*
X148189850Y-92795790D01*
X148189850Y-92795790D02*
X148142231Y-92891028D01*
X148142231Y-92891028D02*
X148142231Y-93176742D01*
X148142231Y-93176742D02*
X148189850Y-93271980D01*
X148189850Y-93271980D02*
X148237469Y-93319600D01*
X148237469Y-93319600D02*
X148332707Y-93367219D01*
X148332707Y-93367219D02*
X148475564Y-93367219D01*
X147713659Y-93367219D02*
X147713659Y-92700552D01*
X147713659Y-92367219D02*
X147761278Y-92414838D01*
X147761278Y-92414838D02*
X147713659Y-92462457D01*
X147713659Y-92462457D02*
X147666040Y-92414838D01*
X147666040Y-92414838D02*
X147713659Y-92367219D01*
X147713659Y-92367219D02*
X147713659Y-92462457D01*
X147237469Y-92700552D02*
X147237469Y-93367219D01*
X147237469Y-92795790D02*
X147189850Y-92748171D01*
X147189850Y-92748171D02*
X147094612Y-92700552D01*
X147094612Y-92700552D02*
X146951755Y-92700552D01*
X146951755Y-92700552D02*
X146856517Y-92748171D01*
X146856517Y-92748171D02*
X146808898Y-92843409D01*
X146808898Y-92843409D02*
X146808898Y-93367219D01*
X146475564Y-92700552D02*
X146094612Y-92700552D01*
X146332707Y-92367219D02*
X146332707Y-93224361D01*
X146332707Y-93224361D02*
X146285088Y-93319600D01*
X146285088Y-93319600D02*
X146189850Y-93367219D01*
X146189850Y-93367219D02*
X146094612Y-93367219D01*
X144999373Y-93367219D02*
X144999373Y-92367219D01*
X144999373Y-92367219D02*
X144761278Y-92367219D01*
X144761278Y-92367219D02*
X144618421Y-92414838D01*
X144618421Y-92414838D02*
X144523183Y-92510076D01*
X144523183Y-92510076D02*
X144475564Y-92605314D01*
X144475564Y-92605314D02*
X144427945Y-92795790D01*
X144427945Y-92795790D02*
X144427945Y-92938647D01*
X144427945Y-92938647D02*
X144475564Y-93129123D01*
X144475564Y-93129123D02*
X144523183Y-93224361D01*
X144523183Y-93224361D02*
X144618421Y-93319600D01*
X144618421Y-93319600D02*
X144761278Y-93367219D01*
X144761278Y-93367219D02*
X144999373Y-93367219D01*
X144094611Y-92700552D02*
X143904135Y-93367219D01*
X143904135Y-93367219D02*
X143713659Y-92891028D01*
X143713659Y-92891028D02*
X143523183Y-93367219D01*
X143523183Y-93367219D02*
X143332707Y-92700552D01*
X142523183Y-93367219D02*
X142523183Y-92367219D01*
X142523183Y-93319600D02*
X142618421Y-93367219D01*
X142618421Y-93367219D02*
X142808897Y-93367219D01*
X142808897Y-93367219D02*
X142904135Y-93319600D01*
X142904135Y-93319600D02*
X142951754Y-93271980D01*
X142951754Y-93271980D02*
X142999373Y-93176742D01*
X142999373Y-93176742D02*
X142999373Y-92891028D01*
X142999373Y-92891028D02*
X142951754Y-92795790D01*
X142951754Y-92795790D02*
X142904135Y-92748171D01*
X142904135Y-92748171D02*
X142808897Y-92700552D01*
X142808897Y-92700552D02*
X142618421Y-92700552D01*
X142618421Y-92700552D02*
X142523183Y-92748171D01*
X140951754Y-92843409D02*
X140808897Y-92891028D01*
X140808897Y-92891028D02*
X140761278Y-92938647D01*
X140761278Y-92938647D02*
X140713659Y-93033885D01*
X140713659Y-93033885D02*
X140713659Y-93176742D01*
X140713659Y-93176742D02*
X140761278Y-93271980D01*
X140761278Y-93271980D02*
X140808897Y-93319600D01*
X140808897Y-93319600D02*
X140904135Y-93367219D01*
X140904135Y-93367219D02*
X141285087Y-93367219D01*
X141285087Y-93367219D02*
X141285087Y-92367219D01*
X141285087Y-92367219D02*
X140951754Y-92367219D01*
X140951754Y-92367219D02*
X140856516Y-92414838D01*
X140856516Y-92414838D02*
X140808897Y-92462457D01*
X140808897Y-92462457D02*
X140761278Y-92557695D01*
X140761278Y-92557695D02*
X140761278Y-92652933D01*
X140761278Y-92652933D02*
X140808897Y-92748171D01*
X140808897Y-92748171D02*
X140856516Y-92795790D01*
X140856516Y-92795790D02*
X140951754Y-92843409D01*
X140951754Y-92843409D02*
X141285087Y-92843409D01*
X140142230Y-93367219D02*
X140237468Y-93319600D01*
X140237468Y-93319600D02*
X140285087Y-93271980D01*
X140285087Y-93271980D02*
X140332706Y-93176742D01*
X140332706Y-93176742D02*
X140332706Y-92891028D01*
X140332706Y-92891028D02*
X140285087Y-92795790D01*
X140285087Y-92795790D02*
X140237468Y-92748171D01*
X140237468Y-92748171D02*
X140142230Y-92700552D01*
X140142230Y-92700552D02*
X139999373Y-92700552D01*
X139999373Y-92700552D02*
X139904135Y-92748171D01*
X139904135Y-92748171D02*
X139856516Y-92795790D01*
X139856516Y-92795790D02*
X139808897Y-92891028D01*
X139808897Y-92891028D02*
X139808897Y-93176742D01*
X139808897Y-93176742D02*
X139856516Y-93271980D01*
X139856516Y-93271980D02*
X139904135Y-93319600D01*
X139904135Y-93319600D02*
X139999373Y-93367219D01*
X139999373Y-93367219D02*
X140142230Y-93367219D01*
X139237468Y-93367219D02*
X139332706Y-93319600D01*
X139332706Y-93319600D02*
X139380325Y-93271980D01*
X139380325Y-93271980D02*
X139427944Y-93176742D01*
X139427944Y-93176742D02*
X139427944Y-92891028D01*
X139427944Y-92891028D02*
X139380325Y-92795790D01*
X139380325Y-92795790D02*
X139332706Y-92748171D01*
X139332706Y-92748171D02*
X139237468Y-92700552D01*
X139237468Y-92700552D02*
X139094611Y-92700552D01*
X139094611Y-92700552D02*
X138999373Y-92748171D01*
X138999373Y-92748171D02*
X138951754Y-92795790D01*
X138951754Y-92795790D02*
X138904135Y-92891028D01*
X138904135Y-92891028D02*
X138904135Y-93176742D01*
X138904135Y-93176742D02*
X138951754Y-93271980D01*
X138951754Y-93271980D02*
X138999373Y-93319600D01*
X138999373Y-93319600D02*
X139094611Y-93367219D01*
X139094611Y-93367219D02*
X139237468Y-93367219D01*
X138618420Y-92700552D02*
X138237468Y-92700552D01*
X138475563Y-92367219D02*
X138475563Y-93224361D01*
X138475563Y-93224361D02*
X138427944Y-93319600D01*
X138427944Y-93319600D02*
X138332706Y-93367219D01*
X138332706Y-93367219D02*
X138237468Y-93367219D01*
G36*
X150609780Y-105511017D02*
G01*
X150680686Y-105546470D01*
X150747758Y-105613542D01*
X150782780Y-105718606D01*
X150782780Y-105840475D01*
X149982780Y-105840475D01*
X149982780Y-105718607D01*
X150017802Y-105613542D01*
X150084875Y-105546470D01*
X150155780Y-105511017D01*
X150323661Y-105469047D01*
X150441899Y-105469047D01*
X150609780Y-105511017D01*
G37*
G36*
X150728306Y-104498852D02*
G01*
X150752975Y-104523520D01*
X150782780Y-104583130D01*
X150782780Y-104840475D01*
X150458971Y-104840475D01*
X150458971Y-104583130D01*
X150488776Y-104523520D01*
X150513444Y-104498851D01*
X150573054Y-104469047D01*
X150668697Y-104469047D01*
X150728306Y-104498852D01*
G37*
G36*
X150609780Y-103511017D02*
G01*
X150680686Y-103546470D01*
X150747758Y-103613542D01*
X150782780Y-103718606D01*
X150782780Y-103840475D01*
X149982780Y-103840475D01*
X149982780Y-103718607D01*
X150017802Y-103613542D01*
X150084875Y-103546470D01*
X150155780Y-103511017D01*
X150323661Y-103469047D01*
X150441899Y-103469047D01*
X150609780Y-103511017D01*
G37*
G36*
X151093891Y-106151586D02*
G01*
X149671669Y-106151586D01*
X149671669Y-105702380D01*
X149782780Y-105702380D01*
X149782780Y-105940475D01*
X149784701Y-105959984D01*
X149799633Y-105996032D01*
X149827223Y-106023622D01*
X149863271Y-106038554D01*
X149882780Y-106040475D01*
X150882780Y-106040475D01*
X150902289Y-106038554D01*
X150938337Y-106023622D01*
X150965927Y-105996032D01*
X150980859Y-105959984D01*
X150982780Y-105940475D01*
X150982780Y-105702380D01*
X150981807Y-105692506D01*
X150981995Y-105689872D01*
X150981207Y-105686408D01*
X150980859Y-105682871D01*
X150979847Y-105680429D01*
X150977648Y-105670757D01*
X150930029Y-105527900D01*
X150922038Y-105510000D01*
X150919682Y-105507284D01*
X150918308Y-105503966D01*
X150905872Y-105488812D01*
X150810634Y-105393574D01*
X150802963Y-105387279D01*
X150801234Y-105385285D01*
X150798226Y-105383391D01*
X150795480Y-105381138D01*
X150793040Y-105380127D01*
X150784644Y-105374842D01*
X150689406Y-105327223D01*
X150687979Y-105326677D01*
X150687399Y-105326247D01*
X150679222Y-105323325D01*
X150671098Y-105320217D01*
X150670375Y-105320165D01*
X150668938Y-105319652D01*
X150478463Y-105272033D01*
X150475081Y-105271532D01*
X150473718Y-105270968D01*
X150466367Y-105270244D01*
X150459070Y-105269165D01*
X150457611Y-105269382D01*
X150454209Y-105269047D01*
X150311352Y-105269047D01*
X150307949Y-105269382D01*
X150306491Y-105269165D01*
X150299193Y-105270244D01*
X150291843Y-105270968D01*
X150290479Y-105271532D01*
X150287098Y-105272033D01*
X150096622Y-105319652D01*
X150095183Y-105320165D01*
X150094463Y-105320217D01*
X150086338Y-105323325D01*
X150078162Y-105326247D01*
X150077582Y-105326676D01*
X150076154Y-105327223D01*
X149980917Y-105374842D01*
X149972518Y-105380128D01*
X149970081Y-105381138D01*
X149967337Y-105383389D01*
X149964326Y-105385285D01*
X149962593Y-105387282D01*
X149954927Y-105393574D01*
X149859689Y-105488812D01*
X149847253Y-105503966D01*
X149845878Y-105507284D01*
X149843524Y-105509999D01*
X149835532Y-105527899D01*
X149787912Y-105670757D01*
X149785712Y-105680429D01*
X149784701Y-105682871D01*
X149784352Y-105686408D01*
X149783565Y-105689872D01*
X149783752Y-105692506D01*
X149782780Y-105702380D01*
X149671669Y-105702380D01*
X149671669Y-104366879D01*
X149782803Y-104366879D01*
X149789584Y-104405304D01*
X149810553Y-104438209D01*
X149825434Y-104450970D01*
X150258971Y-104754445D01*
X150258971Y-104840475D01*
X149882780Y-104840475D01*
X149863271Y-104842396D01*
X149827223Y-104857328D01*
X149799633Y-104884918D01*
X149784701Y-104920966D01*
X149784701Y-104959984D01*
X149799633Y-104996032D01*
X149827223Y-105023622D01*
X149863271Y-105038554D01*
X149882780Y-105040475D01*
X150882780Y-105040475D01*
X150902289Y-105038554D01*
X150938337Y-105023622D01*
X150965927Y-104996032D01*
X150980859Y-104959984D01*
X150982780Y-104940475D01*
X150982780Y-104559523D01*
X150980859Y-104540014D01*
X150979483Y-104536693D01*
X150979229Y-104533110D01*
X150972223Y-104514801D01*
X150924604Y-104419564D01*
X150919318Y-104411167D01*
X150918308Y-104408727D01*
X150916054Y-104405981D01*
X150914161Y-104402973D01*
X150912163Y-104401240D01*
X150905871Y-104393574D01*
X150858253Y-104345955D01*
X150850582Y-104339660D01*
X150848853Y-104337666D01*
X150845845Y-104335772D01*
X150843099Y-104333519D01*
X150840659Y-104332508D01*
X150832263Y-104327223D01*
X150737025Y-104279604D01*
X150718717Y-104272598D01*
X150715133Y-104272343D01*
X150711813Y-104270968D01*
X150692304Y-104269047D01*
X150549447Y-104269047D01*
X150529938Y-104270968D01*
X150526617Y-104272343D01*
X150523034Y-104272598D01*
X150504725Y-104279604D01*
X150409488Y-104327223D01*
X150401091Y-104332508D01*
X150398651Y-104333519D01*
X150395905Y-104335772D01*
X150392897Y-104337666D01*
X150391164Y-104339663D01*
X150383498Y-104345956D01*
X150335879Y-104393574D01*
X150329584Y-104401244D01*
X150327590Y-104402974D01*
X150325696Y-104405981D01*
X150323443Y-104408728D01*
X150322432Y-104411167D01*
X150317147Y-104419564D01*
X150269528Y-104514802D01*
X150268651Y-104517091D01*
X149940126Y-104287124D01*
X149923042Y-104277510D01*
X149884948Y-104269070D01*
X149846523Y-104275851D01*
X149813618Y-104296820D01*
X149791243Y-104328785D01*
X149782803Y-104366879D01*
X149671669Y-104366879D01*
X149671669Y-103702380D01*
X149782780Y-103702380D01*
X149782780Y-103940475D01*
X149784701Y-103959984D01*
X149799633Y-103996032D01*
X149827223Y-104023622D01*
X149863271Y-104038554D01*
X149882780Y-104040475D01*
X150882780Y-104040475D01*
X150902289Y-104038554D01*
X150938337Y-104023622D01*
X150965927Y-103996032D01*
X150980859Y-103959984D01*
X150982780Y-103940475D01*
X150982780Y-103702380D01*
X150981807Y-103692506D01*
X150981995Y-103689872D01*
X150981207Y-103686408D01*
X150980859Y-103682871D01*
X150979847Y-103680429D01*
X150977648Y-103670757D01*
X150930029Y-103527900D01*
X150922038Y-103510000D01*
X150919682Y-103507284D01*
X150918308Y-103503966D01*
X150905872Y-103488812D01*
X150810634Y-103393574D01*
X150802963Y-103387279D01*
X150801234Y-103385285D01*
X150798226Y-103383391D01*
X150795480Y-103381138D01*
X150793040Y-103380127D01*
X150784644Y-103374842D01*
X150689406Y-103327223D01*
X150687979Y-103326677D01*
X150687399Y-103326247D01*
X150679222Y-103323325D01*
X150671098Y-103320217D01*
X150670375Y-103320165D01*
X150668938Y-103319652D01*
X150478463Y-103272033D01*
X150475081Y-103271532D01*
X150473718Y-103270968D01*
X150466367Y-103270244D01*
X150459070Y-103269165D01*
X150457611Y-103269382D01*
X150454209Y-103269047D01*
X150311352Y-103269047D01*
X150307949Y-103269382D01*
X150306491Y-103269165D01*
X150299193Y-103270244D01*
X150291843Y-103270968D01*
X150290479Y-103271532D01*
X150287098Y-103272033D01*
X150096622Y-103319652D01*
X150095183Y-103320165D01*
X150094463Y-103320217D01*
X150086338Y-103323325D01*
X150078162Y-103326247D01*
X150077582Y-103326676D01*
X150076154Y-103327223D01*
X149980917Y-103374842D01*
X149972518Y-103380128D01*
X149970081Y-103381138D01*
X149967337Y-103383389D01*
X149964326Y-103385285D01*
X149962593Y-103387282D01*
X149954927Y-103393574D01*
X149859689Y-103488812D01*
X149847253Y-103503966D01*
X149845878Y-103507284D01*
X149843524Y-103509999D01*
X149835532Y-103527899D01*
X149787912Y-103670757D01*
X149785712Y-103680429D01*
X149784701Y-103682871D01*
X149784352Y-103686408D01*
X149783565Y-103689872D01*
X149783752Y-103692506D01*
X149782780Y-103702380D01*
X149671669Y-103702380D01*
X149671669Y-102730490D01*
X149784701Y-102730490D01*
X149784701Y-102769508D01*
X149799633Y-102805556D01*
X149827223Y-102833146D01*
X149863271Y-102848078D01*
X149882780Y-102849999D01*
X150329851Y-102849999D01*
X150829093Y-103167698D01*
X150846583Y-103176551D01*
X150885012Y-103183307D01*
X150923101Y-103174843D01*
X150955052Y-103152447D01*
X150976000Y-103119529D01*
X150982755Y-103081100D01*
X150974291Y-103043011D01*
X150951895Y-103011061D01*
X150936468Y-102998966D01*
X150545234Y-102749999D01*
X150936468Y-102501032D01*
X150951895Y-102488937D01*
X150974291Y-102456987D01*
X150982755Y-102418898D01*
X150976000Y-102380469D01*
X150955052Y-102347551D01*
X150923101Y-102325155D01*
X150885012Y-102316691D01*
X150846583Y-102323447D01*
X150829093Y-102332300D01*
X150329851Y-102649999D01*
X149882780Y-102649999D01*
X149863271Y-102651920D01*
X149827223Y-102666852D01*
X149799633Y-102694442D01*
X149784701Y-102730490D01*
X149671669Y-102730490D01*
X149671669Y-102205580D01*
X151093891Y-102205580D01*
X151093891Y-106151586D01*
G37*
G36*
X148091437Y-108328086D02*
G01*
X145718756Y-108328086D01*
X145718756Y-107097710D01*
X145829867Y-107097710D01*
X145829867Y-107136728D01*
X145844799Y-107172776D01*
X145872389Y-107200366D01*
X145908437Y-107215298D01*
X145927946Y-107217219D01*
X146113660Y-107217219D01*
X146113660Y-108117219D01*
X146115581Y-108136728D01*
X146130513Y-108172776D01*
X146158103Y-108200366D01*
X146194151Y-108215298D01*
X146233169Y-108215298D01*
X146269217Y-108200366D01*
X146296807Y-108172776D01*
X146311739Y-108136728D01*
X146313660Y-108117219D01*
X146313660Y-107217219D01*
X146499374Y-107217219D01*
X146518883Y-107215298D01*
X146554931Y-107200366D01*
X146582521Y-107172776D01*
X146597453Y-107136728D01*
X146597453Y-107117219D01*
X146732708Y-107117219D01*
X146732708Y-108117219D01*
X146733202Y-108122236D01*
X146732952Y-108124204D01*
X146733646Y-108126750D01*
X146734629Y-108136728D01*
X146739720Y-108149018D01*
X146743219Y-108161847D01*
X146747121Y-108166885D01*
X146749561Y-108172776D01*
X146758966Y-108182181D01*
X146767109Y-108192696D01*
X146772643Y-108195858D01*
X146777151Y-108200366D01*
X146789436Y-108205454D01*
X146800986Y-108212055D01*
X146807310Y-108212858D01*
X146813199Y-108215298D01*
X146826500Y-108215298D01*
X146839693Y-108216975D01*
X146845842Y-108215298D01*
X146852217Y-108215298D01*
X146864507Y-108210206D01*
X146877336Y-108206708D01*
X146882374Y-108202805D01*
X146888265Y-108200366D01*
X146897670Y-108190960D01*
X146908185Y-108182818D01*
X146913988Y-108174642D01*
X146915855Y-108172776D01*
X146916613Y-108170943D01*
X146919532Y-108166833D01*
X147304136Y-107493775D01*
X147304136Y-108117219D01*
X147306057Y-108136728D01*
X147320989Y-108172776D01*
X147348579Y-108200366D01*
X147384627Y-108215298D01*
X147423645Y-108215298D01*
X147459693Y-108200366D01*
X147487283Y-108172776D01*
X147502215Y-108136728D01*
X147504136Y-108117219D01*
X147504136Y-107117219D01*
X147780326Y-107117219D01*
X147780326Y-108117219D01*
X147782247Y-108136728D01*
X147797179Y-108172776D01*
X147824769Y-108200366D01*
X147860817Y-108215298D01*
X147899835Y-108215298D01*
X147935883Y-108200366D01*
X147963473Y-108172776D01*
X147978405Y-108136728D01*
X147980326Y-108117219D01*
X147980326Y-107117219D01*
X147978405Y-107097710D01*
X147963473Y-107061662D01*
X147935883Y-107034072D01*
X147899835Y-107019140D01*
X147860817Y-107019140D01*
X147824769Y-107034072D01*
X147797179Y-107061662D01*
X147782247Y-107097710D01*
X147780326Y-107117219D01*
X147504136Y-107117219D01*
X147503641Y-107112201D01*
X147503892Y-107110234D01*
X147503197Y-107107687D01*
X147502215Y-107097710D01*
X147497125Y-107085423D01*
X147493626Y-107072591D01*
X147489721Y-107067549D01*
X147487283Y-107061662D01*
X147477879Y-107052258D01*
X147469735Y-107041742D01*
X147464200Y-107038579D01*
X147459693Y-107034072D01*
X147447407Y-107028983D01*
X147435858Y-107022383D01*
X147429533Y-107021579D01*
X147423645Y-107019140D01*
X147410345Y-107019140D01*
X147397152Y-107017463D01*
X147391003Y-107019140D01*
X147384627Y-107019140D01*
X147372340Y-107024229D01*
X147359508Y-107027729D01*
X147354466Y-107031633D01*
X147348579Y-107034072D01*
X147339175Y-107043475D01*
X147328659Y-107051620D01*
X147322855Y-107059795D01*
X147320989Y-107061662D01*
X147320230Y-107063494D01*
X147317312Y-107067605D01*
X146932708Y-107740662D01*
X146932708Y-107117219D01*
X146930787Y-107097710D01*
X146915855Y-107061662D01*
X146888265Y-107034072D01*
X146852217Y-107019140D01*
X146813199Y-107019140D01*
X146777151Y-107034072D01*
X146749561Y-107061662D01*
X146734629Y-107097710D01*
X146732708Y-107117219D01*
X146597453Y-107117219D01*
X146597453Y-107097710D01*
X146582521Y-107061662D01*
X146554931Y-107034072D01*
X146518883Y-107019140D01*
X146499374Y-107017219D01*
X145927946Y-107017219D01*
X145908437Y-107019140D01*
X145872389Y-107034072D01*
X145844799Y-107061662D01*
X145829867Y-107097710D01*
X145718756Y-107097710D01*
X145718756Y-106906108D01*
X148091437Y-106906108D01*
X148091437Y-108328086D01*
G37*
G36*
X132731504Y-100183311D02*
G01*
X132433446Y-100083959D01*
X132731504Y-99984606D01*
X132731504Y-100183311D01*
G37*
G36*
X133328330Y-101533165D02*
G01*
X131906108Y-101533165D01*
X131906108Y-101036340D01*
X132017219Y-101036340D01*
X132017219Y-101179197D01*
X132019140Y-101198706D01*
X132020515Y-101202026D01*
X132020770Y-101205610D01*
X132027776Y-101223918D01*
X132075395Y-101319156D01*
X132085838Y-101335746D01*
X132115315Y-101361311D01*
X132152331Y-101373649D01*
X132191251Y-101370884D01*
X132226149Y-101353435D01*
X132251714Y-101323958D01*
X132264053Y-101286942D01*
X132261287Y-101248022D01*
X132254281Y-101229713D01*
X132217219Y-101155589D01*
X132217219Y-101052567D01*
X132252240Y-100947502D01*
X132319313Y-100880430D01*
X132390218Y-100844977D01*
X132558099Y-100803007D01*
X132676337Y-100803007D01*
X132844218Y-100844977D01*
X132915127Y-100880431D01*
X132982197Y-100947501D01*
X133017219Y-101052566D01*
X133017219Y-101115351D01*
X132982197Y-101220416D01*
X132980560Y-101222054D01*
X132788647Y-101222054D01*
X132788647Y-101131578D01*
X132786726Y-101112069D01*
X132771794Y-101076021D01*
X132744204Y-101048431D01*
X132708156Y-101033499D01*
X132669138Y-101033499D01*
X132633090Y-101048431D01*
X132605500Y-101076021D01*
X132590568Y-101112069D01*
X132588647Y-101131578D01*
X132588647Y-101322054D01*
X132590568Y-101341562D01*
X132590568Y-101341563D01*
X132605500Y-101377611D01*
X132633090Y-101405201D01*
X132669138Y-101420133D01*
X132688647Y-101422054D01*
X133021980Y-101422054D01*
X133041489Y-101420133D01*
X133052046Y-101415759D01*
X133077537Y-101405202D01*
X133092690Y-101392765D01*
X133140310Y-101345147D01*
X133152747Y-101329993D01*
X133154122Y-101326673D01*
X133156477Y-101323958D01*
X133164468Y-101306058D01*
X133212087Y-101163201D01*
X133214286Y-101153528D01*
X133215298Y-101151087D01*
X133215646Y-101147549D01*
X133216434Y-101144086D01*
X133216246Y-101141451D01*
X133217219Y-101131578D01*
X133217219Y-101036340D01*
X133216246Y-101026466D01*
X133216434Y-101023832D01*
X133215646Y-101020368D01*
X133215298Y-101016831D01*
X133214286Y-101014389D01*
X133212087Y-101004717D01*
X133164468Y-100861860D01*
X133156477Y-100843960D01*
X133154122Y-100841244D01*
X133152747Y-100837925D01*
X133140311Y-100822772D01*
X133045071Y-100727534D01*
X133037401Y-100721239D01*
X133035672Y-100719245D01*
X133032667Y-100717353D01*
X133029918Y-100715097D01*
X133027474Y-100714084D01*
X133019082Y-100708802D01*
X132923844Y-100661183D01*
X132922417Y-100660637D01*
X132921837Y-100660207D01*
X132913660Y-100657285D01*
X132905536Y-100654177D01*
X132904813Y-100654125D01*
X132903376Y-100653612D01*
X132712901Y-100605993D01*
X132709519Y-100605492D01*
X132708156Y-100604928D01*
X132700805Y-100604204D01*
X132693508Y-100603125D01*
X132692049Y-100603342D01*
X132688647Y-100603007D01*
X132545790Y-100603007D01*
X132542387Y-100603342D01*
X132540929Y-100603125D01*
X132533631Y-100604204D01*
X132526281Y-100604928D01*
X132524917Y-100605492D01*
X132521536Y-100605993D01*
X132331060Y-100653612D01*
X132329621Y-100654125D01*
X132328901Y-100654177D01*
X132320776Y-100657285D01*
X132312600Y-100660207D01*
X132312020Y-100660636D01*
X132310592Y-100661183D01*
X132215355Y-100708802D01*
X132206956Y-100714088D01*
X132204519Y-100715098D01*
X132201775Y-100717349D01*
X132198764Y-100719245D01*
X132197031Y-100721242D01*
X132189365Y-100727534D01*
X132094127Y-100822772D01*
X132081691Y-100837926D01*
X132080316Y-100841244D01*
X132077961Y-100843960D01*
X132069970Y-100861861D01*
X132022351Y-101004717D01*
X132020151Y-101014388D01*
X132019140Y-101016831D01*
X132018791Y-101020369D01*
X132018004Y-101023833D01*
X132018191Y-101026466D01*
X132017219Y-101036340D01*
X131906108Y-101036340D01*
X131906108Y-100071452D01*
X132018004Y-100071452D01*
X132018892Y-100083959D01*
X132018004Y-100096466D01*
X132020263Y-100103244D01*
X132020770Y-100110372D01*
X132026376Y-100121584D01*
X132030342Y-100133482D01*
X132035025Y-100138881D01*
X132038220Y-100145271D01*
X132047691Y-100153486D01*
X132055907Y-100162958D01*
X132062296Y-100166152D01*
X132067696Y-100170836D01*
X132085596Y-100178827D01*
X133085596Y-100512160D01*
X133104711Y-100516507D01*
X133143631Y-100513741D01*
X133178530Y-100496291D01*
X133204095Y-100466815D01*
X133216434Y-100429799D01*
X133213667Y-100390879D01*
X133196218Y-100355980D01*
X133166742Y-100330415D01*
X133148841Y-100322424D01*
X132931504Y-100249978D01*
X132931504Y-99917939D01*
X133148841Y-99845494D01*
X133166742Y-99837503D01*
X133196218Y-99811938D01*
X133213667Y-99777039D01*
X133216434Y-99738119D01*
X133204095Y-99701103D01*
X133178530Y-99671627D01*
X133143631Y-99654177D01*
X133104711Y-99651411D01*
X133085596Y-99655758D01*
X132085596Y-99989091D01*
X132067696Y-99997082D01*
X132062296Y-100001765D01*
X132055907Y-100004960D01*
X132047691Y-100014431D01*
X132038220Y-100022647D01*
X132035025Y-100029036D01*
X132030342Y-100034436D01*
X132026376Y-100046333D01*
X132020770Y-100057546D01*
X132020263Y-100064673D01*
X132018004Y-100071452D01*
X131906108Y-100071452D01*
X131906108Y-98988721D01*
X132017219Y-98988721D01*
X132017219Y-99560149D01*
X132019140Y-99579658D01*
X132034072Y-99615706D01*
X132061662Y-99643296D01*
X132097710Y-99658228D01*
X132136728Y-99658228D01*
X132172776Y-99643296D01*
X132200366Y-99615706D01*
X132215298Y-99579658D01*
X132217219Y-99560149D01*
X132217219Y-99374435D01*
X133117219Y-99374435D01*
X133136728Y-99372514D01*
X133172776Y-99357582D01*
X133200366Y-99329992D01*
X133215298Y-99293944D01*
X133215298Y-99254926D01*
X133200366Y-99218878D01*
X133172776Y-99191288D01*
X133136728Y-99176356D01*
X133117219Y-99174435D01*
X132217219Y-99174435D01*
X132217219Y-98988721D01*
X132215298Y-98969212D01*
X132200366Y-98933164D01*
X132172776Y-98905574D01*
X132136728Y-98890642D01*
X132097710Y-98890642D01*
X132061662Y-98905574D01*
X132034072Y-98933164D01*
X132019140Y-98969212D01*
X132017219Y-98988721D01*
X131906108Y-98988721D01*
X131906108Y-98635878D01*
X132019140Y-98635878D01*
X132019140Y-98674896D01*
X132034072Y-98710944D01*
X132061662Y-98738534D01*
X132097710Y-98753466D01*
X132117219Y-98755387D01*
X132831504Y-98755387D01*
X132841377Y-98754414D01*
X132844011Y-98754602D01*
X132847474Y-98753814D01*
X132851013Y-98753466D01*
X132853455Y-98752454D01*
X132863127Y-98750255D01*
X133005983Y-98702636D01*
X133023884Y-98694645D01*
X133026597Y-98692291D01*
X133029918Y-98690916D01*
X133045071Y-98678479D01*
X133140311Y-98583241D01*
X133152747Y-98568088D01*
X133154122Y-98564768D01*
X133156477Y-98562053D01*
X133164468Y-98544153D01*
X133212087Y-98401296D01*
X133214286Y-98391623D01*
X133215298Y-98389182D01*
X133215646Y-98385644D01*
X133216434Y-98382181D01*
X133216246Y-98379546D01*
X133217219Y-98369673D01*
X133217219Y-98274435D01*
X133215298Y-98254926D01*
X133200366Y-98218878D01*
X133172776Y-98191288D01*
X133136728Y-98176356D01*
X133097710Y-98176356D01*
X133061662Y-98191288D01*
X133034072Y-98218878D01*
X133019140Y-98254926D01*
X133017219Y-98274435D01*
X133017219Y-98353446D01*
X132982197Y-98458511D01*
X132920343Y-98520364D01*
X132815277Y-98555387D01*
X132117219Y-98555387D01*
X132097710Y-98557308D01*
X132061662Y-98572240D01*
X132034072Y-98599830D01*
X132019140Y-98635878D01*
X131906108Y-98635878D01*
X131906108Y-98065245D01*
X133328330Y-98065245D01*
X133328330Y-101533165D01*
G37*
X137593409Y-98071428D02*
X137641028Y-98214285D01*
X137641028Y-98214285D02*
X137688647Y-98261904D01*
X137688647Y-98261904D02*
X137783885Y-98309523D01*
X137783885Y-98309523D02*
X137926742Y-98309523D01*
X137926742Y-98309523D02*
X138021980Y-98261904D01*
X138021980Y-98261904D02*
X138069600Y-98214285D01*
X138069600Y-98214285D02*
X138117219Y-98119047D01*
X138117219Y-98119047D02*
X138117219Y-97738095D01*
X138117219Y-97738095D02*
X137117219Y-97738095D01*
X137117219Y-97738095D02*
X137117219Y-98071428D01*
X137117219Y-98071428D02*
X137164838Y-98166666D01*
X137164838Y-98166666D02*
X137212457Y-98214285D01*
X137212457Y-98214285D02*
X137307695Y-98261904D01*
X137307695Y-98261904D02*
X137402933Y-98261904D01*
X137402933Y-98261904D02*
X137498171Y-98214285D01*
X137498171Y-98214285D02*
X137545790Y-98166666D01*
X137545790Y-98166666D02*
X137593409Y-98071428D01*
X137593409Y-98071428D02*
X137593409Y-97738095D01*
X137117219Y-98738095D02*
X137926742Y-98738095D01*
X137926742Y-98738095D02*
X138021980Y-98785714D01*
X138021980Y-98785714D02*
X138069600Y-98833333D01*
X138069600Y-98833333D02*
X138117219Y-98928571D01*
X138117219Y-98928571D02*
X138117219Y-99119047D01*
X138117219Y-99119047D02*
X138069600Y-99214285D01*
X138069600Y-99214285D02*
X138021980Y-99261904D01*
X138021980Y-99261904D02*
X137926742Y-99309523D01*
X137926742Y-99309523D02*
X137117219Y-99309523D01*
X138069600Y-99738095D02*
X138117219Y-99880952D01*
X138117219Y-99880952D02*
X138117219Y-100119047D01*
X138117219Y-100119047D02*
X138069600Y-100214285D01*
X138069600Y-100214285D02*
X138021980Y-100261904D01*
X138021980Y-100261904D02*
X137926742Y-100309523D01*
X137926742Y-100309523D02*
X137831504Y-100309523D01*
X137831504Y-100309523D02*
X137736266Y-100261904D01*
X137736266Y-100261904D02*
X137688647Y-100214285D01*
X137688647Y-100214285D02*
X137641028Y-100119047D01*
X137641028Y-100119047D02*
X137593409Y-99928571D01*
X137593409Y-99928571D02*
X137545790Y-99833333D01*
X137545790Y-99833333D02*
X137498171Y-99785714D01*
X137498171Y-99785714D02*
X137402933Y-99738095D01*
X137402933Y-99738095D02*
X137307695Y-99738095D01*
X137307695Y-99738095D02*
X137212457Y-99785714D01*
X137212457Y-99785714D02*
X137164838Y-99833333D01*
X137164838Y-99833333D02*
X137117219Y-99928571D01*
X137117219Y-99928571D02*
X137117219Y-100166666D01*
X137117219Y-100166666D02*
X137164838Y-100309523D01*
X142882780Y-100309523D02*
X143882780Y-100309523D01*
X143406590Y-100309523D02*
X143406590Y-99738095D01*
X142882780Y-99738095D02*
X143882780Y-99738095D01*
X143882780Y-99261904D02*
X143073257Y-99261904D01*
X143073257Y-99261904D02*
X142978019Y-99214285D01*
X142978019Y-99214285D02*
X142930400Y-99166666D01*
X142930400Y-99166666D02*
X142882780Y-99071428D01*
X142882780Y-99071428D02*
X142882780Y-98880952D01*
X142882780Y-98880952D02*
X142930400Y-98785714D01*
X142930400Y-98785714D02*
X142978019Y-98738095D01*
X142978019Y-98738095D02*
X143073257Y-98690476D01*
X143073257Y-98690476D02*
X143882780Y-98690476D01*
X143406590Y-97880952D02*
X143358971Y-97738095D01*
X143358971Y-97738095D02*
X143311352Y-97690476D01*
X143311352Y-97690476D02*
X143216114Y-97642857D01*
X143216114Y-97642857D02*
X143073257Y-97642857D01*
X143073257Y-97642857D02*
X142978019Y-97690476D01*
X142978019Y-97690476D02*
X142930400Y-97738095D01*
X142930400Y-97738095D02*
X142882780Y-97833333D01*
X142882780Y-97833333D02*
X142882780Y-98214285D01*
X142882780Y-98214285D02*
X143882780Y-98214285D01*
X143882780Y-98214285D02*
X143882780Y-97880952D01*
X143882780Y-97880952D02*
X143835161Y-97785714D01*
X143835161Y-97785714D02*
X143787542Y-97738095D01*
X143787542Y-97738095D02*
X143692304Y-97690476D01*
X143692304Y-97690476D02*
X143597066Y-97690476D01*
X143597066Y-97690476D02*
X143501828Y-97738095D01*
X143501828Y-97738095D02*
X143454209Y-97785714D01*
X143454209Y-97785714D02*
X143406590Y-97880952D01*
X143406590Y-97880952D02*
X143406590Y-98214285D01*
G36*
X146923808Y-100791028D02*
G01*
X146666463Y-100791028D01*
X146606853Y-100761223D01*
X146582185Y-100736554D01*
X146552380Y-100676944D01*
X146552380Y-100581302D01*
X146582185Y-100521692D01*
X146606853Y-100497023D01*
X146666463Y-100467219D01*
X146923808Y-100467219D01*
X146923808Y-100791028D01*
G37*
G36*
X148234919Y-101578330D02*
G01*
X145812697Y-101578330D01*
X145812697Y-100367219D01*
X145923808Y-100367219D01*
X145923808Y-101367219D01*
X145925729Y-101386728D01*
X145940661Y-101422776D01*
X145968251Y-101450366D01*
X146004299Y-101465298D01*
X146043317Y-101465298D01*
X146079365Y-101450366D01*
X146106955Y-101422776D01*
X146121887Y-101386728D01*
X146123808Y-101367219D01*
X146123808Y-100557695D01*
X146352380Y-100557695D01*
X146352380Y-100700552D01*
X146354301Y-100720061D01*
X146355676Y-100723381D01*
X146355931Y-100726965D01*
X146362937Y-100745273D01*
X146410556Y-100840511D01*
X146415841Y-100848907D01*
X146416852Y-100851347D01*
X146419105Y-100854093D01*
X146420999Y-100857101D01*
X146422993Y-100858830D01*
X146429288Y-100866501D01*
X146476907Y-100914119D01*
X146484573Y-100920411D01*
X146486306Y-100922409D01*
X146489314Y-100924302D01*
X146492060Y-100926556D01*
X146494500Y-100927566D01*
X146502897Y-100932852D01*
X146598134Y-100980471D01*
X146616443Y-100987477D01*
X146620026Y-100987731D01*
X146623347Y-100989107D01*
X146642856Y-100991028D01*
X146923808Y-100991028D01*
X146923808Y-101367219D01*
X146925729Y-101386728D01*
X146940661Y-101422776D01*
X146968251Y-101450366D01*
X147004299Y-101465298D01*
X147043317Y-101465298D01*
X147079365Y-101450366D01*
X147106955Y-101422776D01*
X147121887Y-101386728D01*
X147123808Y-101367219D01*
X147123808Y-101081504D01*
X147352380Y-101081504D01*
X147352380Y-101176742D01*
X147354301Y-101196251D01*
X147355676Y-101199571D01*
X147355931Y-101203155D01*
X147362937Y-101221463D01*
X147410556Y-101316701D01*
X147415839Y-101325093D01*
X147416851Y-101327537D01*
X147419107Y-101330286D01*
X147420999Y-101333291D01*
X147422993Y-101335020D01*
X147429288Y-101342690D01*
X147476906Y-101390310D01*
X147484574Y-101396603D01*
X147486306Y-101398600D01*
X147489314Y-101400493D01*
X147492060Y-101402747D01*
X147494500Y-101403757D01*
X147502897Y-101409043D01*
X147598134Y-101456662D01*
X147616443Y-101463668D01*
X147620026Y-101463922D01*
X147623347Y-101465298D01*
X147642856Y-101467219D01*
X147880951Y-101467219D01*
X147890824Y-101466246D01*
X147893458Y-101466434D01*
X147896921Y-101465646D01*
X147900460Y-101465298D01*
X147902902Y-101464286D01*
X147912574Y-101462087D01*
X148055430Y-101414468D01*
X148073331Y-101406477D01*
X148102807Y-101380912D01*
X148120256Y-101346013D01*
X148123023Y-101307093D01*
X148110684Y-101270077D01*
X148085119Y-101240601D01*
X148050220Y-101223151D01*
X148011300Y-101220385D01*
X147992185Y-101224732D01*
X147864724Y-101267219D01*
X147666463Y-101267219D01*
X147606853Y-101237414D01*
X147582186Y-101212746D01*
X147552380Y-101153134D01*
X147552380Y-101105111D01*
X147582185Y-101045501D01*
X147606853Y-101020832D01*
X147677760Y-100985379D01*
X147857585Y-100940423D01*
X147859022Y-100939909D01*
X147859745Y-100939858D01*
X147867869Y-100936749D01*
X147876046Y-100933828D01*
X147876626Y-100933397D01*
X147878053Y-100932852D01*
X147973291Y-100885233D01*
X147981687Y-100879947D01*
X147984127Y-100878937D01*
X147986873Y-100876683D01*
X147989881Y-100874790D01*
X147991610Y-100872795D01*
X147999281Y-100866501D01*
X148046899Y-100818882D01*
X148053191Y-100811215D01*
X148055189Y-100809483D01*
X148057082Y-100806474D01*
X148059336Y-100803729D01*
X148060346Y-100801288D01*
X148065632Y-100792892D01*
X148113251Y-100697655D01*
X148120257Y-100679346D01*
X148120511Y-100675762D01*
X148121887Y-100672442D01*
X148123808Y-100652933D01*
X148123808Y-100557695D01*
X148121887Y-100538186D01*
X148120511Y-100534865D01*
X148120257Y-100531282D01*
X148113251Y-100512973D01*
X148065632Y-100417736D01*
X148060346Y-100409339D01*
X148059336Y-100406899D01*
X148057082Y-100404153D01*
X148055189Y-100401145D01*
X148053191Y-100399412D01*
X148046899Y-100391746D01*
X147999281Y-100344127D01*
X147991610Y-100337832D01*
X147989881Y-100335838D01*
X147986873Y-100333944D01*
X147984127Y-100331691D01*
X147981687Y-100330680D01*
X147973291Y-100325395D01*
X147878053Y-100277776D01*
X147859745Y-100270770D01*
X147856161Y-100270515D01*
X147852841Y-100269140D01*
X147833332Y-100267219D01*
X147595237Y-100267219D01*
X147585363Y-100268191D01*
X147582729Y-100268004D01*
X147579265Y-100268791D01*
X147575728Y-100269140D01*
X147573286Y-100270151D01*
X147563614Y-100272351D01*
X147420757Y-100319970D01*
X147402857Y-100327961D01*
X147373381Y-100353526D01*
X147355931Y-100388425D01*
X147353165Y-100427345D01*
X147365503Y-100464361D01*
X147391068Y-100493837D01*
X147425967Y-100511287D01*
X147464887Y-100514053D01*
X147484003Y-100509706D01*
X147611463Y-100467219D01*
X147809725Y-100467219D01*
X147869334Y-100497024D01*
X147894003Y-100521692D01*
X147923808Y-100581302D01*
X147923808Y-100629326D01*
X147894003Y-100688935D01*
X147869334Y-100713603D01*
X147798427Y-100749057D01*
X147618602Y-100794014D01*
X147617163Y-100794527D01*
X147616443Y-100794579D01*
X147608318Y-100797687D01*
X147600142Y-100800609D01*
X147599562Y-100801038D01*
X147598134Y-100801585D01*
X147502897Y-100849204D01*
X147494500Y-100854489D01*
X147492060Y-100855500D01*
X147489314Y-100857753D01*
X147486306Y-100859647D01*
X147484573Y-100861644D01*
X147476907Y-100867937D01*
X147429288Y-100915555D01*
X147422993Y-100923225D01*
X147420999Y-100924955D01*
X147419105Y-100927962D01*
X147416852Y-100930709D01*
X147415841Y-100933148D01*
X147410556Y-100941545D01*
X147362937Y-101036783D01*
X147355931Y-101055091D01*
X147355676Y-101058674D01*
X147354301Y-101061995D01*
X147352380Y-101081504D01*
X147123808Y-101081504D01*
X147123808Y-100367219D01*
X147121887Y-100347710D01*
X147106955Y-100311662D01*
X147079365Y-100284072D01*
X147043317Y-100269140D01*
X147023808Y-100267219D01*
X146642856Y-100267219D01*
X146623347Y-100269140D01*
X146620026Y-100270515D01*
X146616443Y-100270770D01*
X146598134Y-100277776D01*
X146502897Y-100325395D01*
X146494500Y-100330680D01*
X146492060Y-100331691D01*
X146489314Y-100333944D01*
X146486306Y-100335838D01*
X146484573Y-100337835D01*
X146476907Y-100344128D01*
X146429288Y-100391746D01*
X146422993Y-100399416D01*
X146420999Y-100401146D01*
X146419105Y-100404153D01*
X146416852Y-100406900D01*
X146415841Y-100409339D01*
X146410556Y-100417736D01*
X146362937Y-100512974D01*
X146355931Y-100531282D01*
X146355676Y-100534865D01*
X146354301Y-100538186D01*
X146352380Y-100557695D01*
X146123808Y-100557695D01*
X146123808Y-100367219D01*
X146121887Y-100347710D01*
X146106955Y-100311662D01*
X146079365Y-100284072D01*
X146043317Y-100269140D01*
X146004299Y-100269140D01*
X145968251Y-100284072D01*
X145940661Y-100311662D01*
X145925729Y-100347710D01*
X145923808Y-100367219D01*
X145812697Y-100367219D01*
X145812697Y-100156108D01*
X148234919Y-100156108D01*
X148234919Y-101578330D01*
G37*
X156380326Y-102897331D02*
X156856516Y-102897331D01*
X156856516Y-102897331D02*
X156856516Y-101897331D01*
X156094611Y-102849712D02*
X155951754Y-102897331D01*
X155951754Y-102897331D02*
X155713659Y-102897331D01*
X155713659Y-102897331D02*
X155618421Y-102849712D01*
X155618421Y-102849712D02*
X155570802Y-102802092D01*
X155570802Y-102802092D02*
X155523183Y-102706854D01*
X155523183Y-102706854D02*
X155523183Y-102611616D01*
X155523183Y-102611616D02*
X155570802Y-102516378D01*
X155570802Y-102516378D02*
X155618421Y-102468759D01*
X155618421Y-102468759D02*
X155713659Y-102421140D01*
X155713659Y-102421140D02*
X155904135Y-102373521D01*
X155904135Y-102373521D02*
X155999373Y-102325902D01*
X155999373Y-102325902D02*
X156046992Y-102278283D01*
X156046992Y-102278283D02*
X156094611Y-102183045D01*
X156094611Y-102183045D02*
X156094611Y-102087807D01*
X156094611Y-102087807D02*
X156046992Y-101992569D01*
X156046992Y-101992569D02*
X155999373Y-101944950D01*
X155999373Y-101944950D02*
X155904135Y-101897331D01*
X155904135Y-101897331D02*
X155666040Y-101897331D01*
X155666040Y-101897331D02*
X155523183Y-101944950D01*
X155094611Y-102897331D02*
X155094611Y-101897331D01*
X155094611Y-101897331D02*
X154761278Y-102611616D01*
X154761278Y-102611616D02*
X154427945Y-101897331D01*
X154427945Y-101897331D02*
X154427945Y-102897331D01*
X153523183Y-101897331D02*
X153713659Y-101897331D01*
X153713659Y-101897331D02*
X153808897Y-101944950D01*
X153808897Y-101944950D02*
X153856516Y-101992569D01*
X153856516Y-101992569D02*
X153951754Y-102135426D01*
X153951754Y-102135426D02*
X153999373Y-102325902D01*
X153999373Y-102325902D02*
X153999373Y-102706854D01*
X153999373Y-102706854D02*
X153951754Y-102802092D01*
X153951754Y-102802092D02*
X153904135Y-102849712D01*
X153904135Y-102849712D02*
X153808897Y-102897331D01*
X153808897Y-102897331D02*
X153618421Y-102897331D01*
X153618421Y-102897331D02*
X153523183Y-102849712D01*
X153523183Y-102849712D02*
X153475564Y-102802092D01*
X153475564Y-102802092D02*
X153427945Y-102706854D01*
X153427945Y-102706854D02*
X153427945Y-102468759D01*
X153427945Y-102468759D02*
X153475564Y-102373521D01*
X153475564Y-102373521D02*
X153523183Y-102325902D01*
X153523183Y-102325902D02*
X153618421Y-102278283D01*
X153618421Y-102278283D02*
X153808897Y-102278283D01*
X153808897Y-102278283D02*
X153904135Y-102325902D01*
X153904135Y-102325902D02*
X153951754Y-102373521D01*
X153951754Y-102373521D02*
X153999373Y-102468759D01*
X158380326Y-104507275D02*
X158380326Y-103507275D01*
X157904136Y-104507275D02*
X157904136Y-103507275D01*
X157904136Y-103507275D02*
X157332708Y-104507275D01*
X157332708Y-104507275D02*
X157332708Y-103507275D01*
X156999374Y-103507275D02*
X156427946Y-103507275D01*
X156713660Y-104507275D02*
X156713660Y-103507275D01*
X156380326Y-106117219D02*
X156856516Y-106117219D01*
X156856516Y-106117219D02*
X156856516Y-105117219D01*
X156046992Y-106117219D02*
X156046992Y-105117219D01*
X155618421Y-106069600D02*
X155475564Y-106117219D01*
X155475564Y-106117219D02*
X155237469Y-106117219D01*
X155237469Y-106117219D02*
X155142231Y-106069600D01*
X155142231Y-106069600D02*
X155094612Y-106021980D01*
X155094612Y-106021980D02*
X155046993Y-105926742D01*
X155046993Y-105926742D02*
X155046993Y-105831504D01*
X155046993Y-105831504D02*
X155094612Y-105736266D01*
X155094612Y-105736266D02*
X155142231Y-105688647D01*
X155142231Y-105688647D02*
X155237469Y-105641028D01*
X155237469Y-105641028D02*
X155427945Y-105593409D01*
X155427945Y-105593409D02*
X155523183Y-105545790D01*
X155523183Y-105545790D02*
X155570802Y-105498171D01*
X155570802Y-105498171D02*
X155618421Y-105402933D01*
X155618421Y-105402933D02*
X155618421Y-105307695D01*
X155618421Y-105307695D02*
X155570802Y-105212457D01*
X155570802Y-105212457D02*
X155523183Y-105164838D01*
X155523183Y-105164838D02*
X155427945Y-105117219D01*
X155427945Y-105117219D02*
X155189850Y-105117219D01*
X155189850Y-105117219D02*
X155046993Y-105164838D01*
X154666040Y-105212457D02*
X154618421Y-105164838D01*
X154618421Y-105164838D02*
X154523183Y-105117219D01*
X154523183Y-105117219D02*
X154285088Y-105117219D01*
X154285088Y-105117219D02*
X154189850Y-105164838D01*
X154189850Y-105164838D02*
X154142231Y-105212457D01*
X154142231Y-105212457D02*
X154094612Y-105307695D01*
X154094612Y-105307695D02*
X154094612Y-105402933D01*
X154094612Y-105402933D02*
X154142231Y-105545790D01*
X154142231Y-105545790D02*
X154713659Y-106117219D01*
X154713659Y-106117219D02*
X154094612Y-106117219D01*
X142380326Y-106757275D02*
X142380326Y-107566798D01*
X142380326Y-107566798D02*
X142332707Y-107662036D01*
X142332707Y-107662036D02*
X142285088Y-107709656D01*
X142285088Y-107709656D02*
X142189850Y-107757275D01*
X142189850Y-107757275D02*
X141999374Y-107757275D01*
X141999374Y-107757275D02*
X141904136Y-107709656D01*
X141904136Y-107709656D02*
X141856517Y-107662036D01*
X141856517Y-107662036D02*
X141808898Y-107566798D01*
X141808898Y-107566798D02*
X141808898Y-106757275D01*
X141380326Y-107709656D02*
X141237469Y-107757275D01*
X141237469Y-107757275D02*
X140999374Y-107757275D01*
X140999374Y-107757275D02*
X140904136Y-107709656D01*
X140904136Y-107709656D02*
X140856517Y-107662036D01*
X140856517Y-107662036D02*
X140808898Y-107566798D01*
X140808898Y-107566798D02*
X140808898Y-107471560D01*
X140808898Y-107471560D02*
X140856517Y-107376322D01*
X140856517Y-107376322D02*
X140904136Y-107328703D01*
X140904136Y-107328703D02*
X140999374Y-107281084D01*
X140999374Y-107281084D02*
X141189850Y-107233465D01*
X141189850Y-107233465D02*
X141285088Y-107185846D01*
X141285088Y-107185846D02*
X141332707Y-107138227D01*
X141332707Y-107138227D02*
X141380326Y-107042989D01*
X141380326Y-107042989D02*
X141380326Y-106947751D01*
X141380326Y-106947751D02*
X141332707Y-106852513D01*
X141332707Y-106852513D02*
X141285088Y-106804894D01*
X141285088Y-106804894D02*
X141189850Y-106757275D01*
X141189850Y-106757275D02*
X140951755Y-106757275D01*
X140951755Y-106757275D02*
X140808898Y-106804894D01*
X140046993Y-107233465D02*
X139904136Y-107281084D01*
X139904136Y-107281084D02*
X139856517Y-107328703D01*
X139856517Y-107328703D02*
X139808898Y-107423941D01*
X139808898Y-107423941D02*
X139808898Y-107566798D01*
X139808898Y-107566798D02*
X139856517Y-107662036D01*
X139856517Y-107662036D02*
X139904136Y-107709656D01*
X139904136Y-107709656D02*
X139999374Y-107757275D01*
X139999374Y-107757275D02*
X140380326Y-107757275D01*
X140380326Y-107757275D02*
X140380326Y-106757275D01*
X140380326Y-106757275D02*
X140046993Y-106757275D01*
X140046993Y-106757275D02*
X139951755Y-106804894D01*
X139951755Y-106804894D02*
X139904136Y-106852513D01*
X139904136Y-106852513D02*
X139856517Y-106947751D01*
X139856517Y-106947751D02*
X139856517Y-107042989D01*
X139856517Y-107042989D02*
X139904136Y-107138227D01*
X139904136Y-107138227D02*
X139951755Y-107185846D01*
X139951755Y-107185846D02*
X140046993Y-107233465D01*
X140046993Y-107233465D02*
X140380326Y-107233465D01*
X138618421Y-107757275D02*
X138618421Y-106757275D01*
X138618421Y-106757275D02*
X138380326Y-106757275D01*
X138380326Y-106757275D02*
X138237469Y-106804894D01*
X138237469Y-106804894D02*
X138142231Y-106900132D01*
X138142231Y-106900132D02*
X138094612Y-106995370D01*
X138094612Y-106995370D02*
X138046993Y-107185846D01*
X138046993Y-107185846D02*
X138046993Y-107328703D01*
X138046993Y-107328703D02*
X138094612Y-107519179D01*
X138094612Y-107519179D02*
X138142231Y-107614417D01*
X138142231Y-107614417D02*
X138237469Y-107709656D01*
X138237469Y-107709656D02*
X138380326Y-107757275D01*
X138380326Y-107757275D02*
X138618421Y-107757275D01*
X137189850Y-107757275D02*
X137189850Y-107233465D01*
X137189850Y-107233465D02*
X137237469Y-107138227D01*
X137237469Y-107138227D02*
X137332707Y-107090608D01*
X137332707Y-107090608D02*
X137523183Y-107090608D01*
X137523183Y-107090608D02*
X137618421Y-107138227D01*
X137189850Y-107709656D02*
X137285088Y-107757275D01*
X137285088Y-107757275D02*
X137523183Y-107757275D01*
X137523183Y-107757275D02*
X137618421Y-107709656D01*
X137618421Y-107709656D02*
X137666040Y-107614417D01*
X137666040Y-107614417D02*
X137666040Y-107519179D01*
X137666040Y-107519179D02*
X137618421Y-107423941D01*
X137618421Y-107423941D02*
X137523183Y-107376322D01*
X137523183Y-107376322D02*
X137285088Y-107376322D01*
X137285088Y-107376322D02*
X137189850Y-107328703D01*
X136856516Y-107090608D02*
X136475564Y-107090608D01*
X136713659Y-106757275D02*
X136713659Y-107614417D01*
X136713659Y-107614417D02*
X136666040Y-107709656D01*
X136666040Y-107709656D02*
X136570802Y-107757275D01*
X136570802Y-107757275D02*
X136475564Y-107757275D01*
X135713659Y-107757275D02*
X135713659Y-107233465D01*
X135713659Y-107233465D02*
X135761278Y-107138227D01*
X135761278Y-107138227D02*
X135856516Y-107090608D01*
X135856516Y-107090608D02*
X136046992Y-107090608D01*
X136046992Y-107090608D02*
X136142230Y-107138227D01*
X135713659Y-107709656D02*
X135808897Y-107757275D01*
X135808897Y-107757275D02*
X136046992Y-107757275D01*
X136046992Y-107757275D02*
X136142230Y-107709656D01*
X136142230Y-107709656D02*
X136189849Y-107614417D01*
X136189849Y-107614417D02*
X136189849Y-107519179D01*
X136189849Y-107519179D02*
X136142230Y-107423941D01*
X136142230Y-107423941D02*
X136046992Y-107376322D01*
X136046992Y-107376322D02*
X135808897Y-107376322D01*
X135808897Y-107376322D02*
X135713659Y-107328703D01*
X141808898Y-109367219D02*
X142142231Y-108891028D01*
X142380326Y-109367219D02*
X142380326Y-108367219D01*
X142380326Y-108367219D02*
X141999374Y-108367219D01*
X141999374Y-108367219D02*
X141904136Y-108414838D01*
X141904136Y-108414838D02*
X141856517Y-108462457D01*
X141856517Y-108462457D02*
X141808898Y-108557695D01*
X141808898Y-108557695D02*
X141808898Y-108700552D01*
X141808898Y-108700552D02*
X141856517Y-108795790D01*
X141856517Y-108795790D02*
X141904136Y-108843409D01*
X141904136Y-108843409D02*
X141999374Y-108891028D01*
X141999374Y-108891028D02*
X142380326Y-108891028D01*
X140999374Y-109319600D02*
X141094612Y-109367219D01*
X141094612Y-109367219D02*
X141285088Y-109367219D01*
X141285088Y-109367219D02*
X141380326Y-109319600D01*
X141380326Y-109319600D02*
X141427945Y-109224361D01*
X141427945Y-109224361D02*
X141427945Y-108843409D01*
X141427945Y-108843409D02*
X141380326Y-108748171D01*
X141380326Y-108748171D02*
X141285088Y-108700552D01*
X141285088Y-108700552D02*
X141094612Y-108700552D01*
X141094612Y-108700552D02*
X140999374Y-108748171D01*
X140999374Y-108748171D02*
X140951755Y-108843409D01*
X140951755Y-108843409D02*
X140951755Y-108938647D01*
X140951755Y-108938647D02*
X141427945Y-109033885D01*
X140570802Y-109319600D02*
X140475564Y-109367219D01*
X140475564Y-109367219D02*
X140285088Y-109367219D01*
X140285088Y-109367219D02*
X140189850Y-109319600D01*
X140189850Y-109319600D02*
X140142231Y-109224361D01*
X140142231Y-109224361D02*
X140142231Y-109176742D01*
X140142231Y-109176742D02*
X140189850Y-109081504D01*
X140189850Y-109081504D02*
X140285088Y-109033885D01*
X140285088Y-109033885D02*
X140427945Y-109033885D01*
X140427945Y-109033885D02*
X140523183Y-108986266D01*
X140523183Y-108986266D02*
X140570802Y-108891028D01*
X140570802Y-108891028D02*
X140570802Y-108843409D01*
X140570802Y-108843409D02*
X140523183Y-108748171D01*
X140523183Y-108748171D02*
X140427945Y-108700552D01*
X140427945Y-108700552D02*
X140285088Y-108700552D01*
X140285088Y-108700552D02*
X140189850Y-108748171D01*
X138618421Y-108843409D02*
X138475564Y-108891028D01*
X138475564Y-108891028D02*
X138427945Y-108938647D01*
X138427945Y-108938647D02*
X138380326Y-109033885D01*
X138380326Y-109033885D02*
X138380326Y-109176742D01*
X138380326Y-109176742D02*
X138427945Y-109271980D01*
X138427945Y-109271980D02*
X138475564Y-109319600D01*
X138475564Y-109319600D02*
X138570802Y-109367219D01*
X138570802Y-109367219D02*
X138951754Y-109367219D01*
X138951754Y-109367219D02*
X138951754Y-108367219D01*
X138951754Y-108367219D02*
X138618421Y-108367219D01*
X138618421Y-108367219D02*
X138523183Y-108414838D01*
X138523183Y-108414838D02*
X138475564Y-108462457D01*
X138475564Y-108462457D02*
X138427945Y-108557695D01*
X138427945Y-108557695D02*
X138427945Y-108652933D01*
X138427945Y-108652933D02*
X138475564Y-108748171D01*
X138475564Y-108748171D02*
X138523183Y-108795790D01*
X138523183Y-108795790D02*
X138618421Y-108843409D01*
X138618421Y-108843409D02*
X138951754Y-108843409D01*
X138046992Y-108700552D02*
X137808897Y-109367219D01*
X137570802Y-108700552D02*
X137808897Y-109367219D01*
X137808897Y-109367219D02*
X137904135Y-109605314D01*
X137904135Y-109605314D02*
X137951754Y-109652933D01*
X137951754Y-109652933D02*
X138046992Y-109700552D01*
X137189849Y-108700552D02*
X137189849Y-109700552D01*
X137189849Y-108748171D02*
X137094611Y-108700552D01*
X137094611Y-108700552D02*
X136904135Y-108700552D01*
X136904135Y-108700552D02*
X136808897Y-108748171D01*
X136808897Y-108748171D02*
X136761278Y-108795790D01*
X136761278Y-108795790D02*
X136713659Y-108891028D01*
X136713659Y-108891028D02*
X136713659Y-109176742D01*
X136713659Y-109176742D02*
X136761278Y-109271980D01*
X136761278Y-109271980D02*
X136808897Y-109319600D01*
X136808897Y-109319600D02*
X136904135Y-109367219D01*
X136904135Y-109367219D02*
X137094611Y-109367219D01*
X137094611Y-109367219D02*
X137189849Y-109319600D01*
X135856516Y-109367219D02*
X135856516Y-108843409D01*
X135856516Y-108843409D02*
X135904135Y-108748171D01*
X135904135Y-108748171D02*
X135999373Y-108700552D01*
X135999373Y-108700552D02*
X136189849Y-108700552D01*
X136189849Y-108700552D02*
X136285087Y-108748171D01*
X135856516Y-109319600D02*
X135951754Y-109367219D01*
X135951754Y-109367219D02*
X136189849Y-109367219D01*
X136189849Y-109367219D02*
X136285087Y-109319600D01*
X136285087Y-109319600D02*
X136332706Y-109224361D01*
X136332706Y-109224361D02*
X136332706Y-109129123D01*
X136332706Y-109129123D02*
X136285087Y-109033885D01*
X136285087Y-109033885D02*
X136189849Y-108986266D01*
X136189849Y-108986266D02*
X135951754Y-108986266D01*
X135951754Y-108986266D02*
X135856516Y-108938647D01*
X135427944Y-109319600D02*
X135332706Y-109367219D01*
X135332706Y-109367219D02*
X135142230Y-109367219D01*
X135142230Y-109367219D02*
X135046992Y-109319600D01*
X135046992Y-109319600D02*
X134999373Y-109224361D01*
X134999373Y-109224361D02*
X134999373Y-109176742D01*
X134999373Y-109176742D02*
X135046992Y-109081504D01*
X135046992Y-109081504D02*
X135142230Y-109033885D01*
X135142230Y-109033885D02*
X135285087Y-109033885D01*
X135285087Y-109033885D02*
X135380325Y-108986266D01*
X135380325Y-108986266D02*
X135427944Y-108891028D01*
X135427944Y-108891028D02*
X135427944Y-108843409D01*
X135427944Y-108843409D02*
X135380325Y-108748171D01*
X135380325Y-108748171D02*
X135285087Y-108700552D01*
X135285087Y-108700552D02*
X135142230Y-108700552D01*
X135142230Y-108700552D02*
X135046992Y-108748171D01*
X134618420Y-109319600D02*
X134523182Y-109367219D01*
X134523182Y-109367219D02*
X134332706Y-109367219D01*
X134332706Y-109367219D02*
X134237468Y-109319600D01*
X134237468Y-109319600D02*
X134189849Y-109224361D01*
X134189849Y-109224361D02*
X134189849Y-109176742D01*
X134189849Y-109176742D02*
X134237468Y-109081504D01*
X134237468Y-109081504D02*
X134332706Y-109033885D01*
X134332706Y-109033885D02*
X134475563Y-109033885D01*
X134475563Y-109033885D02*
X134570801Y-108986266D01*
X134570801Y-108986266D02*
X134618420Y-108891028D01*
X134618420Y-108891028D02*
X134618420Y-108843409D01*
X134618420Y-108843409D02*
X134570801Y-108748171D01*
X134570801Y-108748171D02*
X134475563Y-108700552D01*
X134475563Y-108700552D02*
X134332706Y-108700552D01*
X134332706Y-108700552D02*
X134237468Y-108748171D01*
D10*
X137642857Y-83484819D02*
X137976190Y-83008628D01*
X138214285Y-83484819D02*
X138214285Y-82484819D01*
X138214285Y-82484819D02*
X137833333Y-82484819D01*
X137833333Y-82484819D02*
X137738095Y-82532438D01*
X137738095Y-82532438D02*
X137690476Y-82580057D01*
X137690476Y-82580057D02*
X137642857Y-82675295D01*
X137642857Y-82675295D02*
X137642857Y-82818152D01*
X137642857Y-82818152D02*
X137690476Y-82913390D01*
X137690476Y-82913390D02*
X137738095Y-82961009D01*
X137738095Y-82961009D02*
X137833333Y-83008628D01*
X137833333Y-83008628D02*
X138214285Y-83008628D01*
X137261904Y-82580057D02*
X137214285Y-82532438D01*
X137214285Y-82532438D02*
X137119047Y-82484819D01*
X137119047Y-82484819D02*
X136880952Y-82484819D01*
X136880952Y-82484819D02*
X136785714Y-82532438D01*
X136785714Y-82532438D02*
X136738095Y-82580057D01*
X136738095Y-82580057D02*
X136690476Y-82675295D01*
X136690476Y-82675295D02*
X136690476Y-82770533D01*
X136690476Y-82770533D02*
X136738095Y-82913390D01*
X136738095Y-82913390D02*
X137309523Y-83484819D01*
X137309523Y-83484819D02*
X136690476Y-83484819D01*
X136357142Y-82484819D02*
X135738095Y-82484819D01*
X135738095Y-82484819D02*
X136071428Y-82865771D01*
X136071428Y-82865771D02*
X135928571Y-82865771D01*
X135928571Y-82865771D02*
X135833333Y-82913390D01*
X135833333Y-82913390D02*
X135785714Y-82961009D01*
X135785714Y-82961009D02*
X135738095Y-83056247D01*
X135738095Y-83056247D02*
X135738095Y-83294342D01*
X135738095Y-83294342D02*
X135785714Y-83389580D01*
X135785714Y-83389580D02*
X135833333Y-83437200D01*
X135833333Y-83437200D02*
X135928571Y-83484819D01*
X135928571Y-83484819D02*
X136214285Y-83484819D01*
X136214285Y-83484819D02*
X136309523Y-83437200D01*
X136309523Y-83437200D02*
X136357142Y-83389580D01*
X137642857Y-81884819D02*
X137976190Y-81408628D01*
X138214285Y-81884819D02*
X138214285Y-80884819D01*
X138214285Y-80884819D02*
X137833333Y-80884819D01*
X137833333Y-80884819D02*
X137738095Y-80932438D01*
X137738095Y-80932438D02*
X137690476Y-80980057D01*
X137690476Y-80980057D02*
X137642857Y-81075295D01*
X137642857Y-81075295D02*
X137642857Y-81218152D01*
X137642857Y-81218152D02*
X137690476Y-81313390D01*
X137690476Y-81313390D02*
X137738095Y-81361009D01*
X137738095Y-81361009D02*
X137833333Y-81408628D01*
X137833333Y-81408628D02*
X138214285Y-81408628D01*
X137261904Y-80980057D02*
X137214285Y-80932438D01*
X137214285Y-80932438D02*
X137119047Y-80884819D01*
X137119047Y-80884819D02*
X136880952Y-80884819D01*
X136880952Y-80884819D02*
X136785714Y-80932438D01*
X136785714Y-80932438D02*
X136738095Y-80980057D01*
X136738095Y-80980057D02*
X136690476Y-81075295D01*
X136690476Y-81075295D02*
X136690476Y-81170533D01*
X136690476Y-81170533D02*
X136738095Y-81313390D01*
X136738095Y-81313390D02*
X137309523Y-81884819D01*
X137309523Y-81884819D02*
X136690476Y-81884819D01*
X136309523Y-80980057D02*
X136261904Y-80932438D01*
X136261904Y-80932438D02*
X136166666Y-80884819D01*
X136166666Y-80884819D02*
X135928571Y-80884819D01*
X135928571Y-80884819D02*
X135833333Y-80932438D01*
X135833333Y-80932438D02*
X135785714Y-80980057D01*
X135785714Y-80980057D02*
X135738095Y-81075295D01*
X135738095Y-81075295D02*
X135738095Y-81170533D01*
X135738095Y-81170533D02*
X135785714Y-81313390D01*
X135785714Y-81313390D02*
X136357142Y-81884819D01*
X136357142Y-81884819D02*
X135738095Y-81884819D01*
X137476190Y-85478628D02*
X137476190Y-85954819D01*
X137809523Y-84954819D02*
X137476190Y-85478628D01*
X137476190Y-85478628D02*
X137142857Y-84954819D01*
X136285714Y-85954819D02*
X136857142Y-85954819D01*
X136571428Y-85954819D02*
X136571428Y-84954819D01*
X136571428Y-84954819D02*
X136666666Y-85097676D01*
X136666666Y-85097676D02*
X136761904Y-85192914D01*
X136761904Y-85192914D02*
X136857142Y-85240533D01*
D13*
G04 #@! TO.C,G\u002A\u002A\u002A*
G36*
X155451034Y-133130375D02*
G01*
X155544174Y-133132448D01*
X155618700Y-133136086D01*
X155668153Y-133140925D01*
X155686072Y-133146604D01*
X155688541Y-133151116D01*
X155716156Y-133164435D01*
X155764557Y-133175724D01*
X155818355Y-133187221D01*
X155954313Y-133241065D01*
X156086326Y-133327152D01*
X156209720Y-133441421D01*
X156319823Y-133579812D01*
X156411960Y-133738265D01*
X156452481Y-133826503D01*
X156513647Y-133977001D01*
X156571492Y-134137931D01*
X156620903Y-134294783D01*
X156656766Y-134433046D01*
X156668851Y-134505947D01*
X156679046Y-134629258D01*
X156682041Y-134768767D01*
X156677964Y-134912305D01*
X156666942Y-135047703D01*
X156649104Y-135162794D01*
X156645414Y-135179979D01*
X156598033Y-135349775D01*
X156533292Y-135495400D01*
X156445126Y-135628099D01*
X156327471Y-135759113D01*
X156325316Y-135761256D01*
X156247259Y-135835656D01*
X156151459Y-135922321D01*
X156049856Y-136010658D01*
X155954391Y-136090073D01*
X155918362Y-136119344D01*
X155849029Y-136176736D01*
X155795134Y-136222836D01*
X155761440Y-136253520D01*
X155752709Y-136264664D01*
X155753309Y-136264604D01*
X155777641Y-136254904D01*
X155829789Y-136230517D01*
X155904358Y-136194167D01*
X155995954Y-136148573D01*
X156099184Y-136096459D01*
X156208652Y-136040546D01*
X156318965Y-135983556D01*
X156424729Y-135928210D01*
X156520548Y-135877230D01*
X156596791Y-135837225D01*
X156666386Y-135802692D01*
X156717909Y-135779318D01*
X156743772Y-135770722D01*
X156757554Y-135773848D01*
X156768613Y-135792945D01*
X156752210Y-135811884D01*
X156738644Y-135830758D01*
X156713961Y-135877658D01*
X156681693Y-135945496D01*
X156645356Y-136027192D01*
X156565909Y-136205266D01*
X156423724Y-136493232D01*
X156279726Y-136745266D01*
X156132990Y-136962690D01*
X155982587Y-137146823D01*
X155827591Y-137298985D01*
X155667075Y-137420498D01*
X155634933Y-137440772D01*
X155532320Y-137500344D01*
X155400058Y-137571691D01*
X155242042Y-137652870D01*
X155062171Y-137741940D01*
X154864340Y-137836956D01*
X154652445Y-137935977D01*
X154430383Y-138037060D01*
X154362061Y-138067775D01*
X154205859Y-138138239D01*
X154080591Y-138195260D01*
X153983490Y-138240226D01*
X153911792Y-138274525D01*
X153862732Y-138299544D01*
X153833546Y-138316672D01*
X153821467Y-138327295D01*
X153823733Y-138332802D01*
X153837576Y-138334580D01*
X153837629Y-138334581D01*
X153875695Y-138331168D01*
X153942292Y-138321197D01*
X154028861Y-138306267D01*
X154126846Y-138287974D01*
X154227690Y-138267915D01*
X154322835Y-138247689D01*
X154403724Y-138228892D01*
X154411152Y-138227000D01*
X154470111Y-138210425D01*
X154556216Y-138184609D01*
X154661964Y-138151868D01*
X154779855Y-138114519D01*
X154902387Y-138074879D01*
X154943629Y-138061482D01*
X155054129Y-138026530D01*
X155150352Y-137997449D01*
X155226863Y-137975798D01*
X155278229Y-137963137D01*
X155299014Y-137961026D01*
X155299716Y-137962473D01*
X155293934Y-137988793D01*
X155273513Y-138041053D01*
X155241559Y-138112960D01*
X155201176Y-138198217D01*
X155155470Y-138290530D01*
X155107549Y-138383605D01*
X155060517Y-138471146D01*
X155017481Y-138546858D01*
X154981547Y-138604448D01*
X154981143Y-138605046D01*
X154764445Y-138904756D01*
X154539874Y-139172097D01*
X154301947Y-139412613D01*
X154045184Y-139631846D01*
X153764101Y-139835337D01*
X153546376Y-139974885D01*
X153303430Y-140114700D01*
X153058884Y-140237232D01*
X152807579Y-140344292D01*
X152544356Y-140437689D01*
X152264055Y-140519233D01*
X151961517Y-140590737D01*
X151631583Y-140654009D01*
X151269094Y-140710860D01*
X151217286Y-140718357D01*
X151124066Y-140732459D01*
X151048335Y-140744726D01*
X150996811Y-140754046D01*
X150976212Y-140759309D01*
X150986448Y-140762023D01*
X151027534Y-140764654D01*
X151093051Y-140766430D01*
X151175688Y-140767067D01*
X151313205Y-140764899D01*
X151499831Y-140754936D01*
X151694370Y-140736171D01*
X151902398Y-140707818D01*
X152129493Y-140669089D01*
X152381233Y-140619200D01*
X152663193Y-140557364D01*
X152758714Y-140535720D01*
X152854245Y-140514318D01*
X152931154Y-140497357D01*
X152983304Y-140486189D01*
X153004558Y-140482166D01*
X153004582Y-140484318D01*
X152987989Y-140505846D01*
X152952088Y-140545556D01*
X152902306Y-140597333D01*
X152766479Y-140722759D01*
X152577169Y-140869193D01*
X152367779Y-141005833D01*
X152148047Y-141126412D01*
X151927709Y-141224663D01*
X151869242Y-141247047D01*
X151749582Y-141288569D01*
X151638585Y-141319202D01*
X151526944Y-141340505D01*
X151405352Y-141354034D01*
X151264505Y-141361347D01*
X151095094Y-141364002D01*
X150750115Y-141365561D01*
X150774518Y-141422555D01*
X150797078Y-141474017D01*
X150823369Y-141531872D01*
X150823509Y-141532172D01*
X150837480Y-141572126D01*
X150836987Y-141595026D01*
X150830722Y-141595740D01*
X150794216Y-141590143D01*
X150731614Y-141576546D01*
X150649878Y-141556674D01*
X150555973Y-141532253D01*
X150456861Y-141505010D01*
X150359505Y-141476669D01*
X150341170Y-141473504D01*
X150331572Y-141483646D01*
X150331093Y-141515596D01*
X150338054Y-141577230D01*
X150352891Y-141694885D01*
X150363481Y-141784059D01*
X150369650Y-141845052D01*
X150371799Y-141882670D01*
X150370331Y-141901716D01*
X150365648Y-141906997D01*
X150352122Y-141900124D01*
X150313231Y-141874512D01*
X150256313Y-141834381D01*
X150188183Y-141784439D01*
X150165278Y-141767614D01*
X150088192Y-141713488D01*
X150000102Y-141654455D01*
X149907066Y-141594267D01*
X149815146Y-141536681D01*
X149730399Y-141485451D01*
X149658886Y-141444333D01*
X149606667Y-141417080D01*
X149579800Y-141407448D01*
X149571461Y-141409618D01*
X149532442Y-141424330D01*
X149468727Y-141450614D01*
X149386846Y-141485747D01*
X149293327Y-141527004D01*
X149238167Y-141551427D01*
X149075654Y-141621412D01*
X148897050Y-141695953D01*
X148710806Y-141771683D01*
X148525374Y-141845232D01*
X148349206Y-141913232D01*
X148190755Y-141972315D01*
X148058473Y-142019113D01*
X148052526Y-142021136D01*
X147963246Y-142052151D01*
X147885541Y-142080276D01*
X147827576Y-142102487D01*
X147797512Y-142115761D01*
X147795929Y-142116642D01*
X147753085Y-142129617D01*
X147697774Y-142134970D01*
X147631024Y-142134970D01*
X147631024Y-142020984D01*
X147633042Y-141969507D01*
X147639902Y-141924302D01*
X147650022Y-141906997D01*
X147663136Y-141892674D01*
X147669310Y-141854754D01*
X147673146Y-141814844D01*
X147684474Y-141779096D01*
X147704754Y-141766634D01*
X147755636Y-141744263D01*
X147830942Y-141714678D01*
X147924689Y-141680226D01*
X148030892Y-141643255D01*
X148244951Y-141569057D01*
X148732758Y-141386443D01*
X149195323Y-141192734D01*
X149641358Y-140983945D01*
X150079574Y-140756090D01*
X150518683Y-140505186D01*
X150932864Y-140247271D01*
X151428223Y-139908750D01*
X151906258Y-139548701D01*
X152364900Y-139169296D01*
X152802084Y-138772711D01*
X153215742Y-138361121D01*
X153603806Y-137936699D01*
X153964211Y-137501620D01*
X154294889Y-137058060D01*
X154593773Y-136608191D01*
X154858796Y-136154190D01*
X155087891Y-135698231D01*
X155212816Y-135416002D01*
X155352838Y-135061981D01*
X155463578Y-134730970D01*
X155545183Y-134422464D01*
X155597803Y-134135958D01*
X155621583Y-133870947D01*
X155625461Y-133775486D01*
X155629869Y-133683121D01*
X155634137Y-133607778D01*
X155637722Y-133559933D01*
X155637836Y-133558790D01*
X155640412Y-133511753D01*
X155635215Y-133500936D01*
X155622175Y-133526518D01*
X155601223Y-133588678D01*
X155572288Y-133687596D01*
X155535302Y-133823452D01*
X155517698Y-133888975D01*
X155383227Y-134346671D01*
X155234574Y-134779205D01*
X155068027Y-135196690D01*
X154879875Y-135609241D01*
X154854787Y-135660717D01*
X154651763Y-136053085D01*
X154436896Y-136424947D01*
X154206201Y-136781865D01*
X153955695Y-137129405D01*
X153681395Y-137473132D01*
X153379316Y-137818608D01*
X153045474Y-138171400D01*
X152919682Y-138298325D01*
X152522562Y-138680662D01*
X152118623Y-139042690D01*
X151711711Y-139381289D01*
X151305678Y-139693340D01*
X150904370Y-139975724D01*
X150511637Y-140225320D01*
X150482712Y-140242532D01*
X150377559Y-140303372D01*
X150262018Y-140368025D01*
X150140924Y-140434001D01*
X150019112Y-140498809D01*
X149901419Y-140559959D01*
X149792680Y-140614960D01*
X149697729Y-140661323D01*
X149621404Y-140696557D01*
X149568539Y-140718171D01*
X149543970Y-140723675D01*
X149538765Y-140719210D01*
X149520515Y-140685908D01*
X149498111Y-140628356D01*
X149475255Y-140555607D01*
X149463691Y-140515490D01*
X149433279Y-140414119D01*
X149398741Y-140302999D01*
X149365538Y-140199833D01*
X149343839Y-140132552D01*
X149322914Y-140064167D01*
X149309741Y-140016672D01*
X149306526Y-139997619D01*
X149308222Y-139997928D01*
X149328170Y-140015250D01*
X149364892Y-140053141D01*
X149412063Y-140105155D01*
X149425968Y-140120839D01*
X149469706Y-140169353D01*
X149500295Y-140201989D01*
X149511812Y-140212379D01*
X149511812Y-140212340D01*
X149512435Y-140191773D01*
X149514092Y-140140927D01*
X149516532Y-140067384D01*
X149519507Y-139978725D01*
X149521222Y-139921128D01*
X149523903Y-139805368D01*
X149526312Y-139671600D01*
X149528238Y-139532138D01*
X149529469Y-139399294D01*
X149531746Y-139047835D01*
X149624026Y-139276593D01*
X149661312Y-139366799D01*
X149707235Y-139473401D01*
X149751177Y-139571265D01*
X149787258Y-139647049D01*
X149815445Y-139699916D01*
X149860911Y-139776909D01*
X149911119Y-139855250D01*
X149961309Y-139928095D01*
X150006721Y-139988600D01*
X150042595Y-140029922D01*
X150064173Y-140045217D01*
X150066741Y-140045006D01*
X150076559Y-140038088D01*
X150084409Y-140018301D01*
X150090685Y-139981457D01*
X150095781Y-139923370D01*
X150100089Y-139839852D01*
X150104005Y-139726715D01*
X150107920Y-139579772D01*
X150112489Y-139452340D01*
X150141275Y-139101720D01*
X150194794Y-138759301D01*
X150274684Y-138417642D01*
X150382583Y-138069302D01*
X150520128Y-137706840D01*
X150554412Y-137625000D01*
X150616203Y-137484296D01*
X150679437Y-137347846D01*
X150742241Y-137219035D01*
X150802745Y-137101250D01*
X150859076Y-136997878D01*
X150909362Y-136912306D01*
X150951731Y-136847919D01*
X150984313Y-136808106D01*
X151005235Y-136796253D01*
X151012624Y-136815746D01*
X151014537Y-136852479D01*
X151022333Y-136923746D01*
X151034955Y-137014174D01*
X151051127Y-137116666D01*
X151069575Y-137224125D01*
X151089023Y-137329454D01*
X151108195Y-137425558D01*
X151125818Y-137505338D01*
X151140614Y-137561699D01*
X151151310Y-137587543D01*
X151152701Y-137586711D01*
X151165620Y-137562699D01*
X151189636Y-137509914D01*
X151222566Y-137433401D01*
X151262224Y-137338205D01*
X151306425Y-137229370D01*
X151353812Y-137112453D01*
X151417294Y-136961376D01*
X151477120Y-136828295D01*
X151536766Y-136707294D01*
X151599708Y-136592458D01*
X151669424Y-136477871D01*
X151749390Y-136357618D01*
X151843082Y-136225783D01*
X151953978Y-136076451D01*
X152085554Y-135903706D01*
X152103388Y-135880423D01*
X152193940Y-135761003D01*
X152286607Y-135637056D01*
X152375018Y-135517204D01*
X152452803Y-135410069D01*
X152513595Y-135324275D01*
X152564777Y-135251243D01*
X152649557Y-135132762D01*
X152735770Y-135014916D01*
X152819553Y-134902793D01*
X152897047Y-134801482D01*
X152964389Y-134716070D01*
X153017718Y-134651645D01*
X153053172Y-134613297D01*
X153054976Y-134611610D01*
X153086592Y-134584151D01*
X153099665Y-134582058D01*
X153102097Y-134603798D01*
X153099095Y-134632249D01*
X153089031Y-134689102D01*
X153074382Y-134756683D01*
X153061990Y-134811659D01*
X153026647Y-134998441D01*
X152996176Y-135205175D01*
X152970906Y-135425514D01*
X152951168Y-135653109D01*
X152937291Y-135881614D01*
X152929605Y-136104680D01*
X152928440Y-136315959D01*
X152934126Y-136509103D01*
X152946994Y-136677766D01*
X152967372Y-136815599D01*
X152972633Y-136841347D01*
X153000669Y-136967794D01*
X153028923Y-137079039D01*
X153055987Y-137170648D01*
X153080452Y-137238186D01*
X153100909Y-137277216D01*
X153115948Y-137283305D01*
X153117490Y-137276442D01*
X153120677Y-137236594D01*
X153124172Y-137164897D01*
X153127850Y-137065347D01*
X153131581Y-136941939D01*
X153135241Y-136798667D01*
X153138701Y-136639528D01*
X153141835Y-136468516D01*
X153144273Y-136324596D01*
X153147432Y-136151713D01*
X153150525Y-136009207D01*
X153153825Y-135892628D01*
X153157607Y-135797527D01*
X153162142Y-135719453D01*
X153167706Y-135653958D01*
X153174569Y-135596590D01*
X153183007Y-135542902D01*
X153193293Y-135488443D01*
X153205699Y-135428763D01*
X153231587Y-135314031D01*
X153324583Y-134985866D01*
X153440919Y-134684744D01*
X153582629Y-134407011D01*
X153751747Y-134149013D01*
X153950307Y-133907093D01*
X154180344Y-133677597D01*
X154208613Y-133651984D01*
X154360895Y-133519944D01*
X154496737Y-133414120D01*
X154621749Y-133331087D01*
X154741541Y-133267420D01*
X154861723Y-133219692D01*
X154987905Y-133184478D01*
X155036357Y-133171818D01*
X155080229Y-133156417D01*
X155097142Y-133144712D01*
X155103208Y-133141750D01*
X155140034Y-133137107D01*
X155204683Y-133133392D01*
X155290694Y-133130927D01*
X155391607Y-133130034D01*
X155451034Y-133130375D01*
G37*
D14*
G04 #@! TO.C,R23*
X136745276Y-82122500D02*
X137254724Y-82122500D01*
X136745276Y-81077500D02*
X137254724Y-81077500D01*
G04 #@! TO.C,R22*
X136745276Y-80522500D02*
X137254724Y-80522500D01*
X136745276Y-79477500D02*
X137254724Y-79477500D01*
G04 #@! TO.C,Y1*
X132380000Y-84590000D02*
X132380000Y-86590000D01*
X132740000Y-83730000D02*
X132740000Y-87450000D01*
X132740000Y-87450000D02*
X133340000Y-87450000D01*
X133340000Y-82780000D02*
X133340000Y-83730000D01*
X133340000Y-83730000D02*
X132740000Y-83730000D01*
X135160000Y-87450000D02*
X138840000Y-87450000D01*
X138840000Y-83730000D02*
X135160000Y-83730000D01*
X140660000Y-87450000D02*
X141260000Y-87450000D01*
X141260000Y-83730000D02*
X140660000Y-83730000D01*
X141260000Y-87450000D02*
X141260000Y-83730000D01*
G04 #@! TO.C,JP1*
X139480000Y-104300000D02*
X139480000Y-105700000D01*
X140180000Y-106400000D02*
X140780000Y-106400000D01*
X140780000Y-103600000D02*
X140180000Y-103600000D01*
X141480000Y-105700000D02*
X141480000Y-104300000D01*
X139480000Y-104300000D02*
G75*
G02*
X140180000Y-103600000I699999J1D01*
G01*
X140180000Y-106400000D02*
G75*
G02*
X139480000Y-105700000I0J700000D01*
G01*
X140780000Y-103600000D02*
G75*
G02*
X141480000Y-104300000I1J-699999D01*
G01*
X141480000Y-105700000D02*
G75*
G02*
X140780000Y-106400000I-700000J0D01*
G01*
G04 #@! TO.C,JP9*
X131965000Y-96140000D02*
X131965000Y-96740000D01*
X132615000Y-97440000D02*
X135415000Y-97440000D01*
X135215000Y-97640000D02*
X134915000Y-97940000D01*
X135215000Y-97640000D02*
X135515000Y-97940000D01*
X135415000Y-95440000D02*
X132615000Y-95440000D01*
X135515000Y-97940000D02*
X134915000Y-97940000D01*
X136065000Y-96740000D02*
X136065000Y-96140000D01*
X131965000Y-96140000D02*
G75*
G02*
X132665000Y-95440000I700000J0D01*
G01*
X132665000Y-97440000D02*
G75*
G02*
X131965000Y-96740000I0J700000D01*
G01*
X135365000Y-95440000D02*
G75*
G02*
X136065000Y-96140000I1J-699999D01*
G01*
X136065000Y-96740000D02*
G75*
G02*
X135365000Y-97440000I-699999J-1D01*
G01*
G04 #@! TO.C,JP2*
X136520000Y-104300000D02*
X136520000Y-105700000D01*
X137220000Y-106400000D02*
X137820000Y-106400000D01*
X137820000Y-103600000D02*
X137220000Y-103600000D01*
X138520000Y-105700000D02*
X138520000Y-104300000D01*
X136520000Y-104300000D02*
G75*
G02*
X137220000Y-103600000I699999J1D01*
G01*
X137220000Y-106400000D02*
G75*
G02*
X136520000Y-105700000I0J700000D01*
G01*
X137820000Y-103600000D02*
G75*
G02*
X138520000Y-104300000I1J-699999D01*
G01*
X138520000Y-105700000D02*
G75*
G02*
X137820000Y-106400000I-700000J0D01*
G01*
G04 #@! TO.C,R16*
X130977500Y-85754724D02*
X130977500Y-85245276D01*
X132022500Y-85754724D02*
X132022500Y-85245276D01*
G04 #@! TO.C,JP4*
X152515000Y-90240000D02*
X152515000Y-91640000D01*
X153215000Y-92340000D02*
X153815000Y-92340000D01*
X153815000Y-89540000D02*
X153215000Y-89540000D01*
X154515000Y-91640000D02*
X154515000Y-90240000D01*
X152515000Y-90240000D02*
G75*
G02*
X153215000Y-89540000I699999J1D01*
G01*
X153215000Y-92340000D02*
G75*
G02*
X152515000Y-91640000I0J700000D01*
G01*
X153815000Y-89540000D02*
G75*
G02*
X154515000Y-90240000I1J-699999D01*
G01*
X154515000Y-91640000D02*
G75*
G02*
X153815000Y-92340000I-700000J0D01*
G01*
G04 #@! TO.C,JP5*
X138450000Y-100000000D02*
X138450000Y-100600000D01*
X139100000Y-101300000D02*
X141900000Y-101300000D01*
X141900000Y-99300000D02*
X139100000Y-99300000D01*
X142550000Y-100600000D02*
X142550000Y-100000000D01*
X138450000Y-100000000D02*
G75*
G02*
X139150000Y-99300000I699999J1D01*
G01*
X139150000Y-101300000D02*
G75*
G02*
X138450000Y-100600000I-1J699999D01*
G01*
X141850000Y-99300000D02*
G75*
G02*
X142550000Y-100000000I0J-700000D01*
G01*
X142550000Y-100600000D02*
G75*
G02*
X141850000Y-101300000I-700000J0D01*
G01*
G04 #@! TO.C,JP8*
X150015000Y-89540000D02*
X150015000Y-92340000D01*
X150715000Y-92990000D02*
X151315000Y-92990000D01*
X151315000Y-88890000D02*
X150715000Y-88890000D01*
X152015000Y-92340000D02*
X152015000Y-89540000D01*
X152215000Y-89740000D02*
X152515000Y-89440000D01*
X152215000Y-89740000D02*
X152515000Y-90040000D01*
X152515000Y-89440000D02*
X152515000Y-90040000D01*
X150015000Y-89590000D02*
G75*
G02*
X150715000Y-88890000I699999J1D01*
G01*
X150715000Y-92990000D02*
G75*
G02*
X150015000Y-92290000I0J700000D01*
G01*
X151315000Y-88890000D02*
G75*
G02*
X152015000Y-89590000I1J-699999D01*
G01*
X152015000Y-92290000D02*
G75*
G02*
X151315000Y-92990000I-700000J0D01*
G01*
G04 #@! TO.C,JP6*
X138450000Y-97400000D02*
X138450000Y-98000000D01*
X139100000Y-98700000D02*
X141900000Y-98700000D01*
X141900000Y-96700000D02*
X139100000Y-96700000D01*
X142550000Y-98000000D02*
X142550000Y-97400000D01*
X138450000Y-97400000D02*
G75*
G02*
X139150000Y-96700000I699999J1D01*
G01*
X139150000Y-98700000D02*
G75*
G02*
X138450000Y-98000000I-1J699999D01*
G01*
X141850000Y-96700000D02*
G75*
G02*
X142550000Y-97400000I0J-700000D01*
G01*
X142550000Y-98000000D02*
G75*
G02*
X141850000Y-98700000I-700000J0D01*
G01*
G04 #@! TD*
%LPC*%
G04 #@! TO.C,JP1*
G36*
X139730000Y-104850000D02*
G01*
X141230000Y-104850000D01*
X141230000Y-105150000D01*
X139730000Y-105150000D01*
X139730000Y-104850000D01*
G37*
G04 #@! TO.C,JP9*
G36*
X134765000Y-95690000D02*
G01*
X133265000Y-95690000D01*
X133265000Y-97190000D01*
X134765000Y-97190000D01*
X134765000Y-95690000D01*
G37*
G04 #@! TO.C,JP2*
G36*
X136770000Y-104850000D02*
G01*
X138270000Y-104850000D01*
X138270000Y-105150000D01*
X136770000Y-105150000D01*
X136770000Y-104850000D01*
G37*
G04 #@! TO.C,JP4*
G36*
X152765000Y-90790000D02*
G01*
X154265000Y-90790000D01*
X154265000Y-91090000D01*
X152765000Y-91090000D01*
X152765000Y-90790000D01*
G37*
G04 #@! TO.C,JP5*
G36*
X139750000Y-101050000D02*
G01*
X141250000Y-101050000D01*
X141250000Y-99550000D01*
X139750000Y-99550000D01*
X139750000Y-101050000D01*
G37*
G04 #@! TO.C,JP8*
G36*
X150265000Y-90190000D02*
G01*
X151765000Y-90190000D01*
X151765000Y-91690000D01*
X150265000Y-91690000D01*
X150265000Y-90190000D01*
G37*
G04 #@! TO.C,JP6*
G36*
X139750000Y-98450000D02*
G01*
X141250000Y-98450000D01*
X141250000Y-96950000D01*
X139750000Y-96950000D01*
X139750000Y-98450000D01*
G37*
G04 #@! TD*
D15*
G04 #@! TO.C,R23*
X136087500Y-81600000D03*
X137912500Y-81600000D03*
G04 #@! TD*
G04 #@! TO.C,R22*
X136087500Y-80000000D03*
X137912500Y-80000000D03*
G04 #@! TD*
D16*
G04 #@! TO.C,J3*
X159380000Y-91770000D03*
X158364000Y-84150000D03*
X160396000Y-84150000D03*
G04 #@! TD*
D17*
G04 #@! TO.C,MH3*
X157125000Y-96200000D03*
X157674175Y-94874175D03*
X157674175Y-97525825D03*
X159000000Y-94325000D03*
D18*
X159000000Y-96200000D03*
D17*
X159000000Y-98075000D03*
X160325825Y-94874175D03*
X160325825Y-97525825D03*
X160875000Y-96200000D03*
G04 #@! TD*
D19*
G04 #@! TO.C,J6*
X152015000Y-105215000D03*
D20*
X152015000Y-102675000D03*
G04 #@! TD*
D17*
G04 #@! TO.C,MH1*
X157125000Y-140500000D03*
X157674175Y-139174175D03*
X157674175Y-141825825D03*
X159000000Y-138625000D03*
D18*
X159000000Y-140500000D03*
D17*
X159000000Y-142375000D03*
X160325825Y-139174175D03*
X160325825Y-141825825D03*
X160875000Y-140500000D03*
G04 #@! TD*
G04 #@! TO.C,MH2*
X131625000Y-140500000D03*
X132174175Y-139174175D03*
X132174175Y-141825825D03*
X133500000Y-138625000D03*
D18*
X133500000Y-140500000D03*
D17*
X133500000Y-142375000D03*
X134825825Y-139174175D03*
X134825825Y-141825825D03*
X135375000Y-140500000D03*
G04 #@! TD*
D21*
G04 #@! TO.C,J2*
X136105000Y-109610000D03*
X136105000Y-115390000D03*
D22*
X136605000Y-108180000D03*
D23*
X132425000Y-108180000D03*
D22*
X136605000Y-116820000D03*
D23*
X132425000Y-116820000D03*
G04 #@! TD*
D24*
G04 #@! TO.C,Y1*
X134250000Y-83990000D03*
X139750000Y-83990000D03*
X139750000Y-87190000D03*
X134250000Y-87190000D03*
G04 #@! TD*
D25*
G04 #@! TO.C,JP7*
X147015000Y-104190000D03*
D26*
X147015000Y-102440000D03*
D27*
X148765000Y-104190000D03*
D28*
X147015000Y-105940000D03*
G04 #@! TD*
D29*
G04 #@! TO.C,JP1*
X140480000Y-104350000D03*
D30*
X140480000Y-105650000D03*
G04 #@! TD*
D31*
G04 #@! TO.C,JP9*
X135315000Y-96440000D03*
D32*
X134015000Y-96440000D03*
D33*
X132715000Y-96440000D03*
G04 #@! TD*
D29*
G04 #@! TO.C,JP2*
X137520000Y-104350000D03*
D30*
X137520000Y-105650000D03*
G04 #@! TD*
D34*
G04 #@! TO.C,R16*
X131500000Y-86412500D03*
X131500000Y-84587500D03*
G04 #@! TD*
D29*
G04 #@! TO.C,JP4*
X153515000Y-90290000D03*
D30*
X153515000Y-91590000D03*
G04 #@! TD*
D35*
G04 #@! TO.C,JP5*
X139200000Y-100300000D03*
D32*
X140500000Y-100300000D03*
D36*
X141800000Y-100300000D03*
G04 #@! TD*
D37*
G04 #@! TO.C,JP8*
X151015000Y-89640000D03*
D38*
X151015000Y-90940000D03*
D39*
X151015000Y-92240000D03*
G04 #@! TD*
D35*
G04 #@! TO.C,JP6*
X139200000Y-97700000D03*
D32*
X140500000Y-97700000D03*
D36*
X141800000Y-97700000D03*
G04 #@! TD*
%LPD*%
M02*
