G04 #@! TF.GenerationSoftware,KiCad,Pcbnew,9.0.5-9.0.5~ubuntu24.04.1*
G04 #@! TF.CreationDate,2025-11-04T13:29:56+00:00*
G04 #@! TF.ProjectId,mcu_board,6d63755f-626f-4617-9264-2e6b69636164,rev?*
G04 #@! TF.SameCoordinates,Original*
G04 #@! TF.FileFunction,Soldermask,Top*
G04 #@! TF.FilePolarity,Negative*
%FSLAX46Y46*%
G04 Gerber Fmt 4.6, Leading zero omitted, Abs format (unit mm)*
G04 Created by KiCad (PCBNEW 9.0.5-9.0.5~ubuntu24.04.1) date 2025-11-04 13:29:56*
%MOMM*%
%LPD*%
G01*
G04 APERTURE LIST*
G04 Aperture macros list*
%AMRoundRect*
0 Rectangle with rounded corners*
0 $1 Rounding radius*
0 $2 $3 $4 $5 $6 $7 $8 $9 X,Y pos of 4 corners*
0 Add a 4 corners polygon primitive as box body*
4,1,4,$2,$3,$4,$5,$6,$7,$8,$9,$2,$3,0*
0 Add four circle primitives for the rounded corners*
1,1,$1+$1,$2,$3*
1,1,$1+$1,$4,$5*
1,1,$1+$1,$6,$7*
1,1,$1+$1,$8,$9*
0 Add four rect primitives between the rounded corners*
20,1,$1+$1,$2,$3,$4,$5,0*
20,1,$1+$1,$4,$5,$6,$7,0*
20,1,$1+$1,$6,$7,$8,$9,0*
20,1,$1+$1,$8,$9,$2,$3,0*%
%AMFreePoly0*
4,1,23,0.500000,-0.750000,0.000000,-0.750000,0.000000,-0.745722,-0.065263,-0.745722,-0.191342,-0.711940,-0.304381,-0.646677,-0.396677,-0.554381,-0.461940,-0.441342,-0.495722,-0.315263,-0.495722,-0.250000,-0.500000,-0.250000,-0.500000,0.250000,-0.495722,0.250000,-0.495722,0.315263,-0.461940,0.441342,-0.396677,0.554381,-0.304381,0.646677,-0.191342,0.711940,-0.065263,0.745722,0.000000,0.745722,
0.000000,0.750000,0.500000,0.750000,0.500000,-0.750000,0.500000,-0.750000,$1*%
%AMFreePoly1*
4,1,23,0.000000,0.745722,0.065263,0.745722,0.191342,0.711940,0.304381,0.646677,0.396677,0.554381,0.461940,0.441342,0.495722,0.315263,0.495722,0.250000,0.500000,0.250000,0.500000,-0.250000,0.495722,-0.250000,0.495722,-0.315263,0.461940,-0.441342,0.396677,-0.554381,0.304381,-0.646677,0.191342,-0.711940,0.065263,-0.745722,0.000000,-0.745722,0.000000,-0.750000,-0.500000,-0.750000,
-0.500000,0.750000,0.000000,0.750000,0.000000,0.745722,0.000000,0.745722,$1*%
G04 Aperture macros list end*
%ADD10R,2.100000X2.799999*%
%ADD11R,0.600000X1.900000*%
%ADD12RoundRect,0.087500X-0.537500X-0.087500X0.537500X-0.087500X0.537500X0.087500X-0.537500X0.087500X0*%
%ADD13RoundRect,0.237500X-0.250000X-0.237500X0.250000X-0.237500X0.250000X0.237500X-0.250000X0.237500X0*%
%ADD14RoundRect,0.237500X0.237500X-0.300000X0.237500X0.300000X-0.237500X0.300000X-0.237500X-0.300000X0*%
%ADD15RoundRect,0.237500X-0.237500X0.300000X-0.237500X-0.300000X0.237500X-0.300000X0.237500X0.300000X0*%
%ADD16RoundRect,0.087500X-0.087500X-0.425000X0.087500X-0.425000X0.087500X0.425000X-0.087500X0.425000X0*%
%ADD17RoundRect,0.087500X-0.425000X-0.087500X0.425000X-0.087500X0.425000X0.087500X-0.425000X0.087500X0*%
%ADD18RoundRect,0.237500X0.237500X-0.287500X0.237500X0.287500X-0.237500X0.287500X-0.237500X-0.287500X0*%
%ADD19RoundRect,0.237500X-0.300000X-0.237500X0.300000X-0.237500X0.300000X0.237500X-0.300000X0.237500X0*%
%ADD20RoundRect,0.237500X0.250000X0.237500X-0.250000X0.237500X-0.250000X-0.237500X0.250000X-0.237500X0*%
%ADD21C,1.000000*%
%ADD22R,1.000000X0.900000*%
%ADD23RoundRect,0.375000X-0.625000X-0.375000X0.625000X-0.375000X0.625000X0.375000X-0.625000X0.375000X0*%
%ADD24RoundRect,0.500000X-0.500000X-1.400000X0.500000X-1.400000X0.500000X1.400000X-0.500000X1.400000X0*%
%ADD25RoundRect,0.237500X0.300000X0.237500X-0.300000X0.237500X-0.300000X-0.237500X0.300000X-0.237500X0*%
%ADD26RoundRect,0.237500X-0.237500X0.250000X-0.237500X-0.250000X0.237500X-0.250000X0.237500X0.250000X0*%
%ADD27C,0.990600*%
%ADD28C,0.787400*%
%ADD29RoundRect,0.162500X-0.447500X-0.162500X0.447500X-0.162500X0.447500X0.162500X-0.447500X0.162500X0*%
%ADD30RoundRect,0.237500X0.237500X-0.250000X0.237500X0.250000X-0.237500X0.250000X-0.237500X-0.250000X0*%
%ADD31R,0.355600X0.609600*%
%ADD32RoundRect,0.150000X0.512500X0.150000X-0.512500X0.150000X-0.512500X-0.150000X0.512500X-0.150000X0*%
%ADD33RoundRect,0.150000X-0.625000X0.150000X-0.625000X-0.150000X0.625000X-0.150000X0.625000X0.150000X0*%
%ADD34RoundRect,0.250000X-0.650000X0.350000X-0.650000X-0.350000X0.650000X-0.350000X0.650000X0.350000X0*%
%ADD35R,1.500000X0.900000*%
%ADD36R,0.900000X1.500000*%
%ADD37C,0.600000*%
%ADD38R,3.900000X3.900000*%
%ADD39C,0.800000*%
%ADD40C,5.000000*%
%ADD41R,1.700000X1.700000*%
%ADD42C,1.700000*%
%ADD43R,0.675000X0.350000*%
%ADD44R,0.350000X0.675000*%
%ADD45RoundRect,0.150000X-0.512500X-0.150000X0.512500X-0.150000X0.512500X0.150000X-0.512500X0.150000X0*%
%ADD46RoundRect,0.250000X1.500000X-0.250000X1.500000X0.250000X-1.500000X0.250000X-1.500000X-0.250000X0*%
%ADD47RoundRect,0.250001X1.449999X-0.499999X1.449999X0.499999X-1.449999X0.499999X-1.449999X-0.499999X0*%
%ADD48RoundRect,0.150000X-0.825000X-0.150000X0.825000X-0.150000X0.825000X0.150000X-0.825000X0.150000X0*%
%ADD49R,2.410000X3.300000*%
%ADD50RoundRect,0.237500X-0.287500X-0.237500X0.287500X-0.237500X0.287500X0.237500X-0.287500X0.237500X0*%
%ADD51R,1.000000X1.000000*%
%ADD52RoundRect,0.093750X-0.156250X-0.093750X0.156250X-0.093750X0.156250X0.093750X-0.156250X0.093750X0*%
%ADD53RoundRect,0.075000X-0.250000X-0.075000X0.250000X-0.075000X0.250000X0.075000X-0.250000X0.075000X0*%
%ADD54R,2.350000X1.550000*%
%ADD55FreePoly0,180.000000*%
%ADD56FreePoly1,180.000000*%
%ADD57RoundRect,0.075500X0.226500X-0.806500X0.226500X0.806500X-0.226500X0.806500X-0.226500X-0.806500X0*%
%ADD58C,0.650000*%
%ADD59RoundRect,0.150000X-0.425000X0.150000X-0.425000X-0.150000X0.425000X-0.150000X0.425000X0.150000X0*%
%ADD60RoundRect,0.075000X-0.500000X0.075000X-0.500000X-0.075000X0.500000X-0.075000X0.500000X0.075000X0*%
%ADD61O,2.100000X1.000000*%
%ADD62O,1.800000X1.000000*%
G04 APERTURE END LIST*
G04 #@! TO.C,JP3*
G36*
X158900000Y-101000000D02*
G01*
X158600000Y-101000000D01*
X158600000Y-99500000D01*
X158900000Y-99500000D01*
X158900000Y-101000000D01*
G37*
G04 #@! TD*
D10*
G04 #@! TO.C,J4*
X153899990Y-139200002D03*
X138600010Y-139200002D03*
D11*
X150750009Y-136850001D03*
X149750008Y-136850001D03*
X148750010Y-136850001D03*
X147750010Y-136850001D03*
X146750009Y-136850001D03*
X145750009Y-136850001D03*
X144750008Y-136850001D03*
X143750010Y-136850001D03*
X142750010Y-136850001D03*
X141750009Y-136850001D03*
G04 #@! TD*
D12*
G04 #@! TO.C,U10*
X144000000Y-123100000D03*
X144000000Y-123600000D03*
X144000000Y-124100000D03*
X144000000Y-124600000D03*
X146800000Y-124600000D03*
X146800000Y-124100000D03*
X146800000Y-123600000D03*
X146800000Y-123100000D03*
G04 #@! TD*
D13*
G04 #@! TO.C,R21*
X144687500Y-126000000D03*
X146512500Y-126000000D03*
G04 #@! TD*
D14*
G04 #@! TO.C,C25*
X148600000Y-124662500D03*
X148600000Y-122937500D03*
G04 #@! TD*
D15*
G04 #@! TO.C,C24*
X142200000Y-122137500D03*
X142200000Y-123862500D03*
G04 #@! TD*
D16*
G04 #@! TO.C,U2*
X144352500Y-97077500D03*
X144852500Y-97077500D03*
X145352500Y-97077500D03*
D17*
X146215000Y-97440000D03*
X146215000Y-97940000D03*
X146215000Y-98440000D03*
X146215000Y-98940000D03*
D16*
X145352500Y-99302500D03*
X144852500Y-99302500D03*
X144352500Y-99302500D03*
D17*
X143490000Y-98940000D03*
X143490000Y-98440000D03*
X143490000Y-97940000D03*
X143490000Y-97440000D03*
G04 #@! TD*
D18*
G04 #@! TO.C,D1*
X161019817Y-113996812D03*
X161019817Y-112246812D03*
G04 #@! TD*
D19*
G04 #@! TO.C,C6*
X132157317Y-119034312D03*
X133882317Y-119034312D03*
G04 #@! TD*
D20*
G04 #@! TO.C,R15*
X134927500Y-95940000D03*
X133102500Y-95940000D03*
G04 #@! TD*
D21*
G04 #@! TO.C,TP1*
X135750000Y-137250000D03*
G04 #@! TD*
D19*
G04 #@! TO.C,C15*
X143887500Y-101000000D03*
X145612500Y-101000000D03*
G04 #@! TD*
D22*
G04 #@! TO.C,SW1*
X157950000Y-108300000D03*
X157950000Y-104200000D03*
X159550000Y-108300000D03*
X159550000Y-104200000D03*
G04 #@! TD*
D23*
G04 #@! TO.C,U6*
X134115000Y-128640000D03*
X134115000Y-130940000D03*
D24*
X140415000Y-130940000D03*
D23*
X134115000Y-133240000D03*
G04 #@! TD*
D14*
G04 #@! TO.C,C3*
X158019817Y-113984312D03*
X158019817Y-112259312D03*
G04 #@! TD*
D25*
G04 #@! TO.C,C7*
X137382317Y-119034312D03*
X135657317Y-119034312D03*
G04 #@! TD*
D20*
G04 #@! TO.C,R4*
X156432317Y-124534312D03*
X154607317Y-124534312D03*
G04 #@! TD*
D13*
G04 #@! TO.C,R19*
X133102500Y-90190000D03*
X134927500Y-90190000D03*
G04 #@! TD*
D14*
G04 #@! TO.C,C11*
X141500000Y-109862500D03*
X141500000Y-108137500D03*
G04 #@! TD*
G04 #@! TO.C,C14*
X147852500Y-101052500D03*
X147852500Y-99327500D03*
G04 #@! TD*
D26*
G04 #@! TO.C,R3*
X152000000Y-121337500D03*
X152000000Y-123162500D03*
G04 #@! TD*
D19*
G04 #@! TO.C,C21*
X133152500Y-87190000D03*
X134877500Y-87190000D03*
G04 #@! TD*
D15*
G04 #@! TO.C,C1*
X152019817Y-125171812D03*
X152019817Y-126896812D03*
G04 #@! TD*
D27*
G04 #@! TO.C,J3*
X159380000Y-91770000D03*
X158364000Y-84150000D03*
X160396000Y-84150000D03*
D28*
X160015000Y-90500000D03*
X160015000Y-89230000D03*
X160015000Y-87960000D03*
X160015000Y-86690000D03*
X160015000Y-85420000D03*
X158745000Y-85420000D03*
X158745000Y-86690000D03*
X158745000Y-87960000D03*
X158745000Y-89230000D03*
X158745000Y-90500000D03*
G04 #@! TD*
D19*
G04 #@! TO.C,C8*
X133152500Y-80940000D03*
X134877500Y-80940000D03*
G04 #@! TD*
D25*
G04 #@! TO.C,C9*
X134877500Y-76440000D03*
X133152500Y-76440000D03*
G04 #@! TD*
D21*
G04 #@! TO.C,TX*
X159500000Y-81250000D03*
G04 #@! TD*
D29*
G04 #@! TO.C,Q2*
X156310000Y-118250000D03*
X153690000Y-117300000D03*
X153690000Y-119200000D03*
G04 #@! TD*
D15*
G04 #@! TO.C,C12*
X141500000Y-114637500D03*
X141500000Y-116362500D03*
G04 #@! TD*
D30*
G04 #@! TO.C,R5*
X159519817Y-114034312D03*
X159519817Y-112209312D03*
G04 #@! TD*
D19*
G04 #@! TO.C,C16*
X143990000Y-107690000D03*
X145715000Y-107690000D03*
G04 #@! TD*
G04 #@! TO.C,C2*
X158019817Y-115534312D03*
X159744817Y-115534312D03*
G04 #@! TD*
D31*
G04 #@! TO.C,D2*
X151500000Y-119744600D03*
X151500000Y-117255400D03*
G04 #@! TD*
D32*
G04 #@! TO.C,U4*
X156157317Y-122984312D03*
X156157317Y-122034312D03*
X156157317Y-121084312D03*
X153882317Y-121084312D03*
X153882317Y-122034312D03*
X153882317Y-122984312D03*
G04 #@! TD*
D21*
G04 #@! TO.C,RX*
X159500000Y-79250000D03*
G04 #@! TD*
D33*
G04 #@! TO.C,J5*
X136019817Y-100534312D03*
X136019817Y-101534312D03*
X136019817Y-102534312D03*
X136019817Y-103534312D03*
D34*
X132144817Y-99234312D03*
X132144817Y-104834312D03*
G04 #@! TD*
D26*
G04 #@! TO.C,R20*
X156019817Y-108209312D03*
X156019817Y-110034312D03*
G04 #@! TD*
D20*
G04 #@! TO.C,R13*
X150932317Y-132534312D03*
X149107317Y-132534312D03*
G04 #@! TD*
D30*
G04 #@! TO.C,R10*
X139750000Y-105912500D03*
X139750000Y-104087500D03*
G04 #@! TD*
D35*
G04 #@! TO.C,U1*
X137515000Y-76240000D03*
X137515000Y-77510000D03*
X137515000Y-78780000D03*
X137515000Y-80050000D03*
X137515000Y-81320000D03*
X137515000Y-82590000D03*
X137515000Y-83860000D03*
X137515000Y-85130000D03*
X137515000Y-86400000D03*
X137515000Y-87670000D03*
X137515000Y-88940000D03*
X137515000Y-90210000D03*
X137515000Y-91480000D03*
X137515000Y-92750000D03*
D36*
X139280000Y-94000000D03*
X140550000Y-94000000D03*
X141820000Y-94000000D03*
X143090000Y-94000000D03*
X144360000Y-94000000D03*
X145630000Y-94000000D03*
X146900000Y-94000000D03*
X148170000Y-94000000D03*
X149440000Y-94000000D03*
X150710000Y-94000000D03*
X151980000Y-94000000D03*
X153250000Y-94000000D03*
D35*
X155015000Y-92750000D03*
X155015000Y-91480000D03*
X155015000Y-90210000D03*
X155015000Y-88940000D03*
X155015000Y-87670000D03*
X155015000Y-86400000D03*
X155015000Y-85130000D03*
X155015000Y-83860000D03*
X155015000Y-82590000D03*
X155015000Y-81320000D03*
X155015000Y-80050000D03*
X155015000Y-78780000D03*
X155015000Y-77510000D03*
X155015000Y-76240000D03*
D37*
X143365000Y-83260000D03*
X143365000Y-84660000D03*
X144065000Y-82560000D03*
X144065000Y-83960000D03*
X144065000Y-85360000D03*
X144765000Y-83260000D03*
D38*
X144765000Y-83960000D03*
D37*
X144765000Y-84660000D03*
X145465000Y-82560000D03*
X145465000Y-83960000D03*
X145465000Y-85360000D03*
X146165000Y-83260000D03*
X146165000Y-84660000D03*
G04 #@! TD*
D39*
G04 #@! TO.C,MH3*
X157125000Y-96200000D03*
X157674175Y-94874175D03*
X157674175Y-97525825D03*
X159000000Y-94325000D03*
D40*
X159000000Y-96200000D03*
D39*
X159000000Y-98075000D03*
X160325825Y-94874175D03*
X160325825Y-97525825D03*
X160875000Y-96200000D03*
G04 #@! TD*
D20*
G04 #@! TO.C,R9*
X134927500Y-79440000D03*
X133102500Y-79440000D03*
G04 #@! TD*
D41*
G04 #@! TO.C,J6*
X152015000Y-105215000D03*
D42*
X152015000Y-102675000D03*
G04 #@! TD*
D25*
G04 #@! TO.C,C13*
X159627500Y-109940000D03*
X157902500Y-109940000D03*
G04 #@! TD*
D26*
G04 #@! TO.C,R_PROG1*
X148519817Y-112209312D03*
X148519817Y-114034312D03*
G04 #@! TD*
D39*
G04 #@! TO.C,MH1*
X157125000Y-140500000D03*
X157674175Y-139174175D03*
X157674175Y-141825825D03*
X159000000Y-138625000D03*
D40*
X159000000Y-140500000D03*
D39*
X159000000Y-142375000D03*
X160325825Y-139174175D03*
X160325825Y-141825825D03*
X160875000Y-140500000D03*
G04 #@! TD*
D26*
G04 #@! TO.C,R11*
X138250000Y-104087500D03*
X138250000Y-105912500D03*
G04 #@! TD*
D15*
G04 #@! TO.C,C18*
X147852500Y-104327500D03*
X147852500Y-106052500D03*
G04 #@! TD*
D13*
G04 #@! TO.C,R17*
X133102500Y-84190000D03*
X134927500Y-84190000D03*
G04 #@! TD*
D26*
G04 #@! TO.C,R2*
X139980183Y-114598188D03*
X139980183Y-116423188D03*
G04 #@! TD*
D20*
G04 #@! TO.C,R12*
X159662500Y-102250000D03*
X157837500Y-102250000D03*
G04 #@! TD*
D43*
G04 #@! TO.C,U3*
X142940000Y-104440000D03*
X142940000Y-104940000D03*
X142940000Y-105440000D03*
X142940000Y-105940000D03*
D44*
X143602500Y-106102500D03*
X144102500Y-106102500D03*
D43*
X144765000Y-105940000D03*
X144765000Y-105440000D03*
X144765000Y-104940000D03*
X144765000Y-104440000D03*
D44*
X144102500Y-104277500D03*
X143602500Y-104277500D03*
G04 #@! TD*
D26*
G04 #@! TO.C,R7*
X136519817Y-120621812D03*
X136519817Y-122446812D03*
G04 #@! TD*
D19*
G04 #@! TO.C,C4*
X133902500Y-135440000D03*
X135627500Y-135440000D03*
G04 #@! TD*
D45*
G04 #@! TO.C,U7*
X132382317Y-120584312D03*
X132382317Y-121534312D03*
X132382317Y-122484312D03*
X134657317Y-122484312D03*
X134657317Y-120584312D03*
G04 #@! TD*
D12*
G04 #@! TO.C,U8*
X144619817Y-131284312D03*
X144619817Y-131784312D03*
X144619817Y-132284312D03*
X144619817Y-132784312D03*
X147419817Y-132784312D03*
X147419817Y-132284312D03*
X147419817Y-131784312D03*
X147419817Y-131284312D03*
G04 #@! TD*
D25*
G04 #@! TO.C,C10*
X134877500Y-77940000D03*
X133152500Y-77940000D03*
G04 #@! TD*
D46*
G04 #@! TO.C,J1*
X154169817Y-131034312D03*
X154169817Y-129034312D03*
D47*
X159919817Y-133384312D03*
X159919817Y-126684312D03*
G04 #@! TD*
D48*
G04 #@! TO.C,U5*
X150944817Y-111916812D03*
X150944817Y-113186812D03*
X150944817Y-114456812D03*
X150944817Y-115726812D03*
X155894817Y-115726812D03*
X155894817Y-114456812D03*
X155894817Y-113186812D03*
X155894817Y-111916812D03*
D49*
X153419817Y-113821812D03*
G04 #@! TD*
D50*
G04 #@! TO.C,D3*
X133140000Y-88690000D03*
X134890000Y-88690000D03*
G04 #@! TD*
D25*
G04 #@! TO.C,C22*
X145627500Y-134190000D03*
X143902500Y-134190000D03*
G04 #@! TD*
D19*
G04 #@! TO.C,C20*
X133152500Y-82690000D03*
X134877500Y-82690000D03*
G04 #@! TD*
D39*
G04 #@! TO.C,MH2*
X131625000Y-140500000D03*
X132174175Y-139174175D03*
X132174175Y-141825825D03*
X133500000Y-138625000D03*
D40*
X133500000Y-140500000D03*
D39*
X133500000Y-142375000D03*
X134825825Y-139174175D03*
X134825825Y-141825825D03*
X135375000Y-140500000D03*
G04 #@! TD*
D51*
G04 #@! TO.C,TP4*
X159500000Y-76250000D03*
G04 #@! TD*
D30*
G04 #@! TO.C,R1*
X139980183Y-109923188D03*
X139980183Y-108098188D03*
G04 #@! TD*
D13*
G04 #@! TO.C,R18*
X133102500Y-85690000D03*
X134927500Y-85690000D03*
G04 #@! TD*
D19*
G04 #@! TO.C,C23*
X149157317Y-131034312D03*
X150882317Y-131034312D03*
G04 #@! TD*
D52*
G04 #@! TO.C,U9*
X140150000Y-111962500D03*
D53*
X140075000Y-112500000D03*
D52*
X140150000Y-113037500D03*
X141850000Y-113037500D03*
D53*
X141925000Y-112500000D03*
D52*
X141850000Y-111962500D03*
G04 #@! TD*
D30*
G04 #@! TO.C,R6*
X148519817Y-117446812D03*
X148519817Y-115621812D03*
G04 #@! TD*
D54*
G04 #@! TO.C,D4*
X153669817Y-109034312D03*
X149369817Y-109034312D03*
G04 #@! TD*
D55*
G04 #@! TO.C,JP3*
X159400000Y-100250000D03*
D56*
X158100000Y-100250000D03*
G04 #@! TD*
D20*
G04 #@! TO.C,R14*
X134927500Y-94440000D03*
X133102500Y-94440000D03*
G04 #@! TD*
D15*
G04 #@! TO.C,C17*
X146352500Y-104327500D03*
X146352500Y-106052500D03*
G04 #@! TD*
D14*
G04 #@! TO.C,C5*
X142765000Y-132302500D03*
X142765000Y-130577500D03*
G04 #@! TD*
D57*
G04 #@! TO.C,Q1*
X158044817Y-123914312D03*
X158694817Y-123914312D03*
X159344817Y-123914312D03*
X159994817Y-123914312D03*
X159994817Y-118154312D03*
X159344817Y-118154312D03*
X158694817Y-118154312D03*
X158044817Y-118154312D03*
G04 #@! TD*
D20*
G04 #@! TO.C,R8*
X136432317Y-124034312D03*
X134607317Y-124034312D03*
G04 #@! TD*
D19*
G04 #@! TO.C,C19*
X143887500Y-102750000D03*
X145612500Y-102750000D03*
G04 #@! TD*
D58*
G04 #@! TO.C,J2*
X136105000Y-109610000D03*
X136105000Y-115390000D03*
D59*
X137180000Y-109300000D03*
X137180000Y-110100000D03*
D60*
X137180000Y-111250000D03*
X137180000Y-112250000D03*
X137180000Y-112750000D03*
X137180000Y-113750000D03*
D59*
X137180000Y-114900000D03*
X137180000Y-115700000D03*
X137180000Y-115700000D03*
X137180000Y-114900000D03*
D60*
X137180000Y-114250000D03*
X137180000Y-113250000D03*
X137180000Y-111750000D03*
X137180000Y-110750000D03*
D59*
X137180000Y-110100000D03*
X137180000Y-109300000D03*
D61*
X136605000Y-108180000D03*
D62*
X132425000Y-108180000D03*
D61*
X136605000Y-116820000D03*
D62*
X132425000Y-116820000D03*
G04 #@! TD*
M02*
