G04 #@! TF.GenerationSoftware,KiCad,Pcbnew,9.0.5-9.0.5~ubuntu24.04.1*
G04 #@! TF.CreationDate,2025-11-04T13:29:56+00:00*
G04 #@! TF.ProjectId,mcu_board,6d63755f-626f-4617-9264-2e6b69636164,rev?*
G04 #@! TF.SameCoordinates,Original*
G04 #@! TF.FileFunction,Legend,Top*
G04 #@! TF.FilePolarity,Positive*
%FSLAX46Y46*%
G04 Gerber Fmt 4.6, Leading zero omitted, Abs format (unit mm)*
G04 Created by KiCad (PCBNEW 9.0.5-9.0.5~ubuntu24.04.1) date 2025-11-04 13:29:56*
%MOMM*%
%LPD*%
G01*
G04 APERTURE LIST*
G04 Aperture macros list*
%AMRoundRect*
0 Rectangle with rounded corners*
0 $1 Rounding radius*
0 $2 $3 $4 $5 $6 $7 $8 $9 X,Y pos of 4 corners*
0 Add a 4 corners polygon primitive as box body*
4,1,4,$2,$3,$4,$5,$6,$7,$8,$9,$2,$3,0*
0 Add four circle primitives for the rounded corners*
1,1,$1+$1,$2,$3*
1,1,$1+$1,$4,$5*
1,1,$1+$1,$6,$7*
1,1,$1+$1,$8,$9*
0 Add four rect primitives between the rounded corners*
20,1,$1+$1,$2,$3,$4,$5,0*
20,1,$1+$1,$4,$5,$6,$7,0*
20,1,$1+$1,$6,$7,$8,$9,0*
20,1,$1+$1,$8,$9,$2,$3,0*%
%AMFreePoly0*
4,1,23,0.500000,-0.750000,0.000000,-0.750000,0.000000,-0.745722,-0.065263,-0.745722,-0.191342,-0.711940,-0.304381,-0.646677,-0.396677,-0.554381,-0.461940,-0.441342,-0.495722,-0.315263,-0.495722,-0.250000,-0.500000,-0.250000,-0.500000,0.250000,-0.495722,0.250000,-0.495722,0.315263,-0.461940,0.441342,-0.396677,0.554381,-0.304381,0.646677,-0.191342,0.711940,-0.065263,0.745722,0.000000,0.745722,
0.000000,0.750000,0.500000,0.750000,0.500000,-0.750000,0.500000,-0.750000,$1*%
%AMFreePoly1*
4,1,23,0.000000,0.745722,0.065263,0.745722,0.191342,0.711940,0.304381,0.646677,0.396677,0.554381,0.461940,0.441342,0.495722,0.315263,0.495722,0.250000,0.500000,0.250000,0.500000,-0.250000,0.495722,-0.250000,0.495722,-0.315263,0.461940,-0.441342,0.396677,-0.554381,0.304381,-0.646677,0.191342,-0.711940,0.065263,-0.745722,0.000000,-0.745722,0.000000,-0.750000,-0.500000,-0.750000,
-0.500000,0.750000,0.000000,0.750000,0.000000,0.745722,0.000000,0.745722,$1*%
G04 Aperture macros list end*
%ADD10C,0.250000*%
%ADD11C,0.150000*%
%ADD12C,0.152400*%
%ADD13C,0.120000*%
%ADD14C,0.000000*%
%ADD15C,0.200000*%
%ADD16C,0.127000*%
%ADD17R,2.100000X2.799999*%
%ADD18R,0.600000X1.900000*%
%ADD19RoundRect,0.087500X-0.537500X-0.087500X0.537500X-0.087500X0.537500X0.087500X-0.537500X0.087500X0*%
%ADD20RoundRect,0.237500X-0.250000X-0.237500X0.250000X-0.237500X0.250000X0.237500X-0.250000X0.237500X0*%
%ADD21RoundRect,0.237500X0.237500X-0.300000X0.237500X0.300000X-0.237500X0.300000X-0.237500X-0.300000X0*%
%ADD22RoundRect,0.237500X-0.237500X0.300000X-0.237500X-0.300000X0.237500X-0.300000X0.237500X0.300000X0*%
%ADD23RoundRect,0.087500X-0.087500X-0.425000X0.087500X-0.425000X0.087500X0.425000X-0.087500X0.425000X0*%
%ADD24RoundRect,0.087500X-0.425000X-0.087500X0.425000X-0.087500X0.425000X0.087500X-0.425000X0.087500X0*%
%ADD25RoundRect,0.237500X0.237500X-0.287500X0.237500X0.287500X-0.237500X0.287500X-0.237500X-0.287500X0*%
%ADD26RoundRect,0.237500X-0.300000X-0.237500X0.300000X-0.237500X0.300000X0.237500X-0.300000X0.237500X0*%
%ADD27RoundRect,0.237500X0.250000X0.237500X-0.250000X0.237500X-0.250000X-0.237500X0.250000X-0.237500X0*%
%ADD28C,1.000000*%
%ADD29R,1.000000X0.900000*%
%ADD30RoundRect,0.375000X-0.625000X-0.375000X0.625000X-0.375000X0.625000X0.375000X-0.625000X0.375000X0*%
%ADD31RoundRect,0.500000X-0.500000X-1.400000X0.500000X-1.400000X0.500000X1.400000X-0.500000X1.400000X0*%
%ADD32RoundRect,0.237500X0.300000X0.237500X-0.300000X0.237500X-0.300000X-0.237500X0.300000X-0.237500X0*%
%ADD33RoundRect,0.237500X-0.237500X0.250000X-0.237500X-0.250000X0.237500X-0.250000X0.237500X0.250000X0*%
%ADD34C,0.990600*%
%ADD35C,0.787400*%
%ADD36RoundRect,0.162500X-0.447500X-0.162500X0.447500X-0.162500X0.447500X0.162500X-0.447500X0.162500X0*%
%ADD37RoundRect,0.237500X0.237500X-0.250000X0.237500X0.250000X-0.237500X0.250000X-0.237500X-0.250000X0*%
%ADD38R,0.355600X0.609600*%
%ADD39RoundRect,0.150000X0.512500X0.150000X-0.512500X0.150000X-0.512500X-0.150000X0.512500X-0.150000X0*%
%ADD40RoundRect,0.150000X-0.625000X0.150000X-0.625000X-0.150000X0.625000X-0.150000X0.625000X0.150000X0*%
%ADD41RoundRect,0.250000X-0.650000X0.350000X-0.650000X-0.350000X0.650000X-0.350000X0.650000X0.350000X0*%
%ADD42R,1.500000X0.900000*%
%ADD43R,0.900000X1.500000*%
%ADD44C,0.600000*%
%ADD45R,3.900000X3.900000*%
%ADD46C,0.800000*%
%ADD47C,5.000000*%
%ADD48R,1.700000X1.700000*%
%ADD49C,1.700000*%
%ADD50R,0.675000X0.350000*%
%ADD51R,0.350000X0.675000*%
%ADD52RoundRect,0.150000X-0.512500X-0.150000X0.512500X-0.150000X0.512500X0.150000X-0.512500X0.150000X0*%
%ADD53RoundRect,0.250000X1.500000X-0.250000X1.500000X0.250000X-1.500000X0.250000X-1.500000X-0.250000X0*%
%ADD54RoundRect,0.250001X1.449999X-0.499999X1.449999X0.499999X-1.449999X0.499999X-1.449999X-0.499999X0*%
%ADD55RoundRect,0.150000X-0.825000X-0.150000X0.825000X-0.150000X0.825000X0.150000X-0.825000X0.150000X0*%
%ADD56R,2.410000X3.300000*%
%ADD57RoundRect,0.237500X-0.287500X-0.237500X0.287500X-0.237500X0.287500X0.237500X-0.287500X0.237500X0*%
%ADD58R,1.000000X1.000000*%
%ADD59RoundRect,0.093750X-0.156250X-0.093750X0.156250X-0.093750X0.156250X0.093750X-0.156250X0.093750X0*%
%ADD60RoundRect,0.075000X-0.250000X-0.075000X0.250000X-0.075000X0.250000X0.075000X-0.250000X0.075000X0*%
%ADD61R,2.350000X1.550000*%
%ADD62FreePoly0,180.000000*%
%ADD63FreePoly1,180.000000*%
%ADD64RoundRect,0.075500X0.226500X-0.806500X0.226500X0.806500X-0.226500X0.806500X-0.226500X-0.806500X0*%
%ADD65C,0.650000*%
%ADD66RoundRect,0.150000X-0.425000X0.150000X-0.425000X-0.150000X0.425000X-0.150000X0.425000X0.150000X0*%
%ADD67RoundRect,0.075000X-0.500000X0.075000X-0.500000X-0.075000X0.500000X-0.075000X0.500000X0.075000X0*%
%ADD68O,2.100000X1.000000*%
%ADD69O,1.800000X1.000000*%
G04 APERTURE END LIST*
D10*
X144057761Y-110126377D02*
X144153000Y-109935901D01*
X144153000Y-109935901D02*
X144343476Y-109840663D01*
X144343476Y-109840663D02*
X146057761Y-109840663D01*
X145391095Y-110697806D02*
X144057761Y-111078758D01*
X144057761Y-111078758D02*
X145010142Y-111459711D01*
X145010142Y-111459711D02*
X144057761Y-111840663D01*
X144057761Y-111840663D02*
X145391095Y-112221615D01*
X144057761Y-113935901D02*
X144057761Y-112983520D01*
X144057761Y-112983520D02*
X146057761Y-112983520D01*
X144057761Y-114602568D02*
X146057761Y-114602568D01*
X144057761Y-115554949D02*
X146057761Y-115554949D01*
X146057761Y-115554949D02*
X146057761Y-116031139D01*
X146057761Y-116031139D02*
X145962523Y-116316854D01*
X145962523Y-116316854D02*
X145772047Y-116507330D01*
X145772047Y-116507330D02*
X145581571Y-116602568D01*
X145581571Y-116602568D02*
X145200619Y-116697806D01*
X145200619Y-116697806D02*
X144914904Y-116697806D01*
X144914904Y-116697806D02*
X144533952Y-116602568D01*
X144533952Y-116602568D02*
X144343476Y-116507330D01*
X144343476Y-116507330D02*
X144153000Y-116316854D01*
X144153000Y-116316854D02*
X144057761Y-116031139D01*
X144057761Y-116031139D02*
X144057761Y-115554949D01*
X144629190Y-117459711D02*
X144629190Y-118412092D01*
X144057761Y-117269235D02*
X146057761Y-117935901D01*
X146057761Y-117935901D02*
X144057761Y-118602568D01*
X144057761Y-120412092D02*
X145010142Y-119745425D01*
X144057761Y-119269235D02*
X146057761Y-119269235D01*
X146057761Y-119269235D02*
X146057761Y-120031140D01*
X146057761Y-120031140D02*
X145962523Y-120221616D01*
X145962523Y-120221616D02*
X145867285Y-120316854D01*
X145867285Y-120316854D02*
X145676809Y-120412092D01*
X145676809Y-120412092D02*
X145391095Y-120412092D01*
X145391095Y-120412092D02*
X145200619Y-120316854D01*
X145200619Y-120316854D02*
X145105380Y-120221616D01*
X145105380Y-120221616D02*
X145010142Y-120031140D01*
X145010142Y-120031140D02*
X145010142Y-119269235D01*
D11*
X156738095Y-80704819D02*
X157309523Y-80704819D01*
X157023809Y-81704819D02*
X157023809Y-80704819D01*
X157547619Y-80704819D02*
X158214285Y-81704819D01*
X158214285Y-80704819D02*
X157547619Y-81704819D01*
X150954819Y-120430399D02*
X151192914Y-120430399D01*
X151097676Y-120668494D02*
X151192914Y-120430399D01*
X151192914Y-120430399D02*
X151097676Y-120192304D01*
X151383390Y-120573256D02*
X151192914Y-120430399D01*
X151192914Y-120430399D02*
X151383390Y-120287542D01*
X157333333Y-79704819D02*
X157000000Y-79228628D01*
X156761905Y-79704819D02*
X156761905Y-78704819D01*
X156761905Y-78704819D02*
X157142857Y-78704819D01*
X157142857Y-78704819D02*
X157238095Y-78752438D01*
X157238095Y-78752438D02*
X157285714Y-78800057D01*
X157285714Y-78800057D02*
X157333333Y-78895295D01*
X157333333Y-78895295D02*
X157333333Y-79038152D01*
X157333333Y-79038152D02*
X157285714Y-79133390D01*
X157285714Y-79133390D02*
X157238095Y-79181009D01*
X157238095Y-79181009D02*
X157142857Y-79228628D01*
X157142857Y-79228628D02*
X156761905Y-79228628D01*
X157666667Y-78704819D02*
X158333333Y-79704819D01*
X158333333Y-78704819D02*
X157666667Y-79704819D01*
D12*
G04 #@! TO.C,J4*
X154399984Y-137482502D02*
X154399984Y-136200000D01*
X154399984Y-136200000D02*
X151367509Y-136200000D01*
X142799016Y-133802001D02*
X141783016Y-134995801D01*
X141132509Y-136200000D02*
X138100016Y-136200000D01*
X140767016Y-133802001D02*
X142799016Y-133802001D01*
X140767016Y-133802001D02*
X141783016Y-134995801D01*
X138100016Y-136200000D02*
X138100016Y-137482502D01*
D13*
G04 #@! TO.C,U10*
X144294432Y-122665000D02*
X146660000Y-122665000D01*
X146660000Y-125035000D02*
X144140000Y-125035000D01*
X144000000Y-122660000D02*
X143860000Y-122470000D01*
X144140000Y-122470000D01*
X144000000Y-122660000D01*
G36*
X144000000Y-122660000D02*
G01*
X143860000Y-122470000D01*
X144140000Y-122470000D01*
X144000000Y-122660000D01*
G37*
G04 #@! TO.C,R21*
X145345276Y-125477500D02*
X145854724Y-125477500D01*
X145345276Y-126522500D02*
X145854724Y-126522500D01*
G04 #@! TO.C,C25*
X148090000Y-123946267D02*
X148090000Y-123653733D01*
X149110000Y-123946267D02*
X149110000Y-123653733D01*
G04 #@! TO.C,C24*
X142710000Y-122853733D02*
X142710000Y-123146267D01*
X141690000Y-122853733D02*
X141690000Y-123146267D01*
G04 #@! TO.C,U2*
X143112500Y-97440000D02*
X142782500Y-97680000D01*
X142782500Y-97200000D01*
X143112500Y-97440000D01*
G36*
X143112500Y-97440000D02*
G01*
X142782500Y-97680000D01*
X142782500Y-97200000D01*
X143112500Y-97440000D01*
G37*
X146462500Y-99550000D02*
X145787500Y-99550000D01*
X146462500Y-99375000D02*
X146462500Y-99550000D01*
X146462500Y-96830000D02*
X146462500Y-97005000D01*
X145787500Y-96830000D02*
X146462500Y-96830000D01*
X143917500Y-99550000D02*
X143242500Y-99550000D01*
X143242500Y-99550000D02*
X143242500Y-99375000D01*
X143242500Y-97005000D02*
X143242500Y-96830000D01*
X143242500Y-96830000D02*
X143917500Y-96830000D01*
G04 #@! TO.C,D1*
X160284817Y-112321812D02*
X160284817Y-114781812D01*
X160284817Y-114781812D02*
X161754817Y-114781812D01*
X161754817Y-114781812D02*
X161754817Y-112321812D01*
G04 #@! TO.C,C6*
X132873550Y-118524312D02*
X133166084Y-118524312D01*
X132873550Y-119544312D02*
X133166084Y-119544312D01*
G04 #@! TO.C,R15*
X134269724Y-95417500D02*
X133760276Y-95417500D01*
X134269724Y-96462500D02*
X133760276Y-96462500D01*
G04 #@! TO.C,TP1*
X136450000Y-137250000D02*
G75*
G02*
X135050000Y-137250000I-700000J0D01*
G01*
X135050000Y-137250000D02*
G75*
G02*
X136450000Y-137250000I700000J0D01*
G01*
G04 #@! TO.C,C15*
X144603733Y-100490000D02*
X144896267Y-100490000D01*
X144603733Y-101510000D02*
X144896267Y-101510000D01*
G04 #@! TO.C,SW1*
X157200000Y-104050000D02*
X157200000Y-108450000D01*
X158800000Y-104050000D02*
X158700000Y-104050000D01*
X158800000Y-108450000D02*
X158700000Y-108450000D01*
X160300000Y-108450000D02*
X160300000Y-104050000D01*
G04 #@! TO.C,U6*
X135415000Y-127530000D02*
X139175000Y-127530000D01*
X135415000Y-134350000D02*
X139175000Y-134350000D01*
X139175000Y-127530000D02*
X139175000Y-128790000D01*
X139175000Y-134350000D02*
X139175000Y-133090000D01*
X134135000Y-127630000D02*
X133895000Y-127300000D01*
X134375000Y-127300000D01*
X134135000Y-127630000D01*
G36*
X134135000Y-127630000D02*
G01*
X133895000Y-127300000D01*
X134375000Y-127300000D01*
X134135000Y-127630000D01*
G37*
G04 #@! TO.C,C3*
X157509817Y-113268079D02*
X157509817Y-112975545D01*
X158529817Y-113268079D02*
X158529817Y-112975545D01*
G04 #@! TO.C,C7*
X136666084Y-118524312D02*
X136373550Y-118524312D01*
X136666084Y-119544312D02*
X136373550Y-119544312D01*
G04 #@! TO.C,R4*
X155774541Y-124011812D02*
X155265093Y-124011812D01*
X155774541Y-125056812D02*
X155265093Y-125056812D01*
G04 #@! TO.C,R19*
X133760276Y-89667500D02*
X134269724Y-89667500D01*
X133760276Y-90712500D02*
X134269724Y-90712500D01*
G04 #@! TO.C,C11*
X140990000Y-109146267D02*
X140990000Y-108853733D01*
X142010000Y-109146267D02*
X142010000Y-108853733D01*
G04 #@! TO.C,C14*
X147342500Y-100336267D02*
X147342500Y-100043733D01*
X148362500Y-100336267D02*
X148362500Y-100043733D01*
G04 #@! TO.C,R3*
X151477500Y-121995276D02*
X151477500Y-122504724D01*
X152522500Y-121995276D02*
X152522500Y-122504724D01*
G04 #@! TO.C,C21*
X133868733Y-86680000D02*
X134161267Y-86680000D01*
X133868733Y-87700000D02*
X134161267Y-87700000D01*
G04 #@! TO.C,C1*
X151509817Y-125888045D02*
X151509817Y-126180579D01*
X152529817Y-125888045D02*
X152529817Y-126180579D01*
G04 #@! TO.C,J3*
X157330000Y-83480000D02*
X157930000Y-82880000D01*
X157330000Y-91060000D02*
X157330000Y-83480000D01*
X157930000Y-82880000D02*
X160830000Y-82880000D01*
X158730000Y-93040000D02*
X157330000Y-91060000D01*
X160030000Y-93040000D02*
X158730000Y-93040000D01*
X160650000Y-90500000D02*
X160650000Y-91135000D01*
X160650000Y-91135000D02*
X160015000Y-91135000D01*
X161430000Y-83480000D02*
X160830000Y-82880000D01*
X161430000Y-83480000D02*
X161430000Y-91060000D01*
X161430000Y-91060000D02*
X160030000Y-93040000D01*
G04 #@! TO.C,C8*
X133868733Y-80430000D02*
X134161267Y-80430000D01*
X133868733Y-81450000D02*
X134161267Y-81450000D01*
G04 #@! TO.C,C9*
X134161267Y-75930000D02*
X133868733Y-75930000D01*
X134161267Y-76950000D02*
X133868733Y-76950000D01*
G04 #@! TO.C,TX*
X160200000Y-81250000D02*
G75*
G02*
X158800000Y-81250000I-700000J0D01*
G01*
X158800000Y-81250000D02*
G75*
G02*
X160200000Y-81250000I700000J0D01*
G01*
G04 #@! TO.C,Q2*
X155945000Y-118940000D02*
X155945000Y-119830000D01*
X155945000Y-119830000D02*
X154095000Y-119830000D01*
X155960000Y-116710000D02*
X154110000Y-116710000D01*
X155960000Y-116710000D02*
X155960000Y-117600000D01*
X153720000Y-116700000D02*
X153480000Y-116370000D01*
X153960000Y-116370000D01*
X153720000Y-116700000D01*
G36*
X153720000Y-116700000D02*
G01*
X153480000Y-116370000D01*
X153960000Y-116370000D01*
X153720000Y-116700000D01*
G37*
G04 #@! TO.C,C12*
X140990000Y-115353733D02*
X140990000Y-115646267D01*
X142010000Y-115353733D02*
X142010000Y-115646267D01*
G04 #@! TO.C,R5*
X158997317Y-113376536D02*
X158997317Y-112867088D01*
X160042317Y-113376536D02*
X160042317Y-112867088D01*
G04 #@! TO.C,C16*
X144706233Y-107180000D02*
X144998767Y-107180000D01*
X144706233Y-108200000D02*
X144998767Y-108200000D01*
G04 #@! TO.C,C2*
X158736050Y-115024312D02*
X159028584Y-115024312D01*
X158736050Y-116044312D02*
X159028584Y-116044312D01*
D12*
G04 #@! TO.C,D2*
X150750700Y-117522100D02*
X150750700Y-119477900D01*
X150750700Y-119477900D02*
X150989460Y-119477900D01*
X150989460Y-117522100D02*
X150750700Y-117522100D01*
X152010540Y-119477900D02*
X152249300Y-119477900D01*
X152249300Y-117522100D02*
X152010540Y-117522100D01*
X152249300Y-119477900D02*
X152249300Y-117522100D01*
D13*
G04 #@! TO.C,U4*
X154109817Y-120474312D02*
X155929817Y-120474312D01*
X154109817Y-120524312D02*
X154109817Y-120474312D01*
X154109817Y-123594312D02*
X154109817Y-123544312D01*
X155929817Y-120474312D02*
X155929817Y-120524312D01*
X155929817Y-123544312D02*
X155929817Y-123594312D01*
X155929817Y-123594312D02*
X154109817Y-123594312D01*
X156709817Y-123874312D02*
X156229817Y-123874312D01*
X156469817Y-123544312D01*
X156709817Y-123874312D01*
G36*
X156709817Y-123874312D02*
G01*
X156229817Y-123874312D01*
X156469817Y-123544312D01*
X156709817Y-123874312D01*
G37*
G04 #@! TO.C,RX*
X160200000Y-79250000D02*
G75*
G02*
X158800000Y-79250000I-700000J0D01*
G01*
X158800000Y-79250000D02*
G75*
G02*
X160200000Y-79250000I700000J0D01*
G01*
G04 #@! TO.C,J5*
X131334817Y-100094312D02*
X131334817Y-103974312D01*
X133304817Y-98924312D02*
X135804817Y-98924312D01*
X133304817Y-105144312D02*
X135804817Y-105144312D01*
X135804817Y-98924312D02*
X135804817Y-99974312D01*
X135804817Y-99974312D02*
X136794817Y-99974312D01*
X135804817Y-105144312D02*
X135804817Y-104094312D01*
G04 #@! TO.C,R20*
X155497317Y-108867088D02*
X155497317Y-109376536D01*
X156542317Y-108867088D02*
X156542317Y-109376536D01*
G04 #@! TO.C,R13*
X150274541Y-132011812D02*
X149765093Y-132011812D01*
X150274541Y-133056812D02*
X149765093Y-133056812D01*
G04 #@! TO.C,R10*
X139227500Y-105254724D02*
X139227500Y-104745276D01*
X140272500Y-105254724D02*
X140272500Y-104745276D01*
G04 #@! TO.C,U1*
X137065000Y-68600000D02*
X137065000Y-74800000D01*
X137065000Y-68600000D02*
X155465000Y-68600000D01*
X137065000Y-93450000D02*
X137065000Y-94450000D01*
X137065000Y-94450000D02*
X138565000Y-94450000D01*
X155465000Y-68600000D02*
X155465000Y-74800000D01*
X155465000Y-94450000D02*
X153965000Y-94450000D01*
X155465000Y-94450000D02*
X155465000Y-93450000D01*
X137065000Y-75475000D02*
X136565000Y-75475000D01*
X137065000Y-74975000D01*
X137065000Y-75475000D01*
G36*
X137065000Y-75475000D02*
G01*
X136565000Y-75475000D01*
X137065000Y-74975000D01*
X137065000Y-75475000D01*
G37*
G04 #@! TO.C,R9*
X134269724Y-78917500D02*
X133760276Y-78917500D01*
X134269724Y-79962500D02*
X133760276Y-79962500D01*
G04 #@! TO.C,J6*
X150635000Y-103945000D02*
X150635000Y-101295000D01*
X153395000Y-101295000D02*
X150635000Y-101295000D01*
X153395000Y-103945000D02*
X150635000Y-103945000D01*
X153395000Y-103945000D02*
X153395000Y-101295000D01*
X153395000Y-105215000D02*
X153395000Y-106595000D01*
X153395000Y-106595000D02*
X152015000Y-106595000D01*
G04 #@! TO.C,C13*
X158911267Y-109430000D02*
X158618733Y-109430000D01*
X158911267Y-110450000D02*
X158618733Y-110450000D01*
G04 #@! TO.C,R_PROG1*
X147997317Y-112867088D02*
X147997317Y-113376536D01*
X149042317Y-112867088D02*
X149042317Y-113376536D01*
G04 #@! TO.C,R11*
X137727500Y-104745276D02*
X137727500Y-105254724D01*
X138772500Y-104745276D02*
X138772500Y-105254724D01*
G04 #@! TO.C,C18*
X147342500Y-105043733D02*
X147342500Y-105336267D01*
X148362500Y-105043733D02*
X148362500Y-105336267D01*
G04 #@! TO.C,R17*
X133760276Y-83667500D02*
X134269724Y-83667500D01*
X133760276Y-84712500D02*
X134269724Y-84712500D01*
G04 #@! TO.C,R2*
X139457683Y-115255964D02*
X139457683Y-115765412D01*
X140502683Y-115255964D02*
X140502683Y-115765412D01*
G04 #@! TO.C,R12*
X159004724Y-101727500D02*
X158495276Y-101727500D01*
X159004724Y-102772500D02*
X158495276Y-102772500D01*
G04 #@! TO.C,U3*
X142752500Y-104090000D02*
X142752500Y-104090000D01*
X143252500Y-104090000D02*
X142952500Y-104090000D01*
X143252500Y-106290000D02*
X142752500Y-106290000D01*
X144452500Y-104090000D02*
X144952500Y-104090000D01*
X144452500Y-106290000D02*
X144452500Y-106290000D01*
X144952500Y-106290000D02*
X144452500Y-106290000D01*
X142752500Y-104090000D02*
X142392500Y-104090000D01*
X142752500Y-103730000D01*
X142752500Y-104090000D01*
G36*
X142752500Y-104090000D02*
G01*
X142392500Y-104090000D01*
X142752500Y-103730000D01*
X142752500Y-104090000D01*
G37*
G04 #@! TO.C,R7*
X135997317Y-121279588D02*
X135997317Y-121789036D01*
X137042317Y-121279588D02*
X137042317Y-121789036D01*
G04 #@! TO.C,C4*
X134618733Y-134930000D02*
X134911267Y-134930000D01*
X134618733Y-135950000D02*
X134911267Y-135950000D01*
G04 #@! TO.C,U7*
X132609817Y-119974312D02*
X134429817Y-119974312D01*
X132609817Y-120024312D02*
X132609817Y-119974312D01*
X132609817Y-123094312D02*
X132609817Y-123044312D01*
X134429817Y-119974312D02*
X134429817Y-120024312D01*
X134429817Y-121144312D02*
X134429817Y-121924312D01*
X134429817Y-123044312D02*
X134429817Y-123094312D01*
X134429817Y-123094312D02*
X132609817Y-123094312D01*
X132069817Y-120024312D02*
X131829817Y-119694312D01*
X132309817Y-119694312D01*
X132069817Y-120024312D01*
G36*
X132069817Y-120024312D02*
G01*
X131829817Y-119694312D01*
X132309817Y-119694312D01*
X132069817Y-120024312D01*
G37*
G04 #@! TO.C,U8*
X144914249Y-130849312D02*
X147279817Y-130849312D01*
X147279817Y-133219312D02*
X144759817Y-133219312D01*
X144619817Y-130844312D02*
X144479817Y-130654312D01*
X144759817Y-130654312D01*
X144619817Y-130844312D01*
G36*
X144619817Y-130844312D02*
G01*
X144479817Y-130654312D01*
X144759817Y-130654312D01*
X144619817Y-130844312D01*
G37*
G04 #@! TO.C,C10*
X134161267Y-77430000D02*
X133868733Y-77430000D01*
X134161267Y-78450000D02*
X133868733Y-78450000D01*
G04 #@! TO.C,J1*
X153709817Y-125974312D02*
X153709817Y-126994312D01*
X153709817Y-126994312D02*
X155309817Y-126994312D01*
X153709817Y-133074312D02*
X155309817Y-133074312D01*
X153709817Y-134094312D02*
X153709817Y-133074312D01*
X155309817Y-126994312D02*
X155309817Y-128274312D01*
X155309817Y-131794312D02*
X152419817Y-131794312D01*
X155309817Y-133074312D02*
X155309817Y-131794312D01*
X157959817Y-125974312D02*
X153709817Y-125974312D01*
X157959817Y-134094312D02*
X153709817Y-134094312D01*
X161529817Y-132374312D02*
X161529817Y-127694312D01*
D14*
G04 #@! TO.C,G\u002A\u002A\u002A*
G36*
X139032498Y-102146243D02*
G01*
X139055626Y-102147828D01*
X139072840Y-102150362D01*
X139087890Y-102154807D01*
X139104527Y-102162124D01*
X139115094Y-102167405D01*
X139148001Y-102188124D01*
X139172472Y-102212865D01*
X139189163Y-102242615D01*
X139198729Y-102278362D01*
X139200899Y-102296881D01*
X139200755Y-102316842D01*
X139198066Y-102337410D01*
X139196604Y-102343541D01*
X139181692Y-102380476D01*
X139159786Y-102410818D01*
X139131095Y-102434417D01*
X139095826Y-102451123D01*
X139054189Y-102460784D01*
X139031223Y-102462916D01*
X138984744Y-102462178D01*
X138944499Y-102454551D01*
X138909662Y-102439743D01*
X138879407Y-102417462D01*
X138867099Y-102404957D01*
X138847404Y-102377604D01*
X138835618Y-102347351D01*
X138831015Y-102312188D01*
X138830892Y-102304546D01*
X138834068Y-102268658D01*
X138844165Y-102237959D01*
X138862041Y-102210117D01*
X138868263Y-102202843D01*
X138895720Y-102177959D01*
X138927234Y-102160370D01*
X138963771Y-102149742D01*
X139006297Y-102145743D01*
X139032498Y-102146243D01*
G37*
G36*
X139084915Y-99018527D02*
G01*
X139161109Y-99031591D01*
X139233410Y-99053471D01*
X139302032Y-99084252D01*
X139367188Y-99124020D01*
X139429094Y-99172861D01*
X139451716Y-99193728D01*
X139503101Y-99248338D01*
X139546335Y-99305992D01*
X139582068Y-99367858D01*
X139610947Y-99435101D01*
X139633622Y-99508888D01*
X139638795Y-99530216D01*
X139649572Y-99577078D01*
X139651019Y-100737883D01*
X139652466Y-101898688D01*
X139147462Y-101898688D01*
X138644874Y-101898688D01*
X138642458Y-101898688D01*
X138642458Y-102021895D01*
X138642458Y-102145102D01*
X138689402Y-102145102D01*
X138736345Y-102145102D01*
X138711617Y-102170468D01*
X138680416Y-102208175D01*
X138656966Y-102249967D01*
X138646820Y-102275557D01*
X138640709Y-102300450D01*
X138636803Y-102331809D01*
X138635141Y-102366682D01*
X138635764Y-102402117D01*
X138638713Y-102435162D01*
X138644029Y-102462865D01*
X138644223Y-102463573D01*
X138663602Y-102516189D01*
X138691019Y-102563603D01*
X138726095Y-102605356D01*
X138768448Y-102640989D01*
X138813982Y-102668209D01*
X138858757Y-102686377D01*
X138909448Y-102699566D01*
X138963459Y-102707369D01*
X139018190Y-102709377D01*
X139059232Y-102706713D01*
X139098075Y-102701473D01*
X139130573Y-102694962D01*
X139160041Y-102686251D01*
X139189790Y-102674414D01*
X139212593Y-102663752D01*
X139258440Y-102636443D01*
X139298746Y-102602453D01*
X139332285Y-102562989D01*
X139356552Y-102521971D01*
X139376842Y-102469291D01*
X139388328Y-102413889D01*
X139391364Y-102363745D01*
X139387137Y-102310797D01*
X139374534Y-102262285D01*
X139353672Y-102218519D01*
X139324671Y-102179808D01*
X139318905Y-102173717D01*
X139290905Y-102145102D01*
X139471589Y-102145102D01*
X139652273Y-102145102D01*
X139651461Y-102262269D01*
X139651160Y-102296138D01*
X139650754Y-102327813D01*
X139650273Y-102355677D01*
X139649748Y-102378111D01*
X139649210Y-102393497D01*
X139648885Y-102398764D01*
X139637297Y-102474770D01*
X139616955Y-102548238D01*
X139588404Y-102618434D01*
X139552189Y-102684626D01*
X139508855Y-102746083D01*
X139458946Y-102802070D01*
X139403009Y-102851856D01*
X139341587Y-102894710D01*
X139275225Y-102929897D01*
X139243999Y-102942995D01*
X139171007Y-102966690D01*
X139097029Y-102981969D01*
X139023515Y-102988617D01*
X138952154Y-102986442D01*
X138871937Y-102974394D01*
X138796355Y-102953880D01*
X138725241Y-102924821D01*
X138658432Y-102887136D01*
X138595761Y-102840748D01*
X138540193Y-102788840D01*
X138489606Y-102730039D01*
X138447407Y-102667079D01*
X138413194Y-102599230D01*
X138386564Y-102525763D01*
X138377860Y-102494305D01*
X138364638Y-102442249D01*
X138364638Y-101318253D01*
X138642288Y-101318253D01*
X138682234Y-101330296D01*
X138695401Y-101334201D01*
X138716662Y-101340426D01*
X138744825Y-101348625D01*
X138778696Y-101358452D01*
X138817081Y-101369562D01*
X138858786Y-101381608D01*
X138902619Y-101394243D01*
X138927526Y-101401412D01*
X138970361Y-101413781D01*
X139010331Y-101425410D01*
X139046477Y-101436014D01*
X139077840Y-101445309D01*
X139103464Y-101453009D01*
X139122391Y-101458830D01*
X139133663Y-101462485D01*
X139136493Y-101463610D01*
X139132701Y-101465525D01*
X139120471Y-101469876D01*
X139100642Y-101476398D01*
X139074055Y-101484831D01*
X139041549Y-101494912D01*
X139003965Y-101506379D01*
X138962144Y-101518970D01*
X138916926Y-101532423D01*
X138896492Y-101538453D01*
X138849727Y-101552251D01*
X138805713Y-101565300D01*
X138765329Y-101577333D01*
X138729459Y-101588084D01*
X138698983Y-101597289D01*
X138674782Y-101604681D01*
X138657739Y-101609996D01*
X138648734Y-101612968D01*
X138647579Y-101613441D01*
X138645770Y-101618598D01*
X138644464Y-101631768D01*
X138643649Y-101653331D01*
X138643312Y-101683667D01*
X138643442Y-101723153D01*
X138643581Y-101737904D01*
X138644874Y-101859098D01*
X139013204Y-101725488D01*
X139381535Y-101591878D01*
X139381618Y-101470764D01*
X139381701Y-101349650D01*
X139158237Y-101280390D01*
X139113640Y-101266527D01*
X139071857Y-101253458D01*
X139033798Y-101241475D01*
X139000371Y-101230866D01*
X138972484Y-101221922D01*
X138951046Y-101214932D01*
X138936964Y-101210186D01*
X138931149Y-101207974D01*
X138931076Y-101207923D01*
X138934809Y-101205921D01*
X138946926Y-101201401D01*
X138966563Y-101194645D01*
X138992855Y-101185934D01*
X139024940Y-101175552D01*
X139061951Y-101163780D01*
X139103026Y-101150900D01*
X139147299Y-101137195D01*
X139154534Y-101134972D01*
X139381689Y-101065227D01*
X139381695Y-100944407D01*
X139381701Y-100823586D01*
X139015202Y-100689537D01*
X138958327Y-100668748D01*
X138904077Y-100648946D01*
X138853138Y-100630379D01*
X138806191Y-100613294D01*
X138763921Y-100597940D01*
X138727011Y-100584563D01*
X138696144Y-100573413D01*
X138672003Y-100564737D01*
X138655273Y-100558782D01*
X138646637Y-100555797D01*
X138645580Y-100555488D01*
X138644715Y-100560101D01*
X138643942Y-100573065D01*
X138643296Y-100593069D01*
X138642812Y-100618799D01*
X138642524Y-100648946D01*
X138642458Y-100672949D01*
X138642458Y-100790409D01*
X138878001Y-100859625D01*
X138924331Y-100873267D01*
X138968194Y-100886236D01*
X139008648Y-100898249D01*
X139044750Y-100909025D01*
X139075558Y-100918281D01*
X139100130Y-100925734D01*
X139117524Y-100931103D01*
X139126798Y-100934105D01*
X139127670Y-100934426D01*
X139130086Y-100935497D01*
X139131474Y-100936651D01*
X139131292Y-100938061D01*
X139128996Y-100939898D01*
X139124042Y-100942333D01*
X139115887Y-100945540D01*
X139103988Y-100949690D01*
X139087801Y-100954954D01*
X139066783Y-100961505D01*
X139040391Y-100969515D01*
X139008081Y-100979155D01*
X138969310Y-100990598D01*
X138923534Y-101004015D01*
X138870210Y-101019578D01*
X138808795Y-101037459D01*
X138738745Y-101057831D01*
X138724596Y-101061944D01*
X138644874Y-101085121D01*
X138643581Y-101201687D01*
X138642288Y-101318253D01*
X138364638Y-101318253D01*
X138364638Y-101002416D01*
X138364639Y-100862563D01*
X138364645Y-100732042D01*
X138364657Y-100610521D01*
X138364678Y-100497668D01*
X138364706Y-100400875D01*
X138642458Y-100400875D01*
X138642458Y-100521666D01*
X139012079Y-100521666D01*
X139381701Y-100521666D01*
X139381701Y-100400875D01*
X139381701Y-100280084D01*
X139012079Y-100280084D01*
X138642458Y-100280084D01*
X138642458Y-100400875D01*
X138364706Y-100400875D01*
X138364708Y-100393152D01*
X138364751Y-100296640D01*
X138364809Y-100207802D01*
X138364883Y-100126305D01*
X138364976Y-100051818D01*
X138365079Y-99990185D01*
X138642458Y-99990185D01*
X138642458Y-100110976D01*
X138642458Y-100231767D01*
X139012079Y-100231767D01*
X139381701Y-100231767D01*
X139381701Y-100110976D01*
X139381701Y-99990185D01*
X139014495Y-99990185D01*
X139012079Y-99990185D01*
X138642458Y-99990185D01*
X138365079Y-99990185D01*
X138365089Y-99984008D01*
X138365224Y-99922545D01*
X138365384Y-99867097D01*
X138365571Y-99817332D01*
X138365786Y-99772918D01*
X138366033Y-99733524D01*
X138366311Y-99698817D01*
X138366625Y-99668467D01*
X138366975Y-99642141D01*
X138367364Y-99619508D01*
X138367794Y-99600236D01*
X138368267Y-99583993D01*
X138368784Y-99570448D01*
X138369349Y-99559269D01*
X138369962Y-99550124D01*
X138370627Y-99542682D01*
X138371344Y-99536611D01*
X138372117Y-99531579D01*
X138372946Y-99527255D01*
X138373688Y-99523930D01*
X138376521Y-99514267D01*
X138635211Y-99514267D01*
X138635987Y-99574662D01*
X138638436Y-99622754D01*
X138644943Y-99664992D01*
X138656254Y-99704605D01*
X138673113Y-99744817D01*
X138677325Y-99753434D01*
X138701047Y-99792264D01*
X138731864Y-99829503D01*
X138767419Y-99862757D01*
X138805353Y-99889633D01*
X138819087Y-99897260D01*
X138850731Y-99912462D01*
X138879579Y-99923675D01*
X138908132Y-99931439D01*
X138938891Y-99936294D01*
X138974356Y-99938780D01*
X139014495Y-99939439D01*
X139053195Y-99938971D01*
X139084685Y-99937244D01*
X139111388Y-99933754D01*
X139135729Y-99927996D01*
X139160132Y-99919466D01*
X139187020Y-99907660D01*
X139202139Y-99900376D01*
X139249212Y-99871996D01*
X139290106Y-99836283D01*
X139324351Y-99793700D01*
X139343895Y-99760485D01*
X139364295Y-99716043D01*
X139378232Y-99673710D01*
X139386435Y-99630299D01*
X139389630Y-99582624D01*
X139389648Y-99560168D01*
X139388948Y-99514267D01*
X139291703Y-99512961D01*
X139194458Y-99511655D01*
X139192416Y-99554367D01*
X139188308Y-99588900D01*
X139179112Y-99616691D01*
X139163989Y-99639675D01*
X139149188Y-99654143D01*
X139118193Y-99674657D01*
X139082631Y-99688897D01*
X139044246Y-99696917D01*
X139004786Y-99698771D01*
X138965998Y-99694511D01*
X138929628Y-99684191D01*
X138897424Y-99667864D01*
X138871219Y-99645679D01*
X138853185Y-99622206D01*
X138842074Y-99598135D01*
X138836741Y-99570344D01*
X138835830Y-99549198D01*
X138835724Y-99511655D01*
X138735467Y-99512961D01*
X138635211Y-99514267D01*
X138376521Y-99514267D01*
X138396708Y-99445419D01*
X138427676Y-99372013D01*
X138466304Y-99304087D01*
X138512306Y-99242018D01*
X138565395Y-99186180D01*
X138625282Y-99136948D01*
X138691681Y-99094698D01*
X138709626Y-99085084D01*
X138776197Y-99054889D01*
X138842912Y-99033362D01*
X138911722Y-99020035D01*
X138984582Y-99014438D01*
X139004613Y-99014191D01*
X139084915Y-99018527D01*
G37*
D13*
G04 #@! TO.C,U5*
X151359817Y-111261812D02*
X155479817Y-111261812D01*
X151359817Y-111356812D02*
X151359817Y-111261812D01*
X151359817Y-116381812D02*
X151359817Y-116286812D01*
X155479817Y-111261812D02*
X155479817Y-111356812D01*
X155479817Y-116286812D02*
X155479817Y-116381812D01*
X155479817Y-116381812D02*
X151359817Y-116381812D01*
X150819817Y-111351812D02*
X150579817Y-111021812D01*
X151059817Y-111021812D01*
X150819817Y-111351812D01*
G36*
X150819817Y-111351812D02*
G01*
X150579817Y-111021812D01*
X151059817Y-111021812D01*
X150819817Y-111351812D01*
G37*
G04 #@! TO.C,D3*
X132355000Y-87955000D02*
X132355000Y-89425000D01*
X132355000Y-89425000D02*
X134815000Y-89425000D01*
X134815000Y-87955000D02*
X132355000Y-87955000D01*
G04 #@! TO.C,C22*
X144911267Y-133680000D02*
X144618733Y-133680000D01*
X144911267Y-134700000D02*
X144618733Y-134700000D01*
G04 #@! TO.C,C20*
X133868733Y-82180000D02*
X134161267Y-82180000D01*
X133868733Y-83200000D02*
X134161267Y-83200000D01*
G04 #@! TO.C,TP4*
X158800000Y-75550000D02*
X160200000Y-75550000D01*
X158800000Y-76950000D02*
X158800000Y-75550000D01*
X160200000Y-75550000D02*
X160200000Y-76950000D01*
X160200000Y-76950000D02*
X158800000Y-76950000D01*
G04 #@! TO.C,R1*
X139457683Y-109265412D02*
X139457683Y-108755964D01*
X140502683Y-109265412D02*
X140502683Y-108755964D01*
G04 #@! TO.C,R18*
X133760276Y-85167500D02*
X134269724Y-85167500D01*
X133760276Y-86212500D02*
X134269724Y-86212500D01*
G04 #@! TO.C,C23*
X149873550Y-130524312D02*
X150166084Y-130524312D01*
X149873550Y-131544312D02*
X150166084Y-131544312D01*
G04 #@! TO.C,U9*
X141650000Y-111510000D02*
X140600000Y-111510000D01*
X141650000Y-113490000D02*
X140350000Y-113490000D01*
X140230000Y-111510000D02*
X139950000Y-111510000D01*
X140230000Y-111230000D01*
X140230000Y-111510000D01*
G36*
X140230000Y-111510000D02*
G01*
X139950000Y-111510000D01*
X140230000Y-111230000D01*
X140230000Y-111510000D01*
G37*
G04 #@! TO.C,R6*
X147997317Y-116789036D02*
X147997317Y-116279588D01*
X149042317Y-116789036D02*
X149042317Y-116279588D01*
D15*
G04 #@! TO.C,D4*
X148919817Y-110396312D02*
X154444817Y-110396312D01*
X154119817Y-107672312D02*
X148919817Y-107672312D01*
D13*
G04 #@! TO.C,JP3*
X157350000Y-100550000D02*
X157350000Y-99950000D01*
X158050000Y-99250000D02*
X159450000Y-99250000D01*
X159450000Y-101250000D02*
X158050000Y-101250000D01*
X160150000Y-99950000D02*
X160150000Y-100550000D01*
X157350000Y-99950000D02*
G75*
G02*
X158050000Y-99250000I700000J0D01*
G01*
X158050000Y-101250000D02*
G75*
G02*
X157350000Y-100550000I0J700000D01*
G01*
X159450000Y-99250000D02*
G75*
G02*
X160150000Y-99950000I1J-699999D01*
G01*
X160150000Y-100550000D02*
G75*
G02*
X159450000Y-101250000I-699999J-1D01*
G01*
G04 #@! TO.C,R14*
X134269724Y-93917500D02*
X133760276Y-93917500D01*
X134269724Y-94962500D02*
X133760276Y-94962500D01*
G04 #@! TO.C,C17*
X145842500Y-105043733D02*
X145842500Y-105336267D01*
X146862500Y-105043733D02*
X146862500Y-105336267D01*
G04 #@! TO.C,C5*
X142255000Y-131586267D02*
X142255000Y-131293733D01*
X143275000Y-131586267D02*
X143275000Y-131293733D01*
D16*
G04 #@! TO.C,Q1*
X157504817Y-123284312D02*
X157504817Y-118784312D01*
X160534817Y-123284312D02*
X160534817Y-118784312D01*
D15*
X157744817Y-125474312D02*
G75*
G02*
X157544817Y-125474312I-100000J0D01*
G01*
X157544817Y-125474312D02*
G75*
G02*
X157744817Y-125474312I100000J0D01*
G01*
D13*
G04 #@! TO.C,R8*
X135774541Y-123511812D02*
X135265093Y-123511812D01*
X135774541Y-124556812D02*
X135265093Y-124556812D01*
G04 #@! TO.C,C19*
X144603733Y-102240000D02*
X144896267Y-102240000D01*
X144603733Y-103260000D02*
X144896267Y-103260000D01*
G04 #@! TO.C,J2*
X133600000Y-107830000D02*
X135300000Y-107830000D01*
X133600000Y-117170000D02*
X135300000Y-117170000D01*
G04 #@! TD*
%LPC*%
G04 #@! TO.C,JP3*
G36*
X158900000Y-101000000D02*
G01*
X158600000Y-101000000D01*
X158600000Y-99500000D01*
X158900000Y-99500000D01*
X158900000Y-101000000D01*
G37*
G04 #@! TD*
D17*
G04 #@! TO.C,J4*
X153899990Y-139200002D03*
X138600010Y-139200002D03*
D18*
X150750009Y-136850001D03*
X149750008Y-136850001D03*
X148750010Y-136850001D03*
X147750010Y-136850001D03*
X146750009Y-136850001D03*
X145750009Y-136850001D03*
X144750008Y-136850001D03*
X143750010Y-136850001D03*
X142750010Y-136850001D03*
X141750009Y-136850001D03*
G04 #@! TD*
D19*
G04 #@! TO.C,U10*
X144000000Y-123100000D03*
X144000000Y-123600000D03*
X144000000Y-124100000D03*
X144000000Y-124600000D03*
X146800000Y-124600000D03*
X146800000Y-124100000D03*
X146800000Y-123600000D03*
X146800000Y-123100000D03*
G04 #@! TD*
D20*
G04 #@! TO.C,R21*
X144687500Y-126000000D03*
X146512500Y-126000000D03*
G04 #@! TD*
D21*
G04 #@! TO.C,C25*
X148600000Y-124662500D03*
X148600000Y-122937500D03*
G04 #@! TD*
D22*
G04 #@! TO.C,C24*
X142200000Y-122137500D03*
X142200000Y-123862500D03*
G04 #@! TD*
D23*
G04 #@! TO.C,U2*
X144352500Y-97077500D03*
X144852500Y-97077500D03*
X145352500Y-97077500D03*
D24*
X146215000Y-97440000D03*
X146215000Y-97940000D03*
X146215000Y-98440000D03*
X146215000Y-98940000D03*
D23*
X145352500Y-99302500D03*
X144852500Y-99302500D03*
X144352500Y-99302500D03*
D24*
X143490000Y-98940000D03*
X143490000Y-98440000D03*
X143490000Y-97940000D03*
X143490000Y-97440000D03*
G04 #@! TD*
D25*
G04 #@! TO.C,D1*
X161019817Y-113996812D03*
X161019817Y-112246812D03*
G04 #@! TD*
D26*
G04 #@! TO.C,C6*
X132157317Y-119034312D03*
X133882317Y-119034312D03*
G04 #@! TD*
D27*
G04 #@! TO.C,R15*
X134927500Y-95940000D03*
X133102500Y-95940000D03*
G04 #@! TD*
D28*
G04 #@! TO.C,TP1*
X135750000Y-137250000D03*
G04 #@! TD*
D26*
G04 #@! TO.C,C15*
X143887500Y-101000000D03*
X145612500Y-101000000D03*
G04 #@! TD*
D29*
G04 #@! TO.C,SW1*
X157950000Y-108300000D03*
X157950000Y-104200000D03*
X159550000Y-108300000D03*
X159550000Y-104200000D03*
G04 #@! TD*
D30*
G04 #@! TO.C,U6*
X134115000Y-128640000D03*
X134115000Y-130940000D03*
D31*
X140415000Y-130940000D03*
D30*
X134115000Y-133240000D03*
G04 #@! TD*
D21*
G04 #@! TO.C,C3*
X158019817Y-113984312D03*
X158019817Y-112259312D03*
G04 #@! TD*
D32*
G04 #@! TO.C,C7*
X137382317Y-119034312D03*
X135657317Y-119034312D03*
G04 #@! TD*
D27*
G04 #@! TO.C,R4*
X156432317Y-124534312D03*
X154607317Y-124534312D03*
G04 #@! TD*
D20*
G04 #@! TO.C,R19*
X133102500Y-90190000D03*
X134927500Y-90190000D03*
G04 #@! TD*
D21*
G04 #@! TO.C,C11*
X141500000Y-109862500D03*
X141500000Y-108137500D03*
G04 #@! TD*
G04 #@! TO.C,C14*
X147852500Y-101052500D03*
X147852500Y-99327500D03*
G04 #@! TD*
D33*
G04 #@! TO.C,R3*
X152000000Y-121337500D03*
X152000000Y-123162500D03*
G04 #@! TD*
D26*
G04 #@! TO.C,C21*
X133152500Y-87190000D03*
X134877500Y-87190000D03*
G04 #@! TD*
D22*
G04 #@! TO.C,C1*
X152019817Y-125171812D03*
X152019817Y-126896812D03*
G04 #@! TD*
D34*
G04 #@! TO.C,J3*
X159380000Y-91770000D03*
X158364000Y-84150000D03*
X160396000Y-84150000D03*
D35*
X160015000Y-90500000D03*
X160015000Y-89230000D03*
X160015000Y-87960000D03*
X160015000Y-86690000D03*
X160015000Y-85420000D03*
X158745000Y-85420000D03*
X158745000Y-86690000D03*
X158745000Y-87960000D03*
X158745000Y-89230000D03*
X158745000Y-90500000D03*
G04 #@! TD*
D26*
G04 #@! TO.C,C8*
X133152500Y-80940000D03*
X134877500Y-80940000D03*
G04 #@! TD*
D32*
G04 #@! TO.C,C9*
X134877500Y-76440000D03*
X133152500Y-76440000D03*
G04 #@! TD*
D28*
G04 #@! TO.C,TX*
X159500000Y-81250000D03*
G04 #@! TD*
D36*
G04 #@! TO.C,Q2*
X156310000Y-118250000D03*
X153690000Y-117300000D03*
X153690000Y-119200000D03*
G04 #@! TD*
D22*
G04 #@! TO.C,C12*
X141500000Y-114637500D03*
X141500000Y-116362500D03*
G04 #@! TD*
D37*
G04 #@! TO.C,R5*
X159519817Y-114034312D03*
X159519817Y-112209312D03*
G04 #@! TD*
D26*
G04 #@! TO.C,C16*
X143990000Y-107690000D03*
X145715000Y-107690000D03*
G04 #@! TD*
G04 #@! TO.C,C2*
X158019817Y-115534312D03*
X159744817Y-115534312D03*
G04 #@! TD*
D38*
G04 #@! TO.C,D2*
X151500000Y-119744600D03*
X151500000Y-117255400D03*
G04 #@! TD*
D39*
G04 #@! TO.C,U4*
X156157317Y-122984312D03*
X156157317Y-122034312D03*
X156157317Y-121084312D03*
X153882317Y-121084312D03*
X153882317Y-122034312D03*
X153882317Y-122984312D03*
G04 #@! TD*
D28*
G04 #@! TO.C,RX*
X159500000Y-79250000D03*
G04 #@! TD*
D40*
G04 #@! TO.C,J5*
X136019817Y-100534312D03*
X136019817Y-101534312D03*
X136019817Y-102534312D03*
X136019817Y-103534312D03*
D41*
X132144817Y-99234312D03*
X132144817Y-104834312D03*
G04 #@! TD*
D33*
G04 #@! TO.C,R20*
X156019817Y-108209312D03*
X156019817Y-110034312D03*
G04 #@! TD*
D27*
G04 #@! TO.C,R13*
X150932317Y-132534312D03*
X149107317Y-132534312D03*
G04 #@! TD*
D37*
G04 #@! TO.C,R10*
X139750000Y-105912500D03*
X139750000Y-104087500D03*
G04 #@! TD*
D42*
G04 #@! TO.C,U1*
X137515000Y-76240000D03*
X137515000Y-77510000D03*
X137515000Y-78780000D03*
X137515000Y-80050000D03*
X137515000Y-81320000D03*
X137515000Y-82590000D03*
X137515000Y-83860000D03*
X137515000Y-85130000D03*
X137515000Y-86400000D03*
X137515000Y-87670000D03*
X137515000Y-88940000D03*
X137515000Y-90210000D03*
X137515000Y-91480000D03*
X137515000Y-92750000D03*
D43*
X139280000Y-94000000D03*
X140550000Y-94000000D03*
X141820000Y-94000000D03*
X143090000Y-94000000D03*
X144360000Y-94000000D03*
X145630000Y-94000000D03*
X146900000Y-94000000D03*
X148170000Y-94000000D03*
X149440000Y-94000000D03*
X150710000Y-94000000D03*
X151980000Y-94000000D03*
X153250000Y-94000000D03*
D42*
X155015000Y-92750000D03*
X155015000Y-91480000D03*
X155015000Y-90210000D03*
X155015000Y-88940000D03*
X155015000Y-87670000D03*
X155015000Y-86400000D03*
X155015000Y-85130000D03*
X155015000Y-83860000D03*
X155015000Y-82590000D03*
X155015000Y-81320000D03*
X155015000Y-80050000D03*
X155015000Y-78780000D03*
X155015000Y-77510000D03*
X155015000Y-76240000D03*
D44*
X143365000Y-83260000D03*
X143365000Y-84660000D03*
X144065000Y-82560000D03*
X144065000Y-83960000D03*
X144065000Y-85360000D03*
X144765000Y-83260000D03*
D45*
X144765000Y-83960000D03*
D44*
X144765000Y-84660000D03*
X145465000Y-82560000D03*
X145465000Y-83960000D03*
X145465000Y-85360000D03*
X146165000Y-83260000D03*
X146165000Y-84660000D03*
G04 #@! TD*
D46*
G04 #@! TO.C,MH3*
X157125000Y-96200000D03*
X157674175Y-94874175D03*
X157674175Y-97525825D03*
X159000000Y-94325000D03*
D47*
X159000000Y-96200000D03*
D46*
X159000000Y-98075000D03*
X160325825Y-94874175D03*
X160325825Y-97525825D03*
X160875000Y-96200000D03*
G04 #@! TD*
D27*
G04 #@! TO.C,R9*
X134927500Y-79440000D03*
X133102500Y-79440000D03*
G04 #@! TD*
D48*
G04 #@! TO.C,J6*
X152015000Y-105215000D03*
D49*
X152015000Y-102675000D03*
G04 #@! TD*
D32*
G04 #@! TO.C,C13*
X159627500Y-109940000D03*
X157902500Y-109940000D03*
G04 #@! TD*
D33*
G04 #@! TO.C,R_PROG1*
X148519817Y-112209312D03*
X148519817Y-114034312D03*
G04 #@! TD*
D46*
G04 #@! TO.C,MH1*
X157125000Y-140500000D03*
X157674175Y-139174175D03*
X157674175Y-141825825D03*
X159000000Y-138625000D03*
D47*
X159000000Y-140500000D03*
D46*
X159000000Y-142375000D03*
X160325825Y-139174175D03*
X160325825Y-141825825D03*
X160875000Y-140500000D03*
G04 #@! TD*
D33*
G04 #@! TO.C,R11*
X138250000Y-104087500D03*
X138250000Y-105912500D03*
G04 #@! TD*
D22*
G04 #@! TO.C,C18*
X147852500Y-104327500D03*
X147852500Y-106052500D03*
G04 #@! TD*
D20*
G04 #@! TO.C,R17*
X133102500Y-84190000D03*
X134927500Y-84190000D03*
G04 #@! TD*
D33*
G04 #@! TO.C,R2*
X139980183Y-114598188D03*
X139980183Y-116423188D03*
G04 #@! TD*
D27*
G04 #@! TO.C,R12*
X159662500Y-102250000D03*
X157837500Y-102250000D03*
G04 #@! TD*
D50*
G04 #@! TO.C,U3*
X142940000Y-104440000D03*
X142940000Y-104940000D03*
X142940000Y-105440000D03*
X142940000Y-105940000D03*
D51*
X143602500Y-106102500D03*
X144102500Y-106102500D03*
D50*
X144765000Y-105940000D03*
X144765000Y-105440000D03*
X144765000Y-104940000D03*
X144765000Y-104440000D03*
D51*
X144102500Y-104277500D03*
X143602500Y-104277500D03*
G04 #@! TD*
D33*
G04 #@! TO.C,R7*
X136519817Y-120621812D03*
X136519817Y-122446812D03*
G04 #@! TD*
D26*
G04 #@! TO.C,C4*
X133902500Y-135440000D03*
X135627500Y-135440000D03*
G04 #@! TD*
D52*
G04 #@! TO.C,U7*
X132382317Y-120584312D03*
X132382317Y-121534312D03*
X132382317Y-122484312D03*
X134657317Y-122484312D03*
X134657317Y-120584312D03*
G04 #@! TD*
D19*
G04 #@! TO.C,U8*
X144619817Y-131284312D03*
X144619817Y-131784312D03*
X144619817Y-132284312D03*
X144619817Y-132784312D03*
X147419817Y-132784312D03*
X147419817Y-132284312D03*
X147419817Y-131784312D03*
X147419817Y-131284312D03*
G04 #@! TD*
D32*
G04 #@! TO.C,C10*
X134877500Y-77940000D03*
X133152500Y-77940000D03*
G04 #@! TD*
D53*
G04 #@! TO.C,J1*
X154169817Y-131034312D03*
X154169817Y-129034312D03*
D54*
X159919817Y-133384312D03*
X159919817Y-126684312D03*
G04 #@! TD*
D55*
G04 #@! TO.C,U5*
X150944817Y-111916812D03*
X150944817Y-113186812D03*
X150944817Y-114456812D03*
X150944817Y-115726812D03*
X155894817Y-115726812D03*
X155894817Y-114456812D03*
X155894817Y-113186812D03*
X155894817Y-111916812D03*
D56*
X153419817Y-113821812D03*
G04 #@! TD*
D57*
G04 #@! TO.C,D3*
X133140000Y-88690000D03*
X134890000Y-88690000D03*
G04 #@! TD*
D32*
G04 #@! TO.C,C22*
X145627500Y-134190000D03*
X143902500Y-134190000D03*
G04 #@! TD*
D26*
G04 #@! TO.C,C20*
X133152500Y-82690000D03*
X134877500Y-82690000D03*
G04 #@! TD*
D46*
G04 #@! TO.C,MH2*
X131625000Y-140500000D03*
X132174175Y-139174175D03*
X132174175Y-141825825D03*
X133500000Y-138625000D03*
D47*
X133500000Y-140500000D03*
D46*
X133500000Y-142375000D03*
X134825825Y-139174175D03*
X134825825Y-141825825D03*
X135375000Y-140500000D03*
G04 #@! TD*
D58*
G04 #@! TO.C,TP4*
X159500000Y-76250000D03*
G04 #@! TD*
D37*
G04 #@! TO.C,R1*
X139980183Y-109923188D03*
X139980183Y-108098188D03*
G04 #@! TD*
D20*
G04 #@! TO.C,R18*
X133102500Y-85690000D03*
X134927500Y-85690000D03*
G04 #@! TD*
D26*
G04 #@! TO.C,C23*
X149157317Y-131034312D03*
X150882317Y-131034312D03*
G04 #@! TD*
D59*
G04 #@! TO.C,U9*
X140150000Y-111962500D03*
D60*
X140075000Y-112500000D03*
D59*
X140150000Y-113037500D03*
X141850000Y-113037500D03*
D60*
X141925000Y-112500000D03*
D59*
X141850000Y-111962500D03*
G04 #@! TD*
D37*
G04 #@! TO.C,R6*
X148519817Y-117446812D03*
X148519817Y-115621812D03*
G04 #@! TD*
D61*
G04 #@! TO.C,D4*
X153669817Y-109034312D03*
X149369817Y-109034312D03*
G04 #@! TD*
D62*
G04 #@! TO.C,JP3*
X159400000Y-100250000D03*
D63*
X158100000Y-100250000D03*
G04 #@! TD*
D27*
G04 #@! TO.C,R14*
X134927500Y-94440000D03*
X133102500Y-94440000D03*
G04 #@! TD*
D22*
G04 #@! TO.C,C17*
X146352500Y-104327500D03*
X146352500Y-106052500D03*
G04 #@! TD*
D21*
G04 #@! TO.C,C5*
X142765000Y-132302500D03*
X142765000Y-130577500D03*
G04 #@! TD*
D64*
G04 #@! TO.C,Q1*
X158044817Y-123914312D03*
X158694817Y-123914312D03*
X159344817Y-123914312D03*
X159994817Y-123914312D03*
X159994817Y-118154312D03*
X159344817Y-118154312D03*
X158694817Y-118154312D03*
X158044817Y-118154312D03*
G04 #@! TD*
D27*
G04 #@! TO.C,R8*
X136432317Y-124034312D03*
X134607317Y-124034312D03*
G04 #@! TD*
D26*
G04 #@! TO.C,C19*
X143887500Y-102750000D03*
X145612500Y-102750000D03*
G04 #@! TD*
D65*
G04 #@! TO.C,J2*
X136105000Y-109610000D03*
X136105000Y-115390000D03*
D66*
X137180000Y-109300000D03*
X137180000Y-110100000D03*
D67*
X137180000Y-111250000D03*
X137180000Y-112250000D03*
X137180000Y-112750000D03*
X137180000Y-113750000D03*
D66*
X137180000Y-114900000D03*
X137180000Y-115700000D03*
X137180000Y-115700000D03*
X137180000Y-114900000D03*
D67*
X137180000Y-114250000D03*
X137180000Y-113250000D03*
X137180000Y-111750000D03*
X137180000Y-110750000D03*
D66*
X137180000Y-110100000D03*
X137180000Y-109300000D03*
D68*
X136605000Y-108180000D03*
D69*
X132425000Y-108180000D03*
D68*
X136605000Y-116820000D03*
D69*
X132425000Y-116820000D03*
G04 #@! TD*
%LPD*%
M02*
