G04 #@! TF.GenerationSoftware,KiCad,Pcbnew,9.0.5-9.0.5~ubuntu24.04.1*
G04 #@! TF.CreationDate,2025-10-08T09:34:00+01:00*
G04 #@! TF.ProjectId,sensor_board,73656e73-6f72-45f6-926f-6172642e6b69,rev?*
G04 #@! TF.SameCoordinates,Original*
G04 #@! TF.FileFunction,Other,User*
%FSLAX46Y46*%
G04 Gerber Fmt 4.6, Leading zero omitted, Abs format (unit mm)*
G04 Created by KiCad (PCBNEW 9.0.5-9.0.5~ubuntu24.04.1) date 2025-10-08 09:34:00*
%MOMM*%
%LPD*%
G01*
G04 APERTURE LIST*
%ADD10C,0.100000*%
%ADD11C,0.010000*%
%ADD12C,0.158750*%
%ADD13C,0.150000*%
G04 APERTURE END LIST*
D10*
X80000000Y-50000000D02*
X85000000Y-50000000D01*
X85000000Y-80000000D01*
X80000000Y-80000000D01*
X80000000Y-50000000D01*
G36*
X80000000Y-50000000D02*
G01*
X85000000Y-50000000D01*
X85000000Y-80000000D01*
X80000000Y-80000000D01*
X80000000Y-50000000D01*
G37*
X53600000Y-54000000D02*
X38250000Y-54000000D01*
X38250000Y-72600000D02*
X38250000Y-54000000D01*
X60000000Y-50000000D02*
X65000000Y-50000000D01*
X65000000Y-80000000D01*
X60000000Y-80000000D01*
X60000000Y-50000000D01*
G36*
X60000000Y-50000000D02*
G01*
X65000000Y-50000000D01*
X65000000Y-80000000D01*
X60000000Y-80000000D01*
X60000000Y-50000000D01*
G37*
D11*
X49250000Y-148137500D02*
X48950000Y-148437500D01*
X38550000Y-148437500D01*
X38250000Y-148137500D01*
X38250000Y-143200000D01*
X49250000Y-143200000D01*
X49250000Y-148137500D01*
G36*
X49250000Y-148137500D02*
G01*
X48950000Y-148437500D01*
X38550000Y-148437500D01*
X38250000Y-148137500D01*
X38250000Y-143200000D01*
X49250000Y-143200000D01*
X49250000Y-148137500D01*
G37*
D10*
X110000000Y-50000000D02*
X115000000Y-50000000D01*
X115000000Y-80000000D01*
X110000000Y-80000000D01*
X110000000Y-50000000D01*
G36*
X110000000Y-50000000D02*
G01*
X115000000Y-50000000D01*
X115000000Y-80000000D01*
X110000000Y-80000000D01*
X110000000Y-50000000D01*
G37*
X130000000Y-50000000D02*
X135000000Y-50000000D01*
X135000000Y-80000000D01*
X130000000Y-80000000D01*
X130000000Y-50000000D01*
G36*
X130000000Y-50000000D02*
G01*
X135000000Y-50000000D01*
X135000000Y-80000000D01*
X130000000Y-80000000D01*
X130000000Y-50000000D01*
G37*
X90000000Y-50000000D02*
X95000000Y-50000000D01*
X95000000Y-80000000D01*
X90000000Y-80000000D01*
X90000000Y-50000000D01*
G36*
X90000000Y-50000000D02*
G01*
X95000000Y-50000000D01*
X95000000Y-80000000D01*
X90000000Y-80000000D01*
X90000000Y-50000000D01*
G37*
X120000000Y-50000000D02*
X125000000Y-50000000D01*
X125000000Y-80000000D01*
X120000000Y-80000000D01*
X120000000Y-50000000D01*
G36*
X120000000Y-50000000D02*
G01*
X125000000Y-50000000D01*
X125000000Y-80000000D01*
X120000000Y-80000000D01*
X120000000Y-50000000D01*
G37*
X100000000Y-50000000D02*
X105000000Y-50000000D01*
X105000000Y-80000000D01*
X100000000Y-80000000D01*
X100000000Y-50000000D01*
G36*
X100000000Y-50000000D02*
G01*
X105000000Y-50000000D01*
X105000000Y-80000000D01*
X100000000Y-80000000D01*
X100000000Y-50000000D01*
G37*
X53600000Y-69800000D02*
G75*
G02*
X50800000Y-72600000I-2800000J0D01*
G01*
X50800000Y-72600000D02*
X38250000Y-72600000D01*
X53600000Y-69800000D02*
X53600000Y-54000000D01*
X70000000Y-50000000D02*
X75000000Y-50000000D01*
X75000000Y-80000000D01*
X70000000Y-80000000D01*
X70000000Y-50000000D01*
G36*
X70000000Y-50000000D02*
G01*
X75000000Y-50000000D01*
X75000000Y-80000000D01*
X70000000Y-80000000D01*
X70000000Y-50000000D01*
G37*
D12*
X73490728Y-81777381D02*
X73490728Y-81898334D01*
X73490728Y-81898334D02*
X73430252Y-82019286D01*
X73430252Y-82019286D02*
X73369776Y-82079762D01*
X73369776Y-82079762D02*
X73248824Y-82140238D01*
X73248824Y-82140238D02*
X73006919Y-82200715D01*
X73006919Y-82200715D02*
X72704538Y-82200715D01*
X72704538Y-82200715D02*
X72462633Y-82140238D01*
X72462633Y-82140238D02*
X72341681Y-82079762D01*
X72341681Y-82079762D02*
X72281205Y-82019286D01*
X72281205Y-82019286D02*
X72220728Y-81898334D01*
X72220728Y-81898334D02*
X72220728Y-81777381D01*
X72220728Y-81777381D02*
X72281205Y-81656429D01*
X72281205Y-81656429D02*
X72341681Y-81595953D01*
X72341681Y-81595953D02*
X72462633Y-81535476D01*
X72462633Y-81535476D02*
X72704538Y-81475000D01*
X72704538Y-81475000D02*
X73006919Y-81475000D01*
X73006919Y-81475000D02*
X73248824Y-81535476D01*
X73248824Y-81535476D02*
X73369776Y-81595953D01*
X73369776Y-81595953D02*
X73430252Y-81656429D01*
X73430252Y-81656429D02*
X73490728Y-81777381D01*
X72341681Y-82745000D02*
X72281205Y-82805477D01*
X72281205Y-82805477D02*
X72220728Y-82745000D01*
X72220728Y-82745000D02*
X72281205Y-82684524D01*
X72281205Y-82684524D02*
X72341681Y-82745000D01*
X72341681Y-82745000D02*
X72220728Y-82745000D01*
X73369776Y-83289286D02*
X73430252Y-83349762D01*
X73430252Y-83349762D02*
X73490728Y-83470715D01*
X73490728Y-83470715D02*
X73490728Y-83773096D01*
X73490728Y-83773096D02*
X73430252Y-83894048D01*
X73430252Y-83894048D02*
X73369776Y-83954524D01*
X73369776Y-83954524D02*
X73248824Y-84015001D01*
X73248824Y-84015001D02*
X73127871Y-84015001D01*
X73127871Y-84015001D02*
X72946443Y-83954524D01*
X72946443Y-83954524D02*
X72220728Y-83228810D01*
X72220728Y-83228810D02*
X72220728Y-84015001D01*
X73490728Y-85164048D02*
X73490728Y-84559286D01*
X73490728Y-84559286D02*
X72885966Y-84498810D01*
X72885966Y-84498810D02*
X72946443Y-84559286D01*
X72946443Y-84559286D02*
X73006919Y-84680239D01*
X73006919Y-84680239D02*
X73006919Y-84982620D01*
X73006919Y-84982620D02*
X72946443Y-85103572D01*
X72946443Y-85103572D02*
X72885966Y-85164048D01*
X72885966Y-85164048D02*
X72765014Y-85224525D01*
X72765014Y-85224525D02*
X72462633Y-85224525D01*
X72462633Y-85224525D02*
X72341681Y-85164048D01*
X72341681Y-85164048D02*
X72281205Y-85103572D01*
X72281205Y-85103572D02*
X72220728Y-84982620D01*
X72220728Y-84982620D02*
X72220728Y-84680239D01*
X72220728Y-84680239D02*
X72281205Y-84559286D01*
X72281205Y-84559286D02*
X72341681Y-84498810D01*
X72220728Y-85768810D02*
X73067395Y-85768810D01*
X72946443Y-85768810D02*
X73006919Y-85829287D01*
X73006919Y-85829287D02*
X73067395Y-85950239D01*
X73067395Y-85950239D02*
X73067395Y-86131668D01*
X73067395Y-86131668D02*
X73006919Y-86252620D01*
X73006919Y-86252620D02*
X72885966Y-86313096D01*
X72885966Y-86313096D02*
X72220728Y-86313096D01*
X72885966Y-86313096D02*
X73006919Y-86373572D01*
X73006919Y-86373572D02*
X73067395Y-86494525D01*
X73067395Y-86494525D02*
X73067395Y-86675953D01*
X73067395Y-86675953D02*
X73006919Y-86796906D01*
X73006919Y-86796906D02*
X72885966Y-86857382D01*
X72885966Y-86857382D02*
X72220728Y-86857382D01*
X72220728Y-87462143D02*
X73067395Y-87462143D01*
X72946443Y-87462143D02*
X73006919Y-87522620D01*
X73006919Y-87522620D02*
X73067395Y-87643572D01*
X73067395Y-87643572D02*
X73067395Y-87825001D01*
X73067395Y-87825001D02*
X73006919Y-87945953D01*
X73006919Y-87945953D02*
X72885966Y-88006429D01*
X72885966Y-88006429D02*
X72220728Y-88006429D01*
X72885966Y-88006429D02*
X73006919Y-88066905D01*
X73006919Y-88066905D02*
X73067395Y-88187858D01*
X73067395Y-88187858D02*
X73067395Y-88369286D01*
X73067395Y-88369286D02*
X73006919Y-88490239D01*
X73006919Y-88490239D02*
X72885966Y-88550715D01*
X72885966Y-88550715D02*
X72220728Y-88550715D01*
X72220728Y-90123095D02*
X73490728Y-90123095D01*
X73490728Y-90123095D02*
X73490728Y-90606905D01*
X73490728Y-90606905D02*
X73430252Y-90727857D01*
X73430252Y-90727857D02*
X73369776Y-90788334D01*
X73369776Y-90788334D02*
X73248824Y-90848810D01*
X73248824Y-90848810D02*
X73067395Y-90848810D01*
X73067395Y-90848810D02*
X72946443Y-90788334D01*
X72946443Y-90788334D02*
X72885966Y-90727857D01*
X72885966Y-90727857D02*
X72825490Y-90606905D01*
X72825490Y-90606905D02*
X72825490Y-90123095D01*
X72220728Y-91393095D02*
X73490728Y-91393095D01*
X72281205Y-92905000D02*
X72220728Y-93086429D01*
X72220728Y-93086429D02*
X72220728Y-93388810D01*
X72220728Y-93388810D02*
X72281205Y-93509762D01*
X72281205Y-93509762D02*
X72341681Y-93570238D01*
X72341681Y-93570238D02*
X72462633Y-93630715D01*
X72462633Y-93630715D02*
X72583585Y-93630715D01*
X72583585Y-93630715D02*
X72704538Y-93570238D01*
X72704538Y-93570238D02*
X72765014Y-93509762D01*
X72765014Y-93509762D02*
X72825490Y-93388810D01*
X72825490Y-93388810D02*
X72885966Y-93146905D01*
X72885966Y-93146905D02*
X72946443Y-93025953D01*
X72946443Y-93025953D02*
X73006919Y-92965476D01*
X73006919Y-92965476D02*
X73127871Y-92905000D01*
X73127871Y-92905000D02*
X73248824Y-92905000D01*
X73248824Y-92905000D02*
X73369776Y-92965476D01*
X73369776Y-92965476D02*
X73430252Y-93025953D01*
X73430252Y-93025953D02*
X73490728Y-93146905D01*
X73490728Y-93146905D02*
X73490728Y-93449286D01*
X73490728Y-93449286D02*
X73430252Y-93630715D01*
X73067395Y-93993572D02*
X73067395Y-94477381D01*
X73490728Y-94175000D02*
X72402157Y-94175000D01*
X72402157Y-94175000D02*
X72281205Y-94235477D01*
X72281205Y-94235477D02*
X72220728Y-94356429D01*
X72220728Y-94356429D02*
X72220728Y-94477381D01*
X72220728Y-94900714D02*
X73067395Y-94900714D01*
X73490728Y-94900714D02*
X73430252Y-94840238D01*
X73430252Y-94840238D02*
X73369776Y-94900714D01*
X73369776Y-94900714D02*
X73430252Y-94961191D01*
X73430252Y-94961191D02*
X73490728Y-94900714D01*
X73490728Y-94900714D02*
X73369776Y-94900714D01*
X73067395Y-95324048D02*
X73067395Y-95807857D01*
X72220728Y-95505476D02*
X73309300Y-95505476D01*
X73309300Y-95505476D02*
X73430252Y-95565953D01*
X73430252Y-95565953D02*
X73490728Y-95686905D01*
X73490728Y-95686905D02*
X73490728Y-95807857D01*
X73067395Y-96049762D02*
X73067395Y-96533571D01*
X72220728Y-96231190D02*
X73309300Y-96231190D01*
X73309300Y-96231190D02*
X73430252Y-96291667D01*
X73430252Y-96291667D02*
X73490728Y-96412619D01*
X73490728Y-96412619D02*
X73490728Y-96533571D01*
X72281205Y-97440714D02*
X72220728Y-97319762D01*
X72220728Y-97319762D02*
X72220728Y-97077857D01*
X72220728Y-97077857D02*
X72281205Y-96956904D01*
X72281205Y-96956904D02*
X72402157Y-96896428D01*
X72402157Y-96896428D02*
X72885966Y-96896428D01*
X72885966Y-96896428D02*
X73006919Y-96956904D01*
X73006919Y-96956904D02*
X73067395Y-97077857D01*
X73067395Y-97077857D02*
X73067395Y-97319762D01*
X73067395Y-97319762D02*
X73006919Y-97440714D01*
X73006919Y-97440714D02*
X72885966Y-97501190D01*
X72885966Y-97501190D02*
X72765014Y-97501190D01*
X72765014Y-97501190D02*
X72644062Y-96896428D01*
X73067395Y-98045475D02*
X72220728Y-98045475D01*
X72946443Y-98045475D02*
X73006919Y-98105952D01*
X73006919Y-98105952D02*
X73067395Y-98226904D01*
X73067395Y-98226904D02*
X73067395Y-98408333D01*
X73067395Y-98408333D02*
X73006919Y-98529285D01*
X73006919Y-98529285D02*
X72885966Y-98589761D01*
X72885966Y-98589761D02*
X72220728Y-98589761D01*
X72281205Y-99678333D02*
X72220728Y-99557381D01*
X72220728Y-99557381D02*
X72220728Y-99315476D01*
X72220728Y-99315476D02*
X72281205Y-99194523D01*
X72281205Y-99194523D02*
X72402157Y-99134047D01*
X72402157Y-99134047D02*
X72885966Y-99134047D01*
X72885966Y-99134047D02*
X73006919Y-99194523D01*
X73006919Y-99194523D02*
X73067395Y-99315476D01*
X73067395Y-99315476D02*
X73067395Y-99557381D01*
X73067395Y-99557381D02*
X73006919Y-99678333D01*
X73006919Y-99678333D02*
X72885966Y-99738809D01*
X72885966Y-99738809D02*
X72765014Y-99738809D01*
X72765014Y-99738809D02*
X72644062Y-99134047D01*
X72220728Y-100283094D02*
X73067395Y-100283094D01*
X72825490Y-100283094D02*
X72946443Y-100343571D01*
X72946443Y-100343571D02*
X73006919Y-100404047D01*
X73006919Y-100404047D02*
X73067395Y-100524999D01*
X73067395Y-100524999D02*
X73067395Y-100645952D01*
X83290728Y-82177381D02*
X83290728Y-82298334D01*
X83290728Y-82298334D02*
X83230252Y-82419286D01*
X83230252Y-82419286D02*
X83169776Y-82479762D01*
X83169776Y-82479762D02*
X83048824Y-82540238D01*
X83048824Y-82540238D02*
X82806919Y-82600715D01*
X82806919Y-82600715D02*
X82504538Y-82600715D01*
X82504538Y-82600715D02*
X82262633Y-82540238D01*
X82262633Y-82540238D02*
X82141681Y-82479762D01*
X82141681Y-82479762D02*
X82081205Y-82419286D01*
X82081205Y-82419286D02*
X82020728Y-82298334D01*
X82020728Y-82298334D02*
X82020728Y-82177381D01*
X82020728Y-82177381D02*
X82081205Y-82056429D01*
X82081205Y-82056429D02*
X82141681Y-81995953D01*
X82141681Y-81995953D02*
X82262633Y-81935476D01*
X82262633Y-81935476D02*
X82504538Y-81875000D01*
X82504538Y-81875000D02*
X82806919Y-81875000D01*
X82806919Y-81875000D02*
X83048824Y-81935476D01*
X83048824Y-81935476D02*
X83169776Y-81995953D01*
X83169776Y-81995953D02*
X83230252Y-82056429D01*
X83230252Y-82056429D02*
X83290728Y-82177381D01*
X82141681Y-83145000D02*
X82081205Y-83205477D01*
X82081205Y-83205477D02*
X82020728Y-83145000D01*
X82020728Y-83145000D02*
X82081205Y-83084524D01*
X82081205Y-83084524D02*
X82141681Y-83145000D01*
X82141681Y-83145000D02*
X82020728Y-83145000D01*
X83169776Y-83689286D02*
X83230252Y-83749762D01*
X83230252Y-83749762D02*
X83290728Y-83870715D01*
X83290728Y-83870715D02*
X83290728Y-84173096D01*
X83290728Y-84173096D02*
X83230252Y-84294048D01*
X83230252Y-84294048D02*
X83169776Y-84354524D01*
X83169776Y-84354524D02*
X83048824Y-84415001D01*
X83048824Y-84415001D02*
X82927871Y-84415001D01*
X82927871Y-84415001D02*
X82746443Y-84354524D01*
X82746443Y-84354524D02*
X82020728Y-83628810D01*
X82020728Y-83628810D02*
X82020728Y-84415001D01*
X83290728Y-85564048D02*
X83290728Y-84959286D01*
X83290728Y-84959286D02*
X82685966Y-84898810D01*
X82685966Y-84898810D02*
X82746443Y-84959286D01*
X82746443Y-84959286D02*
X82806919Y-85080239D01*
X82806919Y-85080239D02*
X82806919Y-85382620D01*
X82806919Y-85382620D02*
X82746443Y-85503572D01*
X82746443Y-85503572D02*
X82685966Y-85564048D01*
X82685966Y-85564048D02*
X82565014Y-85624525D01*
X82565014Y-85624525D02*
X82262633Y-85624525D01*
X82262633Y-85624525D02*
X82141681Y-85564048D01*
X82141681Y-85564048D02*
X82081205Y-85503572D01*
X82081205Y-85503572D02*
X82020728Y-85382620D01*
X82020728Y-85382620D02*
X82020728Y-85080239D01*
X82020728Y-85080239D02*
X82081205Y-84959286D01*
X82081205Y-84959286D02*
X82141681Y-84898810D01*
X82020728Y-86168810D02*
X82867395Y-86168810D01*
X82746443Y-86168810D02*
X82806919Y-86229287D01*
X82806919Y-86229287D02*
X82867395Y-86350239D01*
X82867395Y-86350239D02*
X82867395Y-86531668D01*
X82867395Y-86531668D02*
X82806919Y-86652620D01*
X82806919Y-86652620D02*
X82685966Y-86713096D01*
X82685966Y-86713096D02*
X82020728Y-86713096D01*
X82685966Y-86713096D02*
X82806919Y-86773572D01*
X82806919Y-86773572D02*
X82867395Y-86894525D01*
X82867395Y-86894525D02*
X82867395Y-87075953D01*
X82867395Y-87075953D02*
X82806919Y-87196906D01*
X82806919Y-87196906D02*
X82685966Y-87257382D01*
X82685966Y-87257382D02*
X82020728Y-87257382D01*
X82020728Y-87862143D02*
X82867395Y-87862143D01*
X82746443Y-87862143D02*
X82806919Y-87922620D01*
X82806919Y-87922620D02*
X82867395Y-88043572D01*
X82867395Y-88043572D02*
X82867395Y-88225001D01*
X82867395Y-88225001D02*
X82806919Y-88345953D01*
X82806919Y-88345953D02*
X82685966Y-88406429D01*
X82685966Y-88406429D02*
X82020728Y-88406429D01*
X82685966Y-88406429D02*
X82806919Y-88466905D01*
X82806919Y-88466905D02*
X82867395Y-88587858D01*
X82867395Y-88587858D02*
X82867395Y-88769286D01*
X82867395Y-88769286D02*
X82806919Y-88890239D01*
X82806919Y-88890239D02*
X82685966Y-88950715D01*
X82685966Y-88950715D02*
X82020728Y-88950715D01*
X82020728Y-90523095D02*
X83290728Y-90523095D01*
X83290728Y-90523095D02*
X83290728Y-91006905D01*
X83290728Y-91006905D02*
X83230252Y-91127857D01*
X83230252Y-91127857D02*
X83169776Y-91188334D01*
X83169776Y-91188334D02*
X83048824Y-91248810D01*
X83048824Y-91248810D02*
X82867395Y-91248810D01*
X82867395Y-91248810D02*
X82746443Y-91188334D01*
X82746443Y-91188334D02*
X82685966Y-91127857D01*
X82685966Y-91127857D02*
X82625490Y-91006905D01*
X82625490Y-91006905D02*
X82625490Y-90523095D01*
X82020728Y-91793095D02*
X83290728Y-91793095D01*
X82081205Y-93305000D02*
X82020728Y-93486429D01*
X82020728Y-93486429D02*
X82020728Y-93788810D01*
X82020728Y-93788810D02*
X82081205Y-93909762D01*
X82081205Y-93909762D02*
X82141681Y-93970238D01*
X82141681Y-93970238D02*
X82262633Y-94030715D01*
X82262633Y-94030715D02*
X82383585Y-94030715D01*
X82383585Y-94030715D02*
X82504538Y-93970238D01*
X82504538Y-93970238D02*
X82565014Y-93909762D01*
X82565014Y-93909762D02*
X82625490Y-93788810D01*
X82625490Y-93788810D02*
X82685966Y-93546905D01*
X82685966Y-93546905D02*
X82746443Y-93425953D01*
X82746443Y-93425953D02*
X82806919Y-93365476D01*
X82806919Y-93365476D02*
X82927871Y-93305000D01*
X82927871Y-93305000D02*
X83048824Y-93305000D01*
X83048824Y-93305000D02*
X83169776Y-93365476D01*
X83169776Y-93365476D02*
X83230252Y-93425953D01*
X83230252Y-93425953D02*
X83290728Y-93546905D01*
X83290728Y-93546905D02*
X83290728Y-93849286D01*
X83290728Y-93849286D02*
X83230252Y-94030715D01*
X82867395Y-94393572D02*
X82867395Y-94877381D01*
X83290728Y-94575000D02*
X82202157Y-94575000D01*
X82202157Y-94575000D02*
X82081205Y-94635477D01*
X82081205Y-94635477D02*
X82020728Y-94756429D01*
X82020728Y-94756429D02*
X82020728Y-94877381D01*
X82020728Y-95300714D02*
X82867395Y-95300714D01*
X83290728Y-95300714D02*
X83230252Y-95240238D01*
X83230252Y-95240238D02*
X83169776Y-95300714D01*
X83169776Y-95300714D02*
X83230252Y-95361191D01*
X83230252Y-95361191D02*
X83290728Y-95300714D01*
X83290728Y-95300714D02*
X83169776Y-95300714D01*
X82867395Y-95724048D02*
X82867395Y-96207857D01*
X82020728Y-95905476D02*
X83109300Y-95905476D01*
X83109300Y-95905476D02*
X83230252Y-95965953D01*
X83230252Y-95965953D02*
X83290728Y-96086905D01*
X83290728Y-96086905D02*
X83290728Y-96207857D01*
X82867395Y-96449762D02*
X82867395Y-96933571D01*
X82020728Y-96631190D02*
X83109300Y-96631190D01*
X83109300Y-96631190D02*
X83230252Y-96691667D01*
X83230252Y-96691667D02*
X83290728Y-96812619D01*
X83290728Y-96812619D02*
X83290728Y-96933571D01*
X82081205Y-97840714D02*
X82020728Y-97719762D01*
X82020728Y-97719762D02*
X82020728Y-97477857D01*
X82020728Y-97477857D02*
X82081205Y-97356904D01*
X82081205Y-97356904D02*
X82202157Y-97296428D01*
X82202157Y-97296428D02*
X82685966Y-97296428D01*
X82685966Y-97296428D02*
X82806919Y-97356904D01*
X82806919Y-97356904D02*
X82867395Y-97477857D01*
X82867395Y-97477857D02*
X82867395Y-97719762D01*
X82867395Y-97719762D02*
X82806919Y-97840714D01*
X82806919Y-97840714D02*
X82685966Y-97901190D01*
X82685966Y-97901190D02*
X82565014Y-97901190D01*
X82565014Y-97901190D02*
X82444062Y-97296428D01*
X82867395Y-98445475D02*
X82020728Y-98445475D01*
X82746443Y-98445475D02*
X82806919Y-98505952D01*
X82806919Y-98505952D02*
X82867395Y-98626904D01*
X82867395Y-98626904D02*
X82867395Y-98808333D01*
X82867395Y-98808333D02*
X82806919Y-98929285D01*
X82806919Y-98929285D02*
X82685966Y-98989761D01*
X82685966Y-98989761D02*
X82020728Y-98989761D01*
X82081205Y-100078333D02*
X82020728Y-99957381D01*
X82020728Y-99957381D02*
X82020728Y-99715476D01*
X82020728Y-99715476D02*
X82081205Y-99594523D01*
X82081205Y-99594523D02*
X82202157Y-99534047D01*
X82202157Y-99534047D02*
X82685966Y-99534047D01*
X82685966Y-99534047D02*
X82806919Y-99594523D01*
X82806919Y-99594523D02*
X82867395Y-99715476D01*
X82867395Y-99715476D02*
X82867395Y-99957381D01*
X82867395Y-99957381D02*
X82806919Y-100078333D01*
X82806919Y-100078333D02*
X82685966Y-100138809D01*
X82685966Y-100138809D02*
X82565014Y-100138809D01*
X82565014Y-100138809D02*
X82444062Y-99534047D01*
X82020728Y-100683094D02*
X82867395Y-100683094D01*
X82625490Y-100683094D02*
X82746443Y-100743571D01*
X82746443Y-100743571D02*
X82806919Y-100804047D01*
X82806919Y-100804047D02*
X82867395Y-100924999D01*
X82867395Y-100924999D02*
X82867395Y-101045952D01*
X123090728Y-82377381D02*
X123090728Y-82498334D01*
X123090728Y-82498334D02*
X123030252Y-82619286D01*
X123030252Y-82619286D02*
X122969776Y-82679762D01*
X122969776Y-82679762D02*
X122848824Y-82740238D01*
X122848824Y-82740238D02*
X122606919Y-82800715D01*
X122606919Y-82800715D02*
X122304538Y-82800715D01*
X122304538Y-82800715D02*
X122062633Y-82740238D01*
X122062633Y-82740238D02*
X121941681Y-82679762D01*
X121941681Y-82679762D02*
X121881205Y-82619286D01*
X121881205Y-82619286D02*
X121820728Y-82498334D01*
X121820728Y-82498334D02*
X121820728Y-82377381D01*
X121820728Y-82377381D02*
X121881205Y-82256429D01*
X121881205Y-82256429D02*
X121941681Y-82195953D01*
X121941681Y-82195953D02*
X122062633Y-82135476D01*
X122062633Y-82135476D02*
X122304538Y-82075000D01*
X122304538Y-82075000D02*
X122606919Y-82075000D01*
X122606919Y-82075000D02*
X122848824Y-82135476D01*
X122848824Y-82135476D02*
X122969776Y-82195953D01*
X122969776Y-82195953D02*
X123030252Y-82256429D01*
X123030252Y-82256429D02*
X123090728Y-82377381D01*
X121941681Y-83345000D02*
X121881205Y-83405477D01*
X121881205Y-83405477D02*
X121820728Y-83345000D01*
X121820728Y-83345000D02*
X121881205Y-83284524D01*
X121881205Y-83284524D02*
X121941681Y-83345000D01*
X121941681Y-83345000D02*
X121820728Y-83345000D01*
X122969776Y-83889286D02*
X123030252Y-83949762D01*
X123030252Y-83949762D02*
X123090728Y-84070715D01*
X123090728Y-84070715D02*
X123090728Y-84373096D01*
X123090728Y-84373096D02*
X123030252Y-84494048D01*
X123030252Y-84494048D02*
X122969776Y-84554524D01*
X122969776Y-84554524D02*
X122848824Y-84615001D01*
X122848824Y-84615001D02*
X122727871Y-84615001D01*
X122727871Y-84615001D02*
X122546443Y-84554524D01*
X122546443Y-84554524D02*
X121820728Y-83828810D01*
X121820728Y-83828810D02*
X121820728Y-84615001D01*
X123090728Y-85764048D02*
X123090728Y-85159286D01*
X123090728Y-85159286D02*
X122485966Y-85098810D01*
X122485966Y-85098810D02*
X122546443Y-85159286D01*
X122546443Y-85159286D02*
X122606919Y-85280239D01*
X122606919Y-85280239D02*
X122606919Y-85582620D01*
X122606919Y-85582620D02*
X122546443Y-85703572D01*
X122546443Y-85703572D02*
X122485966Y-85764048D01*
X122485966Y-85764048D02*
X122365014Y-85824525D01*
X122365014Y-85824525D02*
X122062633Y-85824525D01*
X122062633Y-85824525D02*
X121941681Y-85764048D01*
X121941681Y-85764048D02*
X121881205Y-85703572D01*
X121881205Y-85703572D02*
X121820728Y-85582620D01*
X121820728Y-85582620D02*
X121820728Y-85280239D01*
X121820728Y-85280239D02*
X121881205Y-85159286D01*
X121881205Y-85159286D02*
X121941681Y-85098810D01*
X121820728Y-86368810D02*
X122667395Y-86368810D01*
X122546443Y-86368810D02*
X122606919Y-86429287D01*
X122606919Y-86429287D02*
X122667395Y-86550239D01*
X122667395Y-86550239D02*
X122667395Y-86731668D01*
X122667395Y-86731668D02*
X122606919Y-86852620D01*
X122606919Y-86852620D02*
X122485966Y-86913096D01*
X122485966Y-86913096D02*
X121820728Y-86913096D01*
X122485966Y-86913096D02*
X122606919Y-86973572D01*
X122606919Y-86973572D02*
X122667395Y-87094525D01*
X122667395Y-87094525D02*
X122667395Y-87275953D01*
X122667395Y-87275953D02*
X122606919Y-87396906D01*
X122606919Y-87396906D02*
X122485966Y-87457382D01*
X122485966Y-87457382D02*
X121820728Y-87457382D01*
X121820728Y-88062143D02*
X122667395Y-88062143D01*
X122546443Y-88062143D02*
X122606919Y-88122620D01*
X122606919Y-88122620D02*
X122667395Y-88243572D01*
X122667395Y-88243572D02*
X122667395Y-88425001D01*
X122667395Y-88425001D02*
X122606919Y-88545953D01*
X122606919Y-88545953D02*
X122485966Y-88606429D01*
X122485966Y-88606429D02*
X121820728Y-88606429D01*
X122485966Y-88606429D02*
X122606919Y-88666905D01*
X122606919Y-88666905D02*
X122667395Y-88787858D01*
X122667395Y-88787858D02*
X122667395Y-88969286D01*
X122667395Y-88969286D02*
X122606919Y-89090239D01*
X122606919Y-89090239D02*
X122485966Y-89150715D01*
X122485966Y-89150715D02*
X121820728Y-89150715D01*
X121820728Y-90723095D02*
X123090728Y-90723095D01*
X123090728Y-90723095D02*
X123090728Y-91206905D01*
X123090728Y-91206905D02*
X123030252Y-91327857D01*
X123030252Y-91327857D02*
X122969776Y-91388334D01*
X122969776Y-91388334D02*
X122848824Y-91448810D01*
X122848824Y-91448810D02*
X122667395Y-91448810D01*
X122667395Y-91448810D02*
X122546443Y-91388334D01*
X122546443Y-91388334D02*
X122485966Y-91327857D01*
X122485966Y-91327857D02*
X122425490Y-91206905D01*
X122425490Y-91206905D02*
X122425490Y-90723095D01*
X121820728Y-91993095D02*
X123090728Y-91993095D01*
X121881205Y-93505000D02*
X121820728Y-93686429D01*
X121820728Y-93686429D02*
X121820728Y-93988810D01*
X121820728Y-93988810D02*
X121881205Y-94109762D01*
X121881205Y-94109762D02*
X121941681Y-94170238D01*
X121941681Y-94170238D02*
X122062633Y-94230715D01*
X122062633Y-94230715D02*
X122183585Y-94230715D01*
X122183585Y-94230715D02*
X122304538Y-94170238D01*
X122304538Y-94170238D02*
X122365014Y-94109762D01*
X122365014Y-94109762D02*
X122425490Y-93988810D01*
X122425490Y-93988810D02*
X122485966Y-93746905D01*
X122485966Y-93746905D02*
X122546443Y-93625953D01*
X122546443Y-93625953D02*
X122606919Y-93565476D01*
X122606919Y-93565476D02*
X122727871Y-93505000D01*
X122727871Y-93505000D02*
X122848824Y-93505000D01*
X122848824Y-93505000D02*
X122969776Y-93565476D01*
X122969776Y-93565476D02*
X123030252Y-93625953D01*
X123030252Y-93625953D02*
X123090728Y-93746905D01*
X123090728Y-93746905D02*
X123090728Y-94049286D01*
X123090728Y-94049286D02*
X123030252Y-94230715D01*
X122667395Y-94593572D02*
X122667395Y-95077381D01*
X123090728Y-94775000D02*
X122002157Y-94775000D01*
X122002157Y-94775000D02*
X121881205Y-94835477D01*
X121881205Y-94835477D02*
X121820728Y-94956429D01*
X121820728Y-94956429D02*
X121820728Y-95077381D01*
X121820728Y-95500714D02*
X122667395Y-95500714D01*
X123090728Y-95500714D02*
X123030252Y-95440238D01*
X123030252Y-95440238D02*
X122969776Y-95500714D01*
X122969776Y-95500714D02*
X123030252Y-95561191D01*
X123030252Y-95561191D02*
X123090728Y-95500714D01*
X123090728Y-95500714D02*
X122969776Y-95500714D01*
X122667395Y-95924048D02*
X122667395Y-96407857D01*
X121820728Y-96105476D02*
X122909300Y-96105476D01*
X122909300Y-96105476D02*
X123030252Y-96165953D01*
X123030252Y-96165953D02*
X123090728Y-96286905D01*
X123090728Y-96286905D02*
X123090728Y-96407857D01*
X122667395Y-96649762D02*
X122667395Y-97133571D01*
X121820728Y-96831190D02*
X122909300Y-96831190D01*
X122909300Y-96831190D02*
X123030252Y-96891667D01*
X123030252Y-96891667D02*
X123090728Y-97012619D01*
X123090728Y-97012619D02*
X123090728Y-97133571D01*
X121881205Y-98040714D02*
X121820728Y-97919762D01*
X121820728Y-97919762D02*
X121820728Y-97677857D01*
X121820728Y-97677857D02*
X121881205Y-97556904D01*
X121881205Y-97556904D02*
X122002157Y-97496428D01*
X122002157Y-97496428D02*
X122485966Y-97496428D01*
X122485966Y-97496428D02*
X122606919Y-97556904D01*
X122606919Y-97556904D02*
X122667395Y-97677857D01*
X122667395Y-97677857D02*
X122667395Y-97919762D01*
X122667395Y-97919762D02*
X122606919Y-98040714D01*
X122606919Y-98040714D02*
X122485966Y-98101190D01*
X122485966Y-98101190D02*
X122365014Y-98101190D01*
X122365014Y-98101190D02*
X122244062Y-97496428D01*
X122667395Y-98645475D02*
X121820728Y-98645475D01*
X122546443Y-98645475D02*
X122606919Y-98705952D01*
X122606919Y-98705952D02*
X122667395Y-98826904D01*
X122667395Y-98826904D02*
X122667395Y-99008333D01*
X122667395Y-99008333D02*
X122606919Y-99129285D01*
X122606919Y-99129285D02*
X122485966Y-99189761D01*
X122485966Y-99189761D02*
X121820728Y-99189761D01*
X121881205Y-100278333D02*
X121820728Y-100157381D01*
X121820728Y-100157381D02*
X121820728Y-99915476D01*
X121820728Y-99915476D02*
X121881205Y-99794523D01*
X121881205Y-99794523D02*
X122002157Y-99734047D01*
X122002157Y-99734047D02*
X122485966Y-99734047D01*
X122485966Y-99734047D02*
X122606919Y-99794523D01*
X122606919Y-99794523D02*
X122667395Y-99915476D01*
X122667395Y-99915476D02*
X122667395Y-100157381D01*
X122667395Y-100157381D02*
X122606919Y-100278333D01*
X122606919Y-100278333D02*
X122485966Y-100338809D01*
X122485966Y-100338809D02*
X122365014Y-100338809D01*
X122365014Y-100338809D02*
X122244062Y-99734047D01*
X121820728Y-100883094D02*
X122667395Y-100883094D01*
X122425490Y-100883094D02*
X122546443Y-100943571D01*
X122546443Y-100943571D02*
X122606919Y-101004047D01*
X122606919Y-101004047D02*
X122667395Y-101124999D01*
X122667395Y-101124999D02*
X122667395Y-101245952D01*
X102890728Y-82377381D02*
X102890728Y-82498334D01*
X102890728Y-82498334D02*
X102830252Y-82619286D01*
X102830252Y-82619286D02*
X102769776Y-82679762D01*
X102769776Y-82679762D02*
X102648824Y-82740238D01*
X102648824Y-82740238D02*
X102406919Y-82800715D01*
X102406919Y-82800715D02*
X102104538Y-82800715D01*
X102104538Y-82800715D02*
X101862633Y-82740238D01*
X101862633Y-82740238D02*
X101741681Y-82679762D01*
X101741681Y-82679762D02*
X101681205Y-82619286D01*
X101681205Y-82619286D02*
X101620728Y-82498334D01*
X101620728Y-82498334D02*
X101620728Y-82377381D01*
X101620728Y-82377381D02*
X101681205Y-82256429D01*
X101681205Y-82256429D02*
X101741681Y-82195953D01*
X101741681Y-82195953D02*
X101862633Y-82135476D01*
X101862633Y-82135476D02*
X102104538Y-82075000D01*
X102104538Y-82075000D02*
X102406919Y-82075000D01*
X102406919Y-82075000D02*
X102648824Y-82135476D01*
X102648824Y-82135476D02*
X102769776Y-82195953D01*
X102769776Y-82195953D02*
X102830252Y-82256429D01*
X102830252Y-82256429D02*
X102890728Y-82377381D01*
X101741681Y-83345000D02*
X101681205Y-83405477D01*
X101681205Y-83405477D02*
X101620728Y-83345000D01*
X101620728Y-83345000D02*
X101681205Y-83284524D01*
X101681205Y-83284524D02*
X101741681Y-83345000D01*
X101741681Y-83345000D02*
X101620728Y-83345000D01*
X102769776Y-83889286D02*
X102830252Y-83949762D01*
X102830252Y-83949762D02*
X102890728Y-84070715D01*
X102890728Y-84070715D02*
X102890728Y-84373096D01*
X102890728Y-84373096D02*
X102830252Y-84494048D01*
X102830252Y-84494048D02*
X102769776Y-84554524D01*
X102769776Y-84554524D02*
X102648824Y-84615001D01*
X102648824Y-84615001D02*
X102527871Y-84615001D01*
X102527871Y-84615001D02*
X102346443Y-84554524D01*
X102346443Y-84554524D02*
X101620728Y-83828810D01*
X101620728Y-83828810D02*
X101620728Y-84615001D01*
X102890728Y-85764048D02*
X102890728Y-85159286D01*
X102890728Y-85159286D02*
X102285966Y-85098810D01*
X102285966Y-85098810D02*
X102346443Y-85159286D01*
X102346443Y-85159286D02*
X102406919Y-85280239D01*
X102406919Y-85280239D02*
X102406919Y-85582620D01*
X102406919Y-85582620D02*
X102346443Y-85703572D01*
X102346443Y-85703572D02*
X102285966Y-85764048D01*
X102285966Y-85764048D02*
X102165014Y-85824525D01*
X102165014Y-85824525D02*
X101862633Y-85824525D01*
X101862633Y-85824525D02*
X101741681Y-85764048D01*
X101741681Y-85764048D02*
X101681205Y-85703572D01*
X101681205Y-85703572D02*
X101620728Y-85582620D01*
X101620728Y-85582620D02*
X101620728Y-85280239D01*
X101620728Y-85280239D02*
X101681205Y-85159286D01*
X101681205Y-85159286D02*
X101741681Y-85098810D01*
X101620728Y-86368810D02*
X102467395Y-86368810D01*
X102346443Y-86368810D02*
X102406919Y-86429287D01*
X102406919Y-86429287D02*
X102467395Y-86550239D01*
X102467395Y-86550239D02*
X102467395Y-86731668D01*
X102467395Y-86731668D02*
X102406919Y-86852620D01*
X102406919Y-86852620D02*
X102285966Y-86913096D01*
X102285966Y-86913096D02*
X101620728Y-86913096D01*
X102285966Y-86913096D02*
X102406919Y-86973572D01*
X102406919Y-86973572D02*
X102467395Y-87094525D01*
X102467395Y-87094525D02*
X102467395Y-87275953D01*
X102467395Y-87275953D02*
X102406919Y-87396906D01*
X102406919Y-87396906D02*
X102285966Y-87457382D01*
X102285966Y-87457382D02*
X101620728Y-87457382D01*
X101620728Y-88062143D02*
X102467395Y-88062143D01*
X102346443Y-88062143D02*
X102406919Y-88122620D01*
X102406919Y-88122620D02*
X102467395Y-88243572D01*
X102467395Y-88243572D02*
X102467395Y-88425001D01*
X102467395Y-88425001D02*
X102406919Y-88545953D01*
X102406919Y-88545953D02*
X102285966Y-88606429D01*
X102285966Y-88606429D02*
X101620728Y-88606429D01*
X102285966Y-88606429D02*
X102406919Y-88666905D01*
X102406919Y-88666905D02*
X102467395Y-88787858D01*
X102467395Y-88787858D02*
X102467395Y-88969286D01*
X102467395Y-88969286D02*
X102406919Y-89090239D01*
X102406919Y-89090239D02*
X102285966Y-89150715D01*
X102285966Y-89150715D02*
X101620728Y-89150715D01*
X101620728Y-90723095D02*
X102890728Y-90723095D01*
X102890728Y-90723095D02*
X102890728Y-91206905D01*
X102890728Y-91206905D02*
X102830252Y-91327857D01*
X102830252Y-91327857D02*
X102769776Y-91388334D01*
X102769776Y-91388334D02*
X102648824Y-91448810D01*
X102648824Y-91448810D02*
X102467395Y-91448810D01*
X102467395Y-91448810D02*
X102346443Y-91388334D01*
X102346443Y-91388334D02*
X102285966Y-91327857D01*
X102285966Y-91327857D02*
X102225490Y-91206905D01*
X102225490Y-91206905D02*
X102225490Y-90723095D01*
X101620728Y-91993095D02*
X102890728Y-91993095D01*
X101681205Y-93505000D02*
X101620728Y-93686429D01*
X101620728Y-93686429D02*
X101620728Y-93988810D01*
X101620728Y-93988810D02*
X101681205Y-94109762D01*
X101681205Y-94109762D02*
X101741681Y-94170238D01*
X101741681Y-94170238D02*
X101862633Y-94230715D01*
X101862633Y-94230715D02*
X101983585Y-94230715D01*
X101983585Y-94230715D02*
X102104538Y-94170238D01*
X102104538Y-94170238D02*
X102165014Y-94109762D01*
X102165014Y-94109762D02*
X102225490Y-93988810D01*
X102225490Y-93988810D02*
X102285966Y-93746905D01*
X102285966Y-93746905D02*
X102346443Y-93625953D01*
X102346443Y-93625953D02*
X102406919Y-93565476D01*
X102406919Y-93565476D02*
X102527871Y-93505000D01*
X102527871Y-93505000D02*
X102648824Y-93505000D01*
X102648824Y-93505000D02*
X102769776Y-93565476D01*
X102769776Y-93565476D02*
X102830252Y-93625953D01*
X102830252Y-93625953D02*
X102890728Y-93746905D01*
X102890728Y-93746905D02*
X102890728Y-94049286D01*
X102890728Y-94049286D02*
X102830252Y-94230715D01*
X102467395Y-94593572D02*
X102467395Y-95077381D01*
X102890728Y-94775000D02*
X101802157Y-94775000D01*
X101802157Y-94775000D02*
X101681205Y-94835477D01*
X101681205Y-94835477D02*
X101620728Y-94956429D01*
X101620728Y-94956429D02*
X101620728Y-95077381D01*
X101620728Y-95500714D02*
X102467395Y-95500714D01*
X102890728Y-95500714D02*
X102830252Y-95440238D01*
X102830252Y-95440238D02*
X102769776Y-95500714D01*
X102769776Y-95500714D02*
X102830252Y-95561191D01*
X102830252Y-95561191D02*
X102890728Y-95500714D01*
X102890728Y-95500714D02*
X102769776Y-95500714D01*
X102467395Y-95924048D02*
X102467395Y-96407857D01*
X101620728Y-96105476D02*
X102709300Y-96105476D01*
X102709300Y-96105476D02*
X102830252Y-96165953D01*
X102830252Y-96165953D02*
X102890728Y-96286905D01*
X102890728Y-96286905D02*
X102890728Y-96407857D01*
X102467395Y-96649762D02*
X102467395Y-97133571D01*
X101620728Y-96831190D02*
X102709300Y-96831190D01*
X102709300Y-96831190D02*
X102830252Y-96891667D01*
X102830252Y-96891667D02*
X102890728Y-97012619D01*
X102890728Y-97012619D02*
X102890728Y-97133571D01*
X101681205Y-98040714D02*
X101620728Y-97919762D01*
X101620728Y-97919762D02*
X101620728Y-97677857D01*
X101620728Y-97677857D02*
X101681205Y-97556904D01*
X101681205Y-97556904D02*
X101802157Y-97496428D01*
X101802157Y-97496428D02*
X102285966Y-97496428D01*
X102285966Y-97496428D02*
X102406919Y-97556904D01*
X102406919Y-97556904D02*
X102467395Y-97677857D01*
X102467395Y-97677857D02*
X102467395Y-97919762D01*
X102467395Y-97919762D02*
X102406919Y-98040714D01*
X102406919Y-98040714D02*
X102285966Y-98101190D01*
X102285966Y-98101190D02*
X102165014Y-98101190D01*
X102165014Y-98101190D02*
X102044062Y-97496428D01*
X102467395Y-98645475D02*
X101620728Y-98645475D01*
X102346443Y-98645475D02*
X102406919Y-98705952D01*
X102406919Y-98705952D02*
X102467395Y-98826904D01*
X102467395Y-98826904D02*
X102467395Y-99008333D01*
X102467395Y-99008333D02*
X102406919Y-99129285D01*
X102406919Y-99129285D02*
X102285966Y-99189761D01*
X102285966Y-99189761D02*
X101620728Y-99189761D01*
X101681205Y-100278333D02*
X101620728Y-100157381D01*
X101620728Y-100157381D02*
X101620728Y-99915476D01*
X101620728Y-99915476D02*
X101681205Y-99794523D01*
X101681205Y-99794523D02*
X101802157Y-99734047D01*
X101802157Y-99734047D02*
X102285966Y-99734047D01*
X102285966Y-99734047D02*
X102406919Y-99794523D01*
X102406919Y-99794523D02*
X102467395Y-99915476D01*
X102467395Y-99915476D02*
X102467395Y-100157381D01*
X102467395Y-100157381D02*
X102406919Y-100278333D01*
X102406919Y-100278333D02*
X102285966Y-100338809D01*
X102285966Y-100338809D02*
X102165014Y-100338809D01*
X102165014Y-100338809D02*
X102044062Y-99734047D01*
X101620728Y-100883094D02*
X102467395Y-100883094D01*
X102225490Y-100883094D02*
X102346443Y-100943571D01*
X102346443Y-100943571D02*
X102406919Y-101004047D01*
X102406919Y-101004047D02*
X102467395Y-101124999D01*
X102467395Y-101124999D02*
X102467395Y-101245952D01*
X113290728Y-82777381D02*
X113290728Y-82898334D01*
X113290728Y-82898334D02*
X113230252Y-83019286D01*
X113230252Y-83019286D02*
X113169776Y-83079762D01*
X113169776Y-83079762D02*
X113048824Y-83140238D01*
X113048824Y-83140238D02*
X112806919Y-83200715D01*
X112806919Y-83200715D02*
X112504538Y-83200715D01*
X112504538Y-83200715D02*
X112262633Y-83140238D01*
X112262633Y-83140238D02*
X112141681Y-83079762D01*
X112141681Y-83079762D02*
X112081205Y-83019286D01*
X112081205Y-83019286D02*
X112020728Y-82898334D01*
X112020728Y-82898334D02*
X112020728Y-82777381D01*
X112020728Y-82777381D02*
X112081205Y-82656429D01*
X112081205Y-82656429D02*
X112141681Y-82595953D01*
X112141681Y-82595953D02*
X112262633Y-82535476D01*
X112262633Y-82535476D02*
X112504538Y-82475000D01*
X112504538Y-82475000D02*
X112806919Y-82475000D01*
X112806919Y-82475000D02*
X113048824Y-82535476D01*
X113048824Y-82535476D02*
X113169776Y-82595953D01*
X113169776Y-82595953D02*
X113230252Y-82656429D01*
X113230252Y-82656429D02*
X113290728Y-82777381D01*
X112141681Y-83745000D02*
X112081205Y-83805477D01*
X112081205Y-83805477D02*
X112020728Y-83745000D01*
X112020728Y-83745000D02*
X112081205Y-83684524D01*
X112081205Y-83684524D02*
X112141681Y-83745000D01*
X112141681Y-83745000D02*
X112020728Y-83745000D01*
X113169776Y-84289286D02*
X113230252Y-84349762D01*
X113230252Y-84349762D02*
X113290728Y-84470715D01*
X113290728Y-84470715D02*
X113290728Y-84773096D01*
X113290728Y-84773096D02*
X113230252Y-84894048D01*
X113230252Y-84894048D02*
X113169776Y-84954524D01*
X113169776Y-84954524D02*
X113048824Y-85015001D01*
X113048824Y-85015001D02*
X112927871Y-85015001D01*
X112927871Y-85015001D02*
X112746443Y-84954524D01*
X112746443Y-84954524D02*
X112020728Y-84228810D01*
X112020728Y-84228810D02*
X112020728Y-85015001D01*
X113290728Y-86164048D02*
X113290728Y-85559286D01*
X113290728Y-85559286D02*
X112685966Y-85498810D01*
X112685966Y-85498810D02*
X112746443Y-85559286D01*
X112746443Y-85559286D02*
X112806919Y-85680239D01*
X112806919Y-85680239D02*
X112806919Y-85982620D01*
X112806919Y-85982620D02*
X112746443Y-86103572D01*
X112746443Y-86103572D02*
X112685966Y-86164048D01*
X112685966Y-86164048D02*
X112565014Y-86224525D01*
X112565014Y-86224525D02*
X112262633Y-86224525D01*
X112262633Y-86224525D02*
X112141681Y-86164048D01*
X112141681Y-86164048D02*
X112081205Y-86103572D01*
X112081205Y-86103572D02*
X112020728Y-85982620D01*
X112020728Y-85982620D02*
X112020728Y-85680239D01*
X112020728Y-85680239D02*
X112081205Y-85559286D01*
X112081205Y-85559286D02*
X112141681Y-85498810D01*
X112020728Y-86768810D02*
X112867395Y-86768810D01*
X112746443Y-86768810D02*
X112806919Y-86829287D01*
X112806919Y-86829287D02*
X112867395Y-86950239D01*
X112867395Y-86950239D02*
X112867395Y-87131668D01*
X112867395Y-87131668D02*
X112806919Y-87252620D01*
X112806919Y-87252620D02*
X112685966Y-87313096D01*
X112685966Y-87313096D02*
X112020728Y-87313096D01*
X112685966Y-87313096D02*
X112806919Y-87373572D01*
X112806919Y-87373572D02*
X112867395Y-87494525D01*
X112867395Y-87494525D02*
X112867395Y-87675953D01*
X112867395Y-87675953D02*
X112806919Y-87796906D01*
X112806919Y-87796906D02*
X112685966Y-87857382D01*
X112685966Y-87857382D02*
X112020728Y-87857382D01*
X112020728Y-88462143D02*
X112867395Y-88462143D01*
X112746443Y-88462143D02*
X112806919Y-88522620D01*
X112806919Y-88522620D02*
X112867395Y-88643572D01*
X112867395Y-88643572D02*
X112867395Y-88825001D01*
X112867395Y-88825001D02*
X112806919Y-88945953D01*
X112806919Y-88945953D02*
X112685966Y-89006429D01*
X112685966Y-89006429D02*
X112020728Y-89006429D01*
X112685966Y-89006429D02*
X112806919Y-89066905D01*
X112806919Y-89066905D02*
X112867395Y-89187858D01*
X112867395Y-89187858D02*
X112867395Y-89369286D01*
X112867395Y-89369286D02*
X112806919Y-89490239D01*
X112806919Y-89490239D02*
X112685966Y-89550715D01*
X112685966Y-89550715D02*
X112020728Y-89550715D01*
X112020728Y-91123095D02*
X113290728Y-91123095D01*
X113290728Y-91123095D02*
X113290728Y-91606905D01*
X113290728Y-91606905D02*
X113230252Y-91727857D01*
X113230252Y-91727857D02*
X113169776Y-91788334D01*
X113169776Y-91788334D02*
X113048824Y-91848810D01*
X113048824Y-91848810D02*
X112867395Y-91848810D01*
X112867395Y-91848810D02*
X112746443Y-91788334D01*
X112746443Y-91788334D02*
X112685966Y-91727857D01*
X112685966Y-91727857D02*
X112625490Y-91606905D01*
X112625490Y-91606905D02*
X112625490Y-91123095D01*
X112020728Y-92393095D02*
X113290728Y-92393095D01*
X112081205Y-93905000D02*
X112020728Y-94086429D01*
X112020728Y-94086429D02*
X112020728Y-94388810D01*
X112020728Y-94388810D02*
X112081205Y-94509762D01*
X112081205Y-94509762D02*
X112141681Y-94570238D01*
X112141681Y-94570238D02*
X112262633Y-94630715D01*
X112262633Y-94630715D02*
X112383585Y-94630715D01*
X112383585Y-94630715D02*
X112504538Y-94570238D01*
X112504538Y-94570238D02*
X112565014Y-94509762D01*
X112565014Y-94509762D02*
X112625490Y-94388810D01*
X112625490Y-94388810D02*
X112685966Y-94146905D01*
X112685966Y-94146905D02*
X112746443Y-94025953D01*
X112746443Y-94025953D02*
X112806919Y-93965476D01*
X112806919Y-93965476D02*
X112927871Y-93905000D01*
X112927871Y-93905000D02*
X113048824Y-93905000D01*
X113048824Y-93905000D02*
X113169776Y-93965476D01*
X113169776Y-93965476D02*
X113230252Y-94025953D01*
X113230252Y-94025953D02*
X113290728Y-94146905D01*
X113290728Y-94146905D02*
X113290728Y-94449286D01*
X113290728Y-94449286D02*
X113230252Y-94630715D01*
X112867395Y-94993572D02*
X112867395Y-95477381D01*
X113290728Y-95175000D02*
X112202157Y-95175000D01*
X112202157Y-95175000D02*
X112081205Y-95235477D01*
X112081205Y-95235477D02*
X112020728Y-95356429D01*
X112020728Y-95356429D02*
X112020728Y-95477381D01*
X112020728Y-95900714D02*
X112867395Y-95900714D01*
X113290728Y-95900714D02*
X113230252Y-95840238D01*
X113230252Y-95840238D02*
X113169776Y-95900714D01*
X113169776Y-95900714D02*
X113230252Y-95961191D01*
X113230252Y-95961191D02*
X113290728Y-95900714D01*
X113290728Y-95900714D02*
X113169776Y-95900714D01*
X112867395Y-96324048D02*
X112867395Y-96807857D01*
X112020728Y-96505476D02*
X113109300Y-96505476D01*
X113109300Y-96505476D02*
X113230252Y-96565953D01*
X113230252Y-96565953D02*
X113290728Y-96686905D01*
X113290728Y-96686905D02*
X113290728Y-96807857D01*
X112867395Y-97049762D02*
X112867395Y-97533571D01*
X112020728Y-97231190D02*
X113109300Y-97231190D01*
X113109300Y-97231190D02*
X113230252Y-97291667D01*
X113230252Y-97291667D02*
X113290728Y-97412619D01*
X113290728Y-97412619D02*
X113290728Y-97533571D01*
X112081205Y-98440714D02*
X112020728Y-98319762D01*
X112020728Y-98319762D02*
X112020728Y-98077857D01*
X112020728Y-98077857D02*
X112081205Y-97956904D01*
X112081205Y-97956904D02*
X112202157Y-97896428D01*
X112202157Y-97896428D02*
X112685966Y-97896428D01*
X112685966Y-97896428D02*
X112806919Y-97956904D01*
X112806919Y-97956904D02*
X112867395Y-98077857D01*
X112867395Y-98077857D02*
X112867395Y-98319762D01*
X112867395Y-98319762D02*
X112806919Y-98440714D01*
X112806919Y-98440714D02*
X112685966Y-98501190D01*
X112685966Y-98501190D02*
X112565014Y-98501190D01*
X112565014Y-98501190D02*
X112444062Y-97896428D01*
X112867395Y-99045475D02*
X112020728Y-99045475D01*
X112746443Y-99045475D02*
X112806919Y-99105952D01*
X112806919Y-99105952D02*
X112867395Y-99226904D01*
X112867395Y-99226904D02*
X112867395Y-99408333D01*
X112867395Y-99408333D02*
X112806919Y-99529285D01*
X112806919Y-99529285D02*
X112685966Y-99589761D01*
X112685966Y-99589761D02*
X112020728Y-99589761D01*
X112081205Y-100678333D02*
X112020728Y-100557381D01*
X112020728Y-100557381D02*
X112020728Y-100315476D01*
X112020728Y-100315476D02*
X112081205Y-100194523D01*
X112081205Y-100194523D02*
X112202157Y-100134047D01*
X112202157Y-100134047D02*
X112685966Y-100134047D01*
X112685966Y-100134047D02*
X112806919Y-100194523D01*
X112806919Y-100194523D02*
X112867395Y-100315476D01*
X112867395Y-100315476D02*
X112867395Y-100557381D01*
X112867395Y-100557381D02*
X112806919Y-100678333D01*
X112806919Y-100678333D02*
X112685966Y-100738809D01*
X112685966Y-100738809D02*
X112565014Y-100738809D01*
X112565014Y-100738809D02*
X112444062Y-100134047D01*
X112020728Y-101283094D02*
X112867395Y-101283094D01*
X112625490Y-101283094D02*
X112746443Y-101343571D01*
X112746443Y-101343571D02*
X112806919Y-101404047D01*
X112806919Y-101404047D02*
X112867395Y-101524999D01*
X112867395Y-101524999D02*
X112867395Y-101645952D01*
X63090728Y-81577381D02*
X63090728Y-81698334D01*
X63090728Y-81698334D02*
X63030252Y-81819286D01*
X63030252Y-81819286D02*
X62969776Y-81879762D01*
X62969776Y-81879762D02*
X62848824Y-81940238D01*
X62848824Y-81940238D02*
X62606919Y-82000715D01*
X62606919Y-82000715D02*
X62304538Y-82000715D01*
X62304538Y-82000715D02*
X62062633Y-81940238D01*
X62062633Y-81940238D02*
X61941681Y-81879762D01*
X61941681Y-81879762D02*
X61881205Y-81819286D01*
X61881205Y-81819286D02*
X61820728Y-81698334D01*
X61820728Y-81698334D02*
X61820728Y-81577381D01*
X61820728Y-81577381D02*
X61881205Y-81456429D01*
X61881205Y-81456429D02*
X61941681Y-81395953D01*
X61941681Y-81395953D02*
X62062633Y-81335476D01*
X62062633Y-81335476D02*
X62304538Y-81275000D01*
X62304538Y-81275000D02*
X62606919Y-81275000D01*
X62606919Y-81275000D02*
X62848824Y-81335476D01*
X62848824Y-81335476D02*
X62969776Y-81395953D01*
X62969776Y-81395953D02*
X63030252Y-81456429D01*
X63030252Y-81456429D02*
X63090728Y-81577381D01*
X61941681Y-82545000D02*
X61881205Y-82605477D01*
X61881205Y-82605477D02*
X61820728Y-82545000D01*
X61820728Y-82545000D02*
X61881205Y-82484524D01*
X61881205Y-82484524D02*
X61941681Y-82545000D01*
X61941681Y-82545000D02*
X61820728Y-82545000D01*
X62969776Y-83089286D02*
X63030252Y-83149762D01*
X63030252Y-83149762D02*
X63090728Y-83270715D01*
X63090728Y-83270715D02*
X63090728Y-83573096D01*
X63090728Y-83573096D02*
X63030252Y-83694048D01*
X63030252Y-83694048D02*
X62969776Y-83754524D01*
X62969776Y-83754524D02*
X62848824Y-83815001D01*
X62848824Y-83815001D02*
X62727871Y-83815001D01*
X62727871Y-83815001D02*
X62546443Y-83754524D01*
X62546443Y-83754524D02*
X61820728Y-83028810D01*
X61820728Y-83028810D02*
X61820728Y-83815001D01*
X63090728Y-84964048D02*
X63090728Y-84359286D01*
X63090728Y-84359286D02*
X62485966Y-84298810D01*
X62485966Y-84298810D02*
X62546443Y-84359286D01*
X62546443Y-84359286D02*
X62606919Y-84480239D01*
X62606919Y-84480239D02*
X62606919Y-84782620D01*
X62606919Y-84782620D02*
X62546443Y-84903572D01*
X62546443Y-84903572D02*
X62485966Y-84964048D01*
X62485966Y-84964048D02*
X62365014Y-85024525D01*
X62365014Y-85024525D02*
X62062633Y-85024525D01*
X62062633Y-85024525D02*
X61941681Y-84964048D01*
X61941681Y-84964048D02*
X61881205Y-84903572D01*
X61881205Y-84903572D02*
X61820728Y-84782620D01*
X61820728Y-84782620D02*
X61820728Y-84480239D01*
X61820728Y-84480239D02*
X61881205Y-84359286D01*
X61881205Y-84359286D02*
X61941681Y-84298810D01*
X61820728Y-85568810D02*
X62667395Y-85568810D01*
X62546443Y-85568810D02*
X62606919Y-85629287D01*
X62606919Y-85629287D02*
X62667395Y-85750239D01*
X62667395Y-85750239D02*
X62667395Y-85931668D01*
X62667395Y-85931668D02*
X62606919Y-86052620D01*
X62606919Y-86052620D02*
X62485966Y-86113096D01*
X62485966Y-86113096D02*
X61820728Y-86113096D01*
X62485966Y-86113096D02*
X62606919Y-86173572D01*
X62606919Y-86173572D02*
X62667395Y-86294525D01*
X62667395Y-86294525D02*
X62667395Y-86475953D01*
X62667395Y-86475953D02*
X62606919Y-86596906D01*
X62606919Y-86596906D02*
X62485966Y-86657382D01*
X62485966Y-86657382D02*
X61820728Y-86657382D01*
X61820728Y-87262143D02*
X62667395Y-87262143D01*
X62546443Y-87262143D02*
X62606919Y-87322620D01*
X62606919Y-87322620D02*
X62667395Y-87443572D01*
X62667395Y-87443572D02*
X62667395Y-87625001D01*
X62667395Y-87625001D02*
X62606919Y-87745953D01*
X62606919Y-87745953D02*
X62485966Y-87806429D01*
X62485966Y-87806429D02*
X61820728Y-87806429D01*
X62485966Y-87806429D02*
X62606919Y-87866905D01*
X62606919Y-87866905D02*
X62667395Y-87987858D01*
X62667395Y-87987858D02*
X62667395Y-88169286D01*
X62667395Y-88169286D02*
X62606919Y-88290239D01*
X62606919Y-88290239D02*
X62485966Y-88350715D01*
X62485966Y-88350715D02*
X61820728Y-88350715D01*
X61820728Y-89923095D02*
X63090728Y-89923095D01*
X63090728Y-89923095D02*
X63090728Y-90406905D01*
X63090728Y-90406905D02*
X63030252Y-90527857D01*
X63030252Y-90527857D02*
X62969776Y-90588334D01*
X62969776Y-90588334D02*
X62848824Y-90648810D01*
X62848824Y-90648810D02*
X62667395Y-90648810D01*
X62667395Y-90648810D02*
X62546443Y-90588334D01*
X62546443Y-90588334D02*
X62485966Y-90527857D01*
X62485966Y-90527857D02*
X62425490Y-90406905D01*
X62425490Y-90406905D02*
X62425490Y-89923095D01*
X61820728Y-91193095D02*
X63090728Y-91193095D01*
X61881205Y-92705000D02*
X61820728Y-92886429D01*
X61820728Y-92886429D02*
X61820728Y-93188810D01*
X61820728Y-93188810D02*
X61881205Y-93309762D01*
X61881205Y-93309762D02*
X61941681Y-93370238D01*
X61941681Y-93370238D02*
X62062633Y-93430715D01*
X62062633Y-93430715D02*
X62183585Y-93430715D01*
X62183585Y-93430715D02*
X62304538Y-93370238D01*
X62304538Y-93370238D02*
X62365014Y-93309762D01*
X62365014Y-93309762D02*
X62425490Y-93188810D01*
X62425490Y-93188810D02*
X62485966Y-92946905D01*
X62485966Y-92946905D02*
X62546443Y-92825953D01*
X62546443Y-92825953D02*
X62606919Y-92765476D01*
X62606919Y-92765476D02*
X62727871Y-92705000D01*
X62727871Y-92705000D02*
X62848824Y-92705000D01*
X62848824Y-92705000D02*
X62969776Y-92765476D01*
X62969776Y-92765476D02*
X63030252Y-92825953D01*
X63030252Y-92825953D02*
X63090728Y-92946905D01*
X63090728Y-92946905D02*
X63090728Y-93249286D01*
X63090728Y-93249286D02*
X63030252Y-93430715D01*
X62667395Y-93793572D02*
X62667395Y-94277381D01*
X63090728Y-93975000D02*
X62002157Y-93975000D01*
X62002157Y-93975000D02*
X61881205Y-94035477D01*
X61881205Y-94035477D02*
X61820728Y-94156429D01*
X61820728Y-94156429D02*
X61820728Y-94277381D01*
X61820728Y-94700714D02*
X62667395Y-94700714D01*
X63090728Y-94700714D02*
X63030252Y-94640238D01*
X63030252Y-94640238D02*
X62969776Y-94700714D01*
X62969776Y-94700714D02*
X63030252Y-94761191D01*
X63030252Y-94761191D02*
X63090728Y-94700714D01*
X63090728Y-94700714D02*
X62969776Y-94700714D01*
X62667395Y-95124048D02*
X62667395Y-95607857D01*
X61820728Y-95305476D02*
X62909300Y-95305476D01*
X62909300Y-95305476D02*
X63030252Y-95365953D01*
X63030252Y-95365953D02*
X63090728Y-95486905D01*
X63090728Y-95486905D02*
X63090728Y-95607857D01*
X62667395Y-95849762D02*
X62667395Y-96333571D01*
X61820728Y-96031190D02*
X62909300Y-96031190D01*
X62909300Y-96031190D02*
X63030252Y-96091667D01*
X63030252Y-96091667D02*
X63090728Y-96212619D01*
X63090728Y-96212619D02*
X63090728Y-96333571D01*
X61881205Y-97240714D02*
X61820728Y-97119762D01*
X61820728Y-97119762D02*
X61820728Y-96877857D01*
X61820728Y-96877857D02*
X61881205Y-96756904D01*
X61881205Y-96756904D02*
X62002157Y-96696428D01*
X62002157Y-96696428D02*
X62485966Y-96696428D01*
X62485966Y-96696428D02*
X62606919Y-96756904D01*
X62606919Y-96756904D02*
X62667395Y-96877857D01*
X62667395Y-96877857D02*
X62667395Y-97119762D01*
X62667395Y-97119762D02*
X62606919Y-97240714D01*
X62606919Y-97240714D02*
X62485966Y-97301190D01*
X62485966Y-97301190D02*
X62365014Y-97301190D01*
X62365014Y-97301190D02*
X62244062Y-96696428D01*
X62667395Y-97845475D02*
X61820728Y-97845475D01*
X62546443Y-97845475D02*
X62606919Y-97905952D01*
X62606919Y-97905952D02*
X62667395Y-98026904D01*
X62667395Y-98026904D02*
X62667395Y-98208333D01*
X62667395Y-98208333D02*
X62606919Y-98329285D01*
X62606919Y-98329285D02*
X62485966Y-98389761D01*
X62485966Y-98389761D02*
X61820728Y-98389761D01*
X61881205Y-99478333D02*
X61820728Y-99357381D01*
X61820728Y-99357381D02*
X61820728Y-99115476D01*
X61820728Y-99115476D02*
X61881205Y-98994523D01*
X61881205Y-98994523D02*
X62002157Y-98934047D01*
X62002157Y-98934047D02*
X62485966Y-98934047D01*
X62485966Y-98934047D02*
X62606919Y-98994523D01*
X62606919Y-98994523D02*
X62667395Y-99115476D01*
X62667395Y-99115476D02*
X62667395Y-99357381D01*
X62667395Y-99357381D02*
X62606919Y-99478333D01*
X62606919Y-99478333D02*
X62485966Y-99538809D01*
X62485966Y-99538809D02*
X62365014Y-99538809D01*
X62365014Y-99538809D02*
X62244062Y-98934047D01*
X61820728Y-100083094D02*
X62667395Y-100083094D01*
X62425490Y-100083094D02*
X62546443Y-100143571D01*
X62546443Y-100143571D02*
X62606919Y-100204047D01*
X62606919Y-100204047D02*
X62667395Y-100324999D01*
X62667395Y-100324999D02*
X62667395Y-100445952D01*
X18177381Y-61109271D02*
X18298334Y-61109271D01*
X18298334Y-61109271D02*
X18419286Y-61169747D01*
X18419286Y-61169747D02*
X18479762Y-61230223D01*
X18479762Y-61230223D02*
X18540238Y-61351175D01*
X18540238Y-61351175D02*
X18600715Y-61593080D01*
X18600715Y-61593080D02*
X18600715Y-61895461D01*
X18600715Y-61895461D02*
X18540238Y-62137366D01*
X18540238Y-62137366D02*
X18479762Y-62258318D01*
X18479762Y-62258318D02*
X18419286Y-62318795D01*
X18419286Y-62318795D02*
X18298334Y-62379271D01*
X18298334Y-62379271D02*
X18177381Y-62379271D01*
X18177381Y-62379271D02*
X18056429Y-62318795D01*
X18056429Y-62318795D02*
X17995953Y-62258318D01*
X17995953Y-62258318D02*
X17935476Y-62137366D01*
X17935476Y-62137366D02*
X17875000Y-61895461D01*
X17875000Y-61895461D02*
X17875000Y-61593080D01*
X17875000Y-61593080D02*
X17935476Y-61351175D01*
X17935476Y-61351175D02*
X17995953Y-61230223D01*
X17995953Y-61230223D02*
X18056429Y-61169747D01*
X18056429Y-61169747D02*
X18177381Y-61109271D01*
X19145000Y-62258318D02*
X19205477Y-62318795D01*
X19205477Y-62318795D02*
X19145000Y-62379271D01*
X19145000Y-62379271D02*
X19084524Y-62318795D01*
X19084524Y-62318795D02*
X19145000Y-62258318D01*
X19145000Y-62258318D02*
X19145000Y-62379271D01*
X19689286Y-61230223D02*
X19749762Y-61169747D01*
X19749762Y-61169747D02*
X19870715Y-61109271D01*
X19870715Y-61109271D02*
X20173096Y-61109271D01*
X20173096Y-61109271D02*
X20294048Y-61169747D01*
X20294048Y-61169747D02*
X20354524Y-61230223D01*
X20354524Y-61230223D02*
X20415001Y-61351175D01*
X20415001Y-61351175D02*
X20415001Y-61472128D01*
X20415001Y-61472128D02*
X20354524Y-61653556D01*
X20354524Y-61653556D02*
X19628810Y-62379271D01*
X19628810Y-62379271D02*
X20415001Y-62379271D01*
X21564048Y-61109271D02*
X20959286Y-61109271D01*
X20959286Y-61109271D02*
X20898810Y-61714033D01*
X20898810Y-61714033D02*
X20959286Y-61653556D01*
X20959286Y-61653556D02*
X21080239Y-61593080D01*
X21080239Y-61593080D02*
X21382620Y-61593080D01*
X21382620Y-61593080D02*
X21503572Y-61653556D01*
X21503572Y-61653556D02*
X21564048Y-61714033D01*
X21564048Y-61714033D02*
X21624525Y-61834985D01*
X21624525Y-61834985D02*
X21624525Y-62137366D01*
X21624525Y-62137366D02*
X21564048Y-62258318D01*
X21564048Y-62258318D02*
X21503572Y-62318795D01*
X21503572Y-62318795D02*
X21382620Y-62379271D01*
X21382620Y-62379271D02*
X21080239Y-62379271D01*
X21080239Y-62379271D02*
X20959286Y-62318795D01*
X20959286Y-62318795D02*
X20898810Y-62258318D01*
X22168810Y-62379271D02*
X22168810Y-61532604D01*
X22168810Y-61653556D02*
X22229287Y-61593080D01*
X22229287Y-61593080D02*
X22350239Y-61532604D01*
X22350239Y-61532604D02*
X22531668Y-61532604D01*
X22531668Y-61532604D02*
X22652620Y-61593080D01*
X22652620Y-61593080D02*
X22713096Y-61714033D01*
X22713096Y-61714033D02*
X22713096Y-62379271D01*
X22713096Y-61714033D02*
X22773572Y-61593080D01*
X22773572Y-61593080D02*
X22894525Y-61532604D01*
X22894525Y-61532604D02*
X23075953Y-61532604D01*
X23075953Y-61532604D02*
X23196906Y-61593080D01*
X23196906Y-61593080D02*
X23257382Y-61714033D01*
X23257382Y-61714033D02*
X23257382Y-62379271D01*
X23862143Y-62379271D02*
X23862143Y-61532604D01*
X23862143Y-61653556D02*
X23922620Y-61593080D01*
X23922620Y-61593080D02*
X24043572Y-61532604D01*
X24043572Y-61532604D02*
X24225001Y-61532604D01*
X24225001Y-61532604D02*
X24345953Y-61593080D01*
X24345953Y-61593080D02*
X24406429Y-61714033D01*
X24406429Y-61714033D02*
X24406429Y-62379271D01*
X24406429Y-61714033D02*
X24466905Y-61593080D01*
X24466905Y-61593080D02*
X24587858Y-61532604D01*
X24587858Y-61532604D02*
X24769286Y-61532604D01*
X24769286Y-61532604D02*
X24890239Y-61593080D01*
X24890239Y-61593080D02*
X24950715Y-61714033D01*
X24950715Y-61714033D02*
X24950715Y-62379271D01*
X26523095Y-62379271D02*
X26523095Y-61109271D01*
X26523095Y-61109271D02*
X27006905Y-61109271D01*
X27006905Y-61109271D02*
X27127857Y-61169747D01*
X27127857Y-61169747D02*
X27188334Y-61230223D01*
X27188334Y-61230223D02*
X27248810Y-61351175D01*
X27248810Y-61351175D02*
X27248810Y-61532604D01*
X27248810Y-61532604D02*
X27188334Y-61653556D01*
X27188334Y-61653556D02*
X27127857Y-61714033D01*
X27127857Y-61714033D02*
X27006905Y-61774509D01*
X27006905Y-61774509D02*
X26523095Y-61774509D01*
X27793095Y-62379271D02*
X27793095Y-61109271D01*
X29305000Y-62318795D02*
X29486429Y-62379271D01*
X29486429Y-62379271D02*
X29788810Y-62379271D01*
X29788810Y-62379271D02*
X29909762Y-62318795D01*
X29909762Y-62318795D02*
X29970238Y-62258318D01*
X29970238Y-62258318D02*
X30030715Y-62137366D01*
X30030715Y-62137366D02*
X30030715Y-62016414D01*
X30030715Y-62016414D02*
X29970238Y-61895461D01*
X29970238Y-61895461D02*
X29909762Y-61834985D01*
X29909762Y-61834985D02*
X29788810Y-61774509D01*
X29788810Y-61774509D02*
X29546905Y-61714033D01*
X29546905Y-61714033D02*
X29425953Y-61653556D01*
X29425953Y-61653556D02*
X29365476Y-61593080D01*
X29365476Y-61593080D02*
X29305000Y-61472128D01*
X29305000Y-61472128D02*
X29305000Y-61351175D01*
X29305000Y-61351175D02*
X29365476Y-61230223D01*
X29365476Y-61230223D02*
X29425953Y-61169747D01*
X29425953Y-61169747D02*
X29546905Y-61109271D01*
X29546905Y-61109271D02*
X29849286Y-61109271D01*
X29849286Y-61109271D02*
X30030715Y-61169747D01*
X30393572Y-61532604D02*
X30877381Y-61532604D01*
X30575000Y-61109271D02*
X30575000Y-62197842D01*
X30575000Y-62197842D02*
X30635477Y-62318795D01*
X30635477Y-62318795D02*
X30756429Y-62379271D01*
X30756429Y-62379271D02*
X30877381Y-62379271D01*
X31300714Y-62379271D02*
X31300714Y-61532604D01*
X31300714Y-61109271D02*
X31240238Y-61169747D01*
X31240238Y-61169747D02*
X31300714Y-61230223D01*
X31300714Y-61230223D02*
X31361191Y-61169747D01*
X31361191Y-61169747D02*
X31300714Y-61109271D01*
X31300714Y-61109271D02*
X31300714Y-61230223D01*
X31724048Y-61532604D02*
X32207857Y-61532604D01*
X31905476Y-62379271D02*
X31905476Y-61290699D01*
X31905476Y-61290699D02*
X31965953Y-61169747D01*
X31965953Y-61169747D02*
X32086905Y-61109271D01*
X32086905Y-61109271D02*
X32207857Y-61109271D01*
X32449762Y-61532604D02*
X32933571Y-61532604D01*
X32631190Y-62379271D02*
X32631190Y-61290699D01*
X32631190Y-61290699D02*
X32691667Y-61169747D01*
X32691667Y-61169747D02*
X32812619Y-61109271D01*
X32812619Y-61109271D02*
X32933571Y-61109271D01*
X33840714Y-62318795D02*
X33719762Y-62379271D01*
X33719762Y-62379271D02*
X33477857Y-62379271D01*
X33477857Y-62379271D02*
X33356904Y-62318795D01*
X33356904Y-62318795D02*
X33296428Y-62197842D01*
X33296428Y-62197842D02*
X33296428Y-61714033D01*
X33296428Y-61714033D02*
X33356904Y-61593080D01*
X33356904Y-61593080D02*
X33477857Y-61532604D01*
X33477857Y-61532604D02*
X33719762Y-61532604D01*
X33719762Y-61532604D02*
X33840714Y-61593080D01*
X33840714Y-61593080D02*
X33901190Y-61714033D01*
X33901190Y-61714033D02*
X33901190Y-61834985D01*
X33901190Y-61834985D02*
X33296428Y-61955937D01*
X34445475Y-61532604D02*
X34445475Y-62379271D01*
X34445475Y-61653556D02*
X34505952Y-61593080D01*
X34505952Y-61593080D02*
X34626904Y-61532604D01*
X34626904Y-61532604D02*
X34808333Y-61532604D01*
X34808333Y-61532604D02*
X34929285Y-61593080D01*
X34929285Y-61593080D02*
X34989761Y-61714033D01*
X34989761Y-61714033D02*
X34989761Y-62379271D01*
X36078333Y-62318795D02*
X35957381Y-62379271D01*
X35957381Y-62379271D02*
X35715476Y-62379271D01*
X35715476Y-62379271D02*
X35594523Y-62318795D01*
X35594523Y-62318795D02*
X35534047Y-62197842D01*
X35534047Y-62197842D02*
X35534047Y-61714033D01*
X35534047Y-61714033D02*
X35594523Y-61593080D01*
X35594523Y-61593080D02*
X35715476Y-61532604D01*
X35715476Y-61532604D02*
X35957381Y-61532604D01*
X35957381Y-61532604D02*
X36078333Y-61593080D01*
X36078333Y-61593080D02*
X36138809Y-61714033D01*
X36138809Y-61714033D02*
X36138809Y-61834985D01*
X36138809Y-61834985D02*
X35534047Y-61955937D01*
X36683094Y-62379271D02*
X36683094Y-61532604D01*
X36683094Y-61774509D02*
X36743571Y-61653556D01*
X36743571Y-61653556D02*
X36804047Y-61593080D01*
X36804047Y-61593080D02*
X36924999Y-61532604D01*
X36924999Y-61532604D02*
X37045952Y-61532604D01*
X132690728Y-82377381D02*
X132690728Y-82498334D01*
X132690728Y-82498334D02*
X132630252Y-82619286D01*
X132630252Y-82619286D02*
X132569776Y-82679762D01*
X132569776Y-82679762D02*
X132448824Y-82740238D01*
X132448824Y-82740238D02*
X132206919Y-82800715D01*
X132206919Y-82800715D02*
X131904538Y-82800715D01*
X131904538Y-82800715D02*
X131662633Y-82740238D01*
X131662633Y-82740238D02*
X131541681Y-82679762D01*
X131541681Y-82679762D02*
X131481205Y-82619286D01*
X131481205Y-82619286D02*
X131420728Y-82498334D01*
X131420728Y-82498334D02*
X131420728Y-82377381D01*
X131420728Y-82377381D02*
X131481205Y-82256429D01*
X131481205Y-82256429D02*
X131541681Y-82195953D01*
X131541681Y-82195953D02*
X131662633Y-82135476D01*
X131662633Y-82135476D02*
X131904538Y-82075000D01*
X131904538Y-82075000D02*
X132206919Y-82075000D01*
X132206919Y-82075000D02*
X132448824Y-82135476D01*
X132448824Y-82135476D02*
X132569776Y-82195953D01*
X132569776Y-82195953D02*
X132630252Y-82256429D01*
X132630252Y-82256429D02*
X132690728Y-82377381D01*
X131541681Y-83345000D02*
X131481205Y-83405477D01*
X131481205Y-83405477D02*
X131420728Y-83345000D01*
X131420728Y-83345000D02*
X131481205Y-83284524D01*
X131481205Y-83284524D02*
X131541681Y-83345000D01*
X131541681Y-83345000D02*
X131420728Y-83345000D01*
X132569776Y-83889286D02*
X132630252Y-83949762D01*
X132630252Y-83949762D02*
X132690728Y-84070715D01*
X132690728Y-84070715D02*
X132690728Y-84373096D01*
X132690728Y-84373096D02*
X132630252Y-84494048D01*
X132630252Y-84494048D02*
X132569776Y-84554524D01*
X132569776Y-84554524D02*
X132448824Y-84615001D01*
X132448824Y-84615001D02*
X132327871Y-84615001D01*
X132327871Y-84615001D02*
X132146443Y-84554524D01*
X132146443Y-84554524D02*
X131420728Y-83828810D01*
X131420728Y-83828810D02*
X131420728Y-84615001D01*
X132690728Y-85764048D02*
X132690728Y-85159286D01*
X132690728Y-85159286D02*
X132085966Y-85098810D01*
X132085966Y-85098810D02*
X132146443Y-85159286D01*
X132146443Y-85159286D02*
X132206919Y-85280239D01*
X132206919Y-85280239D02*
X132206919Y-85582620D01*
X132206919Y-85582620D02*
X132146443Y-85703572D01*
X132146443Y-85703572D02*
X132085966Y-85764048D01*
X132085966Y-85764048D02*
X131965014Y-85824525D01*
X131965014Y-85824525D02*
X131662633Y-85824525D01*
X131662633Y-85824525D02*
X131541681Y-85764048D01*
X131541681Y-85764048D02*
X131481205Y-85703572D01*
X131481205Y-85703572D02*
X131420728Y-85582620D01*
X131420728Y-85582620D02*
X131420728Y-85280239D01*
X131420728Y-85280239D02*
X131481205Y-85159286D01*
X131481205Y-85159286D02*
X131541681Y-85098810D01*
X131420728Y-86368810D02*
X132267395Y-86368810D01*
X132146443Y-86368810D02*
X132206919Y-86429287D01*
X132206919Y-86429287D02*
X132267395Y-86550239D01*
X132267395Y-86550239D02*
X132267395Y-86731668D01*
X132267395Y-86731668D02*
X132206919Y-86852620D01*
X132206919Y-86852620D02*
X132085966Y-86913096D01*
X132085966Y-86913096D02*
X131420728Y-86913096D01*
X132085966Y-86913096D02*
X132206919Y-86973572D01*
X132206919Y-86973572D02*
X132267395Y-87094525D01*
X132267395Y-87094525D02*
X132267395Y-87275953D01*
X132267395Y-87275953D02*
X132206919Y-87396906D01*
X132206919Y-87396906D02*
X132085966Y-87457382D01*
X132085966Y-87457382D02*
X131420728Y-87457382D01*
X131420728Y-88062143D02*
X132267395Y-88062143D01*
X132146443Y-88062143D02*
X132206919Y-88122620D01*
X132206919Y-88122620D02*
X132267395Y-88243572D01*
X132267395Y-88243572D02*
X132267395Y-88425001D01*
X132267395Y-88425001D02*
X132206919Y-88545953D01*
X132206919Y-88545953D02*
X132085966Y-88606429D01*
X132085966Y-88606429D02*
X131420728Y-88606429D01*
X132085966Y-88606429D02*
X132206919Y-88666905D01*
X132206919Y-88666905D02*
X132267395Y-88787858D01*
X132267395Y-88787858D02*
X132267395Y-88969286D01*
X132267395Y-88969286D02*
X132206919Y-89090239D01*
X132206919Y-89090239D02*
X132085966Y-89150715D01*
X132085966Y-89150715D02*
X131420728Y-89150715D01*
X131420728Y-90723095D02*
X132690728Y-90723095D01*
X132690728Y-90723095D02*
X132690728Y-91206905D01*
X132690728Y-91206905D02*
X132630252Y-91327857D01*
X132630252Y-91327857D02*
X132569776Y-91388334D01*
X132569776Y-91388334D02*
X132448824Y-91448810D01*
X132448824Y-91448810D02*
X132267395Y-91448810D01*
X132267395Y-91448810D02*
X132146443Y-91388334D01*
X132146443Y-91388334D02*
X132085966Y-91327857D01*
X132085966Y-91327857D02*
X132025490Y-91206905D01*
X132025490Y-91206905D02*
X132025490Y-90723095D01*
X131420728Y-91993095D02*
X132690728Y-91993095D01*
X131481205Y-93505000D02*
X131420728Y-93686429D01*
X131420728Y-93686429D02*
X131420728Y-93988810D01*
X131420728Y-93988810D02*
X131481205Y-94109762D01*
X131481205Y-94109762D02*
X131541681Y-94170238D01*
X131541681Y-94170238D02*
X131662633Y-94230715D01*
X131662633Y-94230715D02*
X131783585Y-94230715D01*
X131783585Y-94230715D02*
X131904538Y-94170238D01*
X131904538Y-94170238D02*
X131965014Y-94109762D01*
X131965014Y-94109762D02*
X132025490Y-93988810D01*
X132025490Y-93988810D02*
X132085966Y-93746905D01*
X132085966Y-93746905D02*
X132146443Y-93625953D01*
X132146443Y-93625953D02*
X132206919Y-93565476D01*
X132206919Y-93565476D02*
X132327871Y-93505000D01*
X132327871Y-93505000D02*
X132448824Y-93505000D01*
X132448824Y-93505000D02*
X132569776Y-93565476D01*
X132569776Y-93565476D02*
X132630252Y-93625953D01*
X132630252Y-93625953D02*
X132690728Y-93746905D01*
X132690728Y-93746905D02*
X132690728Y-94049286D01*
X132690728Y-94049286D02*
X132630252Y-94230715D01*
X132267395Y-94593572D02*
X132267395Y-95077381D01*
X132690728Y-94775000D02*
X131602157Y-94775000D01*
X131602157Y-94775000D02*
X131481205Y-94835477D01*
X131481205Y-94835477D02*
X131420728Y-94956429D01*
X131420728Y-94956429D02*
X131420728Y-95077381D01*
X131420728Y-95500714D02*
X132267395Y-95500714D01*
X132690728Y-95500714D02*
X132630252Y-95440238D01*
X132630252Y-95440238D02*
X132569776Y-95500714D01*
X132569776Y-95500714D02*
X132630252Y-95561191D01*
X132630252Y-95561191D02*
X132690728Y-95500714D01*
X132690728Y-95500714D02*
X132569776Y-95500714D01*
X132267395Y-95924048D02*
X132267395Y-96407857D01*
X131420728Y-96105476D02*
X132509300Y-96105476D01*
X132509300Y-96105476D02*
X132630252Y-96165953D01*
X132630252Y-96165953D02*
X132690728Y-96286905D01*
X132690728Y-96286905D02*
X132690728Y-96407857D01*
X132267395Y-96649762D02*
X132267395Y-97133571D01*
X131420728Y-96831190D02*
X132509300Y-96831190D01*
X132509300Y-96831190D02*
X132630252Y-96891667D01*
X132630252Y-96891667D02*
X132690728Y-97012619D01*
X132690728Y-97012619D02*
X132690728Y-97133571D01*
X131481205Y-98040714D02*
X131420728Y-97919762D01*
X131420728Y-97919762D02*
X131420728Y-97677857D01*
X131420728Y-97677857D02*
X131481205Y-97556904D01*
X131481205Y-97556904D02*
X131602157Y-97496428D01*
X131602157Y-97496428D02*
X132085966Y-97496428D01*
X132085966Y-97496428D02*
X132206919Y-97556904D01*
X132206919Y-97556904D02*
X132267395Y-97677857D01*
X132267395Y-97677857D02*
X132267395Y-97919762D01*
X132267395Y-97919762D02*
X132206919Y-98040714D01*
X132206919Y-98040714D02*
X132085966Y-98101190D01*
X132085966Y-98101190D02*
X131965014Y-98101190D01*
X131965014Y-98101190D02*
X131844062Y-97496428D01*
X132267395Y-98645475D02*
X131420728Y-98645475D01*
X132146443Y-98645475D02*
X132206919Y-98705952D01*
X132206919Y-98705952D02*
X132267395Y-98826904D01*
X132267395Y-98826904D02*
X132267395Y-99008333D01*
X132267395Y-99008333D02*
X132206919Y-99129285D01*
X132206919Y-99129285D02*
X132085966Y-99189761D01*
X132085966Y-99189761D02*
X131420728Y-99189761D01*
X131481205Y-100278333D02*
X131420728Y-100157381D01*
X131420728Y-100157381D02*
X131420728Y-99915476D01*
X131420728Y-99915476D02*
X131481205Y-99794523D01*
X131481205Y-99794523D02*
X131602157Y-99734047D01*
X131602157Y-99734047D02*
X132085966Y-99734047D01*
X132085966Y-99734047D02*
X132206919Y-99794523D01*
X132206919Y-99794523D02*
X132267395Y-99915476D01*
X132267395Y-99915476D02*
X132267395Y-100157381D01*
X132267395Y-100157381D02*
X132206919Y-100278333D01*
X132206919Y-100278333D02*
X132085966Y-100338809D01*
X132085966Y-100338809D02*
X131965014Y-100338809D01*
X131965014Y-100338809D02*
X131844062Y-99734047D01*
X131420728Y-100883094D02*
X132267395Y-100883094D01*
X132025490Y-100883094D02*
X132146443Y-100943571D01*
X132146443Y-100943571D02*
X132206919Y-101004047D01*
X132206919Y-101004047D02*
X132267395Y-101124999D01*
X132267395Y-101124999D02*
X132267395Y-101245952D01*
X93690728Y-81977381D02*
X93690728Y-82098334D01*
X93690728Y-82098334D02*
X93630252Y-82219286D01*
X93630252Y-82219286D02*
X93569776Y-82279762D01*
X93569776Y-82279762D02*
X93448824Y-82340238D01*
X93448824Y-82340238D02*
X93206919Y-82400715D01*
X93206919Y-82400715D02*
X92904538Y-82400715D01*
X92904538Y-82400715D02*
X92662633Y-82340238D01*
X92662633Y-82340238D02*
X92541681Y-82279762D01*
X92541681Y-82279762D02*
X92481205Y-82219286D01*
X92481205Y-82219286D02*
X92420728Y-82098334D01*
X92420728Y-82098334D02*
X92420728Y-81977381D01*
X92420728Y-81977381D02*
X92481205Y-81856429D01*
X92481205Y-81856429D02*
X92541681Y-81795953D01*
X92541681Y-81795953D02*
X92662633Y-81735476D01*
X92662633Y-81735476D02*
X92904538Y-81675000D01*
X92904538Y-81675000D02*
X93206919Y-81675000D01*
X93206919Y-81675000D02*
X93448824Y-81735476D01*
X93448824Y-81735476D02*
X93569776Y-81795953D01*
X93569776Y-81795953D02*
X93630252Y-81856429D01*
X93630252Y-81856429D02*
X93690728Y-81977381D01*
X92541681Y-82945000D02*
X92481205Y-83005477D01*
X92481205Y-83005477D02*
X92420728Y-82945000D01*
X92420728Y-82945000D02*
X92481205Y-82884524D01*
X92481205Y-82884524D02*
X92541681Y-82945000D01*
X92541681Y-82945000D02*
X92420728Y-82945000D01*
X93569776Y-83489286D02*
X93630252Y-83549762D01*
X93630252Y-83549762D02*
X93690728Y-83670715D01*
X93690728Y-83670715D02*
X93690728Y-83973096D01*
X93690728Y-83973096D02*
X93630252Y-84094048D01*
X93630252Y-84094048D02*
X93569776Y-84154524D01*
X93569776Y-84154524D02*
X93448824Y-84215001D01*
X93448824Y-84215001D02*
X93327871Y-84215001D01*
X93327871Y-84215001D02*
X93146443Y-84154524D01*
X93146443Y-84154524D02*
X92420728Y-83428810D01*
X92420728Y-83428810D02*
X92420728Y-84215001D01*
X93690728Y-85364048D02*
X93690728Y-84759286D01*
X93690728Y-84759286D02*
X93085966Y-84698810D01*
X93085966Y-84698810D02*
X93146443Y-84759286D01*
X93146443Y-84759286D02*
X93206919Y-84880239D01*
X93206919Y-84880239D02*
X93206919Y-85182620D01*
X93206919Y-85182620D02*
X93146443Y-85303572D01*
X93146443Y-85303572D02*
X93085966Y-85364048D01*
X93085966Y-85364048D02*
X92965014Y-85424525D01*
X92965014Y-85424525D02*
X92662633Y-85424525D01*
X92662633Y-85424525D02*
X92541681Y-85364048D01*
X92541681Y-85364048D02*
X92481205Y-85303572D01*
X92481205Y-85303572D02*
X92420728Y-85182620D01*
X92420728Y-85182620D02*
X92420728Y-84880239D01*
X92420728Y-84880239D02*
X92481205Y-84759286D01*
X92481205Y-84759286D02*
X92541681Y-84698810D01*
X92420728Y-85968810D02*
X93267395Y-85968810D01*
X93146443Y-85968810D02*
X93206919Y-86029287D01*
X93206919Y-86029287D02*
X93267395Y-86150239D01*
X93267395Y-86150239D02*
X93267395Y-86331668D01*
X93267395Y-86331668D02*
X93206919Y-86452620D01*
X93206919Y-86452620D02*
X93085966Y-86513096D01*
X93085966Y-86513096D02*
X92420728Y-86513096D01*
X93085966Y-86513096D02*
X93206919Y-86573572D01*
X93206919Y-86573572D02*
X93267395Y-86694525D01*
X93267395Y-86694525D02*
X93267395Y-86875953D01*
X93267395Y-86875953D02*
X93206919Y-86996906D01*
X93206919Y-86996906D02*
X93085966Y-87057382D01*
X93085966Y-87057382D02*
X92420728Y-87057382D01*
X92420728Y-87662143D02*
X93267395Y-87662143D01*
X93146443Y-87662143D02*
X93206919Y-87722620D01*
X93206919Y-87722620D02*
X93267395Y-87843572D01*
X93267395Y-87843572D02*
X93267395Y-88025001D01*
X93267395Y-88025001D02*
X93206919Y-88145953D01*
X93206919Y-88145953D02*
X93085966Y-88206429D01*
X93085966Y-88206429D02*
X92420728Y-88206429D01*
X93085966Y-88206429D02*
X93206919Y-88266905D01*
X93206919Y-88266905D02*
X93267395Y-88387858D01*
X93267395Y-88387858D02*
X93267395Y-88569286D01*
X93267395Y-88569286D02*
X93206919Y-88690239D01*
X93206919Y-88690239D02*
X93085966Y-88750715D01*
X93085966Y-88750715D02*
X92420728Y-88750715D01*
X92420728Y-90323095D02*
X93690728Y-90323095D01*
X93690728Y-90323095D02*
X93690728Y-90806905D01*
X93690728Y-90806905D02*
X93630252Y-90927857D01*
X93630252Y-90927857D02*
X93569776Y-90988334D01*
X93569776Y-90988334D02*
X93448824Y-91048810D01*
X93448824Y-91048810D02*
X93267395Y-91048810D01*
X93267395Y-91048810D02*
X93146443Y-90988334D01*
X93146443Y-90988334D02*
X93085966Y-90927857D01*
X93085966Y-90927857D02*
X93025490Y-90806905D01*
X93025490Y-90806905D02*
X93025490Y-90323095D01*
X92420728Y-91593095D02*
X93690728Y-91593095D01*
X92481205Y-93105000D02*
X92420728Y-93286429D01*
X92420728Y-93286429D02*
X92420728Y-93588810D01*
X92420728Y-93588810D02*
X92481205Y-93709762D01*
X92481205Y-93709762D02*
X92541681Y-93770238D01*
X92541681Y-93770238D02*
X92662633Y-93830715D01*
X92662633Y-93830715D02*
X92783585Y-93830715D01*
X92783585Y-93830715D02*
X92904538Y-93770238D01*
X92904538Y-93770238D02*
X92965014Y-93709762D01*
X92965014Y-93709762D02*
X93025490Y-93588810D01*
X93025490Y-93588810D02*
X93085966Y-93346905D01*
X93085966Y-93346905D02*
X93146443Y-93225953D01*
X93146443Y-93225953D02*
X93206919Y-93165476D01*
X93206919Y-93165476D02*
X93327871Y-93105000D01*
X93327871Y-93105000D02*
X93448824Y-93105000D01*
X93448824Y-93105000D02*
X93569776Y-93165476D01*
X93569776Y-93165476D02*
X93630252Y-93225953D01*
X93630252Y-93225953D02*
X93690728Y-93346905D01*
X93690728Y-93346905D02*
X93690728Y-93649286D01*
X93690728Y-93649286D02*
X93630252Y-93830715D01*
X93267395Y-94193572D02*
X93267395Y-94677381D01*
X93690728Y-94375000D02*
X92602157Y-94375000D01*
X92602157Y-94375000D02*
X92481205Y-94435477D01*
X92481205Y-94435477D02*
X92420728Y-94556429D01*
X92420728Y-94556429D02*
X92420728Y-94677381D01*
X92420728Y-95100714D02*
X93267395Y-95100714D01*
X93690728Y-95100714D02*
X93630252Y-95040238D01*
X93630252Y-95040238D02*
X93569776Y-95100714D01*
X93569776Y-95100714D02*
X93630252Y-95161191D01*
X93630252Y-95161191D02*
X93690728Y-95100714D01*
X93690728Y-95100714D02*
X93569776Y-95100714D01*
X93267395Y-95524048D02*
X93267395Y-96007857D01*
X92420728Y-95705476D02*
X93509300Y-95705476D01*
X93509300Y-95705476D02*
X93630252Y-95765953D01*
X93630252Y-95765953D02*
X93690728Y-95886905D01*
X93690728Y-95886905D02*
X93690728Y-96007857D01*
X93267395Y-96249762D02*
X93267395Y-96733571D01*
X92420728Y-96431190D02*
X93509300Y-96431190D01*
X93509300Y-96431190D02*
X93630252Y-96491667D01*
X93630252Y-96491667D02*
X93690728Y-96612619D01*
X93690728Y-96612619D02*
X93690728Y-96733571D01*
X92481205Y-97640714D02*
X92420728Y-97519762D01*
X92420728Y-97519762D02*
X92420728Y-97277857D01*
X92420728Y-97277857D02*
X92481205Y-97156904D01*
X92481205Y-97156904D02*
X92602157Y-97096428D01*
X92602157Y-97096428D02*
X93085966Y-97096428D01*
X93085966Y-97096428D02*
X93206919Y-97156904D01*
X93206919Y-97156904D02*
X93267395Y-97277857D01*
X93267395Y-97277857D02*
X93267395Y-97519762D01*
X93267395Y-97519762D02*
X93206919Y-97640714D01*
X93206919Y-97640714D02*
X93085966Y-97701190D01*
X93085966Y-97701190D02*
X92965014Y-97701190D01*
X92965014Y-97701190D02*
X92844062Y-97096428D01*
X93267395Y-98245475D02*
X92420728Y-98245475D01*
X93146443Y-98245475D02*
X93206919Y-98305952D01*
X93206919Y-98305952D02*
X93267395Y-98426904D01*
X93267395Y-98426904D02*
X93267395Y-98608333D01*
X93267395Y-98608333D02*
X93206919Y-98729285D01*
X93206919Y-98729285D02*
X93085966Y-98789761D01*
X93085966Y-98789761D02*
X92420728Y-98789761D01*
X92481205Y-99878333D02*
X92420728Y-99757381D01*
X92420728Y-99757381D02*
X92420728Y-99515476D01*
X92420728Y-99515476D02*
X92481205Y-99394523D01*
X92481205Y-99394523D02*
X92602157Y-99334047D01*
X92602157Y-99334047D02*
X93085966Y-99334047D01*
X93085966Y-99334047D02*
X93206919Y-99394523D01*
X93206919Y-99394523D02*
X93267395Y-99515476D01*
X93267395Y-99515476D02*
X93267395Y-99757381D01*
X93267395Y-99757381D02*
X93206919Y-99878333D01*
X93206919Y-99878333D02*
X93085966Y-99938809D01*
X93085966Y-99938809D02*
X92965014Y-99938809D01*
X92965014Y-99938809D02*
X92844062Y-99334047D01*
X92420728Y-100483094D02*
X93267395Y-100483094D01*
X93025490Y-100483094D02*
X93146443Y-100543571D01*
X93146443Y-100543571D02*
X93206919Y-100604047D01*
X93206919Y-100604047D02*
X93267395Y-100724999D01*
X93267395Y-100724999D02*
X93267395Y-100845952D01*
D13*
X50727255Y-145069819D02*
X50822493Y-145069819D01*
X50822493Y-145069819D02*
X50917731Y-145117438D01*
X50917731Y-145117438D02*
X50965350Y-145165057D01*
X50965350Y-145165057D02*
X51012969Y-145260295D01*
X51012969Y-145260295D02*
X51060588Y-145450771D01*
X51060588Y-145450771D02*
X51060588Y-145688866D01*
X51060588Y-145688866D02*
X51012969Y-145879342D01*
X51012969Y-145879342D02*
X50965350Y-145974580D01*
X50965350Y-145974580D02*
X50917731Y-146022200D01*
X50917731Y-146022200D02*
X50822493Y-146069819D01*
X50822493Y-146069819D02*
X50727255Y-146069819D01*
X50727255Y-146069819D02*
X50632017Y-146022200D01*
X50632017Y-146022200D02*
X50584398Y-145974580D01*
X50584398Y-145974580D02*
X50536779Y-145879342D01*
X50536779Y-145879342D02*
X50489160Y-145688866D01*
X50489160Y-145688866D02*
X50489160Y-145450771D01*
X50489160Y-145450771D02*
X50536779Y-145260295D01*
X50536779Y-145260295D02*
X50584398Y-145165057D01*
X50584398Y-145165057D02*
X50632017Y-145117438D01*
X50632017Y-145117438D02*
X50727255Y-145069819D01*
X51489160Y-145974580D02*
X51536779Y-146022200D01*
X51536779Y-146022200D02*
X51489160Y-146069819D01*
X51489160Y-146069819D02*
X51441541Y-146022200D01*
X51441541Y-146022200D02*
X51489160Y-145974580D01*
X51489160Y-145974580D02*
X51489160Y-146069819D01*
X51917731Y-145165057D02*
X51965350Y-145117438D01*
X51965350Y-145117438D02*
X52060588Y-145069819D01*
X52060588Y-145069819D02*
X52298683Y-145069819D01*
X52298683Y-145069819D02*
X52393921Y-145117438D01*
X52393921Y-145117438D02*
X52441540Y-145165057D01*
X52441540Y-145165057D02*
X52489159Y-145260295D01*
X52489159Y-145260295D02*
X52489159Y-145355533D01*
X52489159Y-145355533D02*
X52441540Y-145498390D01*
X52441540Y-145498390D02*
X51870112Y-146069819D01*
X51870112Y-146069819D02*
X52489159Y-146069819D01*
X53393921Y-145069819D02*
X52917731Y-145069819D01*
X52917731Y-145069819D02*
X52870112Y-145546009D01*
X52870112Y-145546009D02*
X52917731Y-145498390D01*
X52917731Y-145498390D02*
X53012969Y-145450771D01*
X53012969Y-145450771D02*
X53251064Y-145450771D01*
X53251064Y-145450771D02*
X53346302Y-145498390D01*
X53346302Y-145498390D02*
X53393921Y-145546009D01*
X53393921Y-145546009D02*
X53441540Y-145641247D01*
X53441540Y-145641247D02*
X53441540Y-145879342D01*
X53441540Y-145879342D02*
X53393921Y-145974580D01*
X53393921Y-145974580D02*
X53346302Y-146022200D01*
X53346302Y-146022200D02*
X53251064Y-146069819D01*
X53251064Y-146069819D02*
X53012969Y-146069819D01*
X53012969Y-146069819D02*
X52917731Y-146022200D01*
X52917731Y-146022200D02*
X52870112Y-145974580D01*
X53870112Y-146069819D02*
X53870112Y-145403152D01*
X53870112Y-145498390D02*
X53917731Y-145450771D01*
X53917731Y-145450771D02*
X54012969Y-145403152D01*
X54012969Y-145403152D02*
X54155826Y-145403152D01*
X54155826Y-145403152D02*
X54251064Y-145450771D01*
X54251064Y-145450771D02*
X54298683Y-145546009D01*
X54298683Y-145546009D02*
X54298683Y-146069819D01*
X54298683Y-145546009D02*
X54346302Y-145450771D01*
X54346302Y-145450771D02*
X54441540Y-145403152D01*
X54441540Y-145403152D02*
X54584397Y-145403152D01*
X54584397Y-145403152D02*
X54679636Y-145450771D01*
X54679636Y-145450771D02*
X54727255Y-145546009D01*
X54727255Y-145546009D02*
X54727255Y-146069819D01*
X55203445Y-146069819D02*
X55203445Y-145403152D01*
X55203445Y-145498390D02*
X55251064Y-145450771D01*
X55251064Y-145450771D02*
X55346302Y-145403152D01*
X55346302Y-145403152D02*
X55489159Y-145403152D01*
X55489159Y-145403152D02*
X55584397Y-145450771D01*
X55584397Y-145450771D02*
X55632016Y-145546009D01*
X55632016Y-145546009D02*
X55632016Y-146069819D01*
X55632016Y-145546009D02*
X55679635Y-145450771D01*
X55679635Y-145450771D02*
X55774873Y-145403152D01*
X55774873Y-145403152D02*
X55917730Y-145403152D01*
X55917730Y-145403152D02*
X56012969Y-145450771D01*
X56012969Y-145450771D02*
X56060588Y-145546009D01*
X56060588Y-145546009D02*
X56060588Y-146069819D01*
X57298683Y-146069819D02*
X57298683Y-145069819D01*
X57298683Y-145069819D02*
X57679635Y-145069819D01*
X57679635Y-145069819D02*
X57774873Y-145117438D01*
X57774873Y-145117438D02*
X57822492Y-145165057D01*
X57822492Y-145165057D02*
X57870111Y-145260295D01*
X57870111Y-145260295D02*
X57870111Y-145403152D01*
X57870111Y-145403152D02*
X57822492Y-145498390D01*
X57822492Y-145498390D02*
X57774873Y-145546009D01*
X57774873Y-145546009D02*
X57679635Y-145593628D01*
X57679635Y-145593628D02*
X57298683Y-145593628D01*
X58298683Y-146069819D02*
X58298683Y-145069819D01*
X59489159Y-146022200D02*
X59632016Y-146069819D01*
X59632016Y-146069819D02*
X59870111Y-146069819D01*
X59870111Y-146069819D02*
X59965349Y-146022200D01*
X59965349Y-146022200D02*
X60012968Y-145974580D01*
X60012968Y-145974580D02*
X60060587Y-145879342D01*
X60060587Y-145879342D02*
X60060587Y-145784104D01*
X60060587Y-145784104D02*
X60012968Y-145688866D01*
X60012968Y-145688866D02*
X59965349Y-145641247D01*
X59965349Y-145641247D02*
X59870111Y-145593628D01*
X59870111Y-145593628D02*
X59679635Y-145546009D01*
X59679635Y-145546009D02*
X59584397Y-145498390D01*
X59584397Y-145498390D02*
X59536778Y-145450771D01*
X59536778Y-145450771D02*
X59489159Y-145355533D01*
X59489159Y-145355533D02*
X59489159Y-145260295D01*
X59489159Y-145260295D02*
X59536778Y-145165057D01*
X59536778Y-145165057D02*
X59584397Y-145117438D01*
X59584397Y-145117438D02*
X59679635Y-145069819D01*
X59679635Y-145069819D02*
X59917730Y-145069819D01*
X59917730Y-145069819D02*
X60060587Y-145117438D01*
X60346302Y-145403152D02*
X60727254Y-145403152D01*
X60489159Y-145069819D02*
X60489159Y-145926961D01*
X60489159Y-145926961D02*
X60536778Y-146022200D01*
X60536778Y-146022200D02*
X60632016Y-146069819D01*
X60632016Y-146069819D02*
X60727254Y-146069819D01*
X61060588Y-146069819D02*
X61060588Y-145403152D01*
X61060588Y-145069819D02*
X61012969Y-145117438D01*
X61012969Y-145117438D02*
X61060588Y-145165057D01*
X61060588Y-145165057D02*
X61108207Y-145117438D01*
X61108207Y-145117438D02*
X61060588Y-145069819D01*
X61060588Y-145069819D02*
X61060588Y-145165057D01*
X61393921Y-145403152D02*
X61774873Y-145403152D01*
X61536778Y-146069819D02*
X61536778Y-145212676D01*
X61536778Y-145212676D02*
X61584397Y-145117438D01*
X61584397Y-145117438D02*
X61679635Y-145069819D01*
X61679635Y-145069819D02*
X61774873Y-145069819D01*
X61965350Y-145403152D02*
X62346302Y-145403152D01*
X62108207Y-146069819D02*
X62108207Y-145212676D01*
X62108207Y-145212676D02*
X62155826Y-145117438D01*
X62155826Y-145117438D02*
X62251064Y-145069819D01*
X62251064Y-145069819D02*
X62346302Y-145069819D01*
X63060588Y-146022200D02*
X62965350Y-146069819D01*
X62965350Y-146069819D02*
X62774874Y-146069819D01*
X62774874Y-146069819D02*
X62679636Y-146022200D01*
X62679636Y-146022200D02*
X62632017Y-145926961D01*
X62632017Y-145926961D02*
X62632017Y-145546009D01*
X62632017Y-145546009D02*
X62679636Y-145450771D01*
X62679636Y-145450771D02*
X62774874Y-145403152D01*
X62774874Y-145403152D02*
X62965350Y-145403152D01*
X62965350Y-145403152D02*
X63060588Y-145450771D01*
X63060588Y-145450771D02*
X63108207Y-145546009D01*
X63108207Y-145546009D02*
X63108207Y-145641247D01*
X63108207Y-145641247D02*
X62632017Y-145736485D01*
X63536779Y-145403152D02*
X63536779Y-146069819D01*
X63536779Y-145498390D02*
X63584398Y-145450771D01*
X63584398Y-145450771D02*
X63679636Y-145403152D01*
X63679636Y-145403152D02*
X63822493Y-145403152D01*
X63822493Y-145403152D02*
X63917731Y-145450771D01*
X63917731Y-145450771D02*
X63965350Y-145546009D01*
X63965350Y-145546009D02*
X63965350Y-146069819D01*
X64822493Y-146022200D02*
X64727255Y-146069819D01*
X64727255Y-146069819D02*
X64536779Y-146069819D01*
X64536779Y-146069819D02*
X64441541Y-146022200D01*
X64441541Y-146022200D02*
X64393922Y-145926961D01*
X64393922Y-145926961D02*
X64393922Y-145546009D01*
X64393922Y-145546009D02*
X64441541Y-145450771D01*
X64441541Y-145450771D02*
X64536779Y-145403152D01*
X64536779Y-145403152D02*
X64727255Y-145403152D01*
X64727255Y-145403152D02*
X64822493Y-145450771D01*
X64822493Y-145450771D02*
X64870112Y-145546009D01*
X64870112Y-145546009D02*
X64870112Y-145641247D01*
X64870112Y-145641247D02*
X64393922Y-145736485D01*
X65298684Y-146069819D02*
X65298684Y-145403152D01*
X65298684Y-145593628D02*
X65346303Y-145498390D01*
X65346303Y-145498390D02*
X65393922Y-145450771D01*
X65393922Y-145450771D02*
X65489160Y-145403152D01*
X65489160Y-145403152D02*
X65584398Y-145403152D01*
M02*
