M48
; DRILL file {KiCad 9.0.5-9.0.5~ubuntu24.04.1} date 2025-10-08T09:34:00+0100
; FORMAT={-:-/ absolute / metric / decimal}
; #@! TF.CreationDate,2025-10-08T09:34:00+01:00
; #@! TF.GenerationSoftware,Kicad,Pcbnew,9.0.5-9.0.5~ubuntu24.04.1
; #@! TF.FileFunction,Plated,1,2,PTH
FMAT,2
METRIC
; #@! TA.AperFunction,Plated,PTH,ViaDrill
T1C0.300
%
G90
G05
T1
X39.4Y-143.8
X41.75Y-59.0
X41.75Y-60.0
X42.5Y-58.5
X42.5Y-60.5
X43.0Y-62.6
X43.2Y-143.8
X44.0Y-56.5
X44.0Y-57.5
X45.0Y-65.162
X45.2Y-71.6
X46.0Y-143.8
X46.553Y-62.416
X46.8Y-69.0
X47.6Y-58.2
X47.676Y-62.426
X48.169Y-59.419
X48.2Y-67.2
X48.25Y-144.25
X48.625Y-61.125
X49.8Y-63.8
X49.8Y-65.525
X50.8Y-61.612
X52.0Y-64.125
X56.0Y-68.6
X58.8Y-61.2
X60.4Y-50.8
X60.4Y-79.0
X61.25Y-61.15
X61.6Y-71.6
X62.4Y-69.35
X62.5Y-55.05
X62.5Y-66.2
X62.5Y-67.8
X62.5Y-68.5
X62.5Y-73.3
X62.901Y-62.763
X64.0Y-71.6
X64.5Y-61.75
X64.5Y-63.775
X64.5Y-68.456
X64.5Y-69.3
X64.6Y-50.8
X64.6Y-79.0
X67.6Y-68.6
X68.8Y-61.2
X70.4Y-50.8
X70.4Y-79.0
X71.25Y-61.15
X71.6Y-71.6
X72.5Y-55.05
X72.5Y-66.2
X72.5Y-67.8
X72.5Y-68.5
X72.5Y-73.3
X72.75Y-62.875
X74.2Y-71.6
X74.5Y-61.75
X74.5Y-63.775
X74.5Y-68.456
X74.5Y-69.3
X74.6Y-50.8
X74.6Y-79.0
X78.0Y-68.6
X78.8Y-61.2
X80.4Y-50.8
X80.4Y-79.0
X81.25Y-61.15
X81.6Y-71.6
X82.5Y-55.05
X82.5Y-66.2
X82.5Y-67.8
X82.5Y-68.5
X82.5Y-69.2
X82.5Y-73.3
X82.901Y-62.763
X84.2Y-71.6
X84.5Y-61.75
X84.5Y-63.775
X84.5Y-68.456
X84.5Y-69.3
X84.6Y-50.8
X84.6Y-79.0
X88.0Y-68.6
X88.8Y-61.2
X90.4Y-50.8
X90.4Y-79.0
X91.25Y-61.15
X91.6Y-71.6
X92.5Y-55.05
X92.5Y-66.2
X92.5Y-67.8
X92.5Y-68.5
X92.5Y-69.2
X92.5Y-73.3
X92.901Y-62.763
X94.2Y-71.6
X94.5Y-61.75
X94.5Y-63.775
X94.5Y-68.456
X94.5Y-69.3
X94.6Y-50.8
X94.6Y-79.0
X97.8Y-68.6
X98.8Y-61.2
X100.4Y-50.8
X100.4Y-79.0
X101.25Y-61.15
X101.6Y-71.6
X102.5Y-55.05
X102.5Y-66.2
X102.5Y-67.8
X102.5Y-68.5
X102.5Y-69.2
X102.5Y-73.3
X102.901Y-62.763
X104.2Y-71.6
X104.5Y-61.75
X104.5Y-63.775
X104.5Y-68.456
X104.5Y-69.3
X104.6Y-50.8
X104.6Y-79.0
X108.0Y-68.6
X108.8Y-61.2
X110.4Y-50.8
X110.4Y-79.0
X111.25Y-61.15
X111.6Y-71.6
X112.5Y-55.05
X112.5Y-66.2
X112.5Y-67.8
X112.5Y-68.5
X112.5Y-69.2
X112.5Y-73.3
X112.901Y-62.763
X114.2Y-71.6
X114.5Y-61.75
X114.5Y-63.775
X114.5Y-68.456
X114.5Y-69.3
X114.6Y-50.8
X114.6Y-79.0
X118.0Y-68.6
X118.664Y-61.271
X120.4Y-50.8
X120.4Y-79.0
X121.25Y-61.15
X121.6Y-71.6
X122.5Y-55.05
X122.5Y-66.2
X122.5Y-67.8
X122.5Y-68.5
X122.5Y-69.2
X122.5Y-73.3
X122.901Y-62.763
X124.2Y-71.6
X124.5Y-61.75
X124.5Y-63.775
X124.5Y-68.456
X124.5Y-69.3
X124.6Y-50.8
X124.6Y-79.0
X127.6Y-68.6
X128.8Y-61.2
X130.4Y-50.8
X130.4Y-79.0
X131.25Y-61.15
X131.6Y-71.6
X132.5Y-55.05
X132.5Y-66.2
X132.5Y-67.8
X132.5Y-68.5
X132.5Y-69.2
X132.5Y-73.3
X132.901Y-62.763
X134.2Y-71.6
X134.5Y-61.75
X134.5Y-63.775
X134.5Y-68.456
X134.5Y-69.3
X134.6Y-50.8
X134.6Y-79.0
M30
