G04 #@! TF.GenerationSoftware,KiCad,Pcbnew,9.0.5-9.0.5~ubuntu24.04.1*
G04 #@! TF.CreationDate,2025-10-08T09:34:00+01:00*
G04 #@! TF.ProjectId,sensor_board,73656e73-6f72-45f6-926f-6172642e6b69,rev?*
G04 #@! TF.SameCoordinates,Original*
G04 #@! TF.FileFunction,Paste,Top*
G04 #@! TF.FilePolarity,Positive*
%FSLAX46Y46*%
G04 Gerber Fmt 4.6, Leading zero omitted, Abs format (unit mm)*
G04 Created by KiCad (PCBNEW 9.0.5-9.0.5~ubuntu24.04.1) date 2025-10-08 09:34:00*
%MOMM*%
%LPD*%
G01*
G04 APERTURE LIST*
G04 Aperture macros list*
%AMRoundRect*
0 Rectangle with rounded corners*
0 $1 Rounding radius*
0 $2 $3 $4 $5 $6 $7 $8 $9 X,Y pos of 4 corners*
0 Add a 4 corners polygon primitive as box body*
4,1,4,$2,$3,$4,$5,$6,$7,$8,$9,$2,$3,0*
0 Add four circle primitives for the rounded corners*
1,1,$1+$1,$2,$3*
1,1,$1+$1,$4,$5*
1,1,$1+$1,$6,$7*
1,1,$1+$1,$8,$9*
0 Add four rect primitives between the rounded corners*
20,1,$1+$1,$2,$3,$4,$5,0*
20,1,$1+$1,$4,$5,$6,$7,0*
20,1,$1+$1,$6,$7,$8,$9,0*
20,1,$1+$1,$8,$9,$2,$3,0*%
G04 Aperture macros list end*
%ADD10RoundRect,0.237500X-0.237500X0.250000X-0.237500X-0.250000X0.237500X-0.250000X0.237500X0.250000X0*%
%ADD11RoundRect,0.237500X0.237500X-0.250000X0.237500X0.250000X-0.237500X0.250000X-0.237500X-0.250000X0*%
%ADD12RoundRect,0.237500X-0.237500X0.300000X-0.237500X-0.300000X0.237500X-0.300000X0.237500X0.300000X0*%
%ADD13R,0.545000X0.530000*%
%ADD14R,0.530000X0.565000*%
%ADD15R,1.229995X2.345995*%
%ADD16RoundRect,0.237500X0.237500X-0.300000X0.237500X0.300000X-0.237500X0.300000X-0.237500X-0.300000X0*%
%ADD17RoundRect,0.105000X0.245000X1.245000X-0.245000X1.245000X-0.245000X-1.245000X0.245000X-1.245000X0*%
%ADD18RoundRect,0.237500X0.250000X0.237500X-0.250000X0.237500X-0.250000X-0.237500X0.250000X-0.237500X0*%
%ADD19RoundRect,0.006600X-0.103400X0.398400X-0.103400X-0.398400X0.103400X-0.398400X0.103400X0.398400X0*%
%ADD20RoundRect,0.006600X-0.398400X0.103400X-0.398400X-0.103400X0.398400X-0.103400X0.398400X0.103400X0*%
G04 APERTURE END LIST*
D10*
G04 #@! TO.C,R6*
X63750000Y-58500000D03*
X63750000Y-60325000D03*
G04 #@! TD*
D11*
G04 #@! TO.C,R37*
X131250000Y-63825000D03*
X131250000Y-62000000D03*
G04 #@! TD*
D12*
G04 #@! TO.C,JP5*
X101250000Y-55050000D03*
X101250000Y-56775000D03*
G04 #@! TD*
D11*
G04 #@! TO.C,R7*
X63750000Y-56825000D03*
X63750000Y-55000000D03*
G04 #@! TD*
D12*
G04 #@! TO.C,JP8*
X131250000Y-55050000D03*
X131250000Y-56775000D03*
G04 #@! TD*
D11*
G04 #@! TO.C,R4*
X46000000Y-65162500D03*
X46000000Y-63337500D03*
G04 #@! TD*
D12*
G04 #@! TO.C,C3*
X63750000Y-73300000D03*
X63750000Y-75025000D03*
G04 #@! TD*
D10*
G04 #@! TO.C,R24*
X101250000Y-58500000D03*
X101250000Y-60325000D03*
G04 #@! TD*
D13*
G04 #@! TO.C,U5*
X93557501Y-66249999D03*
X93557501Y-67000000D03*
X93557501Y-67749999D03*
X93557501Y-68500000D03*
X93557501Y-69250001D03*
X93557501Y-70000000D03*
X93557501Y-70750001D03*
D14*
X92500000Y-65832500D03*
D15*
X92500000Y-68500000D03*
D14*
X92500000Y-71167500D03*
D13*
X91442499Y-66249999D03*
X91442499Y-67000000D03*
X91442499Y-67749999D03*
X91442499Y-68500000D03*
X91442499Y-69250001D03*
X91442499Y-70000000D03*
X91442499Y-70750001D03*
G04 #@! TD*
D12*
G04 #@! TO.C,C12*
X93750000Y-73300000D03*
X93750000Y-75025000D03*
G04 #@! TD*
D10*
G04 #@! TO.C,R30*
X123750000Y-58500000D03*
X123750000Y-60325000D03*
G04 #@! TD*
G04 #@! TO.C,R8*
X61250000Y-58500000D03*
X61250000Y-60325000D03*
G04 #@! TD*
D11*
G04 #@! TO.C,R31*
X123750000Y-56825000D03*
X123750000Y-55000000D03*
G04 #@! TD*
D13*
G04 #@! TO.C,U9*
X133557501Y-66249999D03*
X133557501Y-67000000D03*
X133557501Y-67749999D03*
X133557501Y-68500000D03*
X133557501Y-69250001D03*
X133557501Y-70000000D03*
X133557501Y-70750001D03*
D14*
X132500000Y-65832500D03*
D15*
X132500000Y-68500000D03*
D14*
X132500000Y-71167500D03*
D13*
X131442499Y-66249999D03*
X131442499Y-67000000D03*
X131442499Y-67749999D03*
X131442499Y-68500000D03*
X131442499Y-69250001D03*
X131442499Y-70000000D03*
X131442499Y-70750001D03*
G04 #@! TD*
G04 #@! TO.C,U4*
X83557501Y-66249999D03*
X83557501Y-67000000D03*
X83557501Y-67749999D03*
X83557501Y-68500000D03*
X83557501Y-69250001D03*
X83557501Y-70000000D03*
X83557501Y-70750001D03*
D14*
X82500000Y-65832500D03*
D15*
X82500000Y-68500000D03*
D14*
X82500000Y-71167500D03*
D13*
X81442499Y-66249999D03*
X81442499Y-67000000D03*
X81442499Y-67749999D03*
X81442499Y-68500000D03*
X81442499Y-69250001D03*
X81442499Y-70000000D03*
X81442499Y-70750001D03*
G04 #@! TD*
D11*
G04 #@! TO.C,R9*
X61250000Y-63825000D03*
X61250000Y-62000000D03*
G04 #@! TD*
D16*
G04 #@! TO.C,C11*
X93750000Y-63775000D03*
X93750000Y-62050000D03*
G04 #@! TD*
D10*
G04 #@! TO.C,R14*
X83750000Y-58500000D03*
X83750000Y-60325000D03*
G04 #@! TD*
D11*
G04 #@! TO.C,R17*
X81250000Y-63825000D03*
X81250000Y-62000000D03*
G04 #@! TD*
G04 #@! TO.C,R19*
X93750000Y-56825000D03*
X93750000Y-55000000D03*
G04 #@! TD*
D12*
G04 #@! TO.C,C7*
X81250000Y-73300000D03*
X81250000Y-75025000D03*
G04 #@! TD*
D11*
G04 #@! TO.C,R25*
X101250000Y-63825000D03*
X101250000Y-62000000D03*
G04 #@! TD*
D13*
G04 #@! TO.C,U3*
X73557501Y-66249999D03*
X73557501Y-67000000D03*
X73557501Y-67749999D03*
X73557501Y-68500000D03*
X73557501Y-69250001D03*
X73557501Y-70000000D03*
X73557501Y-70750001D03*
D14*
X72500000Y-65832500D03*
D15*
X72500000Y-68500000D03*
D14*
X72500000Y-71167500D03*
D13*
X71442499Y-66249999D03*
X71442499Y-67000000D03*
X71442499Y-67749999D03*
X71442499Y-68500000D03*
X71442499Y-69250001D03*
X71442499Y-70000000D03*
X71442499Y-70750001D03*
G04 #@! TD*
D11*
G04 #@! TO.C,R27*
X113750000Y-56825000D03*
X113750000Y-55000000D03*
G04 #@! TD*
D16*
G04 #@! TO.C,C17*
X113750000Y-63775000D03*
X113750000Y-62050000D03*
G04 #@! TD*
D13*
G04 #@! TO.C,U6*
X103557501Y-66249999D03*
X103557501Y-67000000D03*
X103557501Y-67749999D03*
X103557501Y-68500000D03*
X103557501Y-69250001D03*
X103557501Y-70000000D03*
X103557501Y-70750001D03*
D14*
X102500000Y-65832500D03*
D15*
X102500000Y-68500000D03*
D14*
X102500000Y-71167500D03*
D13*
X101442499Y-66249999D03*
X101442499Y-67000000D03*
X101442499Y-67749999D03*
X101442499Y-68500000D03*
X101442499Y-69250001D03*
X101442499Y-70000000D03*
X101442499Y-70750001D03*
G04 #@! TD*
D12*
G04 #@! TO.C,C13*
X101250000Y-73300000D03*
X101250000Y-75025000D03*
G04 #@! TD*
D17*
G04 #@! TO.C,J1*
X48250000Y-146887500D03*
X47250000Y-146887500D03*
X46250000Y-146887500D03*
X45250000Y-146887500D03*
X44250000Y-146887500D03*
X43250000Y-146887500D03*
X42250000Y-146887500D03*
X41250000Y-146887500D03*
X40250000Y-146887500D03*
X39250000Y-146887500D03*
G04 #@! TD*
D10*
G04 #@! TO.C,R18*
X93750000Y-58500000D03*
X93750000Y-60325000D03*
G04 #@! TD*
G04 #@! TO.C,R36*
X131250000Y-58500000D03*
X131250000Y-60325000D03*
G04 #@! TD*
D12*
G04 #@! TO.C,C6*
X73750000Y-73300000D03*
X73750000Y-75025000D03*
G04 #@! TD*
D16*
G04 #@! TO.C,C14*
X103750000Y-63775000D03*
X103750000Y-62050000D03*
G04 #@! TD*
D10*
G04 #@! TO.C,R20*
X91250000Y-58500000D03*
X91250000Y-60325000D03*
G04 #@! TD*
D12*
G04 #@! TO.C,C22*
X131250000Y-73300000D03*
X131250000Y-75025000D03*
G04 #@! TD*
G04 #@! TO.C,JP6*
X111250000Y-55050000D03*
X111250000Y-56775000D03*
G04 #@! TD*
G04 #@! TO.C,C18*
X113750000Y-73300000D03*
X113750000Y-75025000D03*
G04 #@! TD*
D10*
G04 #@! TO.C,R10*
X73750000Y-58500000D03*
X73750000Y-60325000D03*
G04 #@! TD*
D16*
G04 #@! TO.C,C5*
X73750000Y-63775000D03*
X73750000Y-62050000D03*
G04 #@! TD*
D12*
G04 #@! TO.C,C15*
X103750000Y-73300000D03*
X103750000Y-75025000D03*
G04 #@! TD*
D18*
G04 #@! TO.C,R1*
X50912500Y-58500000D03*
X49087500Y-58500000D03*
G04 #@! TD*
D12*
G04 #@! TO.C,JP3*
X81250000Y-55050000D03*
X81250000Y-56775000D03*
G04 #@! TD*
G04 #@! TO.C,JP2*
X71250000Y-55050000D03*
X71250000Y-56775000D03*
G04 #@! TD*
G04 #@! TO.C,C21*
X123750000Y-73300000D03*
X123750000Y-75025000D03*
G04 #@! TD*
D16*
G04 #@! TO.C,C20*
X123750000Y-63775000D03*
X123750000Y-62050000D03*
G04 #@! TD*
D12*
G04 #@! TO.C,JP7*
X121250000Y-55050000D03*
X121250000Y-56775000D03*
G04 #@! TD*
D11*
G04 #@! TO.C,R23*
X103750000Y-56825000D03*
X103750000Y-55000000D03*
G04 #@! TD*
D13*
G04 #@! TO.C,U7*
X113557501Y-66249999D03*
X113557501Y-67000000D03*
X113557501Y-67749999D03*
X113557501Y-68500000D03*
X113557501Y-69250001D03*
X113557501Y-70000000D03*
X113557501Y-70750001D03*
D14*
X112500000Y-65832500D03*
D15*
X112500000Y-68500000D03*
D14*
X112500000Y-71167500D03*
D13*
X111442499Y-66249999D03*
X111442499Y-67000000D03*
X111442499Y-67749999D03*
X111442499Y-68500000D03*
X111442499Y-69250001D03*
X111442499Y-70000000D03*
X111442499Y-70750001D03*
G04 #@! TD*
D10*
G04 #@! TO.C,R12*
X71250000Y-58500000D03*
X71250000Y-60325000D03*
G04 #@! TD*
D13*
G04 #@! TO.C,U2*
X63557501Y-66249999D03*
X63557501Y-67000000D03*
X63557501Y-67749999D03*
X63557501Y-68500000D03*
X63557501Y-69250001D03*
X63557501Y-70000000D03*
X63557501Y-70750001D03*
D14*
X62500000Y-65832500D03*
D15*
X62500000Y-68500000D03*
D14*
X62500000Y-71167500D03*
D13*
X61442499Y-66249999D03*
X61442499Y-67000000D03*
X61442499Y-67749999D03*
X61442499Y-68500000D03*
X61442499Y-69250001D03*
X61442499Y-70000000D03*
X61442499Y-70750001D03*
G04 #@! TD*
D12*
G04 #@! TO.C,C4*
X71250000Y-73300000D03*
X71250000Y-75025000D03*
G04 #@! TD*
D11*
G04 #@! TO.C,R33*
X121250000Y-63825000D03*
X121250000Y-62000000D03*
G04 #@! TD*
G04 #@! TO.C,R11*
X73750000Y-56825000D03*
X73750000Y-55000000D03*
G04 #@! TD*
G04 #@! TO.C,R15*
X83750000Y-56825000D03*
X83750000Y-55000000D03*
G04 #@! TD*
G04 #@! TO.C,R35*
X133750000Y-56825000D03*
X133750000Y-55000000D03*
G04 #@! TD*
D19*
G04 #@! TO.C,U1*
X45600000Y-58650000D03*
X45200000Y-58650000D03*
X44800000Y-58650000D03*
X44400000Y-58650000D03*
D20*
X43750000Y-58900000D03*
X43750000Y-59300000D03*
X43750000Y-59700000D03*
X43750000Y-60100000D03*
D19*
X44400000Y-60350000D03*
X44800000Y-60350000D03*
X45200000Y-60350000D03*
X45600000Y-60350000D03*
D20*
X46250000Y-60100000D03*
X46250000Y-59700000D03*
X46250000Y-59300000D03*
X46250000Y-58900000D03*
G04 #@! TD*
D16*
G04 #@! TO.C,C23*
X133750000Y-63775000D03*
X133750000Y-62050000D03*
G04 #@! TD*
D18*
G04 #@! TO.C,R3*
X45912500Y-67400000D03*
X44087500Y-67400000D03*
G04 #@! TD*
D16*
G04 #@! TO.C,C8*
X83750000Y-63775000D03*
X83750000Y-62050000D03*
G04 #@! TD*
D11*
G04 #@! TO.C,R5*
X44000000Y-65162500D03*
X44000000Y-63337500D03*
G04 #@! TD*
D18*
G04 #@! TO.C,R2*
X50912500Y-60250000D03*
X49087500Y-60250000D03*
G04 #@! TD*
D13*
G04 #@! TO.C,U8*
X123557501Y-66249999D03*
X123557501Y-67000000D03*
X123557501Y-67749999D03*
X123557501Y-68500000D03*
X123557501Y-69250001D03*
X123557501Y-70000000D03*
X123557501Y-70750001D03*
D14*
X122500000Y-65832500D03*
D15*
X122500000Y-68500000D03*
D14*
X122500000Y-71167500D03*
D13*
X121442499Y-66249999D03*
X121442499Y-67000000D03*
X121442499Y-67749999D03*
X121442499Y-68500000D03*
X121442499Y-69250001D03*
X121442499Y-70000000D03*
X121442499Y-70750001D03*
G04 #@! TD*
D10*
G04 #@! TO.C,R28*
X111250000Y-58500000D03*
X111250000Y-60325000D03*
G04 #@! TD*
D12*
G04 #@! TO.C,C19*
X121250000Y-73300000D03*
X121250000Y-75025000D03*
G04 #@! TD*
D10*
G04 #@! TO.C,R16*
X81250000Y-58500000D03*
X81250000Y-60325000D03*
G04 #@! TD*
D12*
G04 #@! TO.C,C9*
X83750000Y-73300000D03*
X83750000Y-75025000D03*
G04 #@! TD*
G04 #@! TO.C,JP1*
X61250000Y-55050000D03*
X61250000Y-56775000D03*
G04 #@! TD*
G04 #@! TO.C,C16*
X111250000Y-73300000D03*
X111250000Y-75025000D03*
G04 #@! TD*
G04 #@! TO.C,C24*
X133750000Y-73300000D03*
X133750000Y-75025000D03*
G04 #@! TD*
G04 #@! TO.C,C1*
X61250000Y-73300000D03*
X61250000Y-75025000D03*
G04 #@! TD*
D10*
G04 #@! TO.C,R34*
X133750000Y-58500000D03*
X133750000Y-60325000D03*
G04 #@! TD*
G04 #@! TO.C,R32*
X121250000Y-58500000D03*
X121250000Y-60325000D03*
G04 #@! TD*
G04 #@! TO.C,R26*
X113750000Y-58500000D03*
X113750000Y-60325000D03*
G04 #@! TD*
D16*
G04 #@! TO.C,C2*
X63750000Y-63775000D03*
X63750000Y-62050000D03*
G04 #@! TD*
D10*
G04 #@! TO.C,R22*
X103750000Y-58500000D03*
X103750000Y-60325000D03*
G04 #@! TD*
D11*
G04 #@! TO.C,R13*
X71250000Y-63825000D03*
X71250000Y-62000000D03*
G04 #@! TD*
D12*
G04 #@! TO.C,JP4*
X91250000Y-55050000D03*
X91250000Y-56775000D03*
G04 #@! TD*
G04 #@! TO.C,C10*
X91250000Y-73300000D03*
X91250000Y-75025000D03*
G04 #@! TD*
D11*
G04 #@! TO.C,R21*
X91250000Y-63825000D03*
X91250000Y-62000000D03*
G04 #@! TD*
G04 #@! TO.C,R29*
X111250000Y-63825000D03*
X111250000Y-62000000D03*
G04 #@! TD*
M02*
