ISO-10303-21;
HEADER;
/* Generated by software containing ST-Developer
 * from STEP Tools, Inc. (www.steptools.com) 
 */
/* OPTION: using custom renumber hook */

FILE_DESCRIPTION(
/* description */ ('STEP AP242 Edition 2',
'CAx-IF Rec.Pracs.---Representation and Presentation of Product Manufa
cturing Information (PMI)---4.0---2014-10-13',
'CAx-IF Rec.Pracs.---3D Tessellated Geometry---0.4---2014-09-14','2;1',
'CAx-IF Rec.Pracs.---User Defined Attributes---1.5---2016-08-15'),
/* implementation_level */ '2;1');

FILE_NAME(
/* name */ 'Flex mount - Flex_PCB_Bent',
/* time_stamp */ '2026-06-11T15:06:14Z',
/* author */ (''),
/* organization */ (''),
/* preprocessor_version */ 'ST-DEVELOPER v20',
/* originating_system */ 'ONSHAPE BY PTC INC, 1.216',
/* authorisation */ '  ');

FILE_SCHEMA (('AP242_MANAGED_MODEL_BASED_3D_ENGINEERING_MIM_LF { 1 0 10303 442 3 1 4 }'));
ENDSEC;

DATA;
#10=SHAPE_REPRESENTATION_RELATIONSHIP('','',#1181,#11);
#11=ADVANCED_BREP_SHAPE_REPRESENTATION('',(#1179),#2017);
#12=B_SPLINE_SURFACE_WITH_KNOTS('',1,3,((#1765,#1766,#1767,#1768,#1769,
#1770,#1771,#1772,#1773,#1774,#1775,#1776,#1777,#1778,#1779,#1780),(#1781,
#1782,#1783,#1784,#1785,#1786,#1787,#1788,#1789,#1790,#1791,#1792,#1793,
#1794,#1795,#1796)),.RULED_SURF.,.F.,.F.,.F.,(2,2),(4,2,2,2,2,2,2,4),(0.,
1.),(0.,0.25,0.375,0.4375,0.46875,0.484375,0.5,1.),.UNSPECIFIED.);
#13=B_SPLINE_CURVE_WITH_KNOTS('',3,(#1759,#1760,#1761,#1762),
 .UNSPECIFIED.,.F.,.F.,(4,4),(0.,1.),.UNSPECIFIED.);
#14=B_SPLINE_CURVE_WITH_KNOTS('',3,(#1797,#1798,#1799,#1800,#1801,#1802),
 .UNSPECIFIED.,.F.,.F.,(4,1,1,4),(0.,0.5,0.75,1.),.UNSPECIFIED.);
#15=B_SPLINE_CURVE_WITH_KNOTS('',3,(#1803,#1804,#1805,#1806,#1807,#1808),
 .UNSPECIFIED.,.F.,.F.,(4,1,1,4),(0.,0.5,0.75,1.),.UNSPECIFIED.);
#16=CIRCLE('',#1190,0.0045);
#17=CIRCLE('',#1191,0.0045);
#18=CIRCLE('',#1203,0.006816);
#19=CIRCLE('',#1204,0.006366);
#20=CIRCLE('',#1206,0.006816);
#21=CIRCLE('',#1207,0.006366);
#22=CIRCLE('',#1211,0.006816);
#23=CIRCLE('',#1212,0.006366);
#24=CIRCLE('',#1214,0.006816);
#25=CIRCLE('',#1215,0.006366);
#26=CIRCLE('',#1239,0.001);
#27=CIRCLE('',#1240,0.001);
#28=CIRCLE('',#1243,0.001);
#29=CIRCLE('',#1244,0.001);
#30=CIRCLE('',#1250,0.006816);
#31=CIRCLE('',#1251,0.006366);
#32=CIRCLE('',#1253,0.006816);
#33=CIRCLE('',#1254,0.006366);
#34=CIRCLE('',#1258,0.006816);
#35=CIRCLE('',#1259,0.006366);
#36=CIRCLE('',#1261,0.006816);
#37=CIRCLE('',#1262,0.006366);
#38=CIRCLE('',#1266,0.006816);
#39=CIRCLE('',#1267,0.006366);
#40=CIRCLE('',#1269,0.006816);
#41=CIRCLE('',#1270,0.006366);
#42=CIRCLE('',#1274,0.006816);
#43=CIRCLE('',#1275,0.006366);
#44=CIRCLE('',#1277,0.006816);
#45=CIRCLE('',#1278,0.006366);
#46=CIRCLE('',#1282,0.006816);
#47=CIRCLE('',#1283,0.006366);
#48=CIRCLE('',#1285,0.006816);
#49=CIRCLE('',#1286,0.006366);
#50=CIRCLE('',#1290,0.006816);
#51=CIRCLE('',#1291,0.006366);
#52=CIRCLE('',#1293,0.006816);
#53=CIRCLE('',#1294,0.006366);
#54=CYLINDRICAL_SURFACE('',#1189,0.0045);
#55=CYLINDRICAL_SURFACE('',#1208,0.006366);
#56=CYLINDRICAL_SURFACE('',#1209,0.006816);
#57=CYLINDRICAL_SURFACE('',#1216,0.006366);
#58=CYLINDRICAL_SURFACE('',#1217,0.006816);
#59=CYLINDRICAL_SURFACE('',#1238,0.001);
#60=CYLINDRICAL_SURFACE('',#1242,0.001);
#61=CYLINDRICAL_SURFACE('',#1255,0.006366);
#62=CYLINDRICAL_SURFACE('',#1256,0.006816);
#63=CYLINDRICAL_SURFACE('',#1263,0.006366);
#64=CYLINDRICAL_SURFACE('',#1264,0.006816);
#65=CYLINDRICAL_SURFACE('',#1271,0.006366);
#66=CYLINDRICAL_SURFACE('',#1272,0.006816);
#67=CYLINDRICAL_SURFACE('',#1279,0.006366);
#68=CYLINDRICAL_SURFACE('',#1280,0.006816);
#69=CYLINDRICAL_SURFACE('',#1287,0.006366);
#70=CYLINDRICAL_SURFACE('',#1288,0.006816);
#71=CYLINDRICAL_SURFACE('',#1295,0.006366);
#72=CYLINDRICAL_SURFACE('',#1296,0.006816);
#73=ORIENTED_EDGE('',*,*,#395,.F.);
#74=ORIENTED_EDGE('',*,*,#396,.T.);
#75=ORIENTED_EDGE('',*,*,#397,.T.);
#76=ORIENTED_EDGE('',*,*,#398,.F.);
#77=ORIENTED_EDGE('',*,*,#397,.F.);
#78=ORIENTED_EDGE('',*,*,#399,.F.);
#79=ORIENTED_EDGE('',*,*,#400,.T.);
#80=ORIENTED_EDGE('',*,*,#401,.T.);
#81=ORIENTED_EDGE('',*,*,#400,.F.);
#82=ORIENTED_EDGE('',*,*,#402,.F.);
#83=ORIENTED_EDGE('',*,*,#403,.T.);
#84=ORIENTED_EDGE('',*,*,#404,.T.);
#85=ORIENTED_EDGE('',*,*,#403,.F.);
#86=ORIENTED_EDGE('',*,*,#405,.T.);
#87=ORIENTED_EDGE('',*,*,#406,.T.);
#88=ORIENTED_EDGE('',*,*,#407,.F.);
#89=ORIENTED_EDGE('',*,*,#406,.F.);
#90=ORIENTED_EDGE('',*,*,#408,.T.);
#91=ORIENTED_EDGE('',*,*,#409,.T.);
#92=ORIENTED_EDGE('',*,*,#410,.F.);
#93=ORIENTED_EDGE('',*,*,#409,.F.);
#94=ORIENTED_EDGE('',*,*,#411,.F.);
#95=ORIENTED_EDGE('',*,*,#412,.T.);
#96=ORIENTED_EDGE('',*,*,#413,.T.);
#97=ORIENTED_EDGE('',*,*,#414,.T.);
#98=ORIENTED_EDGE('',*,*,#395,.T.);
#99=ORIENTED_EDGE('',*,*,#415,.F.);
#100=ORIENTED_EDGE('',*,*,#416,.F.);
#101=ORIENTED_EDGE('',*,*,#417,.F.);
#102=ORIENTED_EDGE('',*,*,#415,.T.);
#103=ORIENTED_EDGE('',*,*,#398,.T.);
#104=ORIENTED_EDGE('',*,*,#401,.F.);
#105=ORIENTED_EDGE('',*,*,#404,.F.);
#106=ORIENTED_EDGE('',*,*,#407,.T.);
#107=ORIENTED_EDGE('',*,*,#410,.T.);
#108=ORIENTED_EDGE('',*,*,#413,.F.);
#109=ORIENTED_EDGE('',*,*,#418,.T.);
#110=ORIENTED_EDGE('',*,*,#411,.T.);
#111=ORIENTED_EDGE('',*,*,#408,.F.);
#112=ORIENTED_EDGE('',*,*,#405,.F.);
#113=ORIENTED_EDGE('',*,*,#402,.T.);
#114=ORIENTED_EDGE('',*,*,#399,.T.);
#115=ORIENTED_EDGE('',*,*,#396,.F.);
#116=ORIENTED_EDGE('',*,*,#414,.F.);
#117=ORIENTED_EDGE('',*,*,#419,.F.);
#118=ORIENTED_EDGE('',*,*,#420,.F.);
#119=ORIENTED_EDGE('',*,*,#421,.T.);
#120=ORIENTED_EDGE('',*,*,#422,.T.);
#121=ORIENTED_EDGE('',*,*,#423,.F.);
#122=ORIENTED_EDGE('',*,*,#424,.F.);
#123=ORIENTED_EDGE('',*,*,#425,.T.);
#124=ORIENTED_EDGE('',*,*,#426,.T.);
#125=ORIENTED_EDGE('',*,*,#426,.F.);
#126=ORIENTED_EDGE('',*,*,#427,.T.);
#127=ORIENTED_EDGE('',*,*,#422,.F.);
#128=ORIENTED_EDGE('',*,*,#428,.T.);
#129=ORIENTED_EDGE('',*,*,#424,.T.);
#130=ORIENTED_EDGE('',*,*,#429,.F.);
#131=ORIENTED_EDGE('',*,*,#420,.T.);
#132=ORIENTED_EDGE('',*,*,#430,.F.);
#133=ORIENTED_EDGE('',*,*,#431,.F.);
#134=ORIENTED_EDGE('',*,*,#432,.F.);
#135=ORIENTED_EDGE('',*,*,#433,.T.);
#136=ORIENTED_EDGE('',*,*,#434,.T.);
#137=ORIENTED_EDGE('',*,*,#435,.F.);
#138=ORIENTED_EDGE('',*,*,#436,.T.);
#139=ORIENTED_EDGE('',*,*,#437,.T.);
#140=ORIENTED_EDGE('',*,*,#438,.F.);
#141=ORIENTED_EDGE('',*,*,#439,.F.);
#142=ORIENTED_EDGE('',*,*,#437,.F.);
#143=ORIENTED_EDGE('',*,*,#440,.T.);
#144=ORIENTED_EDGE('',*,*,#434,.F.);
#145=ORIENTED_EDGE('',*,*,#441,.T.);
#146=ORIENTED_EDGE('',*,*,#432,.T.);
#147=ORIENTED_EDGE('',*,*,#442,.F.);
#148=ORIENTED_EDGE('',*,*,#435,.T.);
#149=ORIENTED_EDGE('',*,*,#433,.F.);
#150=ORIENTED_EDGE('',*,*,#443,.F.);
#151=ORIENTED_EDGE('',*,*,#419,.T.);
#152=ORIENTED_EDGE('',*,*,#444,.T.);
#153=ORIENTED_EDGE('',*,*,#425,.F.);
#154=ORIENTED_EDGE('',*,*,#445,.F.);
#155=ORIENTED_EDGE('',*,*,#438,.T.);
#156=ORIENTED_EDGE('',*,*,#446,.T.);
#157=ORIENTED_EDGE('',*,*,#446,.F.);
#158=ORIENTED_EDGE('',*,*,#439,.T.);
#159=ORIENTED_EDGE('',*,*,#444,.F.);
#160=ORIENTED_EDGE('',*,*,#427,.F.);
#161=ORIENTED_EDGE('',*,*,#445,.T.);
#162=ORIENTED_EDGE('',*,*,#430,.T.);
#163=ORIENTED_EDGE('',*,*,#443,.T.);
#164=ORIENTED_EDGE('',*,*,#441,.F.);
#165=ORIENTED_EDGE('',*,*,#412,.F.);
#166=ORIENTED_EDGE('',*,*,#447,.F.);
#167=ORIENTED_EDGE('',*,*,#431,.T.);
#168=ORIENTED_EDGE('',*,*,#448,.T.);
#169=ORIENTED_EDGE('',*,*,#436,.F.);
#170=ORIENTED_EDGE('',*,*,#449,.F.);
#171=ORIENTED_EDGE('',*,*,#450,.T.);
#172=ORIENTED_EDGE('',*,*,#451,.T.);
#173=ORIENTED_EDGE('',*,*,#450,.F.);
#174=ORIENTED_EDGE('',*,*,#452,.T.);
#175=ORIENTED_EDGE('',*,*,#416,.T.);
#176=ORIENTED_EDGE('',*,*,#453,.F.);
#177=ORIENTED_EDGE('',*,*,#453,.T.);
#178=ORIENTED_EDGE('',*,*,#417,.T.);
#179=ORIENTED_EDGE('',*,*,#448,.F.);
#180=ORIENTED_EDGE('',*,*,#440,.F.);
#181=ORIENTED_EDGE('',*,*,#451,.F.);
#182=ORIENTED_EDGE('',*,*,#452,.F.);
#183=ORIENTED_EDGE('',*,*,#449,.T.);
#184=ORIENTED_EDGE('',*,*,#442,.T.);
#185=ORIENTED_EDGE('',*,*,#447,.T.);
#186=ORIENTED_EDGE('',*,*,#418,.F.);
#187=ORIENTED_EDGE('',*,*,#454,.F.);
#188=ORIENTED_EDGE('',*,*,#455,.F.);
#189=ORIENTED_EDGE('',*,*,#456,.T.);
#190=ORIENTED_EDGE('',*,*,#457,.T.);
#191=ORIENTED_EDGE('',*,*,#458,.F.);
#192=ORIENTED_EDGE('',*,*,#459,.T.);
#193=ORIENTED_EDGE('',*,*,#460,.T.);
#194=ORIENTED_EDGE('',*,*,#461,.F.);
#195=ORIENTED_EDGE('',*,*,#462,.F.);
#196=ORIENTED_EDGE('',*,*,#460,.F.);
#197=ORIENTED_EDGE('',*,*,#463,.T.);
#198=ORIENTED_EDGE('',*,*,#457,.F.);
#199=ORIENTED_EDGE('',*,*,#464,.T.);
#200=ORIENTED_EDGE('',*,*,#455,.T.);
#201=ORIENTED_EDGE('',*,*,#465,.F.);
#202=ORIENTED_EDGE('',*,*,#458,.T.);
#203=ORIENTED_EDGE('',*,*,#466,.F.);
#204=ORIENTED_EDGE('',*,*,#467,.F.);
#205=ORIENTED_EDGE('',*,*,#468,.T.);
#206=ORIENTED_EDGE('',*,*,#469,.T.);
#207=ORIENTED_EDGE('',*,*,#470,.F.);
#208=ORIENTED_EDGE('',*,*,#471,.T.);
#209=ORIENTED_EDGE('',*,*,#472,.T.);
#210=ORIENTED_EDGE('',*,*,#473,.F.);
#211=ORIENTED_EDGE('',*,*,#474,.F.);
#212=ORIENTED_EDGE('',*,*,#472,.F.);
#213=ORIENTED_EDGE('',*,*,#475,.T.);
#214=ORIENTED_EDGE('',*,*,#469,.F.);
#215=ORIENTED_EDGE('',*,*,#476,.T.);
#216=ORIENTED_EDGE('',*,*,#467,.T.);
#217=ORIENTED_EDGE('',*,*,#477,.F.);
#218=ORIENTED_EDGE('',*,*,#470,.T.);
#219=ORIENTED_EDGE('',*,*,#478,.F.);
#220=ORIENTED_EDGE('',*,*,#479,.F.);
#221=ORIENTED_EDGE('',*,*,#480,.T.);
#222=ORIENTED_EDGE('',*,*,#481,.T.);
#223=ORIENTED_EDGE('',*,*,#482,.F.);
#224=ORIENTED_EDGE('',*,*,#483,.T.);
#225=ORIENTED_EDGE('',*,*,#484,.T.);
#226=ORIENTED_EDGE('',*,*,#485,.F.);
#227=ORIENTED_EDGE('',*,*,#486,.F.);
#228=ORIENTED_EDGE('',*,*,#484,.F.);
#229=ORIENTED_EDGE('',*,*,#487,.T.);
#230=ORIENTED_EDGE('',*,*,#481,.F.);
#231=ORIENTED_EDGE('',*,*,#488,.T.);
#232=ORIENTED_EDGE('',*,*,#479,.T.);
#233=ORIENTED_EDGE('',*,*,#489,.F.);
#234=ORIENTED_EDGE('',*,*,#482,.T.);
#235=ORIENTED_EDGE('',*,*,#490,.F.);
#236=ORIENTED_EDGE('',*,*,#491,.F.);
#237=ORIENTED_EDGE('',*,*,#492,.T.);
#238=ORIENTED_EDGE('',*,*,#493,.T.);
#239=ORIENTED_EDGE('',*,*,#494,.F.);
#240=ORIENTED_EDGE('',*,*,#495,.T.);
#241=ORIENTED_EDGE('',*,*,#496,.T.);
#242=ORIENTED_EDGE('',*,*,#497,.F.);
#243=ORIENTED_EDGE('',*,*,#498,.F.);
#244=ORIENTED_EDGE('',*,*,#496,.F.);
#245=ORIENTED_EDGE('',*,*,#499,.T.);
#246=ORIENTED_EDGE('',*,*,#493,.F.);
#247=ORIENTED_EDGE('',*,*,#500,.T.);
#248=ORIENTED_EDGE('',*,*,#491,.T.);
#249=ORIENTED_EDGE('',*,*,#501,.F.);
#250=ORIENTED_EDGE('',*,*,#494,.T.);
#251=ORIENTED_EDGE('',*,*,#502,.F.);
#252=ORIENTED_EDGE('',*,*,#503,.F.);
#253=ORIENTED_EDGE('',*,*,#504,.T.);
#254=ORIENTED_EDGE('',*,*,#505,.T.);
#255=ORIENTED_EDGE('',*,*,#506,.F.);
#256=ORIENTED_EDGE('',*,*,#507,.T.);
#257=ORIENTED_EDGE('',*,*,#508,.T.);
#258=ORIENTED_EDGE('',*,*,#509,.F.);
#259=ORIENTED_EDGE('',*,*,#510,.F.);
#260=ORIENTED_EDGE('',*,*,#508,.F.);
#261=ORIENTED_EDGE('',*,*,#511,.T.);
#262=ORIENTED_EDGE('',*,*,#505,.F.);
#263=ORIENTED_EDGE('',*,*,#512,.T.);
#264=ORIENTED_EDGE('',*,*,#503,.T.);
#265=ORIENTED_EDGE('',*,*,#513,.F.);
#266=ORIENTED_EDGE('',*,*,#506,.T.);
#267=ORIENTED_EDGE('',*,*,#514,.F.);
#268=ORIENTED_EDGE('',*,*,#515,.F.);
#269=ORIENTED_EDGE('',*,*,#516,.T.);
#270=ORIENTED_EDGE('',*,*,#517,.T.);
#271=ORIENTED_EDGE('',*,*,#516,.F.);
#272=ORIENTED_EDGE('',*,*,#518,.F.);
#273=ORIENTED_EDGE('',*,*,#519,.T.);
#274=ORIENTED_EDGE('',*,*,#520,.T.);
#275=ORIENTED_EDGE('',*,*,#519,.F.);
#276=ORIENTED_EDGE('',*,*,#521,.F.);
#277=ORIENTED_EDGE('',*,*,#522,.T.);
#278=ORIENTED_EDGE('',*,*,#523,.T.);
#279=ORIENTED_EDGE('',*,*,#522,.F.);
#280=ORIENTED_EDGE('',*,*,#524,.F.);
#281=ORIENTED_EDGE('',*,*,#525,.T.);
#282=ORIENTED_EDGE('',*,*,#526,.T.);
#283=ORIENTED_EDGE('',*,*,#527,.F.);
#284=ORIENTED_EDGE('',*,*,#514,.T.);
#285=ORIENTED_EDGE('',*,*,#528,.T.);
#286=ORIENTED_EDGE('',*,*,#529,.F.);
#287=ORIENTED_EDGE('',*,*,#530,.F.);
#288=ORIENTED_EDGE('',*,*,#528,.F.);
#289=ORIENTED_EDGE('',*,*,#517,.F.);
#290=ORIENTED_EDGE('',*,*,#520,.F.);
#291=ORIENTED_EDGE('',*,*,#523,.F.);
#292=ORIENTED_EDGE('',*,*,#526,.F.);
#293=ORIENTED_EDGE('',*,*,#531,.T.);
#294=ORIENTED_EDGE('',*,*,#524,.T.);
#295=ORIENTED_EDGE('',*,*,#521,.T.);
#296=ORIENTED_EDGE('',*,*,#518,.T.);
#297=ORIENTED_EDGE('',*,*,#515,.T.);
#298=ORIENTED_EDGE('',*,*,#527,.T.);
#299=ORIENTED_EDGE('',*,*,#525,.F.);
#300=ORIENTED_EDGE('',*,*,#532,.F.);
#301=ORIENTED_EDGE('',*,*,#502,.T.);
#302=ORIENTED_EDGE('',*,*,#533,.T.);
#303=ORIENTED_EDGE('',*,*,#507,.F.);
#304=ORIENTED_EDGE('',*,*,#534,.F.);
#305=ORIENTED_EDGE('',*,*,#529,.T.);
#306=ORIENTED_EDGE('',*,*,#535,.T.);
#307=ORIENTED_EDGE('',*,*,#535,.F.);
#308=ORIENTED_EDGE('',*,*,#530,.T.);
#309=ORIENTED_EDGE('',*,*,#533,.F.);
#310=ORIENTED_EDGE('',*,*,#511,.F.);
#311=ORIENTED_EDGE('',*,*,#534,.T.);
#312=ORIENTED_EDGE('',*,*,#513,.T.);
#313=ORIENTED_EDGE('',*,*,#532,.T.);
#314=ORIENTED_EDGE('',*,*,#531,.F.);
#315=ORIENTED_EDGE('',*,*,#504,.F.);
#316=ORIENTED_EDGE('',*,*,#536,.F.);
#317=ORIENTED_EDGE('',*,*,#490,.T.);
#318=ORIENTED_EDGE('',*,*,#537,.T.);
#319=ORIENTED_EDGE('',*,*,#495,.F.);
#320=ORIENTED_EDGE('',*,*,#538,.F.);
#321=ORIENTED_EDGE('',*,*,#509,.T.);
#322=ORIENTED_EDGE('',*,*,#539,.T.);
#323=ORIENTED_EDGE('',*,*,#539,.F.);
#324=ORIENTED_EDGE('',*,*,#510,.T.);
#325=ORIENTED_EDGE('',*,*,#537,.F.);
#326=ORIENTED_EDGE('',*,*,#499,.F.);
#327=ORIENTED_EDGE('',*,*,#538,.T.);
#328=ORIENTED_EDGE('',*,*,#501,.T.);
#329=ORIENTED_EDGE('',*,*,#536,.T.);
#330=ORIENTED_EDGE('',*,*,#512,.F.);
#331=ORIENTED_EDGE('',*,*,#492,.F.);
#332=ORIENTED_EDGE('',*,*,#540,.F.);
#333=ORIENTED_EDGE('',*,*,#478,.T.);
#334=ORIENTED_EDGE('',*,*,#541,.T.);
#335=ORIENTED_EDGE('',*,*,#483,.F.);
#336=ORIENTED_EDGE('',*,*,#542,.F.);
#337=ORIENTED_EDGE('',*,*,#497,.T.);
#338=ORIENTED_EDGE('',*,*,#543,.T.);
#339=ORIENTED_EDGE('',*,*,#543,.F.);
#340=ORIENTED_EDGE('',*,*,#498,.T.);
#341=ORIENTED_EDGE('',*,*,#541,.F.);
#342=ORIENTED_EDGE('',*,*,#487,.F.);
#343=ORIENTED_EDGE('',*,*,#542,.T.);
#344=ORIENTED_EDGE('',*,*,#489,.T.);
#345=ORIENTED_EDGE('',*,*,#540,.T.);
#346=ORIENTED_EDGE('',*,*,#500,.F.);
#347=ORIENTED_EDGE('',*,*,#480,.F.);
#348=ORIENTED_EDGE('',*,*,#544,.F.);
#349=ORIENTED_EDGE('',*,*,#466,.T.);
#350=ORIENTED_EDGE('',*,*,#545,.T.);
#351=ORIENTED_EDGE('',*,*,#471,.F.);
#352=ORIENTED_EDGE('',*,*,#546,.F.);
#353=ORIENTED_EDGE('',*,*,#485,.T.);
#354=ORIENTED_EDGE('',*,*,#547,.T.);
#355=ORIENTED_EDGE('',*,*,#547,.F.);
#356=ORIENTED_EDGE('',*,*,#486,.T.);
#357=ORIENTED_EDGE('',*,*,#545,.F.);
#358=ORIENTED_EDGE('',*,*,#475,.F.);
#359=ORIENTED_EDGE('',*,*,#546,.T.);
#360=ORIENTED_EDGE('',*,*,#477,.T.);
#361=ORIENTED_EDGE('',*,*,#544,.T.);
#362=ORIENTED_EDGE('',*,*,#488,.F.);
#363=ORIENTED_EDGE('',*,*,#468,.F.);
#364=ORIENTED_EDGE('',*,*,#548,.F.);
#365=ORIENTED_EDGE('',*,*,#454,.T.);
#366=ORIENTED_EDGE('',*,*,#549,.T.);
#367=ORIENTED_EDGE('',*,*,#459,.F.);
#368=ORIENTED_EDGE('',*,*,#550,.F.);
#369=ORIENTED_EDGE('',*,*,#473,.T.);
#370=ORIENTED_EDGE('',*,*,#551,.T.);
#371=ORIENTED_EDGE('',*,*,#551,.F.);
#372=ORIENTED_EDGE('',*,*,#474,.T.);
#373=ORIENTED_EDGE('',*,*,#549,.F.);
#374=ORIENTED_EDGE('',*,*,#463,.F.);
#375=ORIENTED_EDGE('',*,*,#550,.T.);
#376=ORIENTED_EDGE('',*,*,#465,.T.);
#377=ORIENTED_EDGE('',*,*,#548,.T.);
#378=ORIENTED_EDGE('',*,*,#476,.F.);
#379=ORIENTED_EDGE('',*,*,#456,.F.);
#380=ORIENTED_EDGE('',*,*,#552,.F.);
#381=ORIENTED_EDGE('',*,*,#423,.T.);
#382=ORIENTED_EDGE('',*,*,#553,.T.);
#383=ORIENTED_EDGE('',*,*,#421,.F.);
#384=ORIENTED_EDGE('',*,*,#554,.F.);
#385=ORIENTED_EDGE('',*,*,#461,.T.);
#386=ORIENTED_EDGE('',*,*,#555,.T.);
#387=ORIENTED_EDGE('',*,*,#555,.F.);
#388=ORIENTED_EDGE('',*,*,#462,.T.);
#389=ORIENTED_EDGE('',*,*,#553,.F.);
#390=ORIENTED_EDGE('',*,*,#428,.F.);
#391=ORIENTED_EDGE('',*,*,#554,.T.);
#392=ORIENTED_EDGE('',*,*,#429,.T.);
#393=ORIENTED_EDGE('',*,*,#552,.T.);
#394=ORIENTED_EDGE('',*,*,#464,.F.);
#395=EDGE_CURVE('',#556,#557,#642,.T.);
#396=EDGE_CURVE('',#556,#558,#643,.T.);
#397=EDGE_CURVE('',#558,#559,#644,.T.);
#398=EDGE_CURVE('',#557,#559,#645,.F.);
#399=EDGE_CURVE('',#560,#558,#646,.T.);
#400=EDGE_CURVE('',#560,#561,#647,.T.);
#401=EDGE_CURVE('',#561,#559,#648,.T.);
#402=EDGE_CURVE('',#562,#560,#649,.T.);
#403=EDGE_CURVE('',#562,#563,#650,.T.);
#404=EDGE_CURVE('',#563,#561,#651,.T.);
#405=EDGE_CURVE('',#562,#564,#652,.T.);
#406=EDGE_CURVE('',#564,#565,#653,.T.);
#407=EDGE_CURVE('',#563,#565,#654,.T.);
#408=EDGE_CURVE('',#564,#566,#655,.T.);
#409=EDGE_CURVE('',#566,#567,#656,.T.);
#410=EDGE_CURVE('',#565,#567,#657,.T.);
#411=EDGE_CURVE('',#568,#566,#658,.T.);
#412=EDGE_CURVE('',#568,#569,#659,.T.);
#413=EDGE_CURVE('',#569,#567,#660,.F.);
#414=EDGE_CURVE('',#570,#556,#16,.T.);
#415=EDGE_CURVE('',#571,#557,#17,.T.);
#416=EDGE_CURVE('',#570,#571,#661,.T.);
#417=EDGE_CURVE('',#571,#569,#662,.T.);
#418=EDGE_CURVE('',#570,#568,#663,.T.);
#419=EDGE_CURVE('',#572,#573,#664,.T.);
#420=EDGE_CURVE('',#574,#572,#665,.T.);
#421=EDGE_CURVE('',#574,#575,#666,.T.);
#422=EDGE_CURVE('',#575,#573,#667,.F.);
#423=EDGE_CURVE('',#576,#577,#668,.T.);
#424=EDGE_CURVE('',#578,#576,#669,.T.);
#425=EDGE_CURVE('',#578,#579,#670,.T.);
#426=EDGE_CURVE('',#579,#577,#671,.T.);
#427=EDGE_CURVE('',#579,#573,#672,.T.);
#428=EDGE_CURVE('',#575,#577,#673,.F.);
#429=EDGE_CURVE('',#574,#576,#674,.T.);
#430=EDGE_CURVE('',#578,#572,#675,.T.);
#431=EDGE_CURVE('',#580,#581,#676,.T.);
#432=EDGE_CURVE('',#582,#580,#677,.T.);
#433=EDGE_CURVE('',#582,#583,#678,.T.);
#434=EDGE_CURVE('',#583,#581,#679,.F.);
#435=EDGE_CURVE('',#584,#585,#680,.T.);
#436=EDGE_CURVE('',#584,#586,#681,.T.);
#437=EDGE_CURVE('',#586,#587,#682,.T.);
#438=EDGE_CURVE('',#585,#587,#683,.T.);
#439=EDGE_CURVE('',#587,#583,#684,.T.);
#440=EDGE_CURVE('',#586,#581,#685,.T.);
#441=EDGE_CURVE('',#585,#582,#686,.T.);
#442=EDGE_CURVE('',#584,#580,#687,.T.);
#443=EDGE_CURVE('',#572,#582,#18,.T.);
#444=EDGE_CURVE('',#573,#583,#19,.F.);
#445=EDGE_CURVE('',#585,#578,#20,.T.);
#446=EDGE_CURVE('',#587,#579,#21,.T.);
#447=EDGE_CURVE('',#580,#568,#22,.T.);
#448=EDGE_CURVE('',#581,#569,#23,.F.);
#449=EDGE_CURVE('',#588,#584,#24,.T.);
#450=EDGE_CURVE('',#588,#589,#13,.T.);
#451=EDGE_CURVE('',#589,#586,#25,.T.);
#452=EDGE_CURVE('',#588,#570,#14,.T.);
#453=EDGE_CURVE('',#589,#571,#15,.T.);
#454=EDGE_CURVE('',#590,#591,#688,.T.);
#455=EDGE_CURVE('',#592,#590,#689,.T.);
#456=EDGE_CURVE('',#592,#593,#690,.T.);
#457=EDGE_CURVE('',#593,#591,#691,.T.);
#458=EDGE_CURVE('',#594,#595,#692,.T.);
#459=EDGE_CURVE('',#594,#596,#693,.T.);
#460=EDGE_CURVE('',#596,#597,#694,.F.);
#461=EDGE_CURVE('',#595,#597,#695,.T.);
#462=EDGE_CURVE('',#597,#593,#696,.F.);
#463=EDGE_CURVE('',#596,#591,#697,.F.);
#464=EDGE_CURVE('',#595,#592,#698,.T.);
#465=EDGE_CURVE('',#594,#590,#699,.T.);
#466=EDGE_CURVE('',#598,#599,#700,.T.);
#467=EDGE_CURVE('',#600,#598,#701,.T.);
#468=EDGE_CURVE('',#600,#601,#702,.T.);
#469=EDGE_CURVE('',#601,#599,#703,.T.);
#470=EDGE_CURVE('',#602,#603,#704,.T.);
#471=EDGE_CURVE('',#602,#604,#705,.T.);
#472=EDGE_CURVE('',#604,#605,#706,.F.);
#473=EDGE_CURVE('',#603,#605,#707,.T.);
#474=EDGE_CURVE('',#605,#601,#708,.F.);
#475=EDGE_CURVE('',#604,#599,#709,.F.);
#476=EDGE_CURVE('',#603,#600,#710,.T.);
#477=EDGE_CURVE('',#602,#598,#711,.T.);
#478=EDGE_CURVE('',#606,#607,#712,.T.);
#479=EDGE_CURVE('',#608,#606,#713,.T.);
#480=EDGE_CURVE('',#608,#609,#714,.T.);
#481=EDGE_CURVE('',#609,#607,#715,.T.);
#482=EDGE_CURVE('',#610,#611,#716,.T.);
#483=EDGE_CURVE('',#610,#612,#717,.T.);
#484=EDGE_CURVE('',#612,#613,#718,.F.);
#485=EDGE_CURVE('',#611,#613,#719,.T.);
#486=EDGE_CURVE('',#613,#609,#720,.F.);
#487=EDGE_CURVE('',#612,#607,#721,.F.);
#488=EDGE_CURVE('',#611,#608,#722,.T.);
#489=EDGE_CURVE('',#610,#606,#723,.T.);
#490=EDGE_CURVE('',#614,#615,#724,.T.);
#491=EDGE_CURVE('',#616,#614,#725,.T.);
#492=EDGE_CURVE('',#616,#617,#726,.T.);
#493=EDGE_CURVE('',#617,#615,#727,.T.);
#494=EDGE_CURVE('',#618,#619,#728,.T.);
#495=EDGE_CURVE('',#618,#620,#729,.T.);
#496=EDGE_CURVE('',#620,#621,#730,.F.);
#497=EDGE_CURVE('',#619,#621,#731,.T.);
#498=EDGE_CURVE('',#621,#617,#732,.F.);
#499=EDGE_CURVE('',#620,#615,#733,.F.);
#500=EDGE_CURVE('',#619,#616,#734,.T.);
#501=EDGE_CURVE('',#618,#614,#735,.T.);
#502=EDGE_CURVE('',#622,#623,#736,.T.);
#503=EDGE_CURVE('',#624,#622,#737,.T.);
#504=EDGE_CURVE('',#624,#625,#738,.T.);
#505=EDGE_CURVE('',#625,#623,#739,.T.);
#506=EDGE_CURVE('',#626,#627,#740,.T.);
#507=EDGE_CURVE('',#626,#628,#741,.T.);
#508=EDGE_CURVE('',#628,#629,#742,.F.);
#509=EDGE_CURVE('',#627,#629,#743,.T.);
#510=EDGE_CURVE('',#629,#625,#744,.F.);
#511=EDGE_CURVE('',#628,#623,#745,.F.);
#512=EDGE_CURVE('',#627,#624,#746,.T.);
#513=EDGE_CURVE('',#626,#622,#747,.T.);
#514=EDGE_CURVE('',#630,#631,#748,.T.);
#515=EDGE_CURVE('',#632,#630,#26,.T.);
#516=EDGE_CURVE('',#632,#633,#749,.T.);
#517=EDGE_CURVE('',#633,#631,#27,.T.);
#518=EDGE_CURVE('',#634,#632,#750,.T.);
#519=EDGE_CURVE('',#634,#635,#751,.T.);
#520=EDGE_CURVE('',#635,#633,#752,.T.);
#521=EDGE_CURVE('',#636,#634,#28,.T.);
#522=EDGE_CURVE('',#636,#637,#753,.T.);
#523=EDGE_CURVE('',#637,#635,#29,.T.);
#524=EDGE_CURVE('',#638,#636,#754,.T.);
#525=EDGE_CURVE('',#638,#639,#755,.T.);
#526=EDGE_CURVE('',#639,#637,#756,.T.);
#527=EDGE_CURVE('',#630,#640,#757,.T.);
#528=EDGE_CURVE('',#631,#641,#758,.F.);
#529=EDGE_CURVE('',#640,#641,#759,.T.);
#530=EDGE_CURVE('',#641,#639,#760,.F.);
#531=EDGE_CURVE('',#640,#638,#761,.T.);
#532=EDGE_CURVE('',#622,#638,#30,.T.);
#533=EDGE_CURVE('',#623,#639,#31,.F.);
#534=EDGE_CURVE('',#640,#626,#32,.T.);
#535=EDGE_CURVE('',#641,#628,#33,.T.);
#536=EDGE_CURVE('',#614,#624,#34,.T.);
#537=EDGE_CURVE('',#615,#625,#35,.F.);
#538=EDGE_CURVE('',#627,#618,#36,.T.);
#539=EDGE_CURVE('',#629,#620,#37,.T.);
#540=EDGE_CURVE('',#606,#616,#38,.T.);
#541=EDGE_CURVE('',#607,#617,#39,.F.);
#542=EDGE_CURVE('',#619,#610,#40,.T.);
#543=EDGE_CURVE('',#621,#612,#41,.T.);
#544=EDGE_CURVE('',#598,#608,#42,.T.);
#545=EDGE_CURVE('',#599,#609,#43,.F.);
#546=EDGE_CURVE('',#611,#602,#44,.T.);
#547=EDGE_CURVE('',#613,#604,#45,.T.);
#548=EDGE_CURVE('',#590,#600,#46,.T.);
#549=EDGE_CURVE('',#591,#601,#47,.F.);
#550=EDGE_CURVE('',#603,#594,#48,.T.);
#551=EDGE_CURVE('',#605,#596,#49,.T.);
#552=EDGE_CURVE('',#576,#592,#50,.T.);
#553=EDGE_CURVE('',#577,#593,#51,.F.);
#554=EDGE_CURVE('',#595,#574,#52,.T.);
#555=EDGE_CURVE('',#597,#575,#53,.T.);
#556=VERTEX_POINT('',#1650);
#557=VERTEX_POINT('',#1651);
#558=VERTEX_POINT('',#1653);
#559=VERTEX_POINT('',#1655);
#560=VERTEX_POINT('',#1659);
#561=VERTEX_POINT('',#1661);
#562=VERTEX_POINT('',#1665);
#563=VERTEX_POINT('',#1667);
#564=VERTEX_POINT('',#1671);
#565=VERTEX_POINT('',#1673);
#566=VERTEX_POINT('',#1677);
#567=VERTEX_POINT('',#1679);
#568=VERTEX_POINT('',#1683);
#569=VERTEX_POINT('',#1685);
#570=VERTEX_POINT('',#1689);
#571=VERTEX_POINT('',#1691);
#572=VERTEX_POINT('',#1699);
#573=VERTEX_POINT('',#1700);
#574=VERTEX_POINT('',#1702);
#575=VERTEX_POINT('',#1704);
#576=VERTEX_POINT('',#1708);
#577=VERTEX_POINT('',#1709);
#578=VERTEX_POINT('',#1711);
#579=VERTEX_POINT('',#1713);
#580=VERTEX_POINT('',#1723);
#581=VERTEX_POINT('',#1724);
#582=VERTEX_POINT('',#1726);
#583=VERTEX_POINT('',#1728);
#584=VERTEX_POINT('',#1732);
#585=VERTEX_POINT('',#1733);
#586=VERTEX_POINT('',#1735);
#587=VERTEX_POINT('',#1737);
#588=VERTEX_POINT('',#1758);
#589=VERTEX_POINT('',#1763);
#590=VERTEX_POINT('',#1813);
#591=VERTEX_POINT('',#1814);
#592=VERTEX_POINT('',#1816);
#593=VERTEX_POINT('',#1818);
#594=VERTEX_POINT('',#1822);
#595=VERTEX_POINT('',#1823);
#596=VERTEX_POINT('',#1825);
#597=VERTEX_POINT('',#1827);
#598=VERTEX_POINT('',#1837);
#599=VERTEX_POINT('',#1838);
#600=VERTEX_POINT('',#1840);
#601=VERTEX_POINT('',#1842);
#602=VERTEX_POINT('',#1846);
#603=VERTEX_POINT('',#1847);
#604=VERTEX_POINT('',#1849);
#605=VERTEX_POINT('',#1851);
#606=VERTEX_POINT('',#1861);
#607=VERTEX_POINT('',#1862);
#608=VERTEX_POINT('',#1864);
#609=VERTEX_POINT('',#1866);
#610=VERTEX_POINT('',#1870);
#611=VERTEX_POINT('',#1871);
#612=VERTEX_POINT('',#1873);
#613=VERTEX_POINT('',#1875);
#614=VERTEX_POINT('',#1885);
#615=VERTEX_POINT('',#1886);
#616=VERTEX_POINT('',#1888);
#617=VERTEX_POINT('',#1890);
#618=VERTEX_POINT('',#1894);
#619=VERTEX_POINT('',#1895);
#620=VERTEX_POINT('',#1897);
#621=VERTEX_POINT('',#1899);
#622=VERTEX_POINT('',#1909);
#623=VERTEX_POINT('',#1910);
#624=VERTEX_POINT('',#1912);
#625=VERTEX_POINT('',#1914);
#626=VERTEX_POINT('',#1918);
#627=VERTEX_POINT('',#1919);
#628=VERTEX_POINT('',#1921);
#629=VERTEX_POINT('',#1923);
#630=VERTEX_POINT('',#1933);
#631=VERTEX_POINT('',#1934);
#632=VERTEX_POINT('',#1936);
#633=VERTEX_POINT('',#1938);
#634=VERTEX_POINT('',#1942);
#635=VERTEX_POINT('',#1944);
#636=VERTEX_POINT('',#1948);
#637=VERTEX_POINT('',#1950);
#638=VERTEX_POINT('',#1954);
#639=VERTEX_POINT('',#1956);
#640=VERTEX_POINT('',#1960);
#641=VERTEX_POINT('',#1962);
#642=LINE('',#1649,#762);
#643=LINE('',#1652,#763);
#644=LINE('',#1654,#764);
#645=LINE('',#1656,#765);
#646=LINE('',#1658,#766);
#647=LINE('',#1660,#767);
#648=LINE('',#1662,#768);
#649=LINE('',#1664,#769);
#650=LINE('',#1666,#770);
#651=LINE('',#1668,#771);
#652=LINE('',#1670,#772);
#653=LINE('',#1672,#773);
#654=LINE('',#1674,#774);
#655=LINE('',#1676,#775);
#656=LINE('',#1678,#776);
#657=LINE('',#1680,#777);
#658=LINE('',#1682,#778);
#659=LINE('',#1684,#779);
#660=LINE('',#1686,#780);
#661=LINE('',#1692,#781);
#662=LINE('',#1694,#782);
#663=LINE('',#1696,#783);
#664=LINE('',#1698,#784);
#665=LINE('',#1701,#785);
#666=LINE('',#1703,#786);
#667=LINE('',#1705,#787);
#668=LINE('',#1707,#788);
#669=LINE('',#1710,#789);
#670=LINE('',#1712,#790);
#671=LINE('',#1714,#791);
#672=LINE('',#1716,#792);
#673=LINE('',#1717,#793);
#674=LINE('',#1719,#794);
#675=LINE('',#1720,#795);
#676=LINE('',#1722,#796);
#677=LINE('',#1725,#797);
#678=LINE('',#1727,#798);
#679=LINE('',#1729,#799);
#680=LINE('',#1731,#800);
#681=LINE('',#1734,#801);
#682=LINE('',#1736,#802);
#683=LINE('',#1738,#803);
#684=LINE('',#1740,#804);
#685=LINE('',#1741,#805);
#686=LINE('',#1743,#806);
#687=LINE('',#1744,#807);
#688=LINE('',#1812,#808);
#689=LINE('',#1815,#809);
#690=LINE('',#1817,#810);
#691=LINE('',#1819,#811);
#692=LINE('',#1821,#812);
#693=LINE('',#1824,#813);
#694=LINE('',#1826,#814);
#695=LINE('',#1828,#815);
#696=LINE('',#1830,#816);
#697=LINE('',#1831,#817);
#698=LINE('',#1833,#818);
#699=LINE('',#1834,#819);
#700=LINE('',#1836,#820);
#701=LINE('',#1839,#821);
#702=LINE('',#1841,#822);
#703=LINE('',#1843,#823);
#704=LINE('',#1845,#824);
#705=LINE('',#1848,#825);
#706=LINE('',#1850,#826);
#707=LINE('',#1852,#827);
#708=LINE('',#1854,#828);
#709=LINE('',#1855,#829);
#710=LINE('',#1857,#830);
#711=LINE('',#1858,#831);
#712=LINE('',#1860,#832);
#713=LINE('',#1863,#833);
#714=LINE('',#1865,#834);
#715=LINE('',#1867,#835);
#716=LINE('',#1869,#836);
#717=LINE('',#1872,#837);
#718=LINE('',#1874,#838);
#719=LINE('',#1876,#839);
#720=LINE('',#1878,#840);
#721=LINE('',#1879,#841);
#722=LINE('',#1881,#842);
#723=LINE('',#1882,#843);
#724=LINE('',#1884,#844);
#725=LINE('',#1887,#845);
#726=LINE('',#1889,#846);
#727=LINE('',#1891,#847);
#728=LINE('',#1893,#848);
#729=LINE('',#1896,#849);
#730=LINE('',#1898,#850);
#731=LINE('',#1900,#851);
#732=LINE('',#1902,#852);
#733=LINE('',#1903,#853);
#734=LINE('',#1905,#854);
#735=LINE('',#1906,#855);
#736=LINE('',#1908,#856);
#737=LINE('',#1911,#857);
#738=LINE('',#1913,#858);
#739=LINE('',#1915,#859);
#740=LINE('',#1917,#860);
#741=LINE('',#1920,#861);
#742=LINE('',#1922,#862);
#743=LINE('',#1924,#863);
#744=LINE('',#1926,#864);
#745=LINE('',#1927,#865);
#746=LINE('',#1929,#866);
#747=LINE('',#1930,#867);
#748=LINE('',#1932,#868);
#749=LINE('',#1937,#869);
#750=LINE('',#1941,#870);
#751=LINE('',#1943,#871);
#752=LINE('',#1945,#872);
#753=LINE('',#1949,#873);
#754=LINE('',#1953,#874);
#755=LINE('',#1955,#875);
#756=LINE('',#1957,#876);
#757=LINE('',#1959,#877);
#758=LINE('',#1961,#878);
#759=LINE('',#1963,#879);
#760=LINE('',#1965,#880);
#761=LINE('',#1967,#881);
#762=VECTOR('',#1301,1.);
#763=VECTOR('',#1302,1.);
#764=VECTOR('',#1303,1.);
#765=VECTOR('',#1304,1.);
#766=VECTOR('',#1307,1.);
#767=VECTOR('',#1308,1.);
#768=VECTOR('',#1309,1.);
#769=VECTOR('',#1312,1.);
#770=VECTOR('',#1313,1.);
#771=VECTOR('',#1314,1.);
#772=VECTOR('',#1317,1.);
#773=VECTOR('',#1318,1.);
#774=VECTOR('',#1319,1.);
#775=VECTOR('',#1322,1.);
#776=VECTOR('',#1323,1.);
#777=VECTOR('',#1324,1.);
#778=VECTOR('',#1327,1.);
#779=VECTOR('',#1328,1.);
#780=VECTOR('',#1329,1.);
#781=VECTOR('',#1336,1.);
#782=VECTOR('',#1339,1.);
#783=VECTOR('',#1342,1.);
#784=VECTOR('',#1345,1.);
#785=VECTOR('',#1346,1.);
#786=VECTOR('',#1347,1.);
#787=VECTOR('',#1348,1.);
#788=VECTOR('',#1351,1.);
#789=VECTOR('',#1352,1.);
#790=VECTOR('',#1353,1.);
#791=VECTOR('',#1354,1.);
#792=VECTOR('',#1357,1.);
#793=VECTOR('',#1358,1.);
#794=VECTOR('',#1361,1.);
#795=VECTOR('',#1362,1.);
#796=VECTOR('',#1365,1.);
#797=VECTOR('',#1366,1.);
#798=VECTOR('',#1367,1.);
#799=VECTOR('',#1368,1.);
#800=VECTOR('',#1371,1.);
#801=VECTOR('',#1372,1.);
#802=VECTOR('',#1373,1.);
#803=VECTOR('',#1374,1.);
#804=VECTOR('',#1377,1.);
#805=VECTOR('',#1378,1.);
#806=VECTOR('',#1381,1.);
#807=VECTOR('',#1382,1.);
#808=VECTOR('',#1417,1.);
#809=VECTOR('',#1418,1.);
#810=VECTOR('',#1419,1.);
#811=VECTOR('',#1420,1.);
#812=VECTOR('',#1423,1.);
#813=VECTOR('',#1424,1.);
#814=VECTOR('',#1425,1.);
#815=VECTOR('',#1426,1.);
#816=VECTOR('',#1429,1.);
#817=VECTOR('',#1430,1.);
#818=VECTOR('',#1433,1.);
#819=VECTOR('',#1434,1.);
#820=VECTOR('',#1437,1.);
#821=VECTOR('',#1438,1.);
#822=VECTOR('',#1439,1.);
#823=VECTOR('',#1440,1.);
#824=VECTOR('',#1443,1.);
#825=VECTOR('',#1444,1.);
#826=VECTOR('',#1445,1.);
#827=VECTOR('',#1446,1.);
#828=VECTOR('',#1449,1.);
#829=VECTOR('',#1450,1.);
#830=VECTOR('',#1453,1.);
#831=VECTOR('',#1454,1.);
#832=VECTOR('',#1457,1.);
#833=VECTOR('',#1458,1.);
#834=VECTOR('',#1459,1.);
#835=VECTOR('',#1460,1.);
#836=VECTOR('',#1463,1.);
#837=VECTOR('',#1464,1.);
#838=VECTOR('',#1465,1.);
#839=VECTOR('',#1466,1.);
#840=VECTOR('',#1469,1.);
#841=VECTOR('',#1470,1.);
#842=VECTOR('',#1473,1.);
#843=VECTOR('',#1474,1.);
#844=VECTOR('',#1477,1.);
#845=VECTOR('',#1478,1.);
#846=VECTOR('',#1479,1.);
#847=VECTOR('',#1480,1.);
#848=VECTOR('',#1483,1.);
#849=VECTOR('',#1484,1.);
#850=VECTOR('',#1485,1.);
#851=VECTOR('',#1486,1.);
#852=VECTOR('',#1489,1.);
#853=VECTOR('',#1490,1.);
#854=VECTOR('',#1493,1.);
#855=VECTOR('',#1494,1.);
#856=VECTOR('',#1497,1.);
#857=VECTOR('',#1498,1.);
#858=VECTOR('',#1499,1.);
#859=VECTOR('',#1500,1.);
#860=VECTOR('',#1503,1.);
#861=VECTOR('',#1504,1.);
#862=VECTOR('',#1505,1.);
#863=VECTOR('',#1506,1.);
#864=VECTOR('',#1509,1.);
#865=VECTOR('',#1510,1.);
#866=VECTOR('',#1513,1.);
#867=VECTOR('',#1514,1.);
#868=VECTOR('',#1517,1.);
#869=VECTOR('',#1520,1.);
#870=VECTOR('',#1525,1.);
#871=VECTOR('',#1526,1.);
#872=VECTOR('',#1527,1.);
#873=VECTOR('',#1532,1.);
#874=VECTOR('',#1537,1.);
#875=VECTOR('',#1538,1.);
#876=VECTOR('',#1539,1.);
#877=VECTOR('',#1542,1.);
#878=VECTOR('',#1543,1.);
#879=VECTOR('',#1544,1.);
#880=VECTOR('',#1547,1.);
#881=VECTOR('',#1550,1.);
#882=EDGE_LOOP('',(#73,#74,#75,#76));
#883=EDGE_LOOP('',(#77,#78,#79,#80));
#884=EDGE_LOOP('',(#81,#82,#83,#84));
#885=EDGE_LOOP('',(#85,#86,#87,#88));
#886=EDGE_LOOP('',(#89,#90,#91,#92));
#887=EDGE_LOOP('',(#93,#94,#95,#96));
#888=EDGE_LOOP('',(#97,#98,#99,#100));
#889=EDGE_LOOP('',(#101,#102,#103,#104,#105,#106,#107,#108));
#890=EDGE_LOOP('',(#109,#110,#111,#112,#113,#114,#115,#116));
#891=EDGE_LOOP('',(#117,#118,#119,#120));
#892=EDGE_LOOP('',(#121,#122,#123,#124));
#893=EDGE_LOOP('',(#125,#126,#127,#128));
#894=EDGE_LOOP('',(#129,#130,#131,#132));
#895=EDGE_LOOP('',(#133,#134,#135,#136));
#896=EDGE_LOOP('',(#137,#138,#139,#140));
#897=EDGE_LOOP('',(#141,#142,#143,#144));
#898=EDGE_LOOP('',(#145,#146,#147,#148));
#899=EDGE_LOOP('',(#149,#150,#151,#152));
#900=EDGE_LOOP('',(#153,#154,#155,#156));
#901=EDGE_LOOP('',(#157,#158,#159,#160));
#902=EDGE_LOOP('',(#161,#162,#163,#164));
#903=EDGE_LOOP('',(#165,#166,#167,#168));
#904=EDGE_LOOP('',(#169,#170,#171,#172));
#905=EDGE_LOOP('',(#173,#174,#175,#176));
#906=EDGE_LOOP('',(#177,#178,#179,#180,#181));
#907=EDGE_LOOP('',(#182,#183,#184,#185,#186));
#908=EDGE_LOOP('',(#187,#188,#189,#190));
#909=EDGE_LOOP('',(#191,#192,#193,#194));
#910=EDGE_LOOP('',(#195,#196,#197,#198));
#911=EDGE_LOOP('',(#199,#200,#201,#202));
#912=EDGE_LOOP('',(#203,#204,#205,#206));
#913=EDGE_LOOP('',(#207,#208,#209,#210));
#914=EDGE_LOOP('',(#211,#212,#213,#214));
#915=EDGE_LOOP('',(#215,#216,#217,#218));
#916=EDGE_LOOP('',(#219,#220,#221,#222));
#917=EDGE_LOOP('',(#223,#224,#225,#226));
#918=EDGE_LOOP('',(#227,#228,#229,#230));
#919=EDGE_LOOP('',(#231,#232,#233,#234));
#920=EDGE_LOOP('',(#235,#236,#237,#238));
#921=EDGE_LOOP('',(#239,#240,#241,#242));
#922=EDGE_LOOP('',(#243,#244,#245,#246));
#923=EDGE_LOOP('',(#247,#248,#249,#250));
#924=EDGE_LOOP('',(#251,#252,#253,#254));
#925=EDGE_LOOP('',(#255,#256,#257,#258));
#926=EDGE_LOOP('',(#259,#260,#261,#262));
#927=EDGE_LOOP('',(#263,#264,#265,#266));
#928=EDGE_LOOP('',(#267,#268,#269,#270));
#929=EDGE_LOOP('',(#271,#272,#273,#274));
#930=EDGE_LOOP('',(#275,#276,#277,#278));
#931=EDGE_LOOP('',(#279,#280,#281,#282));
#932=EDGE_LOOP('',(#283,#284,#285,#286));
#933=EDGE_LOOP('',(#287,#288,#289,#290,#291,#292));
#934=EDGE_LOOP('',(#293,#294,#295,#296,#297,#298));
#935=EDGE_LOOP('',(#299,#300,#301,#302));
#936=EDGE_LOOP('',(#303,#304,#305,#306));
#937=EDGE_LOOP('',(#307,#308,#309,#310));
#938=EDGE_LOOP('',(#311,#312,#313,#314));
#939=EDGE_LOOP('',(#315,#316,#317,#318));
#940=EDGE_LOOP('',(#319,#320,#321,#322));
#941=EDGE_LOOP('',(#323,#324,#325,#326));
#942=EDGE_LOOP('',(#327,#328,#329,#330));
#943=EDGE_LOOP('',(#331,#332,#333,#334));
#944=EDGE_LOOP('',(#335,#336,#337,#338));
#945=EDGE_LOOP('',(#339,#340,#341,#342));
#946=EDGE_LOOP('',(#343,#344,#345,#346));
#947=EDGE_LOOP('',(#347,#348,#349,#350));
#948=EDGE_LOOP('',(#351,#352,#353,#354));
#949=EDGE_LOOP('',(#355,#356,#357,#358));
#950=EDGE_LOOP('',(#359,#360,#361,#362));
#951=EDGE_LOOP('',(#363,#364,#365,#366));
#952=EDGE_LOOP('',(#367,#368,#369,#370));
#953=EDGE_LOOP('',(#371,#372,#373,#374));
#954=EDGE_LOOP('',(#375,#376,#377,#378));
#955=EDGE_LOOP('',(#379,#380,#381,#382));
#956=EDGE_LOOP('',(#383,#384,#385,#386));
#957=EDGE_LOOP('',(#387,#388,#389,#390));
#958=EDGE_LOOP('',(#391,#392,#393,#394));
#959=FACE_BOUND('',#882,.T.);
#960=FACE_BOUND('',#883,.T.);
#961=FACE_BOUND('',#884,.T.);
#962=FACE_BOUND('',#885,.T.);
#963=FACE_BOUND('',#886,.T.);
#964=FACE_BOUND('',#887,.T.);
#965=FACE_BOUND('',#888,.T.);
#966=FACE_BOUND('',#889,.T.);
#967=FACE_BOUND('',#890,.T.);
#968=FACE_BOUND('',#891,.T.);
#969=FACE_BOUND('',#892,.T.);
#970=FACE_BOUND('',#893,.T.);
#971=FACE_BOUND('',#894,.T.);
#972=FACE_BOUND('',#895,.T.);
#973=FACE_BOUND('',#896,.T.);
#974=FACE_BOUND('',#897,.T.);
#975=FACE_BOUND('',#898,.T.);
#976=FACE_BOUND('',#899,.T.);
#977=FACE_BOUND('',#900,.T.);
#978=FACE_BOUND('',#901,.T.);
#979=FACE_BOUND('',#902,.T.);
#980=FACE_BOUND('',#903,.T.);
#981=FACE_BOUND('',#904,.T.);
#982=FACE_BOUND('',#905,.T.);
#983=FACE_BOUND('',#906,.T.);
#984=FACE_BOUND('',#907,.T.);
#985=FACE_BOUND('',#908,.T.);
#986=FACE_BOUND('',#909,.T.);
#987=FACE_BOUND('',#910,.T.);
#988=FACE_BOUND('',#911,.T.);
#989=FACE_BOUND('',#912,.T.);
#990=FACE_BOUND('',#913,.T.);
#991=FACE_BOUND('',#914,.T.);
#992=FACE_BOUND('',#915,.T.);
#993=FACE_BOUND('',#916,.T.);
#994=FACE_BOUND('',#917,.T.);
#995=FACE_BOUND('',#918,.T.);
#996=FACE_BOUND('',#919,.T.);
#997=FACE_BOUND('',#920,.T.);
#998=FACE_BOUND('',#921,.T.);
#999=FACE_BOUND('',#922,.T.);
#1000=FACE_BOUND('',#923,.T.);
#1001=FACE_BOUND('',#924,.T.);
#1002=FACE_BOUND('',#925,.T.);
#1003=FACE_BOUND('',#926,.T.);
#1004=FACE_BOUND('',#927,.T.);
#1005=FACE_BOUND('',#928,.T.);
#1006=FACE_BOUND('',#929,.T.);
#1007=FACE_BOUND('',#930,.T.);
#1008=FACE_BOUND('',#931,.T.);
#1009=FACE_BOUND('',#932,.T.);
#1010=FACE_BOUND('',#933,.T.);
#1011=FACE_BOUND('',#934,.T.);
#1012=FACE_BOUND('',#935,.T.);
#1013=FACE_BOUND('',#936,.T.);
#1014=FACE_BOUND('',#937,.T.);
#1015=FACE_BOUND('',#938,.T.);
#1016=FACE_BOUND('',#939,.T.);
#1017=FACE_BOUND('',#940,.T.);
#1018=FACE_BOUND('',#941,.T.);
#1019=FACE_BOUND('',#942,.T.);
#1020=FACE_BOUND('',#943,.T.);
#1021=FACE_BOUND('',#944,.T.);
#1022=FACE_BOUND('',#945,.T.);
#1023=FACE_BOUND('',#946,.T.);
#1024=FACE_BOUND('',#947,.T.);
#1025=FACE_BOUND('',#948,.T.);
#1026=FACE_BOUND('',#949,.T.);
#1027=FACE_BOUND('',#950,.T.);
#1028=FACE_BOUND('',#951,.T.);
#1029=FACE_BOUND('',#952,.T.);
#1030=FACE_BOUND('',#953,.T.);
#1031=FACE_BOUND('',#954,.T.);
#1032=FACE_BOUND('',#955,.T.);
#1033=FACE_BOUND('',#956,.T.);
#1034=FACE_BOUND('',#957,.T.);
#1035=FACE_BOUND('',#958,.T.);
#1036=PLANE('',#1183);
#1037=PLANE('',#1184);
#1038=PLANE('',#1185);
#1039=PLANE('',#1186);
#1040=PLANE('',#1187);
#1041=PLANE('',#1188);
#1042=PLANE('',#1192);
#1043=PLANE('',#1193);
#1044=PLANE('',#1194);
#1045=PLANE('',#1195);
#1046=PLANE('',#1196);
#1047=PLANE('',#1197);
#1048=PLANE('',#1198);
#1049=PLANE('',#1199);
#1050=PLANE('',#1200);
#1051=PLANE('',#1201);
#1052=PLANE('',#1202);
#1053=PLANE('',#1205);
#1054=PLANE('',#1210);
#1055=PLANE('',#1213);
#1056=PLANE('',#1218);
#1057=PLANE('',#1219);
#1058=PLANE('',#1220);
#1059=PLANE('',#1221);
#1060=PLANE('',#1222);
#1061=PLANE('',#1223);
#1062=PLANE('',#1224);
#1063=PLANE('',#1225);
#1064=PLANE('',#1226);
#1065=PLANE('',#1227);
#1066=PLANE('',#1228);
#1067=PLANE('',#1229);
#1068=PLANE('',#1230);
#1069=PLANE('',#1231);
#1070=PLANE('',#1232);
#1071=PLANE('',#1233);
#1072=PLANE('',#1234);
#1073=PLANE('',#1235);
#1074=PLANE('',#1236);
#1075=PLANE('',#1237);
#1076=PLANE('',#1241);
#1077=PLANE('',#1245);
#1078=PLANE('',#1246);
#1079=PLANE('',#1247);
#1080=PLANE('',#1248);
#1081=PLANE('',#1249);
#1082=PLANE('',#1252);
#1083=PLANE('',#1257);
#1084=PLANE('',#1260);
#1085=PLANE('',#1265);
#1086=PLANE('',#1268);
#1087=PLANE('',#1273);
#1088=PLANE('',#1276);
#1089=PLANE('',#1281);
#1090=PLANE('',#1284);
#1091=PLANE('',#1289);
#1092=PLANE('',#1292);
#1093=ADVANCED_FACE('',(#959),#1036,.F.);
#1094=ADVANCED_FACE('',(#960),#1037,.T.);
#1095=ADVANCED_FACE('',(#961),#1038,.T.);
#1096=ADVANCED_FACE('',(#962),#1039,.F.);
#1097=ADVANCED_FACE('',(#963),#1040,.F.);
#1098=ADVANCED_FACE('',(#964),#1041,.T.);
#1099=ADVANCED_FACE('',(#965),#54,.F.);
#1100=ADVANCED_FACE('',(#966),#1042,.F.);
#1101=ADVANCED_FACE('',(#967),#1043,.T.);
#1102=ADVANCED_FACE('',(#968),#1044,.T.);
#1103=ADVANCED_FACE('',(#969),#1045,.T.);
#1104=ADVANCED_FACE('',(#970),#1046,.F.);
#1105=ADVANCED_FACE('',(#971),#1047,.T.);
#1106=ADVANCED_FACE('',(#972),#1048,.T.);
#1107=ADVANCED_FACE('',(#973),#1049,.T.);
#1108=ADVANCED_FACE('',(#974),#1050,.F.);
#1109=ADVANCED_FACE('',(#975),#1051,.T.);
#1110=ADVANCED_FACE('',(#976),#1052,.T.);
#1111=ADVANCED_FACE('',(#977),#1053,.T.);
#1112=ADVANCED_FACE('',(#978),#55,.F.);
#1113=ADVANCED_FACE('',(#979),#56,.T.);
#1114=ADVANCED_FACE('',(#980),#1054,.T.);
#1115=ADVANCED_FACE('',(#981),#1055,.T.);
#1116=ADVANCED_FACE('',(#982),#12,.F.);
#1117=ADVANCED_FACE('',(#983),#57,.F.);
#1118=ADVANCED_FACE('',(#984),#58,.T.);
#1119=ADVANCED_FACE('',(#985),#1056,.T.);
#1120=ADVANCED_FACE('',(#986),#1057,.T.);
#1121=ADVANCED_FACE('',(#987),#1058,.F.);
#1122=ADVANCED_FACE('',(#988),#1059,.T.);
#1123=ADVANCED_FACE('',(#989),#1060,.T.);
#1124=ADVANCED_FACE('',(#990),#1061,.T.);
#1125=ADVANCED_FACE('',(#991),#1062,.F.);
#1126=ADVANCED_FACE('',(#992),#1063,.T.);
#1127=ADVANCED_FACE('',(#993),#1064,.T.);
#1128=ADVANCED_FACE('',(#994),#1065,.T.);
#1129=ADVANCED_FACE('',(#995),#1066,.F.);
#1130=ADVANCED_FACE('',(#996),#1067,.T.);
#1131=ADVANCED_FACE('',(#997),#1068,.T.);
#1132=ADVANCED_FACE('',(#998),#1069,.T.);
#1133=ADVANCED_FACE('',(#999),#1070,.F.);
#1134=ADVANCED_FACE('',(#1000),#1071,.T.);
#1135=ADVANCED_FACE('',(#1001),#1072,.T.);
#1136=ADVANCED_FACE('',(#1002),#1073,.T.);
#1137=ADVANCED_FACE('',(#1003),#1074,.F.);
#1138=ADVANCED_FACE('',(#1004),#1075,.T.);
#1139=ADVANCED_FACE('',(#1005),#59,.T.);
#1140=ADVANCED_FACE('',(#1006),#1076,.T.);
#1141=ADVANCED_FACE('',(#1007),#60,.T.);
#1142=ADVANCED_FACE('',(#1008),#1077,.T.);
#1143=ADVANCED_FACE('',(#1009),#1078,.T.);
#1144=ADVANCED_FACE('',(#1010),#1079,.F.);
#1145=ADVANCED_FACE('',(#1011),#1080,.T.);
#1146=ADVANCED_FACE('',(#1012),#1081,.T.);
#1147=ADVANCED_FACE('',(#1013),#1082,.T.);
#1148=ADVANCED_FACE('',(#1014),#61,.F.);
#1149=ADVANCED_FACE('',(#1015),#62,.T.);
#1150=ADVANCED_FACE('',(#1016),#1083,.T.);
#1151=ADVANCED_FACE('',(#1017),#1084,.T.);
#1152=ADVANCED_FACE('',(#1018),#63,.F.);
#1153=ADVANCED_FACE('',(#1019),#64,.T.);
#1154=ADVANCED_FACE('',(#1020),#1085,.T.);
#1155=ADVANCED_FACE('',(#1021),#1086,.T.);
#1156=ADVANCED_FACE('',(#1022),#65,.F.);
#1157=ADVANCED_FACE('',(#1023),#66,.T.);
#1158=ADVANCED_FACE('',(#1024),#1087,.T.);
#1159=ADVANCED_FACE('',(#1025),#1088,.T.);
#1160=ADVANCED_FACE('',(#1026),#67,.F.);
#1161=ADVANCED_FACE('',(#1027),#68,.T.);
#1162=ADVANCED_FACE('',(#1028),#1089,.T.);
#1163=ADVANCED_FACE('',(#1029),#1090,.T.);
#1164=ADVANCED_FACE('',(#1030),#69,.F.);
#1165=ADVANCED_FACE('',(#1031),#70,.T.);
#1166=ADVANCED_FACE('',(#1032),#1091,.T.);
#1167=ADVANCED_FACE('',(#1033),#1092,.T.);
#1168=ADVANCED_FACE('',(#1034),#71,.F.);
#1169=ADVANCED_FACE('',(#1035),#72,.T.);
#1170=CLOSED_SHELL('',(#1093,#1094,#1095,#1096,#1097,#1098,#1099,#1100,
#1101,#1102,#1103,#1104,#1105,#1106,#1107,#1108,#1109,#1110,#1111,#1112,
#1113,#1114,#1115,#1116,#1117,#1118,#1119,#1120,#1121,#1122,#1123,#1124,
#1125,#1126,#1127,#1128,#1129,#1130,#1131,#1132,#1133,#1134,#1135,#1136,
#1137,#1138,#1139,#1140,#1141,#1142,#1143,#1144,#1145,#1146,#1147,#1148,
#1149,#1150,#1151,#1152,#1153,#1154,#1155,#1156,#1157,#1158,#1159,#1160,
#1161,#1162,#1163,#1164,#1165,#1166,#1167,#1168,#1169));
#1171=STYLED_ITEM('',(#1172),#1179);
#1172=PRESENTATION_STYLE_ASSIGNMENT((#1173));
#1173=SURFACE_STYLE_USAGE(.BOTH.,#1174);
#1174=SURFACE_SIDE_STYLE('',(#1175));
#1175=SURFACE_STYLE_FILL_AREA(#1176);
#1176=FILL_AREA_STYLE('',(#1177));
#1177=FILL_AREA_STYLE_COLOUR('',#1178);
#1178=COLOUR_RGB('',0.96078431372549,0.835294117647059,0.470588235294118);
#1179=MANIFOLD_SOLID_BREP('Flex_PCB_Bent',#1170);
#1180=SHAPE_DEFINITION_REPRESENTATION(#2022,#1181);
#1181=SHAPE_REPRESENTATION('Flex_PCB_Bent',(#1182),#2017);
#1182=AXIS2_PLACEMENT_3D('',#1647,#1297,#1298);
#1183=AXIS2_PLACEMENT_3D('',#1648,#1299,#1300);
#1184=AXIS2_PLACEMENT_3D('',#1657,#1305,#1306);
#1185=AXIS2_PLACEMENT_3D('',#1663,#1310,#1311);
#1186=AXIS2_PLACEMENT_3D('',#1669,#1315,#1316);
#1187=AXIS2_PLACEMENT_3D('',#1675,#1320,#1321);
#1188=AXIS2_PLACEMENT_3D('',#1681,#1325,#1326);
#1189=AXIS2_PLACEMENT_3D('',#1687,#1330,#1331);
#1190=AXIS2_PLACEMENT_3D('',#1688,#1332,#1333);
#1191=AXIS2_PLACEMENT_3D('',#1690,#1334,#1335);
#1192=AXIS2_PLACEMENT_3D('',#1693,#1337,#1338);
#1193=AXIS2_PLACEMENT_3D('',#1695,#1340,#1341);
#1194=AXIS2_PLACEMENT_3D('',#1697,#1343,#1344);
#1195=AXIS2_PLACEMENT_3D('',#1706,#1349,#1350);
#1196=AXIS2_PLACEMENT_3D('',#1715,#1355,#1356);
#1197=AXIS2_PLACEMENT_3D('',#1718,#1359,#1360);
#1198=AXIS2_PLACEMENT_3D('',#1721,#1363,#1364);
#1199=AXIS2_PLACEMENT_3D('',#1730,#1369,#1370);
#1200=AXIS2_PLACEMENT_3D('',#1739,#1375,#1376);
#1201=AXIS2_PLACEMENT_3D('',#1742,#1379,#1380);
#1202=AXIS2_PLACEMENT_3D('',#1745,#1383,#1384);
#1203=AXIS2_PLACEMENT_3D('',#1746,#1385,#1386);
#1204=AXIS2_PLACEMENT_3D('',#1747,#1387,#1388);
#1205=AXIS2_PLACEMENT_3D('',#1748,#1389,#1390);
#1206=AXIS2_PLACEMENT_3D('',#1749,#1391,#1392);
#1207=AXIS2_PLACEMENT_3D('',#1750,#1393,#1394);
#1208=AXIS2_PLACEMENT_3D('',#1751,#1395,#1396);
#1209=AXIS2_PLACEMENT_3D('',#1752,#1397,#1398);
#1210=AXIS2_PLACEMENT_3D('',#1753,#1399,#1400);
#1211=AXIS2_PLACEMENT_3D('',#1754,#1401,#1402);
#1212=AXIS2_PLACEMENT_3D('',#1755,#1403,#1404);
#1213=AXIS2_PLACEMENT_3D('',#1756,#1405,#1406);
#1214=AXIS2_PLACEMENT_3D('',#1757,#1407,#1408);
#1215=AXIS2_PLACEMENT_3D('',#1764,#1409,#1410);
#1216=AXIS2_PLACEMENT_3D('',#1809,#1411,#1412);
#1217=AXIS2_PLACEMENT_3D('',#1810,#1413,#1414);
#1218=AXIS2_PLACEMENT_3D('',#1811,#1415,#1416);
#1219=AXIS2_PLACEMENT_3D('',#1820,#1421,#1422);
#1220=AXIS2_PLACEMENT_3D('',#1829,#1427,#1428);
#1221=AXIS2_PLACEMENT_3D('',#1832,#1431,#1432);
#1222=AXIS2_PLACEMENT_3D('',#1835,#1435,#1436);
#1223=AXIS2_PLACEMENT_3D('',#1844,#1441,#1442);
#1224=AXIS2_PLACEMENT_3D('',#1853,#1447,#1448);
#1225=AXIS2_PLACEMENT_3D('',#1856,#1451,#1452);
#1226=AXIS2_PLACEMENT_3D('',#1859,#1455,#1456);
#1227=AXIS2_PLACEMENT_3D('',#1868,#1461,#1462);
#1228=AXIS2_PLACEMENT_3D('',#1877,#1467,#1468);
#1229=AXIS2_PLACEMENT_3D('',#1880,#1471,#1472);
#1230=AXIS2_PLACEMENT_3D('',#1883,#1475,#1476);
#1231=AXIS2_PLACEMENT_3D('',#1892,#1481,#1482);
#1232=AXIS2_PLACEMENT_3D('',#1901,#1487,#1488);
#1233=AXIS2_PLACEMENT_3D('',#1904,#1491,#1492);
#1234=AXIS2_PLACEMENT_3D('',#1907,#1495,#1496);
#1235=AXIS2_PLACEMENT_3D('',#1916,#1501,#1502);
#1236=AXIS2_PLACEMENT_3D('',#1925,#1507,#1508);
#1237=AXIS2_PLACEMENT_3D('',#1928,#1511,#1512);
#1238=AXIS2_PLACEMENT_3D('',#1931,#1515,#1516);
#1239=AXIS2_PLACEMENT_3D('',#1935,#1518,#1519);
#1240=AXIS2_PLACEMENT_3D('',#1939,#1521,#1522);
#1241=AXIS2_PLACEMENT_3D('',#1940,#1523,#1524);
#1242=AXIS2_PLACEMENT_3D('',#1946,#1528,#1529);
#1243=AXIS2_PLACEMENT_3D('',#1947,#1530,#1531);
#1244=AXIS2_PLACEMENT_3D('',#1951,#1533,#1534);
#1245=AXIS2_PLACEMENT_3D('',#1952,#1535,#1536);
#1246=AXIS2_PLACEMENT_3D('',#1958,#1540,#1541);
#1247=AXIS2_PLACEMENT_3D('',#1964,#1545,#1546);
#1248=AXIS2_PLACEMENT_3D('',#1966,#1548,#1549);
#1249=AXIS2_PLACEMENT_3D('',#1968,#1551,#1552);
#1250=AXIS2_PLACEMENT_3D('',#1969,#1553,#1554);
#1251=AXIS2_PLACEMENT_3D('',#1970,#1555,#1556);
#1252=AXIS2_PLACEMENT_3D('',#1971,#1557,#1558);
#1253=AXIS2_PLACEMENT_3D('',#1972,#1559,#1560);
#1254=AXIS2_PLACEMENT_3D('',#1973,#1561,#1562);
#1255=AXIS2_PLACEMENT_3D('',#1974,#1563,#1564);
#1256=AXIS2_PLACEMENT_3D('',#1975,#1565,#1566);
#1257=AXIS2_PLACEMENT_3D('',#1976,#1567,#1568);
#1258=AXIS2_PLACEMENT_3D('',#1977,#1569,#1570);
#1259=AXIS2_PLACEMENT_3D('',#1978,#1571,#1572);
#1260=AXIS2_PLACEMENT_3D('',#1979,#1573,#1574);
#1261=AXIS2_PLACEMENT_3D('',#1980,#1575,#1576);
#1262=AXIS2_PLACEMENT_3D('',#1981,#1577,#1578);
#1263=AXIS2_PLACEMENT_3D('',#1982,#1579,#1580);
#1264=AXIS2_PLACEMENT_3D('',#1983,#1581,#1582);
#1265=AXIS2_PLACEMENT_3D('',#1984,#1583,#1584);
#1266=AXIS2_PLACEMENT_3D('',#1985,#1585,#1586);
#1267=AXIS2_PLACEMENT_3D('',#1986,#1587,#1588);
#1268=AXIS2_PLACEMENT_3D('',#1987,#1589,#1590);
#1269=AXIS2_PLACEMENT_3D('',#1988,#1591,#1592);
#1270=AXIS2_PLACEMENT_3D('',#1989,#1593,#1594);
#1271=AXIS2_PLACEMENT_3D('',#1990,#1595,#1596);
#1272=AXIS2_PLACEMENT_3D('',#1991,#1597,#1598);
#1273=AXIS2_PLACEMENT_3D('',#1992,#1599,#1600);
#1274=AXIS2_PLACEMENT_3D('',#1993,#1601,#1602);
#1275=AXIS2_PLACEMENT_3D('',#1994,#1603,#1604);
#1276=AXIS2_PLACEMENT_3D('',#1995,#1605,#1606);
#1277=AXIS2_PLACEMENT_3D('',#1996,#1607,#1608);
#1278=AXIS2_PLACEMENT_3D('',#1997,#1609,#1610);
#1279=AXIS2_PLACEMENT_3D('',#1998,#1611,#1612);
#1280=AXIS2_PLACEMENT_3D('',#1999,#1613,#1614);
#1281=AXIS2_PLACEMENT_3D('',#2000,#1615,#1616);
#1282=AXIS2_PLACEMENT_3D('',#2001,#1617,#1618);
#1283=AXIS2_PLACEMENT_3D('',#2002,#1619,#1620);
#1284=AXIS2_PLACEMENT_3D('',#2003,#1621,#1622);
#1285=AXIS2_PLACEMENT_3D('',#2004,#1623,#1624);
#1286=AXIS2_PLACEMENT_3D('',#2005,#1625,#1626);
#1287=AXIS2_PLACEMENT_3D('',#2006,#1627,#1628);
#1288=AXIS2_PLACEMENT_3D('',#2007,#1629,#1630);
#1289=AXIS2_PLACEMENT_3D('',#2008,#1631,#1632);
#1290=AXIS2_PLACEMENT_3D('',#2009,#1633,#1634);
#1291=AXIS2_PLACEMENT_3D('',#2010,#1635,#1636);
#1292=AXIS2_PLACEMENT_3D('',#2011,#1637,#1638);
#1293=AXIS2_PLACEMENT_3D('',#2012,#1639,#1640);
#1294=AXIS2_PLACEMENT_3D('',#2013,#1641,#1642);
#1295=AXIS2_PLACEMENT_3D('',#2014,#1643,#1644);
#1296=AXIS2_PLACEMENT_3D('',#2015,#1645,#1646);
#1297=DIRECTION('',(0.,0.,1.));
#1298=DIRECTION('',(1.,0.,0.));
#1299=DIRECTION('',(0.707106781186548,0.,-0.707106781186548));
#1300=DIRECTION('',(0.,-1.,0.));
#1301=DIRECTION('',(0.707106781186548,0.,0.707106781186548));
#1302=DIRECTION('',(0.,-1.,0.));
#1303=DIRECTION('',(0.707106781186548,0.,0.707106781186548));
#1304=DIRECTION('',(0.,1.,0.));
#1305=DIRECTION('',(-0.5,-0.707106781186548,0.5));
#1306=DIRECTION('',(-0.5,0.707106781186548,0.5));
#1307=DIRECTION('',(-0.5,0.707106781186548,0.5));
#1308=DIRECTION('',(0.707106781186548,0.,0.707106781186548));
#1309=DIRECTION('',(-0.5,0.707106781186548,0.5));
#1310=DIRECTION('',(0.,-1.,0.));
#1311=DIRECTION('',(-0.707106781186548,0.,0.707106781186548));
#1312=DIRECTION('',(-0.707106781186548,0.,0.707106781186548));
#1313=DIRECTION('',(0.707106781186548,0.,0.707106781186548));
#1314=DIRECTION('',(-0.707106781186548,0.,0.707106781186548));
#1315=DIRECTION('',(-0.500000000000006,0.707106781186539,0.500000000000006));
#1316=DIRECTION('',(0.499999999999994,0.707106781186556,-0.499999999999994));
#1317=DIRECTION('',(0.499999999999994,0.707106781186556,-0.499999999999994));
#1318=DIRECTION('',(0.707106781186548,0.,0.707106781186548));
#1319=DIRECTION('',(0.499999999999994,0.707106781186556,-0.499999999999994));
#1320=DIRECTION('',(-0.707106781186548,0.,0.707106781186548));
#1321=DIRECTION('',(0.,1.,0.));
#1322=DIRECTION('',(0.,1.,0.));
#1323=DIRECTION('',(0.707106781186548,0.,0.707106781186548));
#1324=DIRECTION('',(0.,1.,0.));
#1325=DIRECTION('',(0.,1.,0.));
#1326=DIRECTION('',(0.707106781186548,0.,-0.707106781186548));
#1327=DIRECTION('',(0.707106781186548,0.,-0.707106781186548));
#1328=DIRECTION('',(0.707106781186548,0.,0.707106781186548));
#1329=DIRECTION('',(-0.707106781186548,0.,0.707106781186548));
#1330=DIRECTION('',(-0.707106781186548,0.,-0.707106781186548));
#1331=DIRECTION('',(-0.707106781186548,0.,0.707106781186548));
#1332=DIRECTION('',(-0.707106781186548,0.,-0.707106781186548));
#1333=DIRECTION('',(-0.707106781186548,0.,0.707106781186548));
#1334=DIRECTION('',(-0.707106781186548,0.,-0.707106781186548));
#1335=DIRECTION('',(-0.707106781186548,0.,0.707106781186548));
#1336=DIRECTION('',(0.707106781186548,0.,0.707106781186548));
#1337=DIRECTION('',(-0.707106781186548,0.,-0.707106781186548));
#1338=DIRECTION('',(-0.707106781186548,0.,0.707106781186548));
#1339=DIRECTION('',(0.,1.,0.));
#1340=DIRECTION('',(-0.707106781186548,0.,-0.707106781186548));
#1341=DIRECTION('',(-0.707106781186548,0.,0.707106781186548));
#1342=DIRECTION('',(4.32978028117746E-17,1.,-4.32978028117747E-17));
#1343=DIRECTION('',(0.,1.,0.));
#1344=DIRECTION('',(-1.,0.,0.));
#1345=DIRECTION('',(0.,0.,-1.));
#1346=DIRECTION('',(-1.,0.,0.));
#1347=DIRECTION('',(0.,0.,-1.));
#1348=DIRECTION('',(1.,0.,0.));
#1349=DIRECTION('',(0.,-1.,0.));
#1350=DIRECTION('',(1.,0.,0.));
#1351=DIRECTION('',(0.,0.,-1.));
#1352=DIRECTION('',(1.,0.,0.));
#1353=DIRECTION('',(0.,0.,-1.));
#1354=DIRECTION('',(1.,0.,0.));
#1355=DIRECTION('',(0.,0.,1.));
#1356=DIRECTION('',(1.,0.,0.));
#1357=DIRECTION('',(0.,1.,0.));
#1358=DIRECTION('',(0.,1.,0.));
#1359=DIRECTION('',(0.,0.,1.));
#1360=DIRECTION('',(1.,0.,0.));
#1361=DIRECTION('',(6.12323399573677E-17,-1.,0.));
#1362=DIRECTION('',(-6.12323399573677E-17,1.,0.));
#1363=DIRECTION('',(0.,1.,0.));
#1364=DIRECTION('',(-0.707106781186548,0.,-0.707106781186548));
#1365=DIRECTION('',(0.707106781186548,0.,-0.707106781186548));
#1366=DIRECTION('',(-0.707106781186548,0.,-0.707106781186548));
#1367=DIRECTION('',(0.707106781186548,0.,-0.707106781186548));
#1368=DIRECTION('',(0.707106781186548,0.,0.707106781186548));
#1369=DIRECTION('',(0.,-1.,0.));
#1370=DIRECTION('',(0.707106781186548,0.,0.707106781186548));
#1371=DIRECTION('',(0.707106781186548,0.,0.707106781186548));
#1372=DIRECTION('',(0.707106781186548,0.,-0.707106781186548));
#1373=DIRECTION('',(0.707106781186548,0.,0.707106781186548));
#1374=DIRECTION('',(0.707106781186548,0.,-0.707106781186548));
#1375=DIRECTION('',(-0.707106781186548,0.,0.707106781186548));
#1376=DIRECTION('',(0.707106781186548,0.,0.707106781186548));
#1377=DIRECTION('',(0.,1.,0.));
#1378=DIRECTION('',(0.,1.,0.));
#1379=DIRECTION('',(-0.707106781186548,0.,0.707106781186548));
#1380=DIRECTION('',(0.707106781186548,0.,0.707106781186548));
#1381=DIRECTION('',(-4.32978028117747E-17,1.,-4.32978028117746E-17));
#1382=DIRECTION('',(-4.32978028117747E-17,1.,-4.32978028117746E-17));
#1383=DIRECTION('',(-3.78786290533045E-15,1.,9.14470999845874E-15));
#1384=DIRECTION('',(0.,-9.14470999845874E-15,1.));
#1385=DIRECTION('',(3.78786290533045E-15,-1.,-9.14470999845874E-15));
#1386=DIRECTION('',(1.01803020890658E-15,-9.16227188015919E-15,1.));
#1387=DIRECTION('',(0.,1.,0.));
#1388=DIRECTION('',(0.,0.,1.));
#1389=DIRECTION('',(0.,-1.,0.));
#1390=DIRECTION('',(0.,0.,-1.));
#1391=DIRECTION('',(0.,1.,0.));
#1392=DIRECTION('',(-0.707106781186547,0.,0.707106781186548));
#1393=DIRECTION('',(0.,1.,0.));
#1394=DIRECTION('',(0.,0.,1.));
#1395=DIRECTION('',(0.,1.,0.));
#1396=DIRECTION('',(0.,0.,1.));
#1397=DIRECTION('',(0.,1.,0.));
#1398=DIRECTION('',(0.,0.,1.));
#1399=DIRECTION('',(-2.45774233724777E-15,1.,9.86076131526265E-31));
#1400=DIRECTION('',(-1.,-2.45774233724777E-15,0.));
#1401=DIRECTION('',(2.45774233724777E-15,-1.,-9.86076131526265E-31));
#1402=DIRECTION('',(-0.707106781186547,-2.03606041781316E-15,0.707106781186548));
#1403=DIRECTION('',(0.,1.,0.));
#1404=DIRECTION('',(0.,0.,1.));
#1405=DIRECTION('',(0.,-1.,0.));
#1406=DIRECTION('',(0.,0.,-1.));
#1407=DIRECTION('',(0.,1.,0.));
#1408=DIRECTION('',(-0.897501496249184,0.,-0.44101141054453));
#1409=DIRECTION('',(0.,1.,0.));
#1410=DIRECTION('',(0.,0.,1.));
#1411=DIRECTION('',(0.,1.,0.));
#1412=DIRECTION('',(-0.707106781186548,0.,0.707106781186548));
#1413=DIRECTION('',(0.,1.,0.));
#1414=DIRECTION('',(-0.707106781186548,0.,0.707106781186548));
#1415=DIRECTION('',(3.59928032085299E-16,-1.,-1.49087072367989E-16));
#1416=DIRECTION('',(0.707106781186548,3.59928032085299E-16,-0.707106781186548));
#1417=DIRECTION('',(-0.707106781186548,-1.49087072367989E-16,-0.707106781186548));
#1418=DIRECTION('',(0.707106781186548,3.59928032085299E-16,-0.707106781186548));
#1419=DIRECTION('',(-0.707106781186548,-1.49087072367989E-16,-0.707106781186548));
#1420=DIRECTION('',(0.707106781186548,3.59928032085299E-16,-0.707106781186548));
#1421=DIRECTION('',(-3.59928032085299E-16,1.,1.49087072367989E-16));
#1422=DIRECTION('',(-0.707106781186548,-3.59928032085299E-16,0.707106781186548));
#1423=DIRECTION('',(-0.707106781186548,-3.59928032085299E-16,0.707106781186548));
#1424=DIRECTION('',(-0.707106781186548,-1.49087072367989E-16,-0.707106781186548));
#1425=DIRECTION('',(0.707106781186548,3.59928032085299E-16,-0.707106781186548));
#1426=DIRECTION('',(-0.707106781186548,-1.49087072367989E-16,-0.707106781186548));
#1427=DIRECTION('',(0.707106781186548,1.49087072367989E-16,0.707106781186548));
#1428=DIRECTION('',(0.707106781186548,3.59928032085299E-16,-0.707106781186548));
#1429=DIRECTION('',(-3.59928032085299E-16,1.,1.49087072367989E-16));
#1430=DIRECTION('',(-3.59928032085299E-16,1.,1.49087072367989E-16));
#1431=DIRECTION('',(0.707106781186548,1.49087072367989E-16,0.707106781186548));
#1432=DIRECTION('',(0.707106781186548,3.59928032085299E-16,-0.707106781186548));
#1433=DIRECTION('',(4.03225834897074E-16,-1.,-1.92384875179764E-16));
#1434=DIRECTION('',(4.03225834897074E-16,-1.,-1.92384875179764E-16));
#1435=DIRECTION('',(5.09015104453289E-16,-1.,-5.09015104453288E-16));
#1436=DIRECTION('',(2.22044604925032E-16,5.09015104453289E-16,-1.));
#1437=DIRECTION('',(-1.,-5.09015104453288E-16,-2.22044604925032E-16));
#1438=DIRECTION('',(2.22044604925032E-16,5.09015104453289E-16,-1.));
#1439=DIRECTION('',(-1.,-5.09015104453288E-16,-2.22044604925032E-16));
#1440=DIRECTION('',(2.22044604925032E-16,5.09015104453289E-16,-1.));
#1441=DIRECTION('',(-5.09015104453289E-16,1.,5.09015104453288E-16));
#1442=DIRECTION('',(-2.22044604925032E-16,-5.09015104453289E-16,1.));
#1443=DIRECTION('',(-2.22044604925032E-16,-5.09015104453289E-16,1.));
#1444=DIRECTION('',(-1.,-5.09015104453288E-16,-2.22044604925032E-16));
#1445=DIRECTION('',(2.22044604925032E-16,5.09015104453289E-16,-1.));
#1446=DIRECTION('',(-1.,-5.09015104453288E-16,-2.22044604925032E-16));
#1447=DIRECTION('',(1.,5.09015104453288E-16,2.22044604925032E-16));
#1448=DIRECTION('',(2.22044604925032E-16,5.09015104453289E-16,-1.));
#1449=DIRECTION('',(-5.09015104453289E-16,1.,5.09015104453288E-16));
#1450=DIRECTION('',(-5.09015104453289E-16,1.,5.09015104453288E-16));
#1451=DIRECTION('',(1.,5.09015104453288E-16,2.22044604925032E-16));
#1452=DIRECTION('',(2.22044604925032E-16,5.09015104453289E-16,-1.));
#1453=DIRECTION('',(5.09015104453289E-16,-1.,-5.70247444410656E-16));
#1454=DIRECTION('',(5.09015104453289E-16,-1.,-5.70247444410656E-16));
#1455=DIRECTION('',(1.49087072367989E-16,-1.,-3.59928032085299E-16));
#1456=DIRECTION('',(-0.707106781186547,1.4908707236799E-16,-0.707106781186548));
#1457=DIRECTION('',(-0.707106781186548,-3.59928032085299E-16,0.707106781186547));
#1458=DIRECTION('',(-0.707106781186547,1.4908707236799E-16,-0.707106781186548));
#1459=DIRECTION('',(-0.707106781186548,-3.59928032085299E-16,0.707106781186547));
#1460=DIRECTION('',(-0.707106781186547,1.4908707236799E-16,-0.707106781186548));
#1461=DIRECTION('',(-1.49087072367989E-16,1.,3.59928032085299E-16));
#1462=DIRECTION('',(0.707106781186547,-1.4908707236799E-16,0.707106781186548));
#1463=DIRECTION('',(0.707106781186547,-1.4908707236799E-16,0.707106781186548));
#1464=DIRECTION('',(-0.707106781186548,-3.59928032085299E-16,0.707106781186547));
#1465=DIRECTION('',(-0.707106781186547,1.4908707236799E-16,-0.707106781186548));
#1466=DIRECTION('',(-0.707106781186548,-3.59928032085299E-16,0.707106781186547));
#1467=DIRECTION('',(0.707106781186548,3.59928032085299E-16,-0.707106781186547));
#1468=DIRECTION('',(-0.707106781186547,1.4908707236799E-16,-0.707106781186548));
#1469=DIRECTION('',(-1.49087072367989E-16,1.,3.59928032085299E-16));
#1470=DIRECTION('',(-1.49087072367989E-16,1.,3.59928032085299E-16));
#1471=DIRECTION('',(0.707106781186548,3.59928032085299E-16,-0.707106781186547));
#1472=DIRECTION('',(-0.707106781186547,1.4908707236799E-16,-0.707106781186548));
#1473=DIRECTION('',(1.05789269556215E-16,-1.,-4.03225834897074E-16));
#1474=DIRECTION('',(1.05789269556215E-16,-1.,-4.03225834897074E-16));
#1475=DIRECTION('',(-1.60237371373018E-31,-1.,-3.6977854932235E-32));
#1476=DIRECTION('',(-1.,1.60237371373018E-31,-2.77555756156289E-16));
#1477=DIRECTION('',(-2.77555756156289E-16,-3.6977854932235E-32,1.));
#1478=DIRECTION('',(-1.,1.60237371373018E-31,-2.77555756156289E-16));
#1479=DIRECTION('',(-2.77555756156289E-16,-3.6977854932235E-32,1.));
#1480=DIRECTION('',(-1.,1.60237371373018E-31,-2.77555756156289E-16));
#1481=DIRECTION('',(1.60237371373018E-31,1.,3.6977854932235E-32));
#1482=DIRECTION('',(1.,-1.60237371373018E-31,2.77555756156289E-16));
#1483=DIRECTION('',(1.,-1.60237371373018E-31,2.77555756156289E-16));
#1484=DIRECTION('',(-2.77555756156289E-16,-3.6977854932235E-32,1.));
#1485=DIRECTION('',(-1.,1.60237371373018E-31,-2.77555756156289E-16));
#1486=DIRECTION('',(-2.77555756156289E-16,-3.6977854932235E-32,1.));
#1487=DIRECTION('',(2.77555756156289E-16,3.6977854932235E-32,-1.));
#1488=DIRECTION('',(-1.,1.60237371373018E-31,-2.77555756156289E-16));
#1489=DIRECTION('',(1.60237371373018E-31,1.,3.6977854932235E-32));
#1490=DIRECTION('',(1.60237371373018E-31,1.,3.6977854932235E-32));
#1491=DIRECTION('',(2.77555756156289E-16,3.6977854932235E-32,-1.));
#1492=DIRECTION('',(-1.,1.60237371373018E-31,-2.77555756156289E-16));
#1493=DIRECTION('',(-6.12323399573678E-17,-1.,-1.23259516440783E-31));
#1494=DIRECTION('',(-6.12323399573678E-17,-1.,-1.23259516440783E-31));
#1495=DIRECTION('',(1.49087072367989E-16,-1.,3.59928032085299E-16));
#1496=DIRECTION('',(-0.707106781186548,1.49087072367989E-16,0.707106781186547));
#1497=DIRECTION('',(0.707106781186547,3.59928032085299E-16,0.707106781186548));
#1498=DIRECTION('',(-0.707106781186548,1.49087072367989E-16,0.707106781186547));
#1499=DIRECTION('',(0.707106781186547,3.59928032085299E-16,0.707106781186548));
#1500=DIRECTION('',(-0.707106781186548,1.49087072367989E-16,0.707106781186547));
#1501=DIRECTION('',(-1.49087072367989E-16,1.,-3.59928032085299E-16));
#1502=DIRECTION('',(0.707106781186548,-1.49087072367989E-16,-0.707106781186547));
#1503=DIRECTION('',(0.707106781186548,-1.49087072367989E-16,-0.707106781186547));
#1504=DIRECTION('',(0.707106781186547,3.59928032085299E-16,0.707106781186548));
#1505=DIRECTION('',(-0.707106781186548,1.49087072367989E-16,0.707106781186547));
#1506=DIRECTION('',(0.707106781186547,3.59928032085299E-16,0.707106781186548));
#1507=DIRECTION('',(-0.707106781186547,-3.59928032085299E-16,-0.707106781186548));
#1508=DIRECTION('',(-0.707106781186548,1.49087072367989E-16,0.707106781186547));
#1509=DIRECTION('',(-1.49087072367989E-16,1.,-3.59928032085299E-16));
#1510=DIRECTION('',(-1.49087072367989E-16,1.,-3.59928032085299E-16));
#1511=DIRECTION('',(-0.707106781186547,-3.59928032085299E-16,-0.707106781186548));
#1512=DIRECTION('',(-0.707106781186548,1.49087072367989E-16,0.707106781186547));
#1513=DIRECTION('',(1.05789269556214E-16,-1.,4.03225834897073E-16));
#1514=DIRECTION('',(1.05789269556214E-16,-1.,4.03225834897073E-16));
#1515=DIRECTION('',(-1.,-5.09015104453288E-16,-4.44089209850063E-16));
#1516=DIRECTION('',(5.09015104453288E-16,-1.,0.));
#1517=DIRECTION('',(1.,5.09015104453288E-16,4.44089209850063E-16));
#1518=DIRECTION('',(-1.,-5.09015104453288E-16,-4.44089209850063E-16));
#1519=DIRECTION('',(-4.44089209850063E-16,5.09015104453288E-16,1.));
#1520=DIRECTION('',(1.,5.09015104453288E-16,4.44089209850063E-16));
#1521=DIRECTION('',(-1.,-5.09015104453288E-16,-4.44089209850063E-16));
#1522=DIRECTION('',(5.09015104453288E-16,-1.,0.));
#1523=DIRECTION('',(-4.44089209850063E-16,5.09015104453288E-16,1.));
#1524=DIRECTION('',(-5.09015104453288E-16,1.,-5.09015104453289E-16));
#1525=DIRECTION('',(-5.09015104453288E-16,1.,-5.09015104453289E-16));
#1526=DIRECTION('',(1.,5.09015104453288E-16,4.44089209850063E-16));
#1527=DIRECTION('',(-5.09015104453288E-16,1.,-5.09015104453289E-16));
#1528=DIRECTION('',(-1.,-5.09015104453288E-16,-4.44089209850063E-16));
#1529=DIRECTION('',(5.09015104453288E-16,-1.,0.));
#1530=DIRECTION('',(-1.,-5.09015104453288E-16,-4.44089209850063E-16));
#1531=DIRECTION('',(-4.44089209850063E-16,5.09015104453288E-16,1.));
#1532=DIRECTION('',(1.,5.09015104453288E-16,4.44089209850063E-16));
#1533=DIRECTION('',(-1.,-5.09015104453288E-16,-4.44089209850063E-16));
#1534=DIRECTION('',(5.09015104453288E-16,-1.,0.));
#1535=DIRECTION('',(5.09015104453288E-16,-1.,5.09015104453289E-16));
#1536=DIRECTION('',(-4.44089209850063E-16,5.09015104453288E-16,1.));
#1537=DIRECTION('',(-4.44089209850063E-16,5.09015104453288E-16,1.));
#1538=DIRECTION('',(1.,5.09015104453288E-16,4.44089209850063E-16));
#1539=DIRECTION('',(-4.44089209850063E-16,5.09015104453288E-16,1.));
#1540=DIRECTION('',(-5.09015104453288E-16,1.,-5.09015104453289E-16));
#1541=DIRECTION('',(4.44089209850063E-16,-5.09015104453288E-16,-1.));
#1542=DIRECTION('',(4.44089209850063E-16,-5.09015104453288E-16,-1.));
#1543=DIRECTION('',(-4.44089209850063E-16,5.09015104453288E-16,1.));
#1544=DIRECTION('',(1.,5.09015104453288E-16,4.44089209850063E-16));
#1545=DIRECTION('',(-1.,-5.09015104453288E-16,-4.44089209850063E-16));
#1546=DIRECTION('',(-4.44089209850063E-16,5.09015104453288E-16,1.));
#1547=DIRECTION('',(-5.09015104453288E-16,1.,-5.09015104453289E-16));
#1548=DIRECTION('',(-1.,-5.09015104453288E-16,-4.44089209850063E-16));
#1549=DIRECTION('',(-4.44089209850063E-16,5.09015104453288E-16,1.));
#1550=DIRECTION('',(5.09015104453288E-16,-1.,5.70247444410656E-16));
#1551=DIRECTION('',(1.49087072367989E-16,-1.,3.59928032085299E-16));
#1552=DIRECTION('',(0.,-3.59928032085299E-16,-1.));
#1553=DIRECTION('',(-1.49087072367989E-16,1.,-3.59928032085299E-16));
#1554=DIRECTION('',(-0.707106781186547,-3.59928032085299E-16,-0.707106781186548));
#1555=DIRECTION('',(5.09015104453288E-16,-1.,0.));
#1556=DIRECTION('',(1.,5.09015104453288E-16,0.));
#1557=DIRECTION('',(-1.49087072367989E-16,1.,-3.59928032085299E-16));
#1558=DIRECTION('',(0.,3.59928032085299E-16,1.));
#1559=DIRECTION('',(1.49087072367989E-16,-1.,3.59928032085299E-16));
#1560=DIRECTION('',(-1.,-1.4908707236799E-16,-2.16493489801906E-15));
#1561=DIRECTION('',(5.09015104453288E-16,-1.,0.));
#1562=DIRECTION('',(1.,5.09015104453288E-16,0.));
#1563=DIRECTION('',(5.09015104453288E-16,-1.,0.));
#1564=DIRECTION('',(-0.707106781186548,-3.59928032085299E-16,0.707106781186547));
#1565=DIRECTION('',(5.09015104453288E-16,-1.,0.));
#1566=DIRECTION('',(-0.707106781186548,-3.59928032085299E-16,0.707106781186547));
#1567=DIRECTION('',(-9.86076131526265E-32,-1.,-1.23259516440783E-31));
#1568=DIRECTION('',(0.,1.23259516440783E-31,-1.));
#1569=DIRECTION('',(9.86076131526265E-32,1.,1.23259516440783E-31));
#1570=DIRECTION('',(7.21644966006352E-16,1.23259516440783E-32,-1.));
#1571=DIRECTION('',(5.09015104453288E-16,-1.,0.));
#1572=DIRECTION('',(1.,5.09015104453288E-16,0.));
#1573=DIRECTION('',(9.86076131526265E-32,1.,1.23259516440783E-31));
#1574=DIRECTION('',(0.,-1.23259516440783E-31,1.));
#1575=DIRECTION('',(-9.86076131526265E-32,-1.,-1.23259516440783E-31));
#1576=DIRECTION('',(-0.707106781186548,1.72563323017096E-31,-0.707106781186547));
#1577=DIRECTION('',(5.09015104453288E-16,-1.,0.));
#1578=DIRECTION('',(1.,5.09015104453288E-16,0.));
#1579=DIRECTION('',(5.09015104453288E-16,-1.,0.));
#1580=DIRECTION('',(-1.,-5.09015104453288E-16,-2.77555756156289E-16));
#1581=DIRECTION('',(5.09015104453288E-16,-1.,0.));
#1582=DIRECTION('',(-1.,-5.09015104453288E-16,-2.77555756156289E-16));
#1583=DIRECTION('',(2.04301852503323E-15,-1.,-4.93228303131469E-15));
#1584=DIRECTION('',(0.,4.93228303131469E-15,-1.));
#1585=DIRECTION('',(-2.04301852503323E-15,1.,4.93228303131469E-15));
#1586=DIRECTION('',(0.707106781186548,4.94106397216489E-15,-0.707106781186547));
#1587=DIRECTION('',(5.09015104453288E-16,-1.,0.));
#1588=DIRECTION('',(1.,5.09015104453288E-16,0.));
#1589=DIRECTION('',(-1.49087072367989E-16,1.,3.59928032085299E-16));
#1590=DIRECTION('',(0.,-3.59928032085299E-16,1.));
#1591=DIRECTION('',(1.49087072367989E-16,-1.,-3.59928032085299E-16));
#1592=DIRECTION('',(2.05391259555654E-15,3.59928032085299E-16,-1.));
#1593=DIRECTION('',(5.09015104453288E-16,-1.,0.));
#1594=DIRECTION('',(1.,5.09015104453288E-16,0.));
#1595=DIRECTION('',(5.09015104453288E-16,-1.,0.));
#1596=DIRECTION('',(-0.707106781186547,-3.59928032085299E-16,-0.707106781186548));
#1597=DIRECTION('',(5.09015104453288E-16,-1.,0.));
#1598=DIRECTION('',(-0.707106781186547,-3.59928032085299E-16,-0.707106781186548));
#1599=DIRECTION('',(5.09015104453289E-16,-1.,-5.09015104453288E-16));
#1600=DIRECTION('',(1.,5.09015104453289E-16,0.));
#1601=DIRECTION('',(-5.09015104453289E-16,1.,5.09015104453288E-16));
#1602=DIRECTION('',(1.,5.09015104453288E-16,0.));
#1603=DIRECTION('',(5.09015104453288E-16,-1.,0.));
#1604=DIRECTION('',(1.,5.09015104453288E-16,0.));
#1605=DIRECTION('',(-5.09015104453289E-16,1.,5.09015104453288E-16));
#1606=DIRECTION('',(-1.,-5.09015104453289E-16,0.));
#1607=DIRECTION('',(5.09015104453289E-16,-1.,-5.09015104453288E-16));
#1608=DIRECTION('',(0.707106781186548,7.19856064170598E-16,-0.707106781186547));
#1609=DIRECTION('',(5.09015104453288E-16,-1.,0.));
#1610=DIRECTION('',(1.,5.09015104453288E-16,0.));
#1611=DIRECTION('',(5.09015104453288E-16,-1.,0.));
#1612=DIRECTION('',(2.22044604925032E-16,0.,-1.));
#1613=DIRECTION('',(5.09015104453288E-16,-1.,0.));
#1614=DIRECTION('',(2.22044604925032E-16,0.,-1.));
#1615=DIRECTION('',(3.59928032085299E-16,-1.,-1.49087072367989E-16));
#1616=DIRECTION('',(1.,3.59928032085299E-16,0.));
#1617=DIRECTION('',(-3.59928032085299E-16,1.,1.49087072367989E-16));
#1618=DIRECTION('',(0.707106781186547,1.49087072367989E-16,0.707106781186548));
#1619=DIRECTION('',(0.,-1.,-5.09015104453289E-16));
#1620=DIRECTION('',(0.,5.09015104453289E-16,-1.));
#1621=DIRECTION('',(-3.59928032085299E-16,1.,1.49087072367989E-16));
#1622=DIRECTION('',(-1.,-3.59928032085299E-16,0.));
#1623=DIRECTION('',(3.59928032085299E-16,-1.,-1.49087072367989E-16));
#1624=DIRECTION('',(1.,3.59928032085299E-16,1.27675647831893E-15));
#1625=DIRECTION('',(0.,-1.,-5.09015104453289E-16));
#1626=DIRECTION('',(0.,5.09015104453289E-16,-1.));
#1627=DIRECTION('',(0.,-1.,-5.09015104453289E-16));
#1628=DIRECTION('',(-0.707106781186548,3.59928032085299E-16,-0.707106781186548));
#1629=DIRECTION('',(0.,-1.,-5.09015104453289E-16));
#1630=DIRECTION('',(-0.707106781186548,3.59928032085299E-16,-0.707106781186548));
#1631=DIRECTION('',(0.,-1.,0.));
#1632=DIRECTION('',(0.,0.,-1.));
#1633=DIRECTION('',(0.,1.,0.));
#1634=DIRECTION('',(-2.54507552226645E-16,0.,1.));
#1635=DIRECTION('',(-3.2387047070199E-32,-1.,-5.09015104453289E-16));
#1636=DIRECTION('',(0.,5.09015104453289E-16,-1.));
#1637=DIRECTION('',(3.78786290533046E-15,1.,9.14470999845874E-15));
#1638=DIRECTION('',(0.,-9.14470999845874E-15,1.));
#1639=DIRECTION('',(-3.78786290533046E-15,-1.,-9.14470999845874E-15));
#1640=DIRECTION('',(0.707106781186549,-9.1622718801592E-15,0.707106781186546));
#1641=DIRECTION('',(-3.2387047070199E-32,-1.,-5.09015104453289E-16));
#1642=DIRECTION('',(0.,5.09015104453289E-16,-1.));
#1643=DIRECTION('',(-3.2387047070199E-32,-1.,-5.09015104453289E-16));
#1644=DIRECTION('',(0.,5.09015104453289E-16,-1.));
#1645=DIRECTION('',(-3.2387047070199E-32,-1.,-5.09015104453289E-16));
#1646=DIRECTION('',(0.,5.09015104453289E-16,-1.));
#1647=CARTESIAN_POINT('',(0.,0.,0.));
#1648=CARTESIAN_POINT('',(-0.0228393506550799,-0.04756875,-0.0149706271461928));
#1649=CARTESIAN_POINT('',(-0.0228393506550799,0.01471875,-0.0149706271461928));
#1650=CARTESIAN_POINT('',(-0.0228393506550799,0.01471875,-0.0149706271461928));
#1651=CARTESIAN_POINT('',(-0.022521152603546,0.01471875,-0.0146524290946589));
#1652=CARTESIAN_POINT('',(-0.0228393506550799,-0.04756875,-0.0149706271461928));
#1653=CARTESIAN_POINT('',(-0.0228393506550799,-0.04891875,-0.0149706271461928));
#1654=CARTESIAN_POINT('',(-0.0228393506550799,-0.04891875,-0.0149706271461928));
#1655=CARTESIAN_POINT('',(-0.022521152603546,-0.04891875,-0.0146524290946589));
#1656=CARTESIAN_POINT('',(-0.022521152603546,3.78555577067124E-19,-0.0146524290946589));
#1657=CARTESIAN_POINT('',(-0.0227332846379019,-0.04906875,-0.0150766931633709));
#1658=CARTESIAN_POINT('',(-0.0227332846379019,-0.04906875,-0.0150766931633709));
#1659=CARTESIAN_POINT('',(-0.0226272186207239,-0.04921875,-0.0151827591805488));
#1660=CARTESIAN_POINT('',(-0.0226272186207239,-0.04921875,-0.0151827591805488));
#1661=CARTESIAN_POINT('',(-0.0223090205691899,-0.04921875,-0.0148645611290149));
#1662=CARTESIAN_POINT('',(-0.022415086586368,-0.04906875,-0.0147584951118369));
#1663=CARTESIAN_POINT('',(-0.0189502633585538,-0.04921875,-0.0188597144427189));
#1664=CARTESIAN_POINT('',(-0.0189502633585538,-0.04921875,-0.0188597144427189));
#1665=CARTESIAN_POINT('',(-0.0152733080963838,-0.04921875,-0.0225366697048889));
#1666=CARTESIAN_POINT('',(-0.0152733080963838,-0.04921875,-0.0225366697048889));
#1667=CARTESIAN_POINT('',(-0.0149551100448499,-0.04921875,-0.022218471653355));
#1668=CARTESIAN_POINT('',(-0.0496563753315797,-0.04921875,0.0124827936333749));
#1669=CARTESIAN_POINT('',(-0.0151672420792058,-0.04906875,-0.0226427357220669));
#1670=CARTESIAN_POINT('',(-0.0151672420792058,-0.04906875,-0.0226427357220669));
#1671=CARTESIAN_POINT('',(-0.0150611760620279,-0.04891875,-0.0227488017392449));
#1672=CARTESIAN_POINT('',(-0.0150611760620279,-0.04891875,-0.0227488017392449));
#1673=CARTESIAN_POINT('',(-0.0147429780104939,-0.04891875,-0.022430603687711));
#1674=CARTESIAN_POINT('',(-0.0148490440276719,-0.04906875,-0.022324537670533));
#1675=CARTESIAN_POINT('',(-0.0150611760620279,0.04721875,-0.0227488017392449));
#1676=CARTESIAN_POINT('',(-0.0150611760620279,0.04721875,-0.0227488017392449));
#1677=CARTESIAN_POINT('',(-0.0150611760620279,0.04921875,-0.0227488017392449));
#1678=CARTESIAN_POINT('',(-0.0150611760620279,0.04921875,-0.0227488017392449));
#1679=CARTESIAN_POINT('',(-0.0147429780104939,0.04921875,-0.022430603687711));
#1680=CARTESIAN_POINT('',(-0.0147429780104939,3.78555577067124E-19,-0.022430603687711));
#1681=CARTESIAN_POINT('',(-0.0838273105324196,0.04921875,0.0460173327311469));
#1682=CARTESIAN_POINT('',(-0.0838273105324196,0.04921875,0.0460173327311469));
#1683=CARTESIAN_POINT('',(-0.0244947669415673,0.04921875,-0.0133152108597054));
#1684=CARTESIAN_POINT('',(-0.0244947669415673,0.04921875,-0.0133152108597054));
#1685=CARTESIAN_POINT('',(-0.0241765688900333,0.04921875,-0.0129970128081715));
#1686=CARTESIAN_POINT('',(-0.0496563753315797,0.04921875,0.0124827936333749));
#1687=CARTESIAN_POINT('',(-0.0260213311704194,0.01471875,-0.0117886466308534));
#1688=CARTESIAN_POINT('',(-0.0260213311704194,0.01471875,-0.0117886466308534));
#1689=CARTESIAN_POINT('',(-0.0244947669415673,0.0186670665159824,-0.0133152108597054));
#1690=CARTESIAN_POINT('',(-0.0257031331188854,0.01471875,-0.0114704485793194));
#1691=CARTESIAN_POINT('',(-0.0241765688900334,0.0186670665159824,-0.0129970128081715));
#1692=CARTESIAN_POINT('',(-0.0244947669415673,0.0186670665159824,-0.0133152108597054));
#1693=CARTESIAN_POINT('',(-0.0496563753315797,3.78555577067124E-19,0.0124827936333749));
#1694=CARTESIAN_POINT('',(-0.0241765688900334,3.78555577067124E-19,-0.0129970128081714));
#1695=CARTESIAN_POINT('',(-0.0499745733831136,3.78555577067124E-19,0.0121645955818409));
#1696=CARTESIAN_POINT('',(-0.0244947669415673,-1.82788369290939E-18,-0.0133152108597054));
#1697=CARTESIAN_POINT('',(0.047875,0.04921875,0.00045));
#1698=CARTESIAN_POINT('',(-0.017545556081862,0.04921875,0.00045));
#1699=CARTESIAN_POINT('',(-0.017545556081862,0.04921875,0.00045));
#1700=CARTESIAN_POINT('',(-0.017545556081862,0.04921875,1.7347234759768E-18));
#1701=CARTESIAN_POINT('',(0.047875,0.04921875,0.00045));
#1702=CARTESIAN_POINT('',(-0.0127044439181381,0.04921875,0.00045));
#1703=CARTESIAN_POINT('',(-0.0127044439181381,0.04921875,0.00045));
#1704=CARTESIAN_POINT('',(-0.0127044439181381,0.04921875,2.60208521396521E-18));
#1705=CARTESIAN_POINT('',(0.,0.04921875,0.));
#1706=CARTESIAN_POINT('',(-0.03075,0.01921875,0.00045));
#1707=CARTESIAN_POINT('',(-0.0127044439181381,0.01921875,0.00045));
#1708=CARTESIAN_POINT('',(-0.0127044439181381,0.01921875,0.00045));
#1709=CARTESIAN_POINT('',(-0.0127044439181381,0.01921875,0.));
#1710=CARTESIAN_POINT('',(-0.03075,0.01921875,0.00045));
#1711=CARTESIAN_POINT('',(-0.017545556081862,0.01921875,0.00045));
#1712=CARTESIAN_POINT('',(-0.017545556081862,0.01921875,0.00045));
#1713=CARTESIAN_POINT('',(-0.017545556081862,0.01921875,0.));
#1714=CARTESIAN_POINT('',(0.,0.01921875,0.));
#1715=CARTESIAN_POINT('',(0.,6.93889390390723E-18,0.));
#1716=CARTESIAN_POINT('',(-0.017545556081862,6.93889390390723E-18,0.));
#1717=CARTESIAN_POINT('',(-0.0127044439181381,6.93889390390723E-18,0.));
#1718=CARTESIAN_POINT('',(0.,6.93889390390723E-18,0.00045));
#1719=CARTESIAN_POINT('',(-0.0127044439181381,6.16097107494249E-18,0.00045));
#1720=CARTESIAN_POINT('',(-0.017545556081862,5.8645384491616E-18,0.00045));
#1721=CARTESIAN_POINT('',(0.0275420075044616,0.04921875,0.0483608432274586));
#1722=CARTESIAN_POINT('',(-0.0244947669415673,0.04921875,-0.00367593121857038));
#1723=CARTESIAN_POINT('',(-0.0244947669415673,0.04921875,-0.00367593121857038));
#1724=CARTESIAN_POINT('',(-0.0241765688900334,0.04921875,-0.00399412927010433));
#1725=CARTESIAN_POINT('',(0.0275420075044616,0.04921875,0.0483608432274586));
#1726=CARTESIAN_POINT('',(-0.0223651959024294,0.04921875,-0.00154636017943249));
#1727=CARTESIAN_POINT('',(-0.0223651959024294,0.04921875,-0.00154636017943249));
#1728=CARTESIAN_POINT('',(-0.0220469978508955,0.04921875,-0.00186455823096643));
#1729=CARTESIAN_POINT('',(-0.00599253159331039,0.04921875,0.0141899080266187));
#1730=CARTESIAN_POINT('',(-0.0280542631663307,0.01921875,-0.00723542744333373));
#1731=CARTESIAN_POINT('',(-0.0280542631663307,0.01921875,-0.00723542744333373));
#1732=CARTESIAN_POINT('',(-0.0244947669415673,0.01921875,-0.00367593121857039));
#1733=CARTESIAN_POINT('',(-0.0223651959024294,0.01921875,-0.00154636017943249));
#1734=CARTESIAN_POINT('',(-0.0244947669415673,0.01921875,-0.00367593121857039));
#1735=CARTESIAN_POINT('',(-0.0241765688900334,0.01921875,-0.00399412927010433));
#1736=CARTESIAN_POINT('',(-0.00599253159331039,0.01921875,0.0141899080266187));
#1737=CARTESIAN_POINT('',(-0.0220469978508955,0.01921875,-0.00186455823096644));
#1738=CARTESIAN_POINT('',(-0.0223651959024294,0.01921875,-0.00154636017943249));
#1739=CARTESIAN_POINT('',(-0.00599253159331039,5.14904513600334E-18,0.0141899080266187));
#1740=CARTESIAN_POINT('',(-0.0220469978508955,5.14904513600334E-18,-0.00186455823096644));
#1741=CARTESIAN_POINT('',(-0.0241765688900334,5.14904513600334E-18,-0.00399412927010433));
#1742=CARTESIAN_POINT('',(-0.00631072964484433,5.14904513600334E-18,0.0145081060781526));
#1743=CARTESIAN_POINT('',(-0.0223651959024294,3.75879890746492E-18,-0.00154636017943249));
#1744=CARTESIAN_POINT('',(-0.0244947669415673,3.57438741361241E-18,-0.00367593121857039));
#1745=CARTESIAN_POINT('',(-0.017545556081862,0.04921875,-0.006366));
#1746=CARTESIAN_POINT('',(-0.017545556081862,0.04921875,-0.006366));
#1747=CARTESIAN_POINT('',(-0.017545556081862,0.04921875,-0.006366));
#1748=CARTESIAN_POINT('',(-0.017545556081862,0.01921875,-0.006366));
#1749=CARTESIAN_POINT('',(-0.017545556081862,0.01921875,-0.006366));
#1750=CARTESIAN_POINT('',(-0.017545556081862,0.01921875,-0.006366));
#1751=CARTESIAN_POINT('',(-0.017545556081862,0.01921875,-0.006366));
#1752=CARTESIAN_POINT('',(-0.017545556081862,0.01921875,-0.006366));
#1753=CARTESIAN_POINT('',(-0.0196751271209998,0.04921875,-0.00849557103913788));
#1754=CARTESIAN_POINT('',(-0.0196751271209998,0.04921875,-0.00849557103913788));
#1755=CARTESIAN_POINT('',(-0.0196751271209998,0.04921875,-0.0084955710391379));
#1756=CARTESIAN_POINT('',(-0.0196751271209998,0.01921875,-0.0084955710391379));
#1757=CARTESIAN_POINT('',(-0.0196751271209998,0.01921875,-0.0084955710391379));
#1758=CARTESIAN_POINT('',(-0.0257924973194343,0.01921875,-0.0115015048134094));
#1759=CARTESIAN_POINT('',(-0.0257924973194343,0.01921875,-0.0115015048134094));
#1760=CARTESIAN_POINT('',(-0.0256578720949969,0.01921875,-0.0114353531018277));
#1761=CARTESIAN_POINT('',(-0.0255232468705595,0.01921875,-0.0113692013902461));
#1762=CARTESIAN_POINT('',(-0.0253886216461221,0.01921875,-0.0113030496786644));
#1763=CARTESIAN_POINT('',(-0.0253886216461222,0.01921875,-0.0113030496786644));
#1764=CARTESIAN_POINT('',(-0.0196751271209998,0.01921875,-0.0084955710391379));
#1765=CARTESIAN_POINT('',(-0.0257924973194343,0.01921875,-0.0115015048134094));
#1766=CARTESIAN_POINT('',(-0.0256981940381455,0.0192138334562812,-0.0116934212446721));
#1767=CARTESIAN_POINT('',(-0.0255995806504405,0.0191997058203876,-0.0118713401903484));
#1768=CARTESIAN_POINT('',(-0.0254494866154168,0.0191646961132423,-0.0121182642604069));
#1769=CARTESIAN_POINT('',(-0.025399087770901,0.0191507232583676,-0.0121972485488976));
#1770=CARTESIAN_POINT('',(-0.0253234166668199,0.0191263095473163,-0.012310902307003));
#1771=CARTESIAN_POINT('',(-0.0252981803978086,0.0191175959055093,-0.0123479833481329));
#1772=CARTESIAN_POINT('',(-0.0252603631242386,0.0191036618356141,-0.0124024218138932));
#1773=CARTESIAN_POINT('',(-0.0252477635283606,0.0190988732111181,-0.0124203707980179));
#1774=CARTESIAN_POINT('',(-0.0252288801394466,0.019091474372578,-0.0124470013914382));
#1775=CARTESIAN_POINT('',(-0.0252225883423295,0.019088972109432,-0.0124558294427452));
#1776=CARTESIAN_POINT('',(-0.0252100111873005,0.0190838956158745,-0.0124733884052457));
#1777=CARTESIAN_POINT('',(-0.0252031655966838,0.0190810885897806,-0.0124828936853761));
#1778=CARTESIAN_POINT('',(-0.0250143607719048,0.019002633783841,-0.0127438648660792));
#1779=CARTESIAN_POINT('',(-0.0247852130542325,0.0188655050584247,-0.0130247647470402));
#1780=CARTESIAN_POINT('',(-0.0244947669415673,0.0186670665159824,-0.0133152108597054));
#1781=CARTESIAN_POINT('',(-0.0253886216461222,0.01921875,-0.0113030496786644));
#1782=CARTESIAN_POINT('',(-0.0253005443742185,0.019213833456309,-0.0114822955698794));
#1783=CARTESIAN_POINT('',(-0.0252084415529862,0.0191997058203876,-0.0116484681073019));
#1784=CARTESIAN_POINT('',(-0.0250682568952748,0.0191646961132423,-0.0118790899720309));
#1785=CARTESIAN_POINT('',(-0.0250211854392614,0.0191507232583676,-0.011952859628799));
#1786=CARTESIAN_POINT('',(-0.024950510226735,0.0191263095473163,-0.0120590098377337));
#1787=CARTESIAN_POINT('',(-0.024926940084639,0.0191175959055093,-0.0120936427467468));
#1788=CARTESIAN_POINT('',(-0.0248916195500812,0.0191036618356141,-0.0121444871236585));
#1789=CARTESIAN_POINT('',(-0.0248798517937198,0.0190988732111181,-0.012161251095627));
#1790=CARTESIAN_POINT('',(-0.0248622151074189,0.019091474372578,-0.0121861235072634));
#1791=CARTESIAN_POINT('',(-0.0248563387018368,0.019088972109432,-0.012194368720676));
#1792=CARTESIAN_POINT('',(-0.0248445919047542,0.0190838956158745,-0.0122107684206875));
#1793=CARTESIAN_POINT('',(-0.0248381982677435,0.0190810885897806,-0.0122196461515135));
#1794=CARTESIAN_POINT('',(-0.0246618585502342,0.019002633783841,-0.0124633877208146));
#1795=CARTESIAN_POINT('',(-0.0244478362486543,0.0188655027362858,-0.0127257454495506));
#1796=CARTESIAN_POINT('',(-0.0241765688900334,0.0186670665159824,-0.0129970128081715));
#1797=CARTESIAN_POINT('',(-0.0257924973194343,0.01921875,-0.0115015048134094));
#1798=CARTESIAN_POINT('',(-0.0256039045247758,0.0192089176303591,-0.0118853096568688));
#1799=CARTESIAN_POINT('',(-0.0252924166621071,0.0191384119818661,-0.0123793863465001));
#1800=CARTESIAN_POINT('',(-0.0249036701033013,0.0189358076676934,-0.0128783252457964));
#1801=CARTESIAN_POINT('',(-0.0246399269437218,0.0187662427073389,-0.0131700508575509));
#1802=CARTESIAN_POINT('',(-0.0244947669415674,0.0186670665159823,-0.0133152108597054));
#1803=CARTESIAN_POINT('',(-0.0253886216461221,0.01921875,-0.0113030496786644));
#1804=CARTESIAN_POINT('',(-0.0252124799602659,0.0192089176303591,-0.0116615152939024));
#1805=CARTESIAN_POINT('',(-0.0249215568772628,0.0191384119818661,-0.0121229724837781));
#1806=CARTESIAN_POINT('',(-0.0245584758042937,0.0189358076676934,-0.0125889708747582));
#1807=CARTESIAN_POINT('',(-0.0243121452652851,0.0187662427073389,-0.0128614364329198));
#1808=CARTESIAN_POINT('',(-0.0241765688900334,0.0186670665159823,-0.0129970128081715));
#1809=CARTESIAN_POINT('',(-0.0196751271209998,0.01921875,-0.0084955710391379));
#1810=CARTESIAN_POINT('',(-0.0196751271209998,0.01921875,-0.0084955710391379));
#1811=CARTESIAN_POINT('',(-0.024292823745749,0.01921875,0.0148616594687459));
#1812=CARTESIAN_POINT('',(-0.00446162085811674,0.01921875,-0.00496954341888632));
#1813=CARTESIAN_POINT('',(-0.00446162085811674,0.01921875,-0.00496954341888632));
#1814=CARTESIAN_POINT('',(-0.00477981890965068,0.01921875,-0.00528774147042027));
#1815=CARTESIAN_POINT('',(-0.024292823745749,0.01921875,0.0148616594687459));
#1816=CARTESIAN_POINT('',(-0.00788480409757056,0.01921875,-0.00154636017943249));
#1817=CARTESIAN_POINT('',(-0.00788480409757056,0.01921875,-0.00154636017943249));
#1818=CARTESIAN_POINT('',(-0.00820300214910451,0.01921875,-0.00186455823096646));
#1819=CARTESIAN_POINT('',(-0.00286748827579653,0.01921875,-0.00720007210427441));
#1820=CARTESIAN_POINT('',(0.0313034469250433,0.04921875,-0.0407346112020464));
#1821=CARTESIAN_POINT('',(0.0313034469250433,0.04921875,-0.0407346112020464));
#1822=CARTESIAN_POINT('',(-0.00446162085811674,0.04921875,-0.00496954341888632));
#1823=CARTESIAN_POINT('',(-0.00788480409757057,0.04921875,-0.00154636017943249));
#1824=CARTESIAN_POINT('',(-0.00446162085811674,0.04921875,-0.00496954341888632));
#1825=CARTESIAN_POINT('',(-0.00477981890965069,0.04921875,-0.00528774147042026));
#1826=CARTESIAN_POINT('',(-0.00286748827579654,0.04921875,-0.00720007210427441));
#1827=CARTESIAN_POINT('',(-0.00820300214910451,0.04921875,-0.00186455823096645));
#1828=CARTESIAN_POINT('',(-0.00788480409757057,0.04921875,-0.00154636017943249));
#1829=CARTESIAN_POINT('',(-0.00286748827579653,1.17226513331708E-17,-0.00720007210427442));
#1830=CARTESIAN_POINT('',(-0.00820300214910449,9.006794181637E-18,-0.00186455823096645));
#1831=CARTESIAN_POINT('',(-0.00477981890965067,1.07492461558303E-17,-0.00528774147042027));
#1832=CARTESIAN_POINT('',(-0.00254929022426258,1.17897405157364E-17,-0.00688187405274047));
#1833=CARTESIAN_POINT('',(-0.00788480409757055,8.61185130903064E-18,-0.0015463601794325));
#1834=CARTESIAN_POINT('',(-0.00446162085811673,1.06507359090049E-17,-0.00496954341888633));
#1835=CARTESIAN_POINT('',(-0.00246526067868424,0.01921875,0.0234152606786843));
#1836=CARTESIAN_POINT('',(-0.00246526067868424,0.01921875,-0.0146302954031777));
#1837=CARTESIAN_POINT('',(-0.00246526067868424,0.01921875,-0.0146302954031777));
#1838=CARTESIAN_POINT('',(-0.00291526067868424,0.01921875,-0.0146302954031777));
#1839=CARTESIAN_POINT('',(-0.00246526067868424,0.01921875,0.0234152606786843));
#1840=CARTESIAN_POINT('',(-0.00246526067868424,0.01921875,-0.00978918323945382));
#1841=CARTESIAN_POINT('',(-0.00246526067868424,0.01921875,-0.00978918323945382));
#1842=CARTESIAN_POINT('',(-0.00291526067868425,0.01921875,-0.00978918323945384));
#1843=CARTESIAN_POINT('',(-0.00291526067868424,0.01921875,-0.00733473932131577));
#1844=CARTESIAN_POINT('',(-0.00246526067868425,0.04921875,-0.0552097393213158));
#1845=CARTESIAN_POINT('',(-0.00246526067868425,0.04921875,-0.0552097393213158));
#1846=CARTESIAN_POINT('',(-0.00246526067868425,0.04921875,-0.0146302954031777));
#1847=CARTESIAN_POINT('',(-0.00246526067868425,0.04921875,-0.00978918323945381));
#1848=CARTESIAN_POINT('',(-0.00246526067868425,0.04921875,-0.0146302954031777));
#1849=CARTESIAN_POINT('',(-0.00291526067868425,0.04921875,-0.0146302954031777));
#1850=CARTESIAN_POINT('',(-0.00291526067868425,0.04921875,-0.00733473932131575));
#1851=CARTESIAN_POINT('',(-0.00291526067868425,0.04921875,-0.00978918323945381));
#1852=CARTESIAN_POINT('',(-0.00246526067868425,0.04921875,-0.00978918323945381));
#1853=CARTESIAN_POINT('',(-0.00291526067868423,1.07636298846364E-17,-0.00733473932131577));
#1854=CARTESIAN_POINT('',(-0.00291526067868423,1.20129789120022E-17,-0.00978918323945384));
#1855=CARTESIAN_POINT('',(-0.00291526067868423,1.44771781256902E-17,-0.0146302954031777));
#1856=CARTESIAN_POINT('',(-0.00246526067868423,1.09926866816404E-17,-0.00733473932131577));
#1857=CARTESIAN_POINT('',(-0.00246526067868423,1.23923270534079E-17,-0.00978918323945385));
#1858=CARTESIAN_POINT('',(-0.00246526067868423,1.51529588928767E-17,-0.0146302954031777));
#1859=CARTESIAN_POINT('',(0.0260885344137926,0.01921875,0.0111002200481641));
#1860=CARTESIAN_POINT('',(-0.00788480409757056,0.01921875,-0.022873118463199));
#1861=CARTESIAN_POINT('',(-0.00788480409757056,0.01921875,-0.022873118463199));
#1862=CARTESIAN_POINT('',(-0.0082030021491045,0.01921875,-0.0225549204116651));
#1863=CARTESIAN_POINT('',(0.0260885344137926,0.01921875,0.0111002200481641));
#1864=CARTESIAN_POINT('',(-0.00446162085811673,0.01921875,-0.0194499352237452));
#1865=CARTESIAN_POINT('',(-0.00446162085811673,0.01921875,-0.0194499352237452));
#1866=CARTESIAN_POINT('',(-0.00477981890965068,0.01921875,-0.0191317371722112));
#1867=CARTESIAN_POINT('',(0.0040268028407723,0.01921875,-0.0103251154217883));
#1868=CARTESIAN_POINT('',(-0.0295077362569997,0.04921875,-0.0444960506226282));
#1869=CARTESIAN_POINT('',(-0.0295077362569997,0.04921875,-0.0444960506226282));
#1870=CARTESIAN_POINT('',(-0.00788480409757056,0.04921875,-0.022873118463199));
#1871=CARTESIAN_POINT('',(-0.00446162085811674,0.04921875,-0.0194499352237452));
#1872=CARTESIAN_POINT('',(-0.00788480409757056,0.04921875,-0.022873118463199));
#1873=CARTESIAN_POINT('',(-0.00820300214910451,0.04921875,-0.0225549204116651));
#1874=CARTESIAN_POINT('',(0.0040268028407723,0.04921875,-0.0103251154217883));
#1875=CARTESIAN_POINT('',(-0.00477981890965068,0.04921875,-0.0191317371722112));
#1876=CARTESIAN_POINT('',(-0.00446162085811674,0.04921875,-0.0194499352237452));
#1877=CARTESIAN_POINT('',(0.0040268028407723,1.53485763190493E-17,-0.0103251154217883));
#1878=CARTESIAN_POINT('',(-0.00477981890965068,1.72053729007758E-17,-0.0191317371722112));
#1879=CARTESIAN_POINT('',(-0.0082030021491045,1.79271201402704E-17,-0.0225549204116651));
#1880=CARTESIAN_POINT('',(0.00434500089230625,1.55105439334876E-17,-0.0106433134733222));
#1881=CARTESIAN_POINT('',(-0.00446162085811674,1.81299552591896E-17,-0.0194499352237452));
#1882=CARTESIAN_POINT('',(-0.00788480409757056,1.91481351244651E-17,-0.022873118463199));
#1883=CARTESIAN_POINT('',(0.0405,0.01921875,-0.0248694786426315));
#1884=CARTESIAN_POINT('',(-0.017545556081862,0.01921875,-0.0248694786426315));
#1885=CARTESIAN_POINT('',(-0.017545556081862,0.01921875,-0.0248694786426315));
#1886=CARTESIAN_POINT('',(-0.017545556081862,0.01921875,-0.0244194786426315));
#1887=CARTESIAN_POINT('',(0.0405,0.01921875,-0.0248694786426315));
#1888=CARTESIAN_POINT('',(-0.0127044439181381,0.01921875,-0.0248694786426315));
#1889=CARTESIAN_POINT('',(-0.0127044439181381,0.01921875,-0.0248694786426315));
#1890=CARTESIAN_POINT('',(-0.0127044439181381,0.01921875,-0.0244194786426315));
#1891=CARTESIAN_POINT('',(0.00975,0.01921875,-0.0244194786426315));
#1892=CARTESIAN_POINT('',(-0.038125,0.04921875,-0.0248694786426315));
#1893=CARTESIAN_POINT('',(-0.038125,0.04921875,-0.0248694786426315));
#1894=CARTESIAN_POINT('',(-0.017545556081862,0.04921875,-0.0248694786426315));
#1895=CARTESIAN_POINT('',(-0.0127044439181381,0.04921875,-0.0248694786426315));
#1896=CARTESIAN_POINT('',(-0.017545556081862,0.04921875,-0.0248694786426315));
#1897=CARTESIAN_POINT('',(-0.017545556081862,0.04921875,-0.0244194786426315));
#1898=CARTESIAN_POINT('',(0.00975,0.04921875,-0.0244194786426315));
#1899=CARTESIAN_POINT('',(-0.0127044439181381,0.04921875,-0.0244194786426315));
#1900=CARTESIAN_POINT('',(-0.0127044439181381,0.04921875,-0.0248694786426315));
#1901=CARTESIAN_POINT('',(0.00975,2.11022802174595E-17,-0.0244194786426315));
#1902=CARTESIAN_POINT('',(-0.0127044439181381,2.11022802174596E-17,-0.0244194786426315));
#1903=CARTESIAN_POINT('',(-0.017545556081862,2.11022802174596E-17,-0.0244194786426315));
#1904=CARTESIAN_POINT('',(0.00975,2.11022802174595E-17,-0.0248694786426315));
#1905=CARTESIAN_POINT('',(-0.0127044439181381,2.24772183610086E-17,-0.0248694786426315));
#1906=CARTESIAN_POINT('',(-0.017545556081862,2.27736509867895E-17,-0.0248694786426315));
#1907=CARTESIAN_POINT('',(0.0223270949932108,0.01921875,-0.0675654093588393));
#1908=CARTESIAN_POINT('',(-0.0257883791418833,0.01921875,-0.0194499352237452));
#1909=CARTESIAN_POINT('',(-0.0257883791418833,0.01921875,-0.0194499352237452));
#1910=CARTESIAN_POINT('',(-0.0254701810903493,0.01921875,-0.0191317371722112));
#1911=CARTESIAN_POINT('',(0.0223270949932108,0.01921875,-0.0675654093588393));
#1912=CARTESIAN_POINT('',(-0.0223651959024294,0.01921875,-0.022873118463199));
#1913=CARTESIAN_POINT('',(-0.0223651959024294,0.01921875,-0.022873118463199));
#1914=CARTESIAN_POINT('',(-0.0220469978508955,0.01921875,-0.0225549204116651));
#1915=CARTESIAN_POINT('',(0.000901759523258455,0.01921875,-0.045503677785819));
#1916=CARTESIAN_POINT('',(-0.0332691756775815,0.04921875,-0.011969138688047));
#1917=CARTESIAN_POINT('',(-0.0332691756775815,0.04921875,-0.011969138688047));
#1918=CARTESIAN_POINT('',(-0.0257883791418833,0.04921875,-0.0194499352237452));
#1919=CARTESIAN_POINT('',(-0.0223651959024294,0.04921875,-0.022873118463199));
#1920=CARTESIAN_POINT('',(-0.0257883791418833,0.04921875,-0.0194499352237452));
#1921=CARTESIAN_POINT('',(-0.0254701810903493,0.04921875,-0.0191317371722112));
#1922=CARTESIAN_POINT('',(0.00090175952325845,0.04921875,-0.045503677785819));
#1923=CARTESIAN_POINT('',(-0.0220469978508955,0.04921875,-0.0225549204116651));
#1924=CARTESIAN_POINT('',(-0.0223651959024294,0.04921875,-0.022873118463199));
#1925=CARTESIAN_POINT('',(0.000901759523258458,1.39908790853351E-17,-0.045503677785819));
#1926=CARTESIAN_POINT('',(-0.0220469978508955,1.88294171144213E-17,-0.0225549204116651));
#1927=CARTESIAN_POINT('',(-0.0254701810903493,1.9551164353916E-17,-0.0191317371722112));
#1928=CARTESIAN_POINT('',(0.000583561471724511,1.38289114708967E-17,-0.0458218758373529));
#1929=CARTESIAN_POINT('',(-0.0223651959024294,2.06547110431057E-17,-0.022873118463199));
#1930=CARTESIAN_POINT('',(-0.0257883791418833,2.16728909083813E-17,-0.0194499352237452));
#1931=CARTESIAN_POINT('',(-0.0277847393213158,0.04821875,-0.00870973932131577));
#1932=CARTESIAN_POINT('',(-0.0277847393213158,0.04921875,-0.00870973932131576));
#1933=CARTESIAN_POINT('',(-0.0277847393213158,0.04921875,-0.00870973932131576));
#1934=CARTESIAN_POINT('',(-0.0273347393213158,0.04921875,-0.00870973932131575));
#1935=CARTESIAN_POINT('',(-0.0277847393213158,0.04821875,-0.00870973932131577));
#1936=CARTESIAN_POINT('',(-0.0277847393213158,0.04821875,-0.00770973932131576));
#1937=CARTESIAN_POINT('',(-0.0277847393213158,0.04821875,-0.00770973932131576));
#1938=CARTESIAN_POINT('',(-0.0273347393213158,0.04821875,-0.00770973932131575));
#1939=CARTESIAN_POINT('',(-0.0273347393213158,0.04821875,-0.00870973932131577));
#1940=CARTESIAN_POINT('',(-0.0277847393213158,0.03421875,-0.00770973932131574));
#1941=CARTESIAN_POINT('',(-0.0277847393213158,0.03421875,-0.00770973932131574));
#1942=CARTESIAN_POINT('',(-0.0277847393213158,0.02021875,-0.00770973932131574));
#1943=CARTESIAN_POINT('',(-0.0277847393213158,0.02021875,-0.00770973932131574));
#1944=CARTESIAN_POINT('',(-0.0273347393213158,0.02021875,-0.00770973932131574));
#1945=CARTESIAN_POINT('',(-0.0273347393213158,2.30374368450339E-17,-0.00770973932131573));
#1946=CARTESIAN_POINT('',(-0.0277847393213158,0.02021875,-0.00870973932131574));
#1947=CARTESIAN_POINT('',(-0.0277847393213158,0.02021875,-0.00870973932131574));
#1948=CARTESIAN_POINT('',(-0.0277847393213158,0.01921875,-0.00870973932131574));
#1949=CARTESIAN_POINT('',(-0.0277847393213158,0.01921875,-0.00870973932131574));
#1950=CARTESIAN_POINT('',(-0.0273347393213158,0.01921875,-0.00870973932131574));
#1951=CARTESIAN_POINT('',(-0.0273347393213158,0.02021875,-0.00870973932131574));
#1952=CARTESIAN_POINT('',(-0.0277847393213157,0.01921875,-0.0878347393213157));
#1953=CARTESIAN_POINT('',(-0.0277847393213157,0.01921875,-0.0878347393213157));
#1954=CARTESIAN_POINT('',(-0.0277847393213158,0.01921875,-0.0146302954031777));
#1955=CARTESIAN_POINT('',(-0.0277847393213158,0.01921875,-0.0146302954031777));
#1956=CARTESIAN_POINT('',(-0.0273347393213158,0.01921875,-0.0146302954031777));
#1957=CARTESIAN_POINT('',(-0.0273347393213158,0.01921875,-0.0570847393213157));
#1958=CARTESIAN_POINT('',(-0.0277847393213158,0.04921875,-0.00920973932131576));
#1959=CARTESIAN_POINT('',(-0.0277847393213158,0.04921875,-0.00920973932131576));
#1960=CARTESIAN_POINT('',(-0.0277847393213158,0.04921875,-0.0146302954031777));
#1961=CARTESIAN_POINT('',(-0.0273347393213158,0.04921875,-0.0570847393213158));
#1962=CARTESIAN_POINT('',(-0.0273347393213158,0.04921875,-0.0146302954031777));
#1963=CARTESIAN_POINT('',(-0.0277847393213158,0.04921875,-0.0146302954031777));
#1964=CARTESIAN_POINT('',(-0.0273347393213157,-2.09518393734717E-18,-0.0570847393213157));
#1965=CARTESIAN_POINT('',(-0.0273347393213158,1.95147692681501E-17,-0.0146302954031777));
#1966=CARTESIAN_POINT('',(-0.0277847393213157,-2.32424073435115E-18,-0.0570847393213157));
#1967=CARTESIAN_POINT('',(-0.0277847393213158,2.18852974138426E-17,-0.0146302954031777));
#1968=CARTESIAN_POINT('',(-0.0209687393213157,0.01921875,-0.0146302954031777));
#1969=CARTESIAN_POINT('',(-0.0209687393213157,0.01921875,-0.0146302954031777));
#1970=CARTESIAN_POINT('',(-0.0209687393213157,0.01921875,-0.0146302954031777));
#1971=CARTESIAN_POINT('',(-0.0209687393213157,0.04921875,-0.0146302954031777));
#1972=CARTESIAN_POINT('',(-0.0209687393213157,0.04921875,-0.0146302954031777));
#1973=CARTESIAN_POINT('',(-0.0209687393213157,0.04921875,-0.0146302954031777));
#1974=CARTESIAN_POINT('',(-0.0209687393213157,0.04921875,-0.0146302954031777));
#1975=CARTESIAN_POINT('',(-0.0209687393213157,0.04921875,-0.0146302954031777));
#1976=CARTESIAN_POINT('',(-0.017545556081862,0.01921875,-0.0180534786426315));
#1977=CARTESIAN_POINT('',(-0.017545556081862,0.01921875,-0.0180534786426315));
#1978=CARTESIAN_POINT('',(-0.0175455560818619,0.01921875,-0.0180534786426315));
#1979=CARTESIAN_POINT('',(-0.017545556081862,0.04921875,-0.0180534786426315));
#1980=CARTESIAN_POINT('',(-0.017545556081862,0.04921875,-0.0180534786426315));
#1981=CARTESIAN_POINT('',(-0.017545556081862,0.04921875,-0.0180534786426315));
#1982=CARTESIAN_POINT('',(-0.017545556081862,0.04921875,-0.0180534786426315));
#1983=CARTESIAN_POINT('',(-0.017545556081862,0.04921875,-0.0180534786426315));
#1984=CARTESIAN_POINT('',(-0.0127044439181381,0.01921875,-0.0180534786426315));
#1985=CARTESIAN_POINT('',(-0.0127044439181381,0.01921875,-0.0180534786426315));
#1986=CARTESIAN_POINT('',(-0.0127044439181381,0.01921875,-0.0180534786426315));
#1987=CARTESIAN_POINT('',(-0.0127044439181381,0.04921875,-0.0180534786426315));
#1988=CARTESIAN_POINT('',(-0.0127044439181381,0.04921875,-0.0180534786426315));
#1989=CARTESIAN_POINT('',(-0.0127044439181381,0.04921875,-0.0180534786426315));
#1990=CARTESIAN_POINT('',(-0.0127044439181381,0.04921875,-0.0180534786426315));
#1991=CARTESIAN_POINT('',(-0.0127044439181381,0.04921875,-0.0180534786426315));
#1992=CARTESIAN_POINT('',(-0.00928126067868424,0.01921875,-0.0146302954031777));
#1993=CARTESIAN_POINT('',(-0.00928126067868424,0.01921875,-0.0146302954031777));
#1994=CARTESIAN_POINT('',(-0.00928126067868423,0.01921875,-0.0146302954031777));
#1995=CARTESIAN_POINT('',(-0.00928126067868425,0.04921875,-0.0146302954031777));
#1996=CARTESIAN_POINT('',(-0.00928126067868425,0.04921875,-0.0146302954031777));
#1997=CARTESIAN_POINT('',(-0.00928126067868425,0.04921875,-0.0146302954031777));
#1998=CARTESIAN_POINT('',(-0.00928126067868425,0.04921875,-0.0146302954031777));
#1999=CARTESIAN_POINT('',(-0.00928126067868425,0.04921875,-0.0146302954031777));
#2000=CARTESIAN_POINT('',(-0.00928126067868424,0.01921875,-0.00978918323945383));
#2001=CARTESIAN_POINT('',(-0.00928126067868424,0.01921875,-0.00978918323945383));
#2002=CARTESIAN_POINT('',(-0.00928126067868425,0.01921875,-0.00978918323945384));
#2003=CARTESIAN_POINT('',(-0.00928126067868425,0.04921875,-0.00978918323945383));
#2004=CARTESIAN_POINT('',(-0.00928126067868425,0.04921875,-0.00978918323945383));
#2005=CARTESIAN_POINT('',(-0.00928126067868425,0.04921875,-0.00978918323945382));
#2006=CARTESIAN_POINT('',(-0.00928126067868425,0.04921875,-0.00978918323945382));
#2007=CARTESIAN_POINT('',(-0.00928126067868425,0.04921875,-0.00978918323945382));
#2008=CARTESIAN_POINT('',(-0.0127044439181381,0.01921875,-0.006366));
#2009=CARTESIAN_POINT('',(-0.0127044439181381,0.01921875,-0.006366));
#2010=CARTESIAN_POINT('',(-0.0127044439181381,0.01921875,-0.006366));
#2011=CARTESIAN_POINT('',(-0.0127044439181381,0.04921875,-0.006366));
#2012=CARTESIAN_POINT('',(-0.0127044439181381,0.04921875,-0.006366));
#2013=CARTESIAN_POINT('',(-0.0127044439181381,0.04921875,-0.006366));
#2014=CARTESIAN_POINT('',(-0.0127044439181381,0.04921875,-0.006366));
#2015=CARTESIAN_POINT('',(-0.0127044439181381,0.04921875,-0.006366));
#2016=MECHANICAL_DESIGN_GEOMETRIC_PRESENTATION_REPRESENTATION('',(#1171),
#2017);
#2017=(
GEOMETRIC_REPRESENTATION_CONTEXT(3)
GLOBAL_UNCERTAINTY_ASSIGNED_CONTEXT((#2018))
GLOBAL_UNIT_ASSIGNED_CONTEXT((#2021,#2020,#2019))
REPRESENTATION_CONTEXT('Flex_PCB_Bent','TOP_LEVEL_ASSEMBLY_PART')
);
#2018=UNCERTAINTY_MEASURE_WITH_UNIT(LENGTH_MEASURE(2.E-5),#2021,
'DISTANCE_ACCURACY_VALUE','Maximum Tolerance applied to model');
#2019=(
NAMED_UNIT(*)
SI_UNIT($,.STERADIAN.)
SOLID_ANGLE_UNIT()
);
#2020=(
NAMED_UNIT(*)
PLANE_ANGLE_UNIT()
SI_UNIT($,.RADIAN.)
);
#2021=(
LENGTH_UNIT()
NAMED_UNIT(*)
SI_UNIT($,.METRE.)
);
#2022=PRODUCT_DEFINITION_SHAPE('','',#2023);
#2023=PRODUCT_DEFINITION('','',#2025,#2024);
#2024=PRODUCT_DEFINITION_CONTEXT('',#2031,'design');
#2025=PRODUCT_DEFINITION_FORMATION_WITH_SPECIFIED_SOURCE('','',#2027,
 .NOT_KNOWN.);
#2026=PRODUCT_RELATED_PRODUCT_CATEGORY('','',(#2027));
#2027=PRODUCT('Flex_PCB_Bent','Flex_PCB_Bent','Flex_PCB_Bent',(#2029));
#2028=PRODUCT_CATEGORY('','');
#2029=PRODUCT_CONTEXT('',#2031,'mechanical');
#2030=APPLICATION_PROTOCOL_DEFINITION('international standard',
'ap242_managed_model_based_3d_engineering',2020,#2031);
#2031=APPLICATION_CONTEXT('managed model based 3d engineering');
ENDSEC;
END-ISO-10303-21;
